<svg version="1.1" xmlns="http://www.w3.org/2000/svg" xmlns:xlink="http://www.w3.org/1999/xlink" width="21.37564" height="39.53492" viewBox="0,0,21.37564,39.53492"><g transform="translate(-225.60384,-150.42756)"><g data-paper-data="{&quot;isPaintingLayer&quot;:true}" fill-rule="nonzero" stroke-linecap="butt" stroke-linejoin="miter" stroke-miterlimit="10" stroke-dasharray="" stroke-dashoffset="0" style="mix-blend-mode: normal"><path d="M232.9147,168.01682l-0.0121,4.2208c-0.10364,-0.05865 -0.21167,-0.10933 -0.32321,-0.15161l0.01211,-4.22081c0.11407,0.0443 0.22298,0.09369 0.32321,0.15161" fill="#dfeefe" stroke="none" stroke-width="1"/><path d="M232.59149,167.86519l-0.01211,4.22081c-0.08942,-0.03467 -0.18054,-0.0648 -0.27309,-0.09026l0.0121,-4.2208c0.09506,0.02554 0.18492,0.05621 0.27308,0.09026M232.31841,167.77324l-0.01211,4.2208c-0.07748,-0.02214 -0.15589,-0.04088 -0.23508,-0.05621l0.0121,-4.22081c0.07951,0.01531 0.15904,0.03576 0.23508,0.05622M232.08331,167.71702l-0.01211,4.22081c-0.07455,-0.01485 -0.14947,-0.02792 -0.2247,-0.03917l0.0121,-4.2208c0.07603,0.01023 0.15037,0.02385 0.2247,0.03917" fill="#dfeefe" stroke="none" stroke-width="1"/><path d="M231.85865,167.67783l-0.01211,4.22081c-0.07343,-0.01057 -0.14723,-0.0185 -0.22123,-0.02384l0.0121,-4.2208c0.07433,0.0051 0.14692,0.01362 0.22124,0.02384" fill="#dfeefe" stroke="none" stroke-width="1"/><path d="M231.63739,167.654l-0.01211,4.2208c-0.07474,-0.00659 -0.1497,-0.01054 -0.22471,-0.01191l0.01211,-4.22082c0.07603,0.00169 0.15037,0.0051 0.22471,0.01194M231.41268,167.64208l-0.01211,4.22082c-0.07779,-0.002 -0.15561,-0.00141 -0.23334,0.00169l0.01211,-4.22081c0.0778,-0.0034 0.15552,-0.0034 0.23332,-0.00171" fill="#dfeefe" stroke="none" stroke-width="1"/><path d="M231.17938,167.64378l-0.0121,4.22081c-0.08426,0.00308 -0.16843,0.00877 -0.25235,0.01702l0.0121,-4.2208c0.08387,-0.00902 0.16804,-0.01469 0.25235,-0.01703M230.92703,167.65908l-0.0121,4.22081c-0.09666,0.00959 -0.19294,0.02267 -0.28864,0.03917l0.0121,-4.2208c0.09506,-0.01531 0.19184,-0.02896 0.28862,-0.03917" fill="#dfeefe" stroke="none" stroke-width="1"/><path d="M230.63839,167.69998l-0.0121,4.2208c-0.14469,0.02514 -0.28734,0.0604 -0.42691,0.1056l0.01211,-4.2208c0.13654,-0.0443 0.28002,-0.08007 0.42691,-0.10563M230.21145,167.80388l-0.01211,4.2208c-0.17082,0.05362 -0.33536,0.12498 -0.49086,0.21293l0.0121,-4.22081c0.14864,-0.08515 0.31457,-0.1567 0.49086,-0.21292" fill="#dfeefe" stroke="none" stroke-width="1"/><path d="M236.20601,175.02707h3.91486v4.2524h-3.91486z" fill="#ffffff" stroke="none" stroke-width="1"/><path d="M236.89822,161.90695l9.91296,1.63658l-0.2338,26.2553h-20.52729l-0.2338,-25.43702l11.08195,-2.45485" fill="#ff9999" stroke="none" stroke-width="1"/><path d="M227.80355,165.06319l-0.2338,-3.03935l9.44536,-2.33795l8.74397,1.51967l0.1169,2.45485" fill="#ff9999" stroke="none" stroke-width="1"/><path d="M228.73874,162.25764l0.46759,-3.03936l7.69189,-1.63656l6.99051,1.63656l0.4676,1.87037" fill="#ff9999" stroke="none" stroke-width="1"/><path d="M238.0672,158.86759l0.4676,-8.34652l2.54837,0.74813l1.07547,7.94907" fill="#ff8686" stroke="none" stroke-width="1"/><path d="M230.3753,159.56898l1.4963,-7.69189l6.33588,-1.40278l-0.14028,7.8088" fill="#ff9999" stroke="none" stroke-width="1"/><path d="M237.90355,157.9324c0,0 0.32731,-5.61112 0.51435,-7.38796" fill="none" stroke="#f58282" stroke-width="2.2329"/><path d="M236.78132,161.93033l0.1169,-0.02338l9.91296,1.63658l-0.2338,26.41896h-9.79606v-28.03215" fill="#ff8686" stroke="none" stroke-width="1"/><g fill="#ff8686" stroke="none" stroke-width="1"><path d="M245.75909,161.20556l0.1169,2.45485l-9.09467,0.70139v-2.71203l7.575,-0.56111l-0.02337,-0.1169l1.42614,0.2338"/><path d="M244.33294,160.97176l0.02337,0.1169l-7.575,0.56111v-4.02131l0.1169,-0.04674l6.99051,1.63656l0.44422,1.75347"/></g><path d="M225.76952,164.3618l11.05857,-2.52499l10.02986,1.65996" fill="none" stroke="#f58282" stroke-width="1.4886"/><path d="M227.45285,161.97708c1.94051,-0.46759 9.21157,-2.52499 9.21157,-2.52499l9.09467,1.75346" fill="none" stroke="#f58282" stroke-width="1.4886"/><path d="M229.15957,159.3352c1.54305,-0.32732 7.55163,-1.8236 7.55163,-1.8236l7.20091,1.56642" fill="none" stroke="#f58282" stroke-width="1.4886"/><path d="M233.4848,153.23311l-0.56111,3.203" fill="none" stroke="#f58282" stroke-width="1.4886"/><path d="M235.96303,152.92917l-0.53773,3.17963" fill="none" stroke="#f58282" stroke-width="1.4886"/><path d="M240.40516,152.39144l0.07014,4.18495" fill="none" stroke="#f58282" stroke-width="1.4886"/><path d="M237.43595,168.94421l1.09884,0.1169l8.08935,0.88841" fill="none" stroke="#ff9999" stroke-width="2.2332"/><path d="M239.07252,189.96248v-20.85461" fill="none" stroke="#ff9999" stroke-width="2.2332"/><path d="M241.80794,189.96248v-20.55067" fill="none" stroke="#ff9999" stroke-width="2.2332"/><path d="M244.51997,189.96248v-20.38702" fill="none" stroke="#ff9999" stroke-width="2.2332"/><path d="M228.69773,165.6836h1.19235v3.1095h-1.19235z" fill="#ffffff" stroke="none" stroke-width="1"/><path d="M232.31581,165.06319h1.19237v3.1095h-1.19237z" fill="#ffffff" stroke="none" stroke-width="1"/><path d="M228.69773,181.02064h1.19235v3.1095h-1.19235z" fill="#ffffff" stroke="none" stroke-width="1"/><path d="M232.31581,180.37685h1.19237v3.1095h-1.19237z" fill="#ffffff" stroke="none" stroke-width="1"/><path d="M229.72164,172.96647h1.19237v3.10948h-1.19237z" fill="#ffffff" stroke="none" stroke-width="1"/><path d="M234.32647,172.14721h1.19235v3.1095h-1.19235z" fill="#ffffff" stroke="none" stroke-width="1"/><path d="M229.67391,187.85832h1.19237v1.96389h-1.19237z" fill="#ffffff" stroke="none" stroke-width="1"/><path d="M234.32647,187.06341h1.19235v2.73541h-1.19235z" fill="#ffffff" stroke="none" stroke-width="1"/></g></g></svg>