<svg version="1.1" xmlns="http://www.w3.org/2000/svg" xmlns:xlink="http://www.w3.org/1999/xlink" width="12.55857" height="15.28496" viewBox="0,0,12.55857,15.28496"><g transform="translate(-234.28884,-173.20654)"><g data-paper-data="{&quot;isPaintingLayer&quot;:true}" fill-rule="nonzero" stroke-linejoin="miter" stroke-miterlimit="10" stroke-dasharray="" stroke-dashoffset="0" style="mix-blend-mode: normal"><path d="M244.60382,174.58271v10.31483c0,0.6209 -0.50483,1.12596 -1.12617,1.12596h-7.81285c-0.62069,0 -1.12596,-0.50505 -1.12596,-1.12596v-10.31505c0,-0.6209 0.50527,-1.12596 1.12596,-1.12596h7.81285c0.62134,0 1.12617,0.50527 1.12617,1.12617z" fill="#fffeb0" stroke="#e4e29e" stroke-width="0.5" stroke-linecap="butt"/><text transform="translate(236.3146,180.76242) scale(0.07703,0.07703)" font-size="40" xml:space="preserve" fill="#a19f6f" fill-rule="nonzero" stroke="none" stroke-width="1" stroke-linecap="butt" stroke-linejoin="miter" stroke-miterlimit="10" stroke-dasharray="" stroke-dashoffset="0" font-family="Sans Serif" font-weight="normal" text-anchor="start" style="mix-blend-mode: normal"><tspan x="0" dy="0">Card</tspan></text><g fill="none" stroke="#d40000" stroke-width="0.75"><path d="M240.13734,184.94897c0,-1.74938 1.41815,-3.16753 3.16753,-3.16753c1.74938,0 3.16753,1.41815 3.16753,3.16753c0,1.74938 -1.41815,3.16753 -3.16753,3.16753c-1.74938,0 -3.16753,-1.41815 -3.16753,-3.16753z" stroke-linecap="butt"/><path d="M241.19318,187.40735l4.52279,-4.52279" stroke-linecap="round"/></g></g></g></svg>