<svg version="1.1" xmlns="http://www.w3.org/2000/svg" xmlns:xlink="http://www.w3.org/1999/xlink" width="722.77248" height="389.39521" viewBox="0,0,722.77248,389.39521"><g transform="translate(28.33489,5.28132)"><g data-paper-data="{&quot;isPaintingLayer&quot;:true}" fill-rule="nonzero" stroke="none" stroke-linecap="butt" stroke-linejoin="miter" stroke-miterlimit="10" stroke-dasharray="" stroke-dashoffset="0" style="mix-blend-mode: normal"><path d="M659.08415,-3.93889v381.38139h-666.66667v-381.38139z" fill="#66bfff" stroke-width="0"/><path d="M15.56753,382.10607v-387.38738h41.18099v387.38739z" fill="#4db5ff" stroke-width="0"/><path d="M97.97669,382.36674v-387.38739h41.18099v387.38739z" fill="#4db5ff" stroke-width="0"/><path d="M180.91508,382.36674v-387.38739h41.18099v387.38739z" fill="#4db5ff" stroke-width="0"/><path d="M263.32423,382.62739v-387.38738h41.18099v387.38739z" fill="#4db5ff" stroke-width="0"/><path d="M348.07725,382.86223v-387.38738h41.18099v387.38739z" fill="#4db5ff" stroke-width="0"/><path d="M430.48642,383.1229v-387.38738h41.18099v387.38739z" fill="#4db5ff" stroke-width="0"/><path d="M595.14107,384.11389v-387.38738h41.18099v387.38739z" fill="#4db5ff" stroke-width="0"/><path d="M513.01961,382.11689v-387.38738h41.18099v387.38739z" fill="#4db5ff" stroke-width="0"/><path d="M9.10573,36.44138h645.42552v41.18099h-645.42551z" fill="#66bfff" stroke-width="0"/><path d="M8.78863,118.85058h645.42552v41.18099h-645.42551z" fill="#66bfff" stroke-width="0"/><path d="M8.78863,201.78897h636.41651v41.181h-636.4165z" fill="#66bfff" stroke-width="0"/><path d="M8.47153,284.1981h685.96606v41.18099h-685.96605z" fill="#66bfff" stroke-width="0"/><path d="M55.6188,78.42894v-41.80064h42.87245v41.80064z" fill="#4db5ff" stroke-width="0"/><path d="M-27.80564,77.53396v-41.80064h42.87246v41.80064z" fill="#4db5ff" stroke-width="0"/><path d="M222.46231,77.53396v-41.80064h42.87245v41.80064z" fill="#4db5ff" stroke-width="0"/><path d="M139.03788,76.63898v-41.80064h42.87246v41.80064z" fill="#4db5ff" stroke-width="0"/><path d="M388.59976,79.37441v-41.80064h42.87245v41.80064z" fill="#4db5ff" stroke-width="0"/><path d="M305.17532,78.47946v-41.80065h42.87245v41.80065z" fill="#4db5ff" stroke-width="0"/><path d="M470.17634,78.36841v-41.80064h42.87246v41.80064z" fill="#4db5ff" stroke-width="0"/><path d="M55.08957,161.62799v-41.80064h42.87246v41.80064z" fill="#4db5ff" stroke-width="0"/><path d="M-28.33488,160.73302v-41.80064h42.87246v41.80064z" fill="#4db5ff" stroke-width="0"/><path d="M221.93309,160.73302v-41.80064h42.87245v41.80064z" fill="#4db5ff" stroke-width="0"/><path d="M138.50863,159.83805v-41.80064h42.87246v41.80064z" fill="#4db5ff" stroke-width="0"/><path d="M388.07053,162.57346v-41.80065h42.87246v41.80065z" fill="#4db5ff" stroke-width="0"/><path d="M304.64605,161.67849v-41.80064h42.87246v41.80064z" fill="#4db5ff" stroke-width="0"/><path d="M469.64709,161.56746v-41.80065h42.87246v41.80065z" fill="#4db5ff" stroke-width="0"/><path d="M56.14011,245.61694v-41.80065h42.87246v41.80065z" fill="#4db5ff" stroke-width="0"/><path d="M-27.28431,244.72198v-41.80065h42.87246v41.80065z" fill="#4db5ff" stroke-width="0"/><path d="M222.98363,244.72198v-41.80065h42.87246v41.80065z" fill="#4db5ff" stroke-width="0"/><path d="M139.55919,243.82702v-41.80065h42.87246v41.80065z" fill="#4db5ff" stroke-width="0"/><path d="M389.12109,246.56242v-41.80065h42.87246v41.80065z" fill="#4db5ff" stroke-width="0"/><path d="M305.69662,245.66746v-41.80065h42.87246v41.80065z" fill="#4db5ff" stroke-width="0"/><path d="M470.69766,245.55642v-41.80065h42.87245v41.80065z" fill="#4db5ff" stroke-width="0"/><path d="M55.6109,327.2362v-41.80064h42.87246v41.80064z" fill="#4db5ff" stroke-width="0"/><path d="M-27.81355,326.34123v-41.80064h42.87246v41.80064z" fill="#4db5ff" stroke-width="0"/><path d="M222.45441,326.34123v-41.80064h42.87246v41.80064z" fill="#4db5ff" stroke-width="0"/><path d="M139.02994,325.44626v-41.80065h42.87246v41.80065z" fill="#4db5ff" stroke-width="0"/><path d="M388.59184,328.18167v-41.80065h42.87246v41.80065z" fill="#4db5ff" stroke-width="0"/><path d="M305.16742,327.2867v-41.80064h42.87246v41.80064z" fill="#4db5ff" stroke-width="0"/><path d="M470.16844,327.17568v-41.80064h42.87245v41.80064z" fill="#4db5ff" stroke-width="0"/><text transform="translate(1.74543,355.51669) scale(0.25938,0.25938)" font-size="40" xml:space="preserve" fill="#000000" fill-rule="nonzero" stroke="none" stroke-width="1" stroke-linecap="butt" stroke-linejoin="miter" stroke-miterlimit="10" stroke-dasharray="" stroke-dashoffset="0" font-family="Sans Serif" font-weight="normal" text-anchor="start" style="mix-blend-mode: normal"><tspan x="0" dy="0">V3.0.0  16:9 Version</tspan></text><text transform="translate(0.85047,371.77071) scale(0.25938,0.25938)" font-size="40" xml:space="preserve" fill="#000000" fill-rule="nonzero" stroke="none" stroke-width="1" stroke-linecap="butt" stroke-linejoin="miter" stroke-miterlimit="10" stroke-dasharray="" stroke-dashoffset="0" font-family="Sans Serif" font-weight="normal" text-anchor="start" style="mix-blend-mode: normal"><tspan x="0" dy="0">©Dannr</tspan></text><path d="M554.07379,77.3624v-41.80064h42.87246v41.80064z" fill="#4db5ff" stroke-width="0"/><path d="M553.54454,160.56145v-41.80065h42.87246v41.80065z" fill="#4db5ff" stroke-width="0"/><path d="M554.59511,244.55041v-41.80065h42.87245v41.80065z" fill="#4db5ff" stroke-width="0"/><path d="M554.06589,326.16967v-41.80064h42.87245v41.80064z" fill="#4db5ff" stroke-width="0"/><path d="M634.83099,79.3594v-41.80064h42.87246v41.80064z" fill="#4db5ff" stroke-width="0"/><path d="M634.30174,162.55845v-41.80065h42.87246v41.80065z" fill="#4db5ff" stroke-width="0"/><path d="M635.35231,246.54741v-41.80065h42.87245v41.80065z" fill="#4db5ff" stroke-width="0"/><path d="M634.82309,328.16667v-41.80064h42.87245v41.80064z" fill="#4db5ff" stroke-width="0"/></g></g></svg>