<svg version="1.1" xmlns="http://www.w3.org/2000/svg" xmlns:xlink="http://www.w3.org/1999/xlink" width="33.9426" height="33.94262" viewBox="0,0,33.9426,33.94262"><g transform="translate(-67.81714,-108.21853)"><g data-paper-data="{&quot;isPaintingLayer&quot;:true}" fill-rule="nonzero" stroke-linecap="butt" stroke-linejoin="miter" stroke-miterlimit="10" stroke-dasharray="" stroke-dashoffset="0" style="mix-blend-mode: normal"><path d="M68.56714,125.18983c0,-8.95878 7.26252,-16.2213 16.2213,-16.2213c8.95878,0 16.2213,7.26252 16.2213,16.2213c0,8.95878 -7.26252,16.22132 -16.2213,16.22132c-8.95878,0 -16.2213,-7.26254 -16.2213,-16.22132z" fill="#fcdab3" stroke="#cdac86" stroke-width="1.5"/><g stroke="none"><path d="M94.09777,118.71074c0.97799,0.55014 1.77264,1.95603 1.77264,3.05629v8.0686c0,1.10028 -0.79463,2.50616 -1.77264,3.0563l-7.02945,4.0343c-0.978,0.55014 -2.56728,0.55014 -3.54529,0l-7.02947,-4.0343c-0.97799,-0.55014 -1.77265,-1.95604 -1.77265,-3.0563v-8.0686c0,-1.10028 0.79464,-2.50615 1.77265,-3.05629l7.02947,-4.0343c0.978,-0.55014 2.56728,-0.55014 3.54529,0c0,0 6.96833,4.0343 7.02945,4.0343z" fill="#dfded0" stroke-width="1"/><path d="M85.29567,137.65972c-0.73351,0 -1.4059,-0.18337 -1.89491,-0.42787l-7.02945,-4.0343c-1.03914,-0.61124 -1.89489,-2.07827 -1.89489,-3.30078v-8.0686c0,-1.22251 0.85576,-2.68953 1.89489,-3.3008l7.02945,-4.03429c1.03914,-0.61124 2.75067,-0.61124 3.78979,0l7.02945,4.03429c1.03914,0.61124 1.89491,2.07828 1.89491,3.3008v8.0686c0,1.22251 -0.85576,2.68953 -1.89491,3.30078l-7.02945,4.0343c-0.48901,0.30564 -1.22253,0.42787 -1.89491,0.42787zM85.29567,114.49307c-0.61124,0 -1.22252,0.12225 -1.65041,0.36675l-7.02947,4.03432c-0.9169,0.48901 -1.65041,1.83376 -1.65041,2.8729v8.06861c0,1.03913 0.73351,2.32277 1.65041,2.8729l7.02947,4.0343c0.85576,0.48901 2.44505,0.48901 3.30081,0l7.02945,-4.0343c0.9169,-0.48901 1.65041,-1.83377 1.65041,-2.8729v-8.06861c0,-1.03913 -0.73351,-2.32276 -1.65041,-2.8729l-7.02945,-4.03432c-0.42787,-0.24452 -1.03915,-0.36675 -1.65041,-0.36675z" fill="#dfded0" stroke-width="1"/><path d="M85.35678,124.77402c-0.55013,0 -1.10024,-0.12225 -1.52813,-0.36675l-7.02947,-4.0343c-0.30564,-0.18338 -0.48901,-0.36675 -0.48901,-0.55014c0,-0.18338 0.18337,-0.42787 0.48901,-0.55013l7.02947,-4.0343c0.36675,-0.24452 0.91689,-0.36677 1.52813,-0.36677c0.61124,0 1.10027,0.12225 1.52814,0.36677l7.02945,4.0343c0.30564,0.18338 0.48902,0.36674 0.48902,0.55013c0,0.18338 -0.18339,0.42788 -0.48902,0.55014l-7.02945,4.0343c-0.42787,0.24452 -0.97801,0.36675 -1.52814,0.36675zM84.25652,136.8158c-0.18337,0 -0.36674,-0.06114 -0.55013,-0.18338l-7.02947,-4.0343c-0.79463,-0.48901 -1.52814,-1.65038 -1.52814,-2.6284v-8.06861c0,-0.24452 0.06112,-0.73352 0.48901,-0.73352c0.18337,0 0.36675,0.06114 0.55014,0.18337l7.02946,4.0343c0.79463,0.48901 1.52813,1.65038 1.52813,2.62841v8.00748c0,0.24452 -0.06113,0.48901 -0.18337,0.61126c-0.06114,0.12225 -0.12225,0.18337 -0.30564,0.18337zM86.3348,136.8158c-0.42787,0 -0.48902,-0.55014 -0.48902,-0.73351v-8.0686c0,-0.97799 0.67239,-2.13941 1.52815,-2.6284l7.02947,-4.03432c0.18337,-0.12225 0.36674,-0.18337 0.55013,-0.18337c0.42787,0 0.48901,0.55013 0.48901,0.73352v8.06859c0,0.97799 -0.67237,2.13941 -1.52813,2.62841l-7.02947,4.0343c-0.24452,0.12225 -0.42787,0.18337 -0.55014,0.18337z" fill="#ffffff" stroke-width="1"/><path d="M78.70981,130.33419c0,0.57438 -0.40095,1.04003 -0.89557,1.04003c-0.49459,0 -0.89558,-0.46562 -0.89558,-1.04003c0,-0.57438 0.40096,-1.04001 0.89558,-1.04001c0.49459,0 0.89557,0.46563 0.89557,1.04001z" fill="#3d3d3d" stroke-width="0"/><path d="M83.10097,127.79198c0,0.57438 -0.40094,1.04 -0.89556,1.04c-0.49459,0 -0.89556,-0.46562 -0.89556,-1.04c0,-0.57438 0.40094,-1.04001 0.89556,-1.04001c0.49459,0 0.89556,0.46562 0.89556,1.04001z" fill="#3d3d3d" stroke-width="0"/><path d="M80.84185,118.37412c0.49459,0 0.89556,0.46562 0.89556,1.04001c0,0.57438 -0.40094,1.04002 -0.89556,1.04002c-0.49459,0 -0.89556,-0.46562 -0.89556,-1.04002c0,-0.57438 0.40095,-1.04001 0.89556,-1.04001z" data-paper-data="{&quot;index&quot;:null}" fill="#c30d23" stroke-width="0"/><path d="M89.36992,118.39721c0.49459,0 0.89558,0.46562 0.89558,1.04c0,0.57438 -0.40096,1.04001 -0.89558,1.04001c-0.49459,0 -0.89557,-0.46562 -0.89557,-1.04001c0,-0.57438 0.40095,-1.04 0.89557,-1.04z" data-paper-data="{&quot;index&quot;:null}" fill="#c30d23" stroke-width="0"/><path d="M85.13477,122.74793c-0.49459,0 -0.89556,-0.46561 -0.89556,-1.04002c0,-0.57438 0.40094,-1.04001 0.89556,-1.04001c0.49459,0 0.89557,0.46562 0.89557,1.04001c0,0.57438 -0.40097,1.04002 -0.89557,1.04002z" data-paper-data="{&quot;index&quot;:null}" fill="#c30d23" stroke-width="0"/><path d="M85.15787,118.091c-0.49459,0 -0.89556,-0.46562 -0.89556,-1.04001c0,-0.57438 0.40095,-1.04001 0.89556,-1.04001c0.49459,0 0.89557,0.46562 0.89557,1.04001c0,0.57438 -0.40096,1.04001 -0.89557,1.04001z" data-paper-data="{&quot;index&quot;:null}" fill="#c30d23" stroke-width="0"/><path d="M91.81972,129.11511c0,0.57438 -0.40097,1.04001 -0.89558,1.04001c-0.49459,0 -0.89557,-0.46562 -0.89557,-1.04001c0,-0.57438 0.40097,-1.04003 0.89557,-1.04003c0.49459,0 0.89558,0.46562 0.89558,1.04003z" fill="#c30d23" stroke-width="0"/></g></g></g></svg>