<svg version="1.1" xmlns="http://www.w3.org/2000/svg" xmlns:xlink="http://www.w3.org/1999/xlink" width="56.53934" height="110.38947" viewBox="0,0,56.53934,110.38947"><defs><linearGradient x1="234.87119" y1="165.73622" x2="233.31001" y2="165.73622" gradientUnits="userSpaceOnUse" id="color-1"><stop offset="0" stop-color="#000000"/><stop offset="1" stop-color="#0a0a0a"/></linearGradient><linearGradient x1="245.2446" y1="165.81129" x2="246.80579" y2="165.81129" gradientUnits="userSpaceOnUse" id="color-2"><stop offset="0" stop-color="#000000"/><stop offset="1" stop-color="#0a0a0a"/></linearGradient><linearGradient x1="240.13295" y1="172.9871" x2="240.13295" y2="174.54828" gradientUnits="userSpaceOnUse" id="color-3"><stop offset="0" stop-color="#000000"/><stop offset="1" stop-color="#0a0a0a"/></linearGradient></defs><g transform="translate(-212.55236,-126.44936)"><g data-paper-data="{&quot;isPaintingLayer&quot;:true}" fill-rule="nonzero" stroke-linejoin="miter" stroke-miterlimit="10" stroke-dasharray="" stroke-dashoffset="0" style="mix-blend-mode: normal"><path d="M251.21082,233.48977c0,1.43542 -1.50421,2.59907 -3.35976,2.59907c-1.85553,0 -6.0222,-0.27618 -6.0222,-1.7116c0,-1.43542 4.16667,-3.48652 6.0222,-3.48652c1.85553,0 3.35976,1.16365 3.35976,2.59905z" fill="#727272" stroke="#000000" stroke-width="1.5" stroke-linecap="butt"/><path d="M237.64503,233.48977c0,1.43542 -1.50421,2.59907 -3.35976,2.59907c-1.85553,0 -6.0222,-0.27618 -6.0222,-1.7116c0,-1.43542 4.16667,-3.48652 6.0222,-3.48652c1.85553,0 3.35976,1.16365 3.35976,2.59905z" fill="#727272" stroke="#000000" stroke-width="1.5" stroke-linecap="butt"/><path d="M231.56248,183.19099l-1.82032,8.16286l-5.17346,13.17738l-5.84001,-3.1917c0,0 3.78281,-11.53029 6.07799,-14.69134c1.3243,-1.82389 6.7558,-3.4572 6.7558,-3.4572z" fill="#ffffff" stroke="#000000" stroke-width="1.5" stroke-linecap="butt"/><path d="M224.5171,204.45943l-1.23377,3.16047l0.78512,0.9218l-0.8973,1.71192c0,0 -1.57587,0.74604 -2.57975,0.52675c-1.00389,-0.21929 -1.57595,-0.74272 -2.24327,-1.58024c-0.66734,-0.83752 -0.95829,-1.45035 -1.00948,-2.50203c-0.05118,-1.05168 0.78513,-2.10698 0.78513,-2.10698l0.74495,-3.28602z" data-paper-data="{&quot;index&quot;:null}" fill="#fed497" stroke="#000000" stroke-width="1.5" stroke-linecap="round"/><path d="M253.75435,157.76138c0.25282,1.51285 3.49187,4.28738 6.0348,6.76967c2.61034,2.5481 5.84132,5.04791 5.19173,6.76395c-1.31829,3.48262 -8.02126,5.59941 -10.68321,5.80934c-2.46263,0.19421 -5.65697,3.23579 -6.97547,4.06878c-1.96496,1.24142 -1.83227,-2.42525 -6.72625,-2.42525c-2.03462,0 -3.51274,3.58529 -5.36151,2.08175c-3.06925,-2.49612 -3.45577,-1.81979 -7.83205,-2.87253c-2.92825,-0.7044 -8.0442,-2.90495 -10.51298,-4.32976c-4.6764,-2.6989 6.30364,-9.96569 8.13093,-16.02552c0.39458,-1.30851 2.22054,-3.87914 3.60852,-6.61485c2.00593,-3.95369 5.12288,-7.36763 10.74308,-7.32253c3.77396,0.03029 6.86916,1.21446 9.48915,4.72495c3.42251,4.58574 4.53716,8.47222 4.89326,9.372z" fill="#4c4c4c" stroke="#000000" stroke-width="1.5" stroke-linecap="butt"/><g stroke-width="1.5"><g stroke="#000000" stroke-linecap="butt"><path d="M259.05157,155.86401c0,0.81314 -1.64348,4.12533 -1.83759,5.59304c-0.17915,1.35453 1.07257,0.88805 1.45399,1.20926c2.64796,2.22998 1.01303,5.28609 -3.56438,5.91828c-1.85758,2.32069 -4.16229,5.43869 -5.97373,7.05246c-1.03119,0.91867 -1.41291,1.65702 -3.13796,2.24694c-0.42567,0.14557 1.16737,4.47327 0.62983,4.93654c-1.82427,1.5722 -12.07172,0.54109 -12.70124,0.54109c-0.55302,0 1.84977,-5.09596 0.55666,-5.46601c-2.04942,-0.58648 -1.85391,-1.0377 -2.99932,-1.91914c-2.00807,-1.54531 -4.85935,-3.46578 -5.90295,-6.37305c-0.02642,-1.98227 -4.87396,0.35061 -5.92094,-4.59049c-0.12939,-0.61062 -0.33965,-2.11956 0.62471,-2.86036c0.73729,-0.56636 2.83687,0.28572 2.89703,-0.10682c0.17795,-1.16101 -2.0291,-5.3794 -2.0291,-6.18172c0,-12.76485 7.76271,-19.74058 18.2299,-19.74058c10.46718,0 19.67514,6.97574 19.67514,19.74058z" fill="#ffce91"/><path d="M236.38413,153.28811c-0.00151,0.00034 -0.80333,2.0214 -2.08647,3.55089c-1.65265,1.96995 -3.8849,3.56212 -3.9317,3.57603c-1.51496,0.44999 2.74099,-2.73799 1.96235,-3.01504c-0.49416,-0.17583 -3.92099,2.34086 -5.85307,3.41817c-0.02662,0.01486 -2.70271,0.5125 -3.23146,0.54011c-0.1111,0.00579 -1.84825,-4.20787 -2.50913,-6.3822c-0.98191,-3.23059 -0.15352,-5.9352 1.80498,-9.22885c1.9001,-2.69881 7.28716,-10.10757 16.51311,-9.89863c9.22594,0.20894 13.83764,2.75084 18.08847,9.51227c3.8924,6.19131 1.17977,14.84422 0.78587,14.99721c-1.25487,-0.21517 -2.28166,-0.21026 -3.39624,-0.13593c-0.87985,0.05868 -1.87699,0.22317 -2.65129,-0.07613c-1.17093,0.01136 -2.11318,-0.02639 -2.8014,-0.26498c-0.53786,-0.18645 -0.89904,-0.60328 -1.23502,-0.50506c0,0 -1.30498,-0.12316 -1.96379,-0.90474c-0.74554,-0.88445 -1.19769,-2.21978 -1.3896,-2.24181c-0.0516,-0.00592 -0.95058,1.39642 -0.87918,2.23878c0.07484,0.88289 0.82984,1.80865 0.14783,1.43694c-0.60137,-0.32777 -1.09341,-0.68061 -1.54954,-1.27063c-0.74857,-0.96832 -1.30664,-2.20045 -1.39873,-2.23347c-1.82394,-0.65444 0.54479,3.49497 -0.78813,3.60294c0,0 -1.5179,-0.72413 -2.11093,-1.81791c-0.06988,-0.37988 -0.86735,-0.77787 -1.11715,-1.85014c-0.28763,-1.23466 -0.04752,-3.12887 -0.40978,-3.04781z" fill="#232323"/></g><path d="M234.09061,163.97232v3.52784" fill="none" stroke="url(#color-1)" stroke-linecap="round"/><path d="M246.0252,163.97232v3.67796" fill="none" stroke="url(#color-2)" stroke-linecap="round"/><path d="M242.08454,173.76769c0,0 -1.23719,0.59716 -1.88771,0.59716c-0.65052,0 -2.01544,-0.59716 -2.01544,-0.59716" fill="none" stroke="url(#color-3)" stroke-linecap="round"/></g><path d="M268.25188,166.76519c0.74993,4.93637 -3.41061,5.72322 -4.52233,6.09253c-0.47602,0.15814 2.79324,-1.02317 2.22347,-2.05809c-1.27645,-2.31851 -7.15116,-6.70604 -11.46203,-11.3098c-0.63068,-1.77257 -0.4925,-0.95109 -2.08798,-4.91077c-4.7651,-11.82614 -11.60618,-10.7884 -13.60745,-10.71329c-3.67059,-0.08141 -6.88262,0.54132 -11.22144,9.79154c-0.70848,1.51047 -1.77043,3.32668 -2.49338,5.09862c-1.12197,5.74665 -12.12371,12.27787 -8.16482,14.70967c1.01948,1.27278 -3.88423,-2.58305 -3.60179,-5.14153c0.23375,-2.11726 3.03757,-7.719 5.08536,-14.28036c2.32758,-7.45779 4.80427,-14.27669 5.62066,-17.17743c0.74912,-2.66172 5.07079,-9.64291 15.60143,-9.66691c11.46014,-0.02611 14.26824,6.62605 14.85716,8.48199c1.75119,3.18082 5.86411,13.93075 6.89883,16.16367c1.4703,4.92128 5.927,8.68474 6.87429,14.92017z" fill="#ffffff" stroke="#000000" stroke-width="1.5" stroke-linecap="butt"/><path d="M222.34507,227.26342c0,0 8.27562,-38.54467 9.56633,-44.55631c0.3275,-1.52537 -12.83523,-7.89145 -12.83523,-7.89145c0,0 14.1686,5.83124 21.34238,5.87589c7.63717,0.04753 22.63789,-6.94804 22.63789,-6.94804l-14.40558,7.95274l9.17796,46.46542c0,0 -1.43809,2.61731 -7.6979,3.39921c-3.49201,0.43618 -9.86649,0.65372 -14.17759,0.51729c-4.36604,-0.13819 -7.17614,-0.01802 -8.84513,-0.44473c-4.55125,-1.16362 -4.76313,-4.36998 -4.76313,-4.36998z" fill="#ffffff" stroke="#000000" stroke-width="1.5" stroke-linecap="butt"/><path d="M227.48747,195.25862l1.35969,-10.28258c0,0 1.70002,-0.94797 2.75078,-1.06713c1.51984,-0.17235 5.49229,0.13235 5.49229,0.13235v8.32804l-7.47991,4.59698l0.59652,-6.04165z" fill="#ffffff" stroke="none" stroke-width="0" stroke-linecap="butt"/><path d="M255.77266,187.04378c2.29519,3.16104 6.07799,14.69134 6.07799,14.69134l-5.84001,3.1917l-5.17346,-13.17738l-1.82032,-8.16286c0,0 5.4315,1.63332 6.7558,3.4572z" data-paper-data="{&quot;index&quot;:null}" fill="#ffffff" stroke="#000000" stroke-width="1.5" stroke-linecap="butt"/><path d="M261.71061,201.70069l0.74495,3.28602c0,0 0.83631,1.0553 0.78512,2.10698c-0.05119,1.05168 -0.34214,1.66452 -1.00947,2.50203c-0.66733,0.83752 -1.23938,1.36095 -2.24327,1.58024c-1.00387,0.21929 -2.57975,-0.52675 -2.57975,-0.52675l-0.8973,-1.71192l0.78512,-0.9218l-1.23377,-3.16047z" data-paper-data="{&quot;index&quot;:null}" fill="#fed497" stroke="#000000" stroke-width="1.5" stroke-linecap="round"/><path d="M250.37251,191.32023l0.59652,6.04165l-7.4799,-4.59698v-8.32804c0,0 3.97244,-0.30469 5.49228,-0.13235c1.05076,0.11915 2.75078,1.06713 2.75078,1.06713l1.35968,10.28258z" data-paper-data="{&quot;index&quot;:null}" fill="#ffffff" stroke="none" stroke-width="0" stroke-linecap="butt"/></g></g></svg>