<svg version="1.1" xmlns="http://www.w3.org/2000/svg" xmlns:xlink="http://www.w3.org/1999/xlink" width="107.51652" height="166.45397" viewBox="0,0,107.51652,166.45397"><defs><linearGradient x1="231.59993" y1="200.60142" x2="229.16197" y2="200.60142" gradientUnits="userSpaceOnUse" id="color-1"><stop offset="0" stop-color="#000000"/><stop offset="1" stop-color="#0a0a0a"/></linearGradient><linearGradient x1="247.79919" y1="200.71863" x2="250.23717" y2="200.71863" gradientUnits="userSpaceOnUse" id="color-2"><stop offset="0" stop-color="#000000"/><stop offset="1" stop-color="#0a0a0a"/></linearGradient><linearGradient x1="239.81677" y1="211.92447" x2="239.81677" y2="214.36243" gradientUnits="userSpaceOnUse" id="color-3"><stop offset="0" stop-color="#000000"/><stop offset="1" stop-color="#0a0a0a"/></linearGradient></defs><g transform="translate(-185.96251,-55.98065)"><g data-paper-data="{&quot;isPaintingLayer&quot;:true}" fill-rule="nonzero" stroke-linejoin="miter" stroke-miterlimit="10" stroke-dasharray="" stroke-dashoffset="0" style="mix-blend-mode: normal"><text transform="translate(198.98613,120.4658) scale(0.40369,0.40369)" font-size="40" xml:space="preserve" fill-opacity="0.79216" fill="#f5f5f5" fill-rule="nonzero" stroke="none" stroke-width="1" stroke-linecap="butt" stroke-linejoin="miter" stroke-miterlimit="10" stroke-dasharray="" stroke-dashoffset="0" font-family="Sans Serif" font-weight="normal" text-anchor="start" style="mix-blend-mode: normal"><tspan x="0" dy="0">恭喜中奖者</tspan></text><text transform="translate(186.22864,79.13396) scale(0.53226,0.53226)" font-size="40" xml:space="preserve" fill="#ffffff" fill-rule="nonzero" stroke="none" stroke-width="1" stroke-linecap="butt" stroke-linejoin="miter" stroke-miterlimit="10" stroke-dasharray="" stroke-dashoffset="0" font-family="Sans Serif" font-weight="normal" text-anchor="start" style="mix-blend-mode: normal"><tspan x="0" dy="0">大富翁彩票</tspan></text><path d="M261.08813,188.1478c0.39481,2.36249 5.45295,6.69523 9.42403,10.57161c4.07634,3.97915 9.12188,7.88288 8.10748,10.56268c-2.05866,5.43851 -12.52611,8.74411 -16.68305,9.07194c-2.26079,0.17829 -6.61695,2.65559 -11.37624,3.33058c-3.3364,0.47319 -6.87092,-0.76403 -10.02055,-0.76403c-3.17729,0 -6.15862,1.94499 -11.54568,0.84704c-5.75452,-0.91721 -2.2235,-0.43796 -9.05756,-2.08194c-4.57279,-1.1 -12.56193,-4.53641 -16.41721,-6.76141c-7.30273,-4.21464 9.84385,-15.56256 12.69737,-25.02567c0.61618,-2.04339 3.46763,-6.05772 5.63511,-10.32984c3.13249,-6.17414 7.99996,-11.50539 16.77654,-11.43496c5.89347,0.0473 10.72697,1.89652 14.81839,7.37855c5.34464,7.16115 7.08529,13.23033 7.64138,14.63544z" fill="#4c4c4c" stroke="#000000" stroke-width="1.5" stroke-linecap="butt"/><g stroke-width="1.5"><g stroke="#000000" stroke-linecap="butt"><path d="M269.36034,185.04969c0,1.26981 -2.56648,6.44217 -2.86961,8.73417c-0.27976,2.11525 1.67494,1.38679 2.27057,1.8884c4.13509,3.48237 1.58196,8.25483 -5.56618,9.24207c-2.90082,3.62402 -6.49989,8.49313 -9.32866,11.01322c-1.61032,1.43461 -2.20642,2.58762 -4.90028,3.50885c-0.66473,0.22732 -4.93378,1.85038 -8.74618,1.89816c-5.01097,0.42814 -7.21607,-1.30214 -9.23541,-1.88001c-3.2004,-0.91586 -2.89509,-1.62049 -4.68378,-2.99696c-3.13583,-2.41318 -7.58843,-5.41221 -9.21813,-9.95224c-0.04126,-3.09554 -7.61124,0.54752 -9.24622,-7.16857c-0.20206,-0.95355 -0.5304,-3.30993 0.97556,-4.46678c1.15136,-0.88444 4.43009,0.44618 4.52404,-0.16681c0.27789,-1.81305 -3.16867,-8.40054 -3.16867,-9.65346c0,-19.93376 12.12235,-30.82716 28.46806,-30.82716c16.34569,0 30.72497,10.89341 30.72497,30.82716z" fill="#ffce91"/><path d="M233.96256,181.16226c-0.00236,0.00053 -1.25449,3.15665 -3.25826,5.54512c-2.5808,3.0763 -6.06671,5.56265 -6.1398,5.58438c-2.36578,0.70271 4.28037,-4.27568 3.06443,-4.70833c-0.77169,-0.27458 -6.12307,3.65552 -9.14023,5.33786c-0.04157,0.02321 -4.22059,0.80033 -5.04629,0.84344c-0.1735,0.00904 -2.88625,-6.57107 -3.91829,-9.96653c-1.53336,-5.04493 -0.23974,-9.26849 2.81868,-14.4119c2.96722,-4.2145 11.37973,-15.78412 25.7871,-15.45783c14.40735,0.32628 21.60905,4.29575 28.2472,14.85449c6.07842,9.66843 1.84234,23.18094 1.22723,23.41985c-1.95962,-0.33601 -3.56307,-0.32834 -5.30361,-0.21227c-1.37399,0.09164 -2.93113,0.34851 -4.14029,-0.11889c-1.82854,0.01774 -3.29997,-0.04121 -4.3747,-0.4138c-0.83993,-0.29116 -1.40395,-0.94209 -1.92862,-0.78871c0,0 -2.03787,-0.19233 -3.06668,-1.41285c-1.16425,-1.38117 -1.87033,-3.46644 -2.17002,-3.50084c-0.08058,-0.00924 -1.48444,2.18067 -1.37294,3.49611c0.11687,1.37873 1.29589,2.82441 0.23085,2.24394c-0.93911,-0.51185 -1.70748,-1.06285 -2.41978,-1.98423c-1.16898,-1.51214 -2.04047,-3.43625 -2.18428,-3.48782c-2.84829,-1.02198 0.85075,5.45779 -1.23075,5.6264c0,0 -2.37037,-1.13081 -3.29646,-2.83887c-0.10913,-0.59323 -1.35447,-1.21473 -1.74456,-2.8892c-0.44917,-1.92806 -0.07421,-4.88609 -0.63992,-4.7595z" fill="#232323"/></g><path d="M230.38097,197.84687v5.50912" fill="none" stroke="url(#color-1)" stroke-linecap="round"/><path d="M249.01819,197.84687v5.74355" fill="none" stroke="url(#color-2)" stroke-linecap="round"/><path d="M242.8644,213.14345c0,0 -1.93201,0.93253 -2.94787,0.93253c-1.01586,0 -3.14734,-0.93253 -3.14734,-0.93253" fill="none" stroke="url(#color-3)" stroke-linecap="round"/></g><path d="M283.72767,202.20825c1.1711,7.7087 -5.32605,8.93746 -7.06213,9.51418c-0.74336,0.24695 4.36196,-1.5978 3.4722,-3.21394c-1.99332,-3.62062 -11.16735,-10.47224 -17.89926,-17.66154c-0.98488,-2.76807 -0.76909,-1.48524 -3.26062,-7.66873c-7.44124,-18.46786 -18.12437,-16.84731 -21.24958,-16.73002c-5.73204,-0.12713 -10.74799,0.84533 -17.52355,15.2906c-1.10637,2.35877 -2.76473,5.19499 -3.8937,7.96207c-1.75208,8.97405 -18.93255,19.17329 -12.75029,22.97082c1.59203,1.98759 -6.06567,-4.03373 -5.6246,-8.02908c0.36503,-3.30634 4.74351,-12.0541 7.94137,-22.3004c3.63478,-11.64619 7.50241,-22.29467 8.7773,-26.82451c1.16984,-4.15658 7.91861,-15.0585 24.3634,-15.09598c17.89631,-0.04077 22.28148,10.34733 23.20114,13.24559c2.73468,4.96721 9.15747,21.75445 10.77331,25.24141c2.29604,7.68514 9.25568,13.56221 10.73498,23.29954z" fill="#ffffff" stroke="#000000" stroke-width="1.5" stroke-linecap="butt"/></g></g></svg>