<svg version="1.1" xmlns="http://www.w3.org/2000/svg" xmlns:xlink="http://www.w3.org/1999/xlink" width="75.04107" height="111.20937" viewBox="0,0,75.04107,111.20937"><g transform="translate(-202.07839,-124.44704)"><g data-paper-data="{&quot;isPaintingLayer&quot;:true}" fill-rule="nonzero" stroke-linejoin="miter" stroke-miterlimit="10" stroke-dasharray="" stroke-dashoffset="0" style="mix-blend-mode: normal"><path d="" fill="#9966ff" stroke="none" stroke-width="0.5" stroke-linecap="butt"/><path d="" fill="#6696ff" stroke="none" stroke-width="0.5" stroke-linecap="butt"/><path d="" fill="#6696ff" stroke="none" stroke-width="0.5" stroke-linecap="butt"/><path d="" fill="#6696ff" stroke="none" stroke-width="0.5" stroke-linecap="butt"/><path d="" fill="#6696ff" stroke="none" stroke-width="0.5" stroke-linecap="butt"/><path d="" fill="#6696ff" stroke="none" stroke-width="0.5" stroke-linecap="butt"/><path d="" fill="#6696ff" stroke="none" stroke-width="0.5" stroke-linecap="butt"/><path d="" fill="#6696ff" stroke="none" stroke-width="0.5" stroke-linecap="butt"/><path d="" fill="#6696ff" stroke="none" stroke-width="0.5" stroke-linecap="butt"/><path d="" fill="#6696ff" stroke="none" stroke-width="0.5" stroke-linecap="butt"/><path d="" fill="#6696ff" stroke="none" stroke-width="0.5" stroke-linecap="butt"/><path d="" fill="#6696ff" stroke="none" stroke-width="0.5" stroke-linecap="butt"/><path d="" fill="#6696ff" stroke="none" stroke-width="0.5" stroke-linecap="butt"/><path d="" fill="#6696ff" stroke="none" stroke-width="0.5" stroke-linecap="butt"/><path d="" fill="#6696ff" stroke="none" stroke-width="0.5" stroke-linecap="butt"/><path d="" fill="#6696ff" stroke="none" stroke-width="0.5" stroke-linecap="butt"/><path d="" fill="#6696ff" stroke="none" stroke-width="0.5" stroke-linecap="butt"/><path d="" fill="#6696ff" stroke="none" stroke-width="0.5" stroke-linecap="butt"/><path d="" fill="#6696ff" stroke="none" stroke-width="0.5" stroke-linecap="butt"/><path d="" fill="#6696ff" stroke="none" stroke-width="0.5" stroke-linecap="butt"/><path d="" fill="#6696ff" stroke="none" stroke-width="0.5" stroke-linecap="butt"/><path d="" fill="#6696ff" stroke="none" stroke-width="0.5" stroke-linecap="butt"/><path d="" fill="#6696ff" stroke="none" stroke-width="0.5" stroke-linecap="butt"/><path d="" fill="#6696ff" stroke="none" stroke-width="0.5" stroke-linecap="butt"/><path d="" fill="#6696ff" stroke="none" stroke-width="0.5" stroke-linecap="butt"/><path d="" fill="#6696ff" stroke="none" stroke-width="0.5" stroke-linecap="butt"/><path d="" fill="#6696ff" stroke="none" stroke-width="0.5" stroke-linecap="butt"/><path d="" fill="#6696ff" stroke="none" stroke-width="0.5" stroke-linecap="butt"/><path d="" fill="#6696ff" stroke="none" stroke-width="0.5" stroke-linecap="butt"/><path d="" fill="#6696ff" stroke="none" stroke-width="0.5" stroke-linecap="butt"/><path d="" fill="#6696ff" stroke="none" stroke-width="0.5" stroke-linecap="butt"/><path d="" fill="#dfdfdf" stroke="#723700" stroke-width="0.5" stroke-linecap="butt"/><path d="" fill="#dfdfdf" stroke="#723700" stroke-width="0.5" stroke-linecap="butt"/><g><path d="M245.96886,232.62863c0,1.25798 -1.31827,2.27778 -2.94445,2.27778c-1.62617,0 -5.27778,-0.24203 -5.27778,-1.50001c0,-1.25798 3.65161,-3.05555 5.27778,-3.05555c1.62617,0 2.94445,1.01979 2.94445,2.27777z" fill="#727272" stroke="#723700" stroke-width="1.5" stroke-linecap="butt"/><path d="M234.07998,232.62863c0,1.25798 -1.31827,2.27778 -2.94445,2.27778c-1.62617,0 -5.27778,-0.24203 -5.27778,-1.50001c0,-1.25798 3.65161,-3.05554 5.27778,-3.05554c1.62617,0 2.94445,1.01979 2.94445,2.27777z" fill="#727272" stroke="#723700" stroke-width="1.5" stroke-linecap="butt"/><path d="M262.2461,205.64891c-2.55876,0.79893 -5.2807,-0.6277 -6.07963,-3.18646c-0.79893,-2.55876 0.62769,-5.28069 3.18645,-6.07962c2.55876,-0.79893 5.2807,0.62769 6.07963,3.18645c0.79893,2.55876 -0.62769,5.28071 -3.18645,6.07964z" fill="#eca956" stroke="#723700" stroke-width="1.5" stroke-linecap="butt"/><path d="M255.90565,201.42052l-20.50179,-15.61318l4.12489,-5.29165l20.22925,15.69826c0,0 -0.18169,2.65552 -0.71513,3.33986c-0.75979,0.97469 -3.13721,1.86671 -3.13721,1.86671z" fill="#e8c0aa" stroke="#723700" stroke-width="1.5" stroke-linecap="butt"/><path d="M209.74666,200.60834c0,-2.68059 2.17305,-4.85363 4.85363,-4.85363c2.68059,0 4.85362,2.17304 4.85362,4.85363c0,2.68059 -2.17304,4.85362 -4.85362,4.85362c-2.68059,0 -4.85363,-2.17304 -4.85363,-4.85362z" fill="#eca956" stroke="#723700" stroke-width="1.5" stroke-linecap="butt"/><path d="M215.6726,195.81628l21.014,-14.91665l3.82176,5.51456l-21.01399,14.63113c0,0 -2.48068,-0.96489 -2.97493,-1.67806c-0.70395,-1.01576 -0.84685,-3.55099 -0.84685,-3.55099z" fill="#e8c0aa" stroke="#723700" stroke-width="1.5" stroke-linecap="butt"/><path d="M226.27664,208.50985l4.53846,-22.90042h14.61538l3.47938,22.66782z" fill="#bb4b4f" stroke="#723700" stroke-width="1.5" stroke-linecap="butt"/><path d="M223.50304,230.00457c-1.32043,-0.92816 -2.02644,-0.98203 -1.74511,-3.3958c0.56337,-4.83361 4.42925,-18.46969 4.42925,-18.46969l22.66442,0.11107c0,0 3.34452,13.59566 3.84546,18.25564c0.28618,2.66224 -0.22774,2.26459 -2.25176,3.37703c-1.36836,0.75207 -2.95137,0.75585 -5.52066,1.0178c-4.79451,0.4888 -12.84878,0.74865 -17.142,0.37831c-2.76585,-0.23859 -3.00919,-0.38135 -4.27961,-1.27436z" fill="#bb4b4f" stroke="#723700" stroke-width="1.5" stroke-linecap="butt"/><path d="M237.40008,188.86937l-2.97028,19.13899" fill="none" stroke="#723700" stroke-width="1.5" stroke-linecap="round"/><path d="M229.02887,221.47843c-1.40978,-2.59298 1.7222,-13.17558 1.7222,-13.17558h14.36122c0,0 1.90795,11.63432 1.29376,12.8575c-1.93644,3.8565 -6.52274,4.62169 -8.92678,4.62169c-2.38286,0 -7.04062,-1.71062 -8.4504,-4.30361z" fill="#e8c0aa" stroke="#723700" stroke-width="1.5" stroke-linecap="butt"/><path d="M262.22748,167.57054c0,6.44654 -3.16842,11.55056 -8.02828,14.65379c-4.2166,2.69249 -9.9732,6.07954 -15.77173,6.07954c-4.3452,0 -10.4242,-2.51223 -13.72192,-4.03566c-6.17501,-2.85265 -7.67808,-8.84924 -7.67808,-16.69766c0,-12.03981 10.11836,-21.8 22.6,-21.8c12.48164,0 22.6,9.76019 22.6,21.8z" fill="#ffce91" stroke="#723700" stroke-width="1.5" stroke-linecap="butt"/><path d="M214.82808,176.59188c-1.12058,-2.03096 -0.64391,-4.44161 1.06468,-5.38432c1.70859,-0.94271 2.71301,0.68816 3.8336,2.71912c1.12059,2.03096 1.93299,4.3596 0.2244,5.30231c-1.70859,0.94271 -4.00208,-0.60615 -5.12267,-2.63711z" fill="#ffce91" stroke="#723700" stroke-width="1.5" stroke-linecap="butt"/><path d="M258.62965,172.60156c0.63614,-2.23066 2.67312,-3.60513 4.5497,-3.06996c1.87658,0.53517 2.88216,2.77731 2.24602,5.00797c-0.63614,2.23066 -2.67313,3.60513 -4.54971,3.06996c-1.87658,-0.53517 -2.88216,-2.77731 -2.24602,-5.00797z" fill="#ffce91" stroke="#723700" stroke-width="1.5" stroke-linecap="butt"/><path d="M268.07989,161.0452c0.75894,3.4567 2.28107,5.32758 2.28107,5.32758c0,0 -8.0127,1.15265 -8.12913,1.77054c-1.94457,10.31929 -6.8878,9.58407 -6.8878,9.58407c0,0 2.9556,-19.64811 -0.12309,-18.74831c-1.40684,0.41117 -11.18811,-4.115 -11.18811,-4.115c0,0 -2.47182,7.86702 -4.87893,8.33702c-2.71304,0.52973 -9.28274,-9.42327 -9.28274,-9.42327c0,0 -1.04549,4.54066 -3.75482,7.05171c-1.88886,1.75063 -5.53833,1.02207 -7.05438,1.653c-0.61513,0.256 -0.22345,3.11111 0.58612,6.6742c0.27695,1.21893 1.19146,2.52071 1.33322,3.82964c0.33954,3.13501 0.92425,5.70007 0.92425,5.70007c0,0 -3.95307,-5.70396 -5.33961,-5.35345c-1.16546,0.29462 -2.88569,2.43945 -4.29271,3.02823c-2.69586,1.12811 -4.95414,0.81755 -4.95414,0.81755c0,0 1.88292,-3.33482 2.40327,-6.69171c0.22911,-1.478 0.21726,-4.01824 0.47683,-5.84482c0.97353,-6.85072 2.28042,-14.11599 2.28042,-14.11599c0,0 -4.11678,-0.73951 -5.57837,-1.6334c-1.34298,-0.82135 -3.39883,-3.53074 -3.39883,-3.53074c0,0 3.95355,-0.32364 8.11532,-2.41065c5.54629,-2.78131 9.68319,-6.59304 13.73308,-7.99794c0.56342,-0.19545 -1.22862,-1.69689 -1.22862,-1.69689c0,0 13.74998,-2.64452 17.33021,-2.64452c8.33659,0 16.85052,4.98522 21.36873,12.17195c4.13723,6.58074 4.6011,15.26583 5.25874,18.26113z" fill="#e08989" stroke="#723700" stroke-width="1.5" stroke-linecap="butt"/><path d="M218.96908,175.07882c0,0 -2.56127,-3.25943 -2.98013,-4.57112c-0.42548,-1.33243 -0.21988,-5.36221 -0.21988,-5.36221" fill="none" stroke="#723700" stroke-width="1.5" stroke-linecap="round"/><path d="M220.23579,170.84547c0,0 -1.27387,-4.38036 -1.18714,-5.86597c0.03018,-0.51695 0.72046,-9.4007 0.72046,-9.4007" fill="none" stroke="#723700" stroke-width="1.5" stroke-linecap="round"/><path d="M256.46907,164.61216l-0.60003,-10.73335" fill="none" stroke="#723700" stroke-width="1.5" stroke-linecap="round"/><path d="M263.16907,161.5788c0,0 -0.34134,4.91965 -0.51592,5.55561c-0.40643,1.48058 -1.0174,3.47774 -1.0174,3.47774" fill="none" stroke="#723700" stroke-width="1.5" stroke-linecap="round"/><path d="M217.92091,151.70416c-0.15227,0.98628 -0.85479,1.72596 -1.56913,1.65214c-0.71434,-0.07382 -1.16999,-0.93321 -1.01772,-1.91949c0.15227,-0.98628 0.85479,-1.72596 1.56913,-1.65213c0.71434,0.07382 1.16999,0.93321 1.01772,1.91948z" fill="#e0a1a1" stroke="none" stroke-width="0" stroke-linecap="butt"/><path d="M220.09415,149.30381c0,0.55229 -0.26863,1 -0.6,1c-0.33137,0 -0.6,-0.44771 -0.6,-1c0,-0.55229 0.26863,-1 0.6,-1c0.33137,0 0.6,0.44771 0.6,1z" fill="#e0a1a1" stroke="none" stroke-width="0" stroke-linecap="butt"/><path d="M256.22749,144.83715c0,0.5891 -0.38802,1.06667 -0.86667,1.06667c-0.47865,0 -0.86667,-0.47756 -0.86667,-1.06667c0,-0.5891 0.38802,-1.06667 0.86667,-1.06667c0.47865,0 0.86667,0.47756 0.86667,1.06667z" fill="#e0a1a1" stroke="#825738" stroke-width="0" stroke-linecap="butt"/><path d="M267.66604,137.00304c1.06896,1.54633 3.1281,3.10944 4.23848,4.72546c1.58062,2.3004 3.92645,4.43431 3.92645,4.43431c0,0 -2.68729,1.44641 -4.4033,1.52305c-1.34925,0.06026 -1.52832,15.49761 -1.52832,15.49761c0,0 -3.48318,-5.08821 -5.51461,-11.61902c-1.51233,-4.86199 -0.86749,-9.05844 -5.18003,-12.36156c-7.3194,-4.47467 -4.05229,-4.63183 -10.03473,-7.20551c-2.40739,-1.03567 1.60345,-6.15669 5.33259,-6.80034c4.86308,-0.83936 7.02781,-0.2053 9.95507,3.66858c0,0 0.05416,3.57454 3.2084,8.1374z" fill="#e06767" stroke="#723700" stroke-width="1.5" stroke-linecap="butt"/><path d="M270.89412,144.57052l0.26668,6.13334" fill="none" stroke="#723700" stroke-width="1.5" stroke-linecap="round"/><path d="M222.16082,165.2372c0,0 1.54724,-1.20597 2.50308,-1.39248c0.85513,-0.16685 2.96358,0.32581 2.96358,0.32581" fill="none" stroke="#723700" stroke-width="1.5" stroke-linecap="round"/><path d="M242.17699,164.11038c0,0 1.84767,-0.9331 2.82611,-0.89397c0.87534,0.03501 2.76973,1.11775 2.76973,1.11775" fill="none" stroke="#723700" stroke-width="1.5" stroke-linecap="round"/><path d="M225.32748,171.4372v3.8" fill="none" stroke="#723700" stroke-width="1.5" stroke-linecap="round"/><path d="M243.98012,175.10387v-3.46667" fill="none" stroke="#723700" stroke-width="1.5" stroke-linecap="round"/><path d="M238.06082,181.57054h-5" fill="none" stroke="#723700" stroke-width="1.5" stroke-linecap="round"/></g></g></g></svg>