<svg version="1.1" xmlns="http://www.w3.org/2000/svg" xmlns:xlink="http://www.w3.org/1999/xlink" width="61.62034" height="76.53118" viewBox="0,0,61.62034,76.53118"><defs><linearGradient x1="262.46306" y1="86.31786" x2="262.46306" y2="216.87821" gradientUnits="userSpaceOnUse" id="color-1"><stop offset="0" stop-color="#37caf1"/><stop offset="1" stop-color="#62e4d0"/></linearGradient><radialGradient cx="239.41015" cy="180.38152" r="43.04066" gradientUnits="userSpaceOnUse" id="color-2"><stop offset="0" stop-color="#d6ffe2"/><stop offset="1" stop-color="#d6ffe2" stop-opacity="0"/></radialGradient></defs><g transform="translate(-209.17964,-141.34703)"><g data-paper-data="{&quot;isPaintingLayer&quot;:true}" fill-rule="nonzero" stroke-linecap="butt" stroke-linejoin="miter" stroke-miterlimit="10" stroke-dasharray="" stroke-dashoffset="0" style="mix-blend-mode: normal"><g><path d="M269.79994,154.04705v51.13337c0,6.45067 -5.24475,11.69779 -11.69999,11.69779h-36.22254c-6.44844,0 -11.69777,-5.24707 -11.69777,-11.69779v-51.1356c0,-6.45067 5.24935,-11.69779 11.69779,-11.69779h36.22256c0.4697,0 0.933,0.0278 1.38833,0.08182c1.00957,0.25768 2.02301,0.51933 3.03156,0.7844c4.26819,1.74695 7.2801,5.94545 7.2801,10.8338z" fill="url(#color-1)" stroke="#70fbf6" stroke-width="2"/><path d="M211.04893,195.95421c0.9224,-5.91525 -4.86764,-46.16025 4.74063,-51.93676c2.07017,-2.13768 9.56616,-1.33957 18.48325,-1.35697c11.25778,-0.02196 24.26032,-0.47655 25.67074,-0.11525c3.89554,2.11855 6.55134,4.82117 9.60208,7.9903c-1.70909,3.50977 -0.27585,6.62602 0.12014,10.3869c0.19816,1.882 -0.95797,4.58217 -0.70576,6.25874c0.53703,3.56977 0.66344,5.90886 0.88655,9.8505c0.257,4.54012 0.26986,22.22166 -0.26558,27.62901c-0.09039,0.91284 -0.82625,4.96483 -0.87446,6.12155c-0.95389,0.97429 -7.6027,4.99505 -15.66257,6.21076c-10.32825,1.55786 -21.70091,-0.09479 -29.83733,-0.36856c-13.24648,-0.44571 -10.83115,-5.59919 -11.72585,-7.46149c-2.89263,-6.02095 -0.77005,-11.03986 -0.43184,-13.20874z" fill="url(#color-2)" stroke="none" stroke-width="0"/></g><text transform="translate(223.53355,207.92461) scale(0.27778,0.27778)" font-size="40" xml:space="preserve" fill="#5eafa3" fill-rule="nonzero" stroke="none" stroke-width="1" stroke-linecap="butt" stroke-linejoin="miter" stroke-miterlimit="10" stroke-dasharray="" stroke-dashoffset="0" font-family="Sans Serif" font-weight="normal" text-anchor="start" style="mix-blend-mode: normal"><tspan x="0" dy="0">大炸弹</tspan></text><g stroke="none" stroke-width="1"><path d="M246.22214,190.45564c-0.00039,0.74179 -0.60164,1.34304 -1.34343,1.34343h-8.18175c-0.74179,-0.00039 -1.34304,-0.60164 -1.34343,-1.34343v-30.09713c0.00039,-0.74179 0.60164,-1.34304 1.34343,-1.34343h8.18175c0.74179,0.00039 1.34304,0.60164 1.34343,1.34343z" fill="#e7004c"/><path d="M234.46979,191.79907c-0.74138,0 -1.34343,-0.56232 -1.34343,-1.25488v-30.27424c0,-0.69256 0.60205,-1.25488 1.34343,-1.25488h4.97462c0.74138,0 1.34343,0.56232 1.34343,1.25488v30.27424c0,0.69256 -0.60205,1.25488 -1.34343,1.25488z" fill="#d0003f"/><path d="M235.35355,164.3603h10.86861v4.27617h-10.86861zM235.35355,183.02526h10.86861v4.27617h-10.86861z" fill="#2e436c"/><path d="M250.05289,159.28233c0,2.9992 -2.4351,5.4343 -5.4343,5.4343c-2.9992,0 -5.4343,-2.4351 -5.4343,-5.4343c0,-2.9992 2.4351,-5.4343 5.4343,-5.4343c2.9992,0 5.4343,2.4351 5.4343,5.4343zM240.77661,159.28233c0,2.12045 1.72152,3.84196 3.84196,3.84196c2.12045,0 3.84196,-1.72152 3.84196,-3.84196c0,-2.12045 -1.72152,-3.84196 -3.84196,-3.84196c-2.12045,0 -3.84196,1.72152 -3.84196,3.84196z" fill="#2d456d"/><path d="M244.61859,155.44037c-0.70821,-0.00093 -1.40277,0.19486 -2.00624,0.56552c-0.19866,-0.40998 -0.31002,-0.8702 -0.31002,-1.35608c0,-0.098 0.00446,-0.19474 0.01336,-0.29042c0.69933,-0.32802 1.47991,-0.51136 2.3029,-0.51136c1.49025,0 2.84116,0.60116 3.82326,1.57399c-0.14074,0.54969 -0.42894,1.0505 -0.8335,1.44838c-0.7045,-0.87198 -1.78245,-1.43002 -2.98976,-1.43002z" fill="#ffce71"/><path d="M235.70989,153.84804c2.9992,0 5.4343,2.4351 5.4343,5.4343c0,2.9992 -2.4351,5.4343 -5.4343,5.4343c-2.9992,0 -5.4343,-2.4351 -5.4343,-5.4343c0,-2.9992 2.4351,-5.4343 5.4343,-5.4343zM235.70989,155.44037c-2.12045,0 -3.84196,1.72152 -3.84196,3.84196c0,2.12045 1.72152,3.84196 3.84196,3.84196c2.12045,0 3.84196,-1.72152 3.84196,-3.84196c0,-2.12045 -1.72152,-3.84196 -3.84196,-3.84196z" fill="#ffba5a"/><path d="M232.72014,156.8704c-0.40456,-0.39787 -0.69276,-0.89868 -0.8335,-1.44838c0.98209,-0.97283 2.33301,-1.57399 3.82325,-1.57399c0.82299,0 1.60357,0.18334 2.3029,0.51136c0.00891,0.09568 0.01336,0.19243 0.01336,0.29042c0,0.48588 -0.11136,0.9461 -0.31002,1.35608c-0.60347,-0.37067 -1.29802,-0.56645 -2.00624,-0.56552c-1.20731,0 -2.28526,0.55804 -2.98976,1.43002z" fill="#ffce71"/><path d="M253.52728,190.45564c-0.00039,0.74179 -0.60164,1.34304 -1.34343,1.34343h-8.18175c-0.74179,-0.00039 -1.34304,-0.60164 -1.34343,-1.34343v-30.09713c0.00039,-0.74179 0.60164,-1.34304 1.34343,-1.34343h8.18175c0.74179,0.00039 1.34304,0.60164 1.34343,1.34343z" fill="#e7004c"/><path d="M241.77493,191.79907c-0.74138,0 -1.34343,-0.56232 -1.34343,-1.25488v-30.27424c0,-0.69256 0.60205,-1.25488 1.34343,-1.25488h4.97462c0.74138,0 1.34343,0.56232 1.34343,1.25488v30.27424c0,0.69256 -0.60205,1.25488 -1.34343,1.25488z" fill="#d0003f"/><path d="M242.65867,164.3603h10.86861v4.27617h-10.86861zM242.65867,183.02526h10.86861v4.27617h-10.86861z" fill="#2e436c"/><path d="M226.53394,160.35851c0.00039,-0.74179 0.60164,-1.34304 1.34343,-1.34343h8.18175c0.74179,0.00039 1.34304,0.60164 1.34343,1.34343v30.09713c-0.00039,0.74179 -0.60164,1.34304 -1.34343,1.34343h-8.18175c-0.74179,-0.00039 -1.34304,-0.60164 -1.34343,-1.34343z" fill="#eb004b"/><path d="M233.31166,191.79907c-0.74138,0 -1.34343,-0.56232 -1.34343,-1.25488v-30.27424c0,-0.69256 0.60205,-1.25488 1.34343,-1.25488h4.97462c0.74138,0 1.34343,0.56232 1.34343,1.25488v30.27424c0,0.69256 -0.60205,1.25488 -1.34343,1.25488z" fill="#d0003f"/><path d="M226.53394,164.3603h10.86861v4.27617h-10.86861zM226.53394,183.02526h10.86861v4.27617h-10.86861z" fill="#2e436c"/><path d="M245.68763,191.52469c-0.00039,0.74179 -0.60164,1.34304 -1.34343,1.34343h-8.18175c-0.74179,-0.00039 -1.34304,-0.60164 -1.34343,-1.34343v-32.41339c0.00039,-0.74179 0.60164,-1.34304 1.34343,-1.34343h8.18175c0.74179,0.00039 1.34304,0.60164 1.34343,1.34343z" fill="#fb174c"/><path d="M236.16244,192.86812c-0.74179,-0.00039 -1.34304,-0.60164 -1.34343,-1.34343v-32.41339c0.00039,-0.74179 0.60164,-1.34304 1.34343,-1.34343h4.97462c0.74179,0.00039 1.34304,0.60164 1.34343,1.34343v32.41339c-0.00039,0.74179 -0.60164,1.34304 -1.34343,1.34343z" fill="#ff4363"/><path d="M234.81901,164.3603h10.86861v4.27617h-10.86861zM234.81901,183.02526h10.86861v4.27617h-10.86861z" fill="#2e436c"/></g></g></g></svg>