<svg version="1.1" xmlns="http://www.w3.org/2000/svg" xmlns:xlink="http://www.w3.org/1999/xlink" width="61.62034" height="76.53118" viewBox="0,0,61.62034,76.53118"><defs><linearGradient x1="262.46305" y1="86.31786" x2="262.46305" y2="216.87821" gradientUnits="userSpaceOnUse" id="color-1"><stop offset="0" stop-color="#37caf1"/><stop offset="1" stop-color="#62e4d0"/></linearGradient><radialGradient cx="239.41012" cy="180.38152" r="43.04066" gradientUnits="userSpaceOnUse" id="color-2"><stop offset="0" stop-color="#d6ffe2"/><stop offset="1" stop-color="#d6ffe2" stop-opacity="0"/></radialGradient></defs><g transform="translate(-209.17964,-141.34703)"><g data-paper-data="{&quot;isPaintingLayer&quot;:true}" fill-rule="nonzero" stroke-linecap="butt" stroke-linejoin="miter" stroke-miterlimit="10" stroke-dasharray="" stroke-dashoffset="0" style="mix-blend-mode: normal"><g><path d="M269.79994,154.04705v51.13337c0,6.45067 -5.24475,11.69779 -11.69999,11.69779h-36.22254c-6.44844,0 -11.69777,-5.24707 -11.69777,-11.69779v-51.1356c0,-6.45067 5.24935,-11.69779 11.69779,-11.69779h36.22256c0.4697,0 0.933,0.0278 1.38833,0.08182c1.00957,0.25768 2.02301,0.51933 3.03156,0.7844c4.26819,1.74695 7.2801,5.94545 7.2801,10.8338z" fill="url(#color-1)" stroke="#70fbf6" stroke-width="2"/><path d="M211.0489,195.95421c0.9224,-5.91525 -4.86764,-46.16025 4.74063,-51.93676c2.07017,-2.13768 9.56616,-1.33957 18.48325,-1.35697c11.25778,-0.02196 24.26032,-0.47655 25.67074,-0.11525c3.89554,2.11855 6.55134,4.82117 9.60208,7.9903c-1.70909,3.50977 -0.27585,6.62602 0.12014,10.3869c0.19816,1.882 -0.95797,4.58217 -0.70576,6.25874c0.53703,3.56977 0.66344,5.90886 0.88655,9.8505c0.257,4.54012 0.26986,22.22166 -0.26558,27.62901c-0.09039,0.91284 -0.82625,4.96483 -0.87446,6.12155c-0.95389,0.97429 -7.6027,4.99505 -15.66257,6.21076c-10.32825,1.55786 -21.70091,-0.09479 -29.83733,-0.36856c-13.24648,-0.44571 -10.83115,-5.59919 -11.72585,-7.46149c-2.89263,-6.02095 -0.77005,-11.03986 -0.43184,-13.20874z" fill="url(#color-2)" stroke="none" stroke-width="0"/></g><text transform="translate(223.66391,207.61701) scale(0.27778,0.27778)" font-size="40" xml:space="preserve" fill="#5eafa3" fill-rule="nonzero" stroke="none" stroke-width="1" stroke-linecap="butt" stroke-linejoin="miter" stroke-miterlimit="10" stroke-dasharray="" stroke-dashoffset="0" font-family="Sans Serif" font-weight="normal" text-anchor="start" style="mix-blend-mode: normal"><tspan x="0" dy="0">查税卡</tspan></text><path d="M255.05996,182.76128c-0.19413,1.80093 -1.40969,3.572 -3.70341,5.01752l-0.00597,0.00597c-2.92988,1.84275 -6.99467,2.78054 -11.09231,2.78054c-3.54811,0 -7.11712,-0.70484 -9.98428,-2.13842c-3.1031,-1.54408 -4.79054,-3.64666 -5.01753,-5.79405c1.01844,1.17673 2.41319,2.22802 4.12453,3.08817c3.03142,1.51123 6.89312,2.3445 10.87727,2.3445c4.6651,0 8.96883,-1.09012 12.12569,-3.07025l0.02987,-0.01792c0.98281,-0.6069 1.87387,-1.35113 2.64614,-2.2101zM252.41681,180.59897v-0.00299c0.98154,-0.60743 1.87154,-1.35161 2.64316,-2.2101c-0.19413,1.79795 -1.40969,3.56901 -3.70341,5.01752l-0.00597,0.00299c-2.92988,1.84275 -6.99467,2.78353 -11.09231,2.78353c-3.54811,0 -7.11712,-0.70484 -9.98428,-2.13842c-3.1031,-1.54707 -4.79054,-3.64666 -5.01753,-5.79703c1.01844,1.17971 2.41319,2.23399 4.12453,3.08817c3.03142,1.51123 6.89312,2.34748 10.87727,2.34748c4.6651,0 8.96883,-1.0931 12.12569,-3.07323l0.02987,-0.01792zM252.41681,176.22058c0.98154,-0.60743 1.87154,-1.35161 2.64316,-2.2101c-0.19413,1.79795 -1.40969,3.56901 -3.70341,5.01752l-0.00597,0.00299c-2.92988,1.84275 -6.99467,2.78353 -11.09231,2.78353c-3.54811,0 -7.11712,-0.70484 -9.98428,-2.13842c-3.1031,-1.54707 -4.79054,-3.64965 -5.01753,-5.79703c1.01844,1.17673 2.41319,2.23101 4.12453,3.08817c3.03142,1.51123 6.89312,2.3445 10.87727,2.3445c4.6651,0 8.96883,-1.09012 12.12569,-3.07025l0.02987,-0.01792zM225.23258,168.73312h0.00597c0.10752,-1.8756 1.34398,-3.73925 3.73328,-5.2475l0.00597,-0.00299c1.69939,-1.06921 3.79002,-1.82781 6.04492,-2.27879l0.03285,-0.00896c0.90581,-0.17531 1.81988,-0.3049 2.73873,-0.38826l0.05973,-0.00299c0.45714,-0.03917 0.91526,-0.06607 1.37385,-0.08064h0.04779c0.26282,-0.00896 0.52863,-0.02389 0.79743,-0.02389c3.55109,0 7.11712,0.70484 9.98726,2.13544c3.09414,1.54408 4.78457,3.64368 5.01454,5.78509c0.01493,0.14635 0.00896,0.2897 0.00896,0.43903c0.00299,0.11648 0.01792,0.23296 0.00896,0.35242c-0.11349,1.8756 -1.34398,3.74224 -3.73925,5.25048l-0.00597,0.00597c-5.46253,3.44059 -14.90025,3.7273 -21.07659,0.64511c-3.47941,-1.73523 -5.18179,-4.16932 -5.03545,-6.57952zM249.75274,173.85219c4.68302,-2.94779 4.18725,-7.4785 -1.11102,-10.12465c-5.29827,-2.64316 -13.38305,-2.39228 -18.06906,0.5585c-4.68004,2.94779 -4.18426,7.48447 1.11102,10.12465c5.29229,2.64316 13.38604,2.39527 18.06906,-0.55551zM231.19387,164.59366c4.39033,-2.75068 11.94051,-2.98662 16.90129,-0.51967c4.94286,2.4789 5.40578,6.71094 1.03636,9.47356c-4.39033,2.75367 -11.93155,2.98364 -16.89831,0.51967c-4.93987,-2.48188 -5.40877,-6.70795 -1.03934,-9.47058zM241.51862,172.25733c1.94429,-1.22452 0.70783,-2.57745 0.07467,-3.44357l2.8134,-1.77107c0.74068,0.37034 1.24243,1.31113 1.34995,1.36489c0.06869,0.03584 0.16725,0.02987 0.27477,0l1.56499,-0.38528c0.07803,-0.01297 0.15296,-0.04031 0.22101,-0.08064c0.51669,-0.32554 -1.34398,-1.6307 -1.81885,-1.89949l0.74666,-0.4689c0.25685,-0.16128 0.25087,-0.22101 -0.05077,-0.37034l-0.34943,-0.17322c-0.30762,-0.15531 -0.40618,-0.15232 -0.66303,0.01195l-0.74665,0.4689c-0.82132,-0.37632 -3.68848,-1.08713 -5.92247,0.31957c-2.00402,1.26334 -0.56447,2.58343 0.07467,3.36293l-2.97468,1.8756c-0.94377,-0.59135 -1.4963,-1.53811 -1.60083,-1.58888c-0.06869,-0.03584 -0.23296,-0.01195 -0.27776,0l-1.77405,0.55551c-0.12245,0.03883 -0.12245,0.03883 -0.17322,0.06869c-0.45397,0.2897 1.60083,1.70835 2.18023,1.99805l-0.68095,0.43007c-0.25984,0.16427 -0.25087,0.21802 0.05973,0.37034l0.24789,0.12544l0.09557,0.04778c0.30762,0.15232 0.40021,0.15232 0.66004,-0.01195l0.68095,-0.43007c1.30814,0.45994 3.87664,0.95572 5.98818,-0.37632zM237.05959,171.54054l2.62226,-1.65459c0.21205,0.31061 0.65108,0.893 -0.22698,1.44553c-0.83625,0.52565 -1.77704,0.38228 -2.39527,0.20906zM241.10946,166.73806c0.893,-0.56447 1.93234,-0.28672 2.35346,-0.16426l-2.4789,1.562c-0.224,-0.28672 -0.69887,-0.87807 0.12544,-1.39774z" fill="#ff8d47" stroke="none" stroke-width="1"/></g></g></svg>