<svg version="1.1" xmlns="http://www.w3.org/2000/svg" xmlns:xlink="http://www.w3.org/1999/xlink" width="324.24911" height="48.70545" viewBox="0,0,324.24911,48.70545"><g transform="translate(-77.87545,-155.64729)"><g data-paper-data="{&quot;isPaintingLayer&quot;:true}" fill-rule="nonzero" stroke="none" stroke-linecap="butt" stroke-linejoin="miter" stroke-miterlimit="10" stroke-dasharray="" stroke-dashoffset="0" style="mix-blend-mode: normal"><path d="M402.12456,167.2208v25.56068c0,6.38092 -5.18807,11.57126 -11.57347,11.57126h-301.10439c-6.37865,0 -11.57125,-5.19031 -11.57125,-11.57126v-25.56292c0,-6.38092 5.19261,-11.57127 11.57125,-11.57127h301.10439c6.3854,0 11.57347,5.19261 11.57347,11.57347z" fill="#fce2c4" stroke-width="0"/><text transform="translate(345.1919,183.07284) scale(0.27324,0.27324)" font-size="40" xml:space="preserve" fill="#000000" fill-rule="nonzero" stroke="none" stroke-width="1" stroke-linecap="butt" stroke-linejoin="miter" stroke-miterlimit="10" stroke-dasharray="" stroke-dashoffset="0" font-family="Sans Serif" font-weight="normal" text-anchor="start" style="mix-blend-mode: normal"><tspan x="0" dy="0">未完成</tspan></text><path d="M91.79264,180.89339c0,-6.5114 5.27853,-11.78992 11.78993,-11.78992c6.51139,0 11.78993,5.27853 11.78993,11.78992c0,6.5114 -5.27853,11.78993 -11.78993,11.78993c-6.51139,0 -11.78993,-5.27853 -11.78993,-11.78993z" fill="#a77137" stroke-width="0"/><text transform="translate(123.96917,179.67376) scale(0.27324,0.27324)" font-size="40" xml:space="preserve" fill="#a77137" fill-rule="nonzero" stroke="none" stroke-width="1" stroke-linecap="butt" stroke-linejoin="miter" stroke-miterlimit="10" stroke-dasharray="" stroke-dashoffset="0" font-family="Sans Serif" font-weight="normal" text-anchor="start" style="mix-blend-mode: normal"><tspan x="0" dy="0">第一笔收益</tspan></text><text transform="translate(124.5085,191.47811) scale(0.17693,0.17693)" font-size="40" xml:space="preserve" fill="#000000" fill-rule="nonzero" stroke="none" stroke-width="1" stroke-linecap="butt" stroke-linejoin="miter" stroke-miterlimit="10" stroke-dasharray="" stroke-dashoffset="0" font-family="Sans Serif" font-weight="normal" text-anchor="start" style="mix-blend-mode: normal"><tspan x="0" dy="0">收取到其他玩家支付的过路费</tspan></text></g></g></svg>