<svg version="1.1" xmlns="http://www.w3.org/2000/svg" xmlns:xlink="http://www.w3.org/1999/xlink" width="61.62034" height="76.53118" viewBox="0,0,61.62034,76.53118"><defs><linearGradient x1="262.46306" y1="86.31786" x2="262.46306" y2="216.87821" gradientUnits="userSpaceOnUse" id="color-1"><stop offset="0" stop-color="#37caf1"/><stop offset="1" stop-color="#62e4d0"/></linearGradient><radialGradient cx="239.41013" cy="180.38152" r="43.04066" gradientUnits="userSpaceOnUse" id="color-2"><stop offset="0" stop-color="#d6ffe2"/><stop offset="1" stop-color="#d6ffe2" stop-opacity="0"/></radialGradient></defs><g transform="translate(-209.17964,-141.34703)"><g data-paper-data="{&quot;isPaintingLayer&quot;:true}" fill-rule="nonzero" stroke-linecap="butt" stroke-linejoin="miter" stroke-miterlimit="10" stroke-dasharray="" stroke-dashoffset="0" style="mix-blend-mode: normal"><g><path d="M269.79994,154.04705v51.13337c0,6.45067 -5.24475,11.69779 -11.69999,11.69779h-36.22254c-6.44844,0 -11.69777,-5.24707 -11.69777,-11.69779v-51.1356c0,-6.45067 5.24935,-11.69779 11.69779,-11.69779h36.22256c0.4697,0 0.933,0.0278 1.38833,0.08182c1.00957,0.25768 2.02301,0.51933 3.03156,0.7844c4.26819,1.74695 7.2801,5.94545 7.2801,10.8338z" fill="url(#color-1)" stroke="#70fbf6" stroke-width="2"/><path d="M211.04891,195.95421c0.9224,-5.91525 -4.86764,-46.16025 4.74063,-51.93676c2.07017,-2.13768 9.56616,-1.33957 18.48325,-1.35697c11.25778,-0.02196 24.26032,-0.47655 25.67074,-0.11525c3.89554,2.11855 6.55134,4.82117 9.60208,7.9903c-1.70909,3.50977 -0.27585,6.62602 0.12014,10.3869c0.19816,1.882 -0.95797,4.58217 -0.70576,6.25874c0.53703,3.56977 0.66344,5.90886 0.88655,9.8505c0.257,4.54012 0.26986,22.22166 -0.26558,27.62901c-0.09039,0.91284 -0.82625,4.96483 -0.87446,6.12155c-0.95389,0.97429 -7.6027,4.99505 -15.66257,6.21076c-10.32825,1.55786 -21.70091,-0.09479 -29.83733,-0.36856c-13.24648,-0.44571 -10.83115,-5.59919 -11.72585,-7.46149c-2.89263,-6.02095 -0.77005,-11.03986 -0.43184,-13.20874z" fill="url(#color-2)" stroke="none" stroke-width="0"/></g><text transform="translate(223.66392,207.61701) scale(0.27778,0.27778)" font-size="40" xml:space="preserve" fill="#5eafa3" fill-rule="nonzero" stroke="none" stroke-width="1" stroke-linecap="butt" stroke-linejoin="miter" stroke-miterlimit="10" stroke-dasharray="" stroke-dashoffset="0" font-family="Sans Serif" font-weight="normal" text-anchor="start" style="mix-blend-mode: normal"><tspan x="0" dy="0">均富卡</tspan></text><g stroke="none" stroke-width="1"><g><path d="M252.16068,182.29512c0,0.37712 -0.28284,0.75424 -0.84851,0.75424h-23.09834c-0.37712,0 -0.84851,-0.28284 -0.84851,-0.75424v0c0,-0.37712 0.28284,-0.75424 0.84851,-0.75424h23.09834c0.56567,0.09427 0.84851,0.37712 0.84851,0.75424z" fill="#fee247"/><g fill="#fee247"><path d="M251.02935,182.95506v0c0,3.20548 -2.92265,5.84529 -6.59953,5.84529h-9.14506c-3.67687,0 -6.59953,-2.63981 -6.59953,-5.84529v0"/><path d="M250.84078,184.46353h-18.66723c0.75424,2.45126 3.29975,4.33683 6.41096,4.33683h-3.39405c-3.1112,0 -5.65674,-1.7913 -6.41096,-4.33683v0v0c-0.09427,-0.28284 -0.18855,-0.37712 -0.18855,-0.65994v-0.09427c-0.09427,-0.28284 -0.09427,-0.47139 -0.09427,-0.75424h3.39405h19.13862c0,0.56567 0,1.03706 -0.18855,1.50846z" opacity="0.5"/></g><path d="M247.54103,189.64886h-15.55602c0,-0.47139 0.47139,-0.84851 0.94279,-0.84851h13.76472c0.47139,0 0.84851,0.37712 0.84851,0.84851z" fill="#fee247"/><path d="M248.67236,190.12025c0,0.28284 -0.28284,0.47139 -0.56567,0.47139h-16.59308c-0.28284,0 -0.56567,-0.28284 -0.56567,-0.47139v0c0,-0.28284 0.28284,-0.47139 0.56567,-0.47139h16.49881c0.37712,0 0.65994,0.18855 0.65994,0.47139z" fill="#fee247"/><path d="M248.57809,190.12025h-17.63016c0,-0.18855 0.28284,-0.47139 0.56567,-0.47139h16.59308c0.28284,0 0.56567,0.18855 0.47139,0.47139z" fill="#e2a62d" opacity="0.5"/></g><path d="M239.81016,161.55375c-1.31991,0 -2.35697,-0.94279 -2.35697,-2.07414c0,-1.13136 1.03706,-2.07414 2.35697,-2.07414c1.31991,0 2.35697,0.94279 2.35697,2.07414c0,1.03706 -1.03706,2.07414 -2.35697,2.07414zM239.81016,157.7826c-1.03706,0 -1.88557,0.75424 -1.88557,1.69702c0,0.94279 0.84851,1.69702 1.88557,1.69702c1.03706,0 1.88557,-0.75424 1.88557,-1.69702c0.09427,-1.03706 -0.84851,-1.69702 -1.88557,-1.69702z" fill="#e2a62d"/><path d="M229.62804,182.48367c-0.28284,-0.09427 -0.28284,-0.18855 -0.28284,-0.28284l10.18213,-22.3441c0.09427,-0.09427 0.28284,-0.18855 0.28284,-0.18855c0.18855,0.09427 0.18855,0.18855 0.18855,0.28284l-10.08785,22.43839c-0.09427,0.09427 -0.18855,0.09427 -0.28284,0.09427z" fill="#5f3a14"/><path d="M249.57647,182.38939l-10.08785,-22.3441c0,-0.09427 0,-0.18855 0.18855,-0.28284c0,0 0.18855,0.09427 0.28284,0.18855l10.18213,22.24982c0,0.09427 0,0.18855 -0.28284,0.28284c-0.09427,0 -0.18855,0 -0.28284,-0.09427z" fill="#5f3a14"/></g></g></g></svg>