<svg version="1.1" xmlns="http://www.w3.org/2000/svg" xmlns:xlink="http://www.w3.org/1999/xlink" width="377.33061" height="35.16868" viewBox="0,0,377.33061,35.16868"><g transform="translate(-45.84454,-90.61084)"><g data-paper-data="{&quot;isPaintingLayer&quot;:true}" fill-rule="nonzero" stroke-linecap="butt" stroke-linejoin="miter" stroke-miterlimit="10" stroke-dasharray="" stroke-dashoffset="0" style="mix-blend-mode: normal"><path d="M413.59204,125.02952h-358.16607c-4.87004,0 -8.83143,-3.9596 -8.83143,-8.83309v-16.00416c0,-4.86834 3.96134,-8.83143 8.83143,-8.83143h358.16775c4.87004,0 8.83143,3.96308 8.83143,8.83143v16.00416c0,4.87349 -3.9631,8.83309 -8.83311,8.83309z" fill="#fcdab3" stroke="#cdac86" stroke-width="1.5"/><text transform="translate(62.6114,112.9044) scale(0.34761,0.34761)" font-size="40" xml:space="preserve" fill="#78644e" fill-rule="nonzero" stroke="none" stroke-width="1" stroke-linecap="butt" stroke-linejoin="miter" stroke-miterlimit="10" stroke-dasharray="" stroke-dashoffset="0" font-family="Sans Serif" font-weight="normal" text-anchor="start" style="mix-blend-mode: normal"><tspan x="0" dy="0">2023 大富翁 in Scratch 春季联机赛</tspan></text><path d="M404.00981,115.11437h-26.74501c-1.18129,0 -2.14219,-0.96047 -2.14219,-2.1426v-10.80506c0,-1.18088 0.96088,-2.14218 2.14219,-2.14218h26.74542c1.18129,0 2.14219,0.9613 2.14219,2.14218v10.80506c0,1.18213 -0.96131,2.1426 -2.1426,2.1426z" fill="#ff6262" stroke="none" stroke-width="0"/><text transform="translate(382.59016,110.20969) scale(0.20381,0.20381)" font-size="40" xml:space="preserve" fill="#ffffff" fill-rule="nonzero" stroke="none" stroke-width="1" stroke-linecap="butt" stroke-linejoin="miter" stroke-miterlimit="10" stroke-dasharray="" stroke-dashoffset="0" font-family="Sans Serif" font-weight="normal" text-anchor="start" style="mix-blend-mode: normal"><tspan x="0" dy="0">赛事</tspan></text></g></g></svg>