<svg version="1.1" xmlns="http://www.w3.org/2000/svg" xmlns:xlink="http://www.w3.org/1999/xlink" width="85.09343" height="83.57311" viewBox="0,0,85.09343,83.57311"><g transform="translate(-195.87716,-138.31142)"><g data-paper-data="{&quot;isPaintingLayer&quot;:true}" fill-rule="nonzero" stroke-linecap="butt" stroke-linejoin="miter" stroke-miterlimit="10" stroke-dasharray="" stroke-dashoffset="0" style="mix-blend-mode: normal"><path d="" fill="#9966ff" stroke="none" stroke-width="0.5"/><path d="" fill="#6696ff" stroke="none" stroke-width="0.5"/><path d="" fill="#6696ff" stroke="none" stroke-width="0.5"/><path d="" fill="#6696ff" stroke="none" stroke-width="0.5"/><path d="" fill="#6696ff" stroke="none" stroke-width="0.5"/><path d="" fill="#6696ff" stroke="none" stroke-width="0.5"/><path d="" fill="#6696ff" stroke="none" stroke-width="0.5"/><path d="" fill="#6696ff" stroke="none" stroke-width="0.5"/><path d="" fill="#6696ff" stroke="none" stroke-width="0.5"/><path d="" fill="#6696ff" stroke="none" stroke-width="0.5"/><path d="" fill="#6696ff" stroke="none" stroke-width="0.5"/><path d="" fill="#6696ff" stroke="none" stroke-width="0.5"/><path d="" fill="#6696ff" stroke="none" stroke-width="0.5"/><path d="" fill="#6696ff" stroke="none" stroke-width="0.5"/><path d="" fill="#6696ff" stroke="none" stroke-width="0.5"/><path d="" fill="#6696ff" stroke="none" stroke-width="0.5"/><path d="" fill="#6696ff" stroke="none" stroke-width="0.5"/><path d="" fill="#6696ff" stroke="none" stroke-width="0.5"/><path d="" fill="#6696ff" stroke="none" stroke-width="0.5"/><path d="" fill="#6696ff" stroke="none" stroke-width="0.5"/><path d="" fill="#6696ff" stroke="none" stroke-width="0.5"/><path d="" fill="#6696ff" stroke="none" stroke-width="0.5"/><path d="" fill="#6696ff" stroke="none" stroke-width="0.5"/><path d="" fill="#6696ff" stroke="none" stroke-width="0.5"/><path d="" fill="#6696ff" stroke="none" stroke-width="0.5"/><path d="" fill="#6696ff" stroke="none" stroke-width="0.5"/><path d="" fill="#6696ff" stroke="none" stroke-width="0.5"/><path d="" fill="#6696ff" stroke="none" stroke-width="0.5"/><path d="" fill="#6696ff" stroke="none" stroke-width="0.5"/><path d="" fill="#6696ff" stroke="none" stroke-width="0.5"/><path d="" fill="#6696ff" stroke="none" stroke-width="0.5"/><path d="" fill="#dfdfdf" stroke="#723700" stroke-width="0.5"/><path d="" fill="#dfdfdf" stroke="#723700" stroke-width="0.5"/><path d="M276.61636,177.5786c0,21.27244 -15.14303,38.51717 -33.82289,38.51717c-18.67986,0 -33.82289,-17.24473 -33.82289,-38.51717c0,-10.86348 1.54192,-20.67653 7.89467,-27.67886c6.08697,-6.70938 16.78784,-10.83832 25.92822,-10.83832c6.72477,0 18.28728,3.92005 23.5538,7.77326c9.36265,6.85012 10.26909,17.12959 10.26909,30.74394z" fill="#ffce91" stroke="#723700" stroke-width="1.5"/><path d="M226.46933,157.09242c-1.3104,3.12682 -3.51582,5.18251 -4.92595,4.59155c-1.41014,-0.59098 -1.49098,-3.60483 -0.18058,-6.73163c1.31041,-3.12681 3.51584,-5.18251 4.92598,-4.59155c1.41012,0.59098 1.49095,3.60484 0.18056,6.73165z" fill="#ffdaad" stroke="none" stroke-width="0"/><path d="M203.32717,183.98595l4.20737,-5.25321l-8.34972,-1.22298l11.14365,-3.57519l-8.70912,-2.93768c0,0 13.14248,-3.71332 24.21814,-3.21648c1.79211,0.08039 4.14889,2.94213 4.38067,4.58592c0.23728,1.68282 -1.56154,5.49033 -3.65178,6.18957c-1.32755,0.4441 -17.19036,2.77909 -17.19036,2.77909z" fill="#dfdfdf" stroke="#723700" stroke-width="1.5"/><path d="M237.96838,178.9306c-2.09023,-0.69925 -3.88906,-4.50676 -3.65178,-6.18957c0.23178,-1.64379 2.58855,-4.50552 4.38067,-4.58592c11.07565,-0.49683 24.21813,3.21648 24.21813,3.21648l-8.8575,0.41513l11.29201,6.09773l-8.34972,1.22298l4.94929,5.2532l-5.99169,-2.78652c0,0 -16.29175,-2.07561 -17.98943,-2.64352z" data-paper-data="{&quot;index&quot;:null}" fill="#dfdfdf" stroke="#723700" stroke-width="1.5"/><path d="M280.2206,186.15993c-1.37079,3.39292 -4.6731,5.25821 -7.37594,4.16624c-0.82989,-0.33529 -1.50676,-0.91037 -2.00668,-1.64461l0.22134,-0.12528c2.00531,-2.14635 2.55269,-5.08093 1.0337,-7.64214c0,0 -0.24193,-0.40053 -0.66907,-0.49194c1.63181,-2.21936 4.2035,-3.26413 6.38474,-2.38289c2.70284,1.09197 3.7827,4.7277 2.41191,8.12063z" fill="#ffce91" stroke="#723700" stroke-width="1.5"/><path d="M269.61625,168.14884l-1.61738,-9.99218c0,0 4.29862,-0.99178 5.63989,-1.30123c0.7438,-0.17161 1.66531,-0.74571 1.66531,-0.74571l1.75563,10.89061c0,0 -1.03435,-0.33018 -1.76562,-0.16146c-1.33781,0.30866 -5.67782,1.30998 -5.67782,1.30998z" fill="#dfdfdf" stroke="#723700" stroke-width="1.5"/><path d="M209.21448,183.27196l6.38221,4.82639l10.20121,-5.63024l10.55371,4.56751l8.89907,-3.63887l7.57873,2.84219c0,0 11.2675,-4.28967 11.52495,-3.68818c0.06153,0.14375 8.02484,-2.57788 9.06724,-0.71797c2.32723,4.1523 -1.20466,14.73384 -1.20466,14.73384l-7.61169,-1.4428c0,0 7.20434,12.56953 6.96756,12.59338c-1.53398,0.15459 -9.04866,-0.30027 -9.04866,-0.30027l-7.9469,8.75888l-8.58334,-3.75482l-12.82962,8.51757l-11.63985,-10.44705l-10.90605,5.12462l2.27452,-12.9534l-12.70033,5.19877l10.14704,-14.08389l-9.88291,0.5321z" data-paper-data="{&quot;index&quot;:null}" fill="#dfdfdf" stroke="#723700" stroke-width="1.5"/></g></g></svg>