<svg version="1.1" xmlns="http://www.w3.org/2000/svg" xmlns:xlink="http://www.w3.org/1999/xlink" width="459.99051" height="314.6803" viewBox="0,0,459.99051,314.6803"><g transform="translate(-10.00475,-22.65986)"><g data-paper-data="{&quot;isPaintingLayer&quot;:true}" fill-rule="nonzero" stroke-linecap="butt" stroke-linejoin="miter" stroke-miterlimit="10" stroke-dasharray="" stroke-dashoffset="0" style="mix-blend-mode: normal"><path d="M457.67176,336.59016h-435.34575c-6.38092,0 -11.57126,-5.18807 -11.57126,-11.57347v-290.03558c0,-6.37865 5.19031,-11.57125 11.57126,-11.57125h435.34799c6.38092,0 11.57126,5.19261 11.57126,11.57125v290.03558c0,6.3854 -5.19261,11.57347 -11.57347,11.57347z" fill="#fcdab3" stroke="#cdac86" stroke-width="1.5"/><text transform="translate(29.39976,63.46234) scale(0.50325,0.50325)" font-size="40" xml:space="preserve" fill="#78644e" fill-rule="nonzero" stroke="none" stroke-width="1" stroke-linecap="butt" stroke-linejoin="miter" stroke-miterlimit="10" stroke-dasharray="" stroke-dashoffset="0" font-family="Sans Serif" font-weight="normal" text-anchor="start" style="mix-blend-mode: normal"><tspan x="0" dy="0">成就</tspan></text><path d="M102.30239,213.30324h-65.97638c-6.38092,0 -11.57126,-5.18807 -11.57126,-11.57347v-109.74866c0,-6.37865 5.19031,-11.57125 11.57126,-11.57125h65.97862c6.38092,0 11.57127,5.19261 11.57127,11.57125v109.74866c0,6.3854 -5.19261,11.57347 -11.57347,11.57347z" fill="#fce2c4" stroke="none" stroke-width="0"/></g></g></svg>