<svg version="1.1" xmlns="http://www.w3.org/2000/svg" xmlns:xlink="http://www.w3.org/1999/xlink" width="90.41873" height="125.10381" viewBox="0,0,90.41873,125.10381"><defs><linearGradient x1="240.07047" y1="137.92987" x2="240.07047" y2="241.2632" gradientUnits="userSpaceOnUse" id="color-1"><stop offset="0" stop-color="#c6c6c6" stop-opacity="0"/><stop offset="1" stop-color="#c6c6c6"/></linearGradient></defs><g transform="translate(-194.79064,-117.4481)"><g data-paper-data="{&quot;isPaintingLayer&quot;:true}" fill-rule="nonzero" stroke-linecap="butt" stroke-linejoin="miter" stroke-miterlimit="10" stroke-dasharray="" stroke-dashoffset="0" style="mix-blend-mode: normal"><path d="M198.9038,241.2632v-103.33332h82.33334v103.33332z" fill="url(#color-1)" stroke="none" stroke-width="0"/><path d="M197.67022,222.69815c0,0 28.69978,6.19049 42.20371,6.19049c14.69468,0 42.69436,-6.19049 42.69436,-6.19049c1.31855,0 2.39109,1.07207 2.39109,2.39155v14.82113c0,1.31809 -1.07253,2.39109 -2.39109,2.39109h-84.89853c-1.31855,0 -2.39109,-1.073 -2.39109,-2.39109v-14.82113c0,-1.31948 1.073,-2.39155 2.39155,-2.39155z" fill="#c6c6c6" stroke="#442903" stroke-width="0.5"/><path d="M197.43219,127.69811c0,0 30.05353,-10 43.87034,-10c14.45382,0 41.02773,10 41.02773,10c1.31855,0 2.39109,1.07207 2.39109,2.39155v14.82112c0,1.31809 -1.07253,2.39109 -2.39109,2.39109c0,0 -28.70311,-4.28571 -42.93248,-4.28571c-14.06831,0 -41.96604,4.28571 -41.96604,4.28571c-1.31855,0 -2.39109,-1.073 -2.39109,-2.39109v-14.82112c0,-1.31948 1.073,-2.39155 2.39155,-2.39155z" fill="#c6c6c6" stroke="#442903" stroke-width="0.5"/></g></g></svg>