<svg version="1.1" xmlns="http://www.w3.org/2000/svg" xmlns:xlink="http://www.w3.org/1999/xlink" width="14.44156" height="15.88513" viewBox="0,0,14.44156,15.88513"><g transform="translate(-233.20693,-171.45783)"><g data-paper-data="{&quot;isPaintingLayer&quot;:true}" fill-rule="nonzero" stroke-linejoin="miter" stroke-miterlimit="10" stroke-dasharray="" stroke-dashoffset="0" style="mix-blend-mode: normal"><g><path d="M239.07007,185.70907h1.29847" fill="none" stroke="#723700" stroke-width="1" stroke-linecap="round"/><g stroke="#723700" stroke-width="0.5"><path d="M246.47923,181.46873c0,1.74872 -0.85948,3.13327 -2.17779,3.97507c-1.14382,0.73038 -2.70538,1.64917 -4.27832,1.64917c-1.1787,0 -2.82772,-0.68148 -3.72228,-1.09474c-1.67506,-0.77383 -2.08279,-2.40049 -2.08279,-4.5295c0,-3.26598 2.74476,-5.91358 6.13059,-5.91358c3.38584,0 6.13059,2.6476 6.13059,5.91358z" fill="#ffce91" stroke-linecap="butt"/><path d="M233.62143,183.91591c-0.30397,-0.55093 -0.17467,-1.20486 0.28881,-1.46058c0.46348,-0.25572 0.73595,0.18668 1.03992,0.73761c0.30398,0.55093 0.52435,1.18261 0.06087,1.43833c-0.46348,0.25572 -1.08563,-0.16443 -1.38961,-0.71536z" fill="#ffce91" stroke-linecap="butt"/><path d="M245.50327,182.83347c0.17256,-0.6051 0.72512,-0.97794 1.23418,-0.83277c0.50905,0.14517 0.78183,0.75339 0.60927,1.35849c-0.17256,0.6051 -0.72512,0.97794 -1.23418,0.83277c-0.50905,-0.14517 -0.78183,-0.75339 -0.60927,-1.35849z" fill="#ffce91" stroke-linecap="butt"/><path d="M241.65628,178.85075l-3.05326,0.15579c0,0 -1.18452,-0.11965 -1.91947,0.56151c-0.51238,0.47488 -1.92128,-0.10113 -2.33253,0.07002c-0.16686,0.06944 -1.54434,-4.35814 -0.11467,-5.34081c0.42662,-0.29323 3.32787,-2.64854 5.98796,-2.58829c2.66009,0.06024 5.48518,0.91619 6.71082,2.8657c1.12229,1.78512 -0.61658,4.18306 -0.43818,4.99558c0,0 -1.38533,-0.65995 -1.91833,-0.50416z" fill="#ff5959" stroke-linecap="butt"/><path d="M236.7662,180.87306c0,0 0.41971,-0.32714 0.679,-0.37773c0.23197,-0.04526 0.80392,0.08838 0.80392,0.08838" fill="none" stroke-linecap="round"/><path d="M241.79576,180.57484c0,0 0.50121,-0.25312 0.76663,-0.2425c0.23745,0.0095 0.75133,0.3032 0.75133,0.3032" fill="none" stroke-linecap="round"/><path d="M237.73705,182.10755v1.03081" fill="none" stroke-linecap="round"/><path d="M242.46135,182.87851v-0.94039" fill="none" stroke-linecap="round"/><path d="M240.85565,185.00549c0,0 -0.39835,0.25142 -0.59507,0.25142c-0.24479,0 -0.76125,-0.25142 -0.76125,-0.25142" fill="none" stroke-linecap="round"/></g><path d="M241.88151,178.51291l-3.05326,0.15579c0,0 -1.18452,-0.11965 -1.91947,0.56151c-0.51238,0.47488 -1.92128,-0.10113 -2.33253,0.07002c-0.10723,0.04463 -0.71446,-1.76806 -0.75528,-3.33008c1.4336,0.21842 10.01053,-0.23833 13.33841,-0.20081c-0.10518,0.34662 -0.06771,0.77504 -0.25281,1.33009c-0.29089,0.87225 -0.80045,1.89169 -0.74747,2.13299c0,0 -0.82226,-0.65995 -1.35526,-0.50416z" fill="#e04646" stroke="none" stroke-width="0" stroke-linecap="butt"/><path d="M239.03423,175.6296c0,-0.6686 0.54201,-1.21061 1.21061,-1.21061c0.6686,0 1.2106,0.54201 1.2106,1.21061c0,0.6686 -0.542,1.2106 -1.2106,1.2106c-0.6686,0 -1.21061,-0.542 -1.21061,-1.2106z" fill="#fff706" stroke="none" stroke-width="0" stroke-linecap="butt"/></g></g></g></svg>