<svg version="1.1" xmlns="http://www.w3.org/2000/svg" xmlns:xlink="http://www.w3.org/1999/xlink" width="57.24662" height="64.46642" viewBox="0,0,57.24662,64.46642"><defs><linearGradient x1="302.21248" y1="279.80854" x2="301.52209" y2="279.80854" gradientUnits="userSpaceOnUse" id="color-1"><stop offset="0" stop-color="#000000"/><stop offset="1" stop-color="#0a0a0a"/></linearGradient><linearGradient x1="306.79986" y1="279.84173" x2="307.49026" y2="279.84173" gradientUnits="userSpaceOnUse" id="color-2"><stop offset="0" stop-color="#000000"/><stop offset="1" stop-color="#0a0a0a"/></linearGradient><linearGradient x1="304.53936" y1="283.01505" x2="304.53936" y2="283.70546" gradientUnits="userSpaceOnUse" id="color-3"><stop offset="0" stop-color="#000000"/><stop offset="1" stop-color="#0a0a0a"/></linearGradient></defs><g transform="translate(-275.59621,-254.00411)"><g data-paper-data="{&quot;isPaintingLayer&quot;:true}" fill-rule="nonzero" stroke-linejoin="miter" stroke-miterlimit="10" stroke-dasharray="" stroke-dashoffset="0" style="mix-blend-mode: normal"><path d="M332.59283,256.64566v59.18378c0,1.31855 -1.07207,2.39109 -2.39155,2.39109h-51.96398c-1.31809,0 -2.39109,-1.07253 -2.39109,-2.39109v-59.18424c0,-1.31855 1.073,-2.39109 2.39109,-2.39109h51.96398c1.31948,0 2.39155,1.073 2.39155,2.39155z" fill="#feffde" stroke="#442903" stroke-width="0.5" stroke-linecap="butt"/><g><path d="M309.43828,309.77089c0,0.63478 -0.6652,1.14937 -1.48577,1.14937c-0.82056,0 -2.66317,-0.12214 -2.66317,-0.75691c0,-0.63478 1.8426,-1.54182 2.66317,-1.54182c0.82056,0 1.48577,0.5146 1.48577,1.14937z" fill="#727272" stroke="#000000" stroke-width="0.5" stroke-linecap="butt"/><path d="M303.43914,309.77089c0,0.63478 -0.6652,1.14937 -1.48577,1.14937c-0.82056,0 -2.66317,-0.12214 -2.66317,-0.75691c0,-0.63478 1.8426,-1.54182 2.66317,-1.54182c0.82056,0 1.48577,0.5146 1.48577,1.14937z" fill="#727272" stroke="#000000" stroke-width="0.5" stroke-linecap="butt"/><path d="M300.74928,287.52747l-0.80499,3.60982l-2.28784,5.82738l-2.5826,-1.41145c0,0 1.67286,-5.09899 2.68784,-6.49688c0.58564,-0.80657 2.98759,-1.52887 2.98759,-1.52887z" fill="#ffffff" stroke="#000000" stroke-width="0.5" stroke-linecap="butt"/><path d="M297.63363,296.93293l-0.5456,1.39764l0.3472,0.40764l-0.39681,0.75705c0,0 -0.69689,0.32992 -1.14083,0.23294c-0.44395,-0.09698 -0.69692,-0.32845 -0.99203,-0.69882c-0.29511,-0.37037 -0.42378,-0.64139 -0.44642,-1.10646c-0.02264,-0.46508 0.3472,-0.93176 0.3472,-0.93176l0.32944,-1.45316z" data-paper-data="{&quot;index&quot;:null}" fill="#fed497" stroke="#000000" stroke-width="0.5" stroke-linecap="round"/><path d="M310.56309,276.28187c0.1118,0.66902 1.54419,1.89599 2.66874,2.99372c1.15436,1.12684 2.58318,2.23231 2.29591,2.99119c-0.58298,1.5401 -3.5472,2.4762 -4.72439,2.56904c-1.08904,0.08588 -2.50166,1.43095 -3.08473,1.79932c-0.86896,0.54899 -0.81028,-1.07251 -2.97452,-1.07251c-0.89976,0 -1.55342,1.58551 -2.37099,0.92061c-1.3573,-1.10385 -1.52823,-0.80475 -3.46353,-1.2703c-1.29495,-0.3115 -3.55736,-1.28464 -4.64911,-1.91473c-2.06802,-1.19352 2.78763,-4.40709 3.59571,-7.08689c0.17449,-0.57866 0.98198,-1.71545 1.59578,-2.92526c0.88707,-1.74842 2.26547,-3.25815 4.75087,-3.23821c1.66894,0.01339 3.03771,0.53707 4.19634,2.08949c1.51352,2.02793 2.00645,3.74663 2.16393,4.14454z" fill="#4c4c4c" stroke="#000000" stroke-width="1.5" stroke-linecap="butt"/><g stroke="#000000" stroke-width="0.5" stroke-linecap="butt"><path d="M312.90566,275.44279c0,0.35959 -0.72679,1.82432 -0.81263,2.47338c-0.07923,0.59901 0.47432,0.39272 0.64299,0.53477c1.17099,0.98616 0.44799,2.33765 -1.57626,2.61722c-0.82147,1.02627 -1.84067,2.40513 -2.64174,3.11877c-0.45602,0.40626 -0.62483,0.73278 -1.38769,0.99365c-0.18824,0.06437 0.51624,1.97819 0.27853,2.18307c-0.80674,0.69526 -5.33842,0.23929 -5.61681,0.23929c-0.24456,0 0.81801,-2.25356 0.24617,-2.41721c-0.9063,-0.25936 -0.81984,-0.4589 -1.32637,-0.84869c-0.88802,-0.68338 -2.14893,-1.53265 -2.61044,-2.81832c-0.01168,-0.87661 -2.15539,0.15505 -2.61839,-2.03003c-0.05722,-0.27003 -0.1502,-0.93733 0.27626,-1.26493c0.32605,-0.25046 1.25454,0.12635 1.28114,-0.04724c0.07869,-0.51343 -0.89732,-2.3789 -0.89732,-2.73371c0,-5.64494 3.43286,-8.72979 8.06172,-8.72979c4.62885,0 8.70085,3.08485 8.70085,8.72979z" fill="#ffce91"/><path d="M302.88154,274.30367c-0.00067,0.00015 -0.35525,0.89391 -0.92269,1.57029c-0.73084,0.87116 -1.71801,1.57526 -1.7387,1.58141c-0.66996,0.19899 1.21214,-1.21081 0.8678,-1.33333c-0.21853,-0.07776 -1.73396,1.03519 -2.58838,1.5116c-0.01177,0.00657 -1.19521,0.22664 -1.42903,0.23885c-0.04913,0.00256 -0.81735,-1.86083 -1.10961,-2.82237c-0.43422,-1.42865 -0.06789,-2.6247 0.79821,-4.08124c0.84028,-1.19348 3.22257,-4.46982 7.30252,-4.37742c4.07994,0.0924 6.11936,1.21649 7.99918,4.20657c1.72132,2.73796 0.52172,6.56449 0.34753,6.63215c-0.55493,-0.09515 -1.00901,-0.09298 -1.5019,-0.06011c-0.38909,0.02595 -0.83005,0.09869 -1.17247,-0.03367c-0.51781,0.00503 -0.9345,-0.01167 -1.23885,-0.11718c-0.23785,-0.08245 -0.39758,-0.26679 -0.54615,-0.22335c0,0 -0.5771,-0.05447 -0.86844,-0.4001c-0.3297,-0.39113 -0.52965,-0.98164 -0.61451,-0.99138c-0.02282,-0.00262 -0.42037,0.61753 -0.3888,0.99004c0.0331,0.39044 0.36698,0.79983 0.06537,0.63545c-0.26594,-0.14495 -0.48353,-0.30099 -0.68524,-0.56191c-0.33104,-0.42821 -0.57783,-0.9731 -0.61856,-0.9877c-0.80659,-0.28941 0.24092,1.54557 -0.34853,1.59331c0,0 -0.67125,-0.32023 -0.93351,-0.80392c-0.0309,-0.16799 -0.38357,-0.34399 -0.49404,-0.81818c-0.1272,-0.546 -0.02101,-1.38367 -0.18121,-1.34782z" fill="#232323"/></g><path d="M301.86728,280.58859v-1.5601" fill="none" stroke="url(#color-1)" stroke-width="0.5" stroke-linecap="round"/><path d="M307.14507,280.65499v-1.62649" fill="none" stroke="url(#color-2)" stroke-width="0.5" stroke-linecap="round"/><path d="M305.4024,283.36026c0,0 -0.54712,0.26408 -0.83479,0.26408c-0.28768,0 -0.89128,-0.26408 -0.89128,-0.26408" fill="none" stroke="url(#color-3)" stroke-width="0.5" stroke-linecap="round"/><path d="M316.97427,280.26356c0.33164,2.18299 -1.50826,2.53095 -1.99989,2.69427c-0.21051,0.06993 1.23524,-0.45248 0.98327,-0.91014c-0.56448,-1.0253 -3.16242,-2.96558 -5.0688,-5.00148c-0.2789,-0.78387 -0.2178,-0.4206 -0.92336,-2.17167c-2.10725,-5.22982 -5.13255,-4.77091 -6.01756,-4.73769c-1.62323,-0.036 -3.04367,0.23939 -4.96241,4.33007c-0.31331,0.66797 -0.78293,1.47114 -1.10264,2.25474c-0.49616,2.54132 -5.36142,5.42959 -3.61069,6.50499c0.45084,0.56286 -1.7177,-1.14229 -1.5928,-2.27371c0.10337,-0.9363 1.34329,-3.41354 2.24888,-6.31514c1.02931,-3.29803 2.12456,-6.31352 2.48559,-7.5963c0.33128,-1.17708 2.24244,-4.26434 6.89935,-4.27495c5.06796,-0.01155 6.30978,2.93021 6.57021,3.75095c0.77442,1.40664 2.59326,6.16053 3.05084,7.14799c0.65021,2.17631 2.62107,3.84061 3.03999,6.59808z" fill="#ffffff" stroke="#000000" stroke-width="0.5" stroke-linecap="butt"/><path d="M296.67311,307.01743c0,0 3.65969,-17.04543 4.23048,-19.70393c0.14483,-0.67456 -5.67607,-3.4898 -5.67607,-3.4898c0,0 6.26572,2.57872 9.43815,2.59847c3.37735,0.02102 10.01105,-3.0726 10.01105,-3.0726l-6.37052,3.51691l4.05873,20.54819c0,0 -0.63597,1.15744 -3.40421,1.50322c-1.54425,0.19289 -4.36321,0.28909 -6.26969,0.22876c-1.93077,-0.06111 -3.17348,-0.00797 -3.91155,-0.19667c-2.01268,-0.51458 -2.10637,-1.93252 -2.10637,-1.93252z" fill="#ffffff" stroke="#000000" stroke-width="0.5" stroke-linecap="butt"/><path d="M298.94721,292.86409l0.60129,-4.54722c0,0 0.75179,-0.41922 1.21647,-0.47191c0.67211,-0.07622 2.42883,0.05853 2.42883,0.05853v3.68287l-3.30781,2.0329l0.2638,-2.67177z" fill="#ffffff" stroke="none" stroke-width="0" stroke-linecap="butt"/><path d="M311.45564,289.23128c1.01499,1.39789 2.68784,6.49688 2.68784,6.49688l-2.5826,1.41145l-2.28784,-5.82737l-0.80499,-3.60983c0,0 2.40194,0.7223 2.98759,1.52887z" data-paper-data="{&quot;index&quot;:null}" fill="#ffffff" stroke="#000000" stroke-width="0.5" stroke-linecap="butt"/><path d="M314.08155,295.71294l0.32944,1.45316c0,0 0.36983,0.46668 0.3472,0.93176c-0.02264,0.46508 -0.15131,0.7361 -0.44641,1.10646c-0.29511,0.37037 -0.54808,0.60185 -0.99203,0.69882c-0.44393,0.09698 -1.14083,-0.23295 -1.14083,-0.23295l-0.39681,-0.75705l0.3472,-0.40764l-0.5456,-1.39764z" data-paper-data="{&quot;index&quot;:null}" fill="#fed497" stroke="#000000" stroke-width="0.5" stroke-linecap="round"/><path d="M309.06756,291.12244l0.2638,2.67177l-3.3078,-2.0329v-3.68287c0,0 1.75671,-0.13474 2.42882,-0.05853c0.46467,0.05269 1.21647,0.47191 1.21647,0.47191l0.60129,4.54722z" data-paper-data="{&quot;index&quot;:null}" fill="#ffffff" stroke="none" stroke-width="0" stroke-linecap="butt"/></g></g></g></svg>