<svg version="1.1" xmlns="http://www.w3.org/2000/svg" xmlns:xlink="http://www.w3.org/1999/xlink" width="33.94262" height="33.94262" viewBox="0,0,33.94262,33.94262"><g transform="translate(-108.24644,-107.62719)"><g data-paper-data="{&quot;isPaintingLayer&quot;:true}" fill-rule="nonzero" stroke-linecap="butt" stroke-linejoin="miter" stroke-miterlimit="10" stroke-dasharray="" stroke-dashoffset="0" style="mix-blend-mode: normal"><path d="M108.99644,124.59849c0,-8.95878 7.26252,-16.2213 16.2213,-16.2213c8.95878,0 16.22132,7.26252 16.22132,16.2213c0,8.95878 -7.26254,16.22132 -16.22132,16.22132c-8.95878,0 -16.2213,-7.26252 -16.2213,-16.22132z" fill="#fcdab3" stroke="#cdac86" stroke-width="1.5"/><g stroke="none"><g><path d="M129.19237,119.9816c0.7417,0.41721 1.34434,1.48342 1.34434,2.31784v6.11906c0,0.83444 -0.60264,1.90061 -1.34434,2.31782l-5.33099,3.05953c-0.7417,0.41721 -1.94697,0.41721 -2.68867,0l-5.331,-3.05953c-0.7417,-0.41721 -1.34434,-1.48342 -1.34434,-2.31782v-6.11906c0,-0.83444 0.60264,-1.90062 1.34434,-2.31784l5.331,-3.05952c0.7417,-0.41721 1.94697,-0.41721 2.68867,0c0,0 5.28463,3.05952 5.33099,3.05952z" fill="#dfded0" stroke-width="1"/><path d="M122.51704,134.35212c-0.55627,0 -1.06619,-0.13906 -1.43706,-0.32449l-5.331,-3.05952c-0.78806,-0.46356 -1.43706,-1.5761 -1.43706,-2.50324v-6.11907c0,-0.92712 0.64898,-2.03968 1.43706,-2.50326l5.331,-3.05952c0.78806,-0.46356 2.08605,-0.46356 2.87409,0l5.33099,3.05952c0.78806,0.46356 1.43706,1.57612 1.43706,2.50326v6.11907c0,0.92712 -0.64899,2.03969 -1.43706,2.50324l-5.33099,3.05952c-0.37085,0.2318 -0.92714,0.32449 -1.43705,0.32449zM122.51704,116.78302c-0.46355,0 -0.92714,0.0927 -1.25164,0.27813l-5.331,3.05953c-0.69536,0.37085 -1.25164,1.39071 -1.25164,2.17875v6.11906c0,0.78806 0.55629,1.76154 1.25164,2.17875l5.331,3.05952c0.64899,0.37085 1.85428,0.37085 2.50328,0l5.33099,-3.05952c0.69536,-0.37085 1.25163,-1.39071 1.25163,-2.17875v-6.11906c0,-0.78806 -0.55627,-1.76154 -1.25163,-2.17875l-5.33099,-3.05953c-0.32449,-0.18543 -0.78806,-0.27813 -1.25165,-0.27813z" fill="#dfded0" stroke-width="1"/><path d="M122.56339,124.57988c-0.41721,0 -0.83441,-0.0927 -1.15891,-0.27813l-5.33099,-3.05954c-0.23179,-0.13906 -0.37085,-0.27813 -0.37085,-0.41721c0,-0.13906 0.13907,-0.32449 0.37085,-0.41721l5.33099,-3.05953c0.27814,-0.18543 0.69534,-0.27814 1.15891,-0.27814c0.46355,0 0.83442,0.09272 1.15891,0.27814l5.331,3.05953c0.23179,0.13906 0.37085,0.27813 0.37085,0.41721c0,0.13906 -0.13908,0.32449 -0.37085,0.41721l-5.331,3.05954c-0.32449,0.18543 -0.7417,0.27813 -1.15891,0.27813zM121.72898,133.71211c-0.13907,0 -0.27813,-0.04638 -0.41721,-0.13908l-5.331,-3.05952c-0.60264,-0.37085 -1.15892,-1.25163 -1.15892,-1.99333v-6.11906c0,-0.18543 0.04636,-0.55629 0.37085,-0.55629c0.13907,0 0.27814,0.04638 0.41722,0.13908l5.331,3.05952c0.60264,0.37085 1.1589,1.2516 1.1589,1.99332v6.07271c0,0.18543 -0.04635,0.37086 -0.13907,0.46357c-0.04637,0.0927 -0.09272,0.13908 -0.2318,0.13908zM123.3051,133.71211c-0.32449,0 -0.37086,-0.41721 -0.37086,-0.55627v-6.11907c0,-0.7417 0.50992,-1.62248 1.1589,-1.99331l5.33101,-3.05952c0.13907,-0.0927 0.27811,-0.13908 0.41719,-0.13908c0.32449,0 0.37085,0.41721 0.37085,0.55627v6.11906c0,0.7417 -0.50992,1.62248 -1.1589,1.99335l-5.33099,3.05952c-0.18542,0.0927 -0.32449,0.13905 -0.41721,0.13905z" fill="#ffffff" stroke-width="1"/><path d="M117.52248,128.7966c0,0.4356 -0.30408,0.78872 -0.67919,0.78872c-0.37509,0 -0.67918,-0.35313 -0.67918,-0.78872c0,-0.4356 0.30407,-0.78872 0.67918,-0.78872c0.37509,0 0.67919,0.35313 0.67919,0.78872z" fill="#3d3d3d" stroke-width="0"/><path d="M120.85263,126.86862c0,0.4356 -0.30406,0.78871 -0.67917,0.78871c-0.37509,0 -0.67918,-0.35312 -0.67918,-0.78871c0,-0.4356 0.30407,-0.78872 0.67918,-0.78872c0.37509,0 0.67917,0.35312 0.67917,0.78872z" fill="#3d3d3d" stroke-width="0"/><path d="M119.13936,119.72632c0.37509,0 0.67918,0.35312 0.67918,0.78874c0,0.4356 -0.30407,0.78874 -0.67918,0.78874c-0.37509,0 -0.67917,-0.35311 -0.67917,-0.78874c0,-0.4356 0.30406,-0.78874 0.67917,-0.78874z" data-paper-data="{&quot;index&quot;:null}" fill="#c30d23" stroke-width="0"/><path d="M125.60687,119.74384c0.37509,0 0.67918,0.35311 0.67918,0.7887c0,0.4356 -0.30407,0.78872 -0.67918,0.78872c-0.37509,0 -0.67919,-0.35313 -0.67919,-0.78872c0,-0.4356 0.30408,-0.7887 0.67919,-0.7887z" data-paper-data="{&quot;index&quot;:null}" fill="#c30d23" stroke-width="0"/><path d="M122.39502,123.04333c-0.37509,0 -0.67918,-0.35312 -0.67918,-0.78871c0,-0.4356 0.30407,-0.78872 0.67918,-0.78872c0.37509,0 0.67918,0.35313 0.67918,0.78872c0,0.4356 -0.30408,0.78871 -0.67918,0.78871z" data-paper-data="{&quot;index&quot;:null}" fill="#c30d23" stroke-width="0"/><path d="M122.41254,119.51161c-0.37509,0 -0.67918,-0.35311 -0.67918,-0.78874c0,-0.4356 0.30407,-0.78872 0.67918,-0.78872c0.37509,0 0.67919,0.35313 0.67919,0.78872c0,0.4356 -0.30408,0.78874 -0.67919,0.78874z" data-paper-data="{&quot;index&quot;:null}" fill="#c30d23" stroke-width="0"/><path d="M127.46474,127.87206c0,0.4356 -0.30408,0.78872 -0.67919,0.78872c-0.37509,0 -0.67917,-0.35312 -0.67917,-0.78872c0,-0.4356 0.3041,-0.78871 0.67917,-0.78871c0.37509,0 0.67919,0.35312 0.67919,0.78871z" fill="#c30d23" stroke-width="0"/></g><g><path d="M135.3901,120.19133c0.7417,0.41721 1.34434,1.48342 1.34434,2.31782v6.11906c0,0.83444 -0.60264,1.90062 -1.34434,2.31784l-5.33099,3.05952c-0.7417,0.41721 -1.94699,0.41721 -2.68869,0l-5.331,-3.05952c-0.7417,-0.41721 -1.34434,-1.48342 -1.34434,-2.31784v-6.11906c0,-0.83444 0.60264,-1.90061 1.34434,-2.31782l5.331,-3.05952c0.7417,-0.41721 1.94699,-0.41721 2.68869,0c0,0 5.28465,3.05952 5.33099,3.05952z" fill="#dfded0" stroke-width="1"/><path d="M128.71477,134.56185c-0.55629,0 -1.0662,-0.13908 -1.43706,-0.32449l-5.331,-3.05953c-0.78806,-0.46356 -1.43706,-1.57611 -1.43706,-2.50325v-6.11907c0,-0.92712 0.64898,-2.03967 1.43706,-2.50324l5.331,-3.05951c0.78806,-0.46356 2.08605,-0.46356 2.87409,0l5.331,3.05951c0.78806,0.46356 1.43704,1.57612 1.43704,2.50324v6.11907c0,0.92712 -0.64899,2.03969 -1.43704,2.50325l-5.331,3.05953c-0.37085,0.2318 -0.92713,0.32449 -1.43706,0.32449zM128.71477,116.99274c-0.46355,0 -0.92714,0.09272 -1.25165,0.27814l-5.33101,3.05952c-0.69536,0.37085 -1.25163,1.39069 -1.25163,2.17874v6.11906c0,0.78806 0.55627,1.76155 1.25163,2.17874l5.33101,3.05953c0.64898,0.37085 1.85428,0.37085 2.50328,0l5.331,-3.05953c0.69536,-0.37085 1.25164,-1.39069 1.25164,-2.17874v-6.11906c0,-0.78806 -0.55629,-1.76155 -1.25164,-2.17874l-5.331,-3.05952c-0.32449,-0.18543 -0.78807,-0.27814 -1.25164,-0.27814z" fill="#dfded0" stroke-width="1"/><path d="M128.76112,124.7896c-0.41721,0 -0.8344,-0.0927 -1.15889,-0.27813l-5.33101,-3.05952c-0.23179,-0.13906 -0.37085,-0.27813 -0.37085,-0.41721c0,-0.13906 0.13907,-0.32449 0.37085,-0.41721l5.33101,-3.05952c0.27813,-0.18543 0.69534,-0.27814 1.15889,-0.27814c0.46355,0 0.83444,0.09272 1.15893,0.27814l5.331,3.05952c0.23179,0.13906 0.37085,0.27813 0.37085,0.41721c0,0.13906 -0.13908,0.32449 -0.37085,0.41721l-5.331,3.05952c-0.32449,0.18543 -0.7417,0.27813 -1.15893,0.27813zM127.9267,133.92181c-0.13907,0 -0.27813,-0.04638 -0.41721,-0.13907l-5.33101,-3.05953c-0.60264,-0.37085 -1.15892,-1.2516 -1.15892,-1.99331v-6.11907c0,-0.18543 0.04636,-0.55629 0.37085,-0.55629c0.13907,0 0.27813,0.04638 0.41721,0.13908l5.331,3.05952c0.60264,0.37085 1.15891,1.25161 1.15891,1.99333v6.0727c0,0.18543 -0.04637,0.37085 -0.13906,0.46357c-0.04637,0.0927 -0.0927,0.13906 -0.23179,0.13906zM129.50283,133.92181c-0.32449,0 -0.37085,-0.41721 -0.37085,-0.55627v-6.11906c0,-0.7417 0.50991,-1.6225 1.15891,-1.99333l5.331,-3.05953c0.13907,-0.0927 0.27814,-0.13907 0.41723,-0.13907c0.32449,0 0.37085,0.41721 0.37085,0.55629v6.11906c0,0.7417 -0.50993,1.62249 -1.15892,1.99333l-5.331,3.05952c-0.18542,0.0927 -0.32449,0.13907 -0.41723,0.13907z" fill="#ffffff" stroke-width="1"/><path d="M123.7202,129.00632c0,0.4356 -0.30408,0.78874 -0.67918,0.78874c-0.37509,0 -0.67918,-0.35313 -0.67918,-0.78874c0,-0.4356 0.30407,-0.78872 0.67918,-0.78872c0.37509,0 0.67918,0.35312 0.67918,0.78872z" fill="#3d3d3d" stroke-width="0"/><path d="M127.05035,127.07834c0,0.4356 -0.30406,0.7887 -0.67917,0.7887c-0.37509,0 -0.67918,-0.35311 -0.67918,-0.7887c0,-0.4356 0.30407,-0.78872 0.67918,-0.78872c0.37509,0 0.67917,0.35313 0.67917,0.78872z" fill="#3d3d3d" stroke-width="0"/><path d="M125.33708,119.93605c0.37509,0 0.67918,0.35312 0.67918,0.78874c0,0.4356 -0.30407,0.78874 -0.67918,0.78874c-0.37509,0 -0.67917,-0.35311 -0.67917,-0.78874c0,-0.4356 0.30406,-0.78874 0.67917,-0.78874z" data-paper-data="{&quot;index&quot;:null}" fill="#c30d23" stroke-width="0"/><path d="M131.80459,119.95356c0.37509,0 0.67918,0.35311 0.67918,0.78871c0,0.4356 -0.30407,0.78872 -0.67918,0.78872c-0.37509,0 -0.67919,-0.35313 -0.67919,-0.78872c0,-0.4356 0.30408,-0.78871 0.67919,-0.78871z" data-paper-data="{&quot;index&quot;:null}" fill="#c30d23" stroke-width="0"/><path d="M128.59275,123.25305c-0.37509,0 -0.67918,-0.35313 -0.67918,-0.78872c0,-0.4356 0.30406,-0.78872 0.67918,-0.78872c0.37509,0 0.67919,0.35313 0.67919,0.78872c0,0.4356 -0.30408,0.78872 -0.67919,0.78872z" data-paper-data="{&quot;index&quot;:null}" fill="#c30d23" stroke-width="0"/><path d="M128.61028,119.72133c-0.37509,0 -0.67918,-0.35313 -0.67918,-0.78872c0,-0.4356 0.30409,-0.78871 0.67918,-0.78871c0.37509,0 0.67918,0.35312 0.67918,0.78871c0,0.4356 -0.30406,0.78872 -0.67918,0.78872z" data-paper-data="{&quot;index&quot;:null}" fill="#c30d23" stroke-width="0"/><path d="M133.66248,128.08178c0,0.4356 -0.3041,0.78871 -0.67919,0.78871c-0.37509,0 -0.67917,-0.35311 -0.67917,-0.78871c0,-0.4356 0.30408,-0.78874 0.67917,-0.78874c0.37509,0 0.67919,0.35313 0.67919,0.78874z" fill="#c30d23" stroke-width="0"/></g></g></g></g></svg>