<svg version="1.1" xmlns="http://www.w3.org/2000/svg" xmlns:xlink="http://www.w3.org/1999/xlink" width="61.62034" height="76.53118" viewBox="0,0,61.62034,76.53118"><defs><linearGradient x1="262.46305" y1="86.31786" x2="262.46305" y2="216.87821" gradientUnits="userSpaceOnUse" id="color-1"><stop offset="0" stop-color="#37caf1"/><stop offset="1" stop-color="#62e4d0"/></linearGradient><radialGradient cx="239.41012" cy="180.38152" r="43.04066" gradientUnits="userSpaceOnUse" id="color-2"><stop offset="0" stop-color="#d6ffe2"/><stop offset="1" stop-color="#d6ffe2" stop-opacity="0"/></radialGradient></defs><g transform="translate(-209.17964,-141.34703)"><g data-paper-data="{&quot;isPaintingLayer&quot;:true}" fill-rule="nonzero" stroke-linecap="butt" stroke-linejoin="miter" stroke-miterlimit="10" stroke-dasharray="" stroke-dashoffset="0" style="mix-blend-mode: normal"><g><path d="M269.79994,154.04705v51.13337c0,6.45067 -5.24475,11.69779 -11.69999,11.69779h-36.22254c-6.44844,0 -11.69777,-5.24707 -11.69777,-11.69779v-51.1356c0,-6.45067 5.24935,-11.69779 11.69779,-11.69779h36.22256c0.4697,0 0.933,0.0278 1.38833,0.08182c1.00957,0.25768 2.02301,0.51933 3.03156,0.7844c4.26819,1.74695 7.2801,5.94545 7.2801,10.8338z" fill="url(#color-1)" stroke="#70fbf6" stroke-width="2"/><path d="M211.0489,195.95421c0.9224,-5.91525 -4.86764,-46.16025 4.74063,-51.93676c2.07017,-2.13768 9.56616,-1.33957 18.48325,-1.35697c11.25778,-0.02196 24.26032,-0.47655 25.67074,-0.11525c3.89554,2.11855 6.55134,4.82117 9.60208,7.9903c-1.70909,3.50977 -0.27585,6.62602 0.12014,10.3869c0.19816,1.882 -0.95797,4.58217 -0.70576,6.25874c0.53703,3.56977 0.66344,5.90886 0.88655,9.8505c0.257,4.54012 0.26986,22.22166 -0.26558,27.62901c-0.09039,0.91284 -0.82625,4.96483 -0.87446,6.12155c-0.95389,0.97429 -7.6027,4.99505 -15.66257,6.21076c-10.32825,1.55786 -21.70091,-0.09479 -29.83733,-0.36856c-13.24648,-0.44571 -10.83115,-5.59919 -11.72585,-7.46149c-2.89263,-6.02095 -0.77005,-11.03986 -0.43184,-13.20874z" fill="url(#color-2)" stroke="none" stroke-width="0"/></g><text transform="translate(223.66391,207.61701) scale(0.27778,0.27778)" font-size="40" xml:space="preserve" fill="#5eafa3" fill-rule="nonzero" stroke="none" stroke-width="1" stroke-linecap="butt" stroke-linejoin="miter" stroke-miterlimit="10" stroke-dasharray="" stroke-dashoffset="0" font-family="Sans Serif" font-weight="normal" text-anchor="start" style="mix-blend-mode: normal"><tspan x="0" dy="0">传送卡</tspan></text><path d="M238.97681,166.23505c-0.67356,0 -1.34711,-0.67356 -1.34711,-1.34711c0,-0.67356 0.67356,-1.34711 1.34711,-1.34711h5.16394v-4.26586c0,-0.67356 0.67356,-1.34711 1.34711,-1.34711c0.44904,0 0.67356,0.22452 0.89808,0.44904l9.87884,9.87884c0.44904,0.44904 0.44904,1.34711 0,1.79615l-9.87884,9.87884c-0.44904,0.44904 -1.34711,0.44904 -1.79615,0c-0.22452,-0.22452 -0.44904,-0.67356 -0.44904,-0.89808v-4.04134h-10.5524c-0.67356,0 -1.34711,-0.67356 -1.34711,-1.34711v-2.46971l-6.73557,6.73557l6.73557,6.73557v-2.46971c0,-0.67356 0.67356,-1.34711 1.34711,-1.34711h6.51105c0.67356,0 1.34711,0.67356 1.34711,1.34711c0,0.67356 -0.67356,1.34711 -1.34711,1.34711h-5.16394v4.26586c0,0.44904 -0.22452,0.67356 -0.44904,0.89808c-0.44904,0.44904 -1.34711,0.44904 -1.79615,0l-10.10336,-9.87884c-0.44904,-0.44904 -0.44904,-1.34711 0,-1.79615l10.10336,-10.10336c0.22452,0 0.44904,-0.22452 0.89808,-0.22452c0.67356,0 1.34711,0.67356 1.34711,1.34711v4.26586h10.5524c0.67356,0 1.34711,0.67356 1.34711,1.34711v2.46971l6.73557,-6.73557l-6.73557,-6.73557v2.46971c0,0.67356 -0.67356,1.34711 -1.34711,1.34711h-6.51105z" fill="#65baad" stroke="none" stroke-width="1"/></g></g></svg>