<svg version="1.1" xmlns="http://www.w3.org/2000/svg" xmlns:xlink="http://www.w3.org/1999/xlink" width="65.35363" height="19.6644" viewBox="0,0,65.35363,19.6644"><g transform="translate(-80.1318,-6.42046)"><g data-paper-data="{&quot;isPaintingLayer&quot;:true}" fill-rule="nonzero" stroke="none" stroke-linecap="butt" stroke-linejoin="miter" stroke-miterlimit="10" stroke-dasharray="" stroke-dashoffset="0" style="mix-blend-mode: normal"><text transform="translate(80.30738,21.69549) scale(0.35116,0.35115)" font-size="40" xml:space="preserve" fill="#b58453" fill-rule="nonzero" stroke="none" stroke-width="1" stroke-linecap="butt" stroke-linejoin="miter" stroke-miterlimit="10" stroke-dasharray="" stroke-dashoffset="0" font-family="Sans Serif" font-weight="normal" text-anchor="start" style="mix-blend-mode: normal"><tspan x="0" dy="0">自动</tspan></text><path d="M139.00796,23.76026h-16.46665c-1.92933,0 -3.49869,-1.56865 -3.49869,-3.49935v-6.34026c0,-1.92866 1.56934,-3.49868 3.49869,-3.49868h16.46733c1.92934,0 3.49869,1.57003 3.49869,3.49869v6.34026c0,1.9307 -1.57004,3.49935 -3.49935,3.49935z" fill="#ffffff" stroke-width="0"/><path d="M132.43553,16.93317c0,-3.60363 2.92131,-6.52495 6.52495,-6.52495c3.60363,0 6.52495,2.92132 6.52495,6.52495c0,3.60363 -2.92131,6.52494 -6.52495,6.52494c-3.60363,0 -6.52495,-2.92131 -6.52495,-6.52494z" fill="#ffffff" stroke-width="0"/><path d="M113.9471,17.04083c0,-3.60363 2.92131,-6.52495 6.52494,-6.52495c3.60363,0 6.52495,2.92132 6.52495,6.52495c0,3.60363 -2.92132,6.52494 -6.52495,6.52494c-3.60363,0 -6.52494,-2.92131 -6.52494,-6.52494z" fill="#d0d0d0" stroke-width="0"/></g></g></svg>