<svg version="1.1" xmlns="http://www.w3.org/2000/svg" xmlns:xlink="http://www.w3.org/1999/xlink" width="107.51652" height="162.86539" viewBox="0,0,107.51652,162.86539"><g transform="translate(-185.96251,-55.98065)"><g data-paper-data="{&quot;isPaintingLayer&quot;:true}" fill-rule="nonzero" stroke-linejoin="miter" stroke-miterlimit="10" stroke-dasharray="" stroke-dashoffset="0" style="mix-blend-mode: normal"><text transform="translate(198.98613,120.4658) scale(0.40369,0.40369)" font-size="40" xml:space="preserve" fill-opacity="0.79216" fill="#f5f5f5" fill-rule="nonzero" stroke="none" stroke-width="1" stroke-linecap="butt" stroke-linejoin="miter" stroke-miterlimit="10" stroke-dasharray="" stroke-dashoffset="0" font-family="Sans Serif" font-weight="normal" text-anchor="start" style="mix-blend-mode: normal"><tspan x="0" dy="0">恭喜中奖者</tspan></text><text transform="translate(186.22864,79.13396) scale(0.53226,0.53226)" font-size="40" xml:space="preserve" fill="#ffffff" fill-rule="nonzero" stroke="none" stroke-width="1" stroke-linecap="butt" stroke-linejoin="miter" stroke-miterlimit="10" stroke-dasharray="" stroke-dashoffset="0" font-family="Sans Serif" font-weight="normal" text-anchor="start" style="mix-blend-mode: normal"><tspan x="0" dy="0">大富翁彩票</tspan></text><path d="M272.15361,187.35624c-1.32257,14.42764 -10.95681,24.29784 -21.74909,28.19414c-2.92345,1.05544 -3.67183,2.57655 -7.07794,2.54518c-3.65156,-0.03364 -6.65053,-2.51502 -9.14014,-2.983c-10.91765,-2.05221 -12.03979,-5.40384 -15.44502,-8.46543c-4.80553,-4.32059 -5.02988,-12.05306 -5.02988,-18.6471c0,-13.92026 2.81581,-23.56903 29.22105,-25.20487c30.28994,-1.87653 30.49176,10.69899 29.22103,24.56114z" data-paper-data="{&quot;index&quot;:null}" fill="#fed497" stroke="#000000" stroke-width="1.5" stroke-linecap="butt"/><path d="M286.00884,210.77177c-2.37359,0.73886 -20.1794,8.16954 -34.20482,2.68908c3.26992,-0.46245 5.62249,-2.22305 7.93838,-3.54768c7.92434,-4.53256 8.956,-12.48424 9.1199,-20.87939c0.19153,-9.81067 -4.0255,-16.24438 -10.45334,-18.96484c-2.86827,1.84378 -2.81838,0.30514 -4.74517,3.00455c-0.09527,0.05964 -0.90344,-0.96027 -2.21084,-3.38437c-2.04548,1.26513 -2.18142,0.40713 -6.04156,3.52702c-2.69898,-2.52925 -3.94875,-3.03672 -4.8192,-0.32966c-2.69149,-2.90241 -4.17931,-3.14799 -5.70987,-3.39504c-2.57554,5.82725 -5.17252,2.05728 -8.36802,2.35699c-3.1955,0.29971 -0.68478,3.28496 -3.98674,-1.1982c-3.56911,1.83244 -4.15404,1.27981 -5.30008,5.37383c-1.25318,4.47677 0.72465,13.49703 0.80864,17.92815c0.09679,5.10639 -2.15001,5.97842 0.60951,10.3135c3.64668,5.72877 10.55044,8.745 17.89552,9.84121c-8.30143,5.79091 -27.78422,2.26128 -36.693,-5.7509c-5.46036,-4.9108 6.46688,-8.35338 6.46688,-15.44292c0,-10.5202 3.2641,-28.97582 12.93053,-39.94024c4.44152,-5.03791 16.12745,-9.9443 22.16969,-9.9443c8.5881,0 19.88104,5.68315 25.94546,9.81291c7.48823,5.09936 11.02347,32.23376 11.02347,40.71728c0,0 9.99825,16.47416 7.62465,17.21302z" data-paper-data="{&quot;index&quot;:null}" fill="#4f412e" stroke="#000000" stroke-width="1.5" stroke-linecap="butt"/><path d="M224.70861,177.18334c0,0 2.22092,-1.73105 3.59294,-1.99878c1.22746,-0.2395 4.25394,0.46767 4.25394,0.46767" data-paper-data="{&quot;index&quot;:null}" fill="none" stroke="#000000" stroke-width="2.5" stroke-linecap="round"/><path d="M251.96258,176.14414c0,0 2.65216,-1.33938 4.05662,-1.28321c1.25647,0.05026 3.97569,1.60442 3.97569,1.60442" data-paper-data="{&quot;index&quot;:null}" fill="none" stroke="#000000" stroke-width="2.5" stroke-linecap="round"/><path d="M224.60955,157.82714c-0.71553,1.37141 -2.12936,2.04811 -3.15791,1.51147c-1.02855,-0.53663 -1.28232,-2.08341 -0.5668,-3.45481c0.71553,-1.37141 2.12936,-2.04811 3.15791,-1.51147c1.02855,0.53663 1.28232,2.08341 0.5668,3.45481z" data-paper-data="{&quot;index&quot;:null}" fill="#6e5b41" stroke="none" stroke-width="0" stroke-linecap="butt"/><path d="M232.49254,154.88577c-0.71553,1.37141 -2.12936,2.04811 -3.15791,1.51149c-1.02855,-0.53663 -1.28232,-2.08341 -0.5668,-3.45481c0.71553,-1.37141 2.12936,-2.04811 3.15791,-1.51147c1.02855,0.53663 1.28232,2.08341 0.5668,3.45481z" data-paper-data="{&quot;index&quot;:null}" fill="#6e5b41" stroke="none" stroke-width="0" stroke-linecap="butt"/><path d="M224.23843,174.85198h-2.2531" data-paper-data="{&quot;index&quot;:null}" fill="none" stroke="none" stroke-width="0" stroke-linecap="round"/><path d="M247.63835,201.8857c0,0 -2.89551,1.43541 -4.30623,1.43541c-1.53013,0 -4.54545,-1.43541 -4.54545,-1.43541" fill="none" stroke="#000000" stroke-width="2.5" stroke-linecap="round"/><path d="M230.97446,186.94144v5.74163" fill="none" stroke="#000000" stroke-width="2.5" stroke-linecap="round"/><path d="M254.18022,187.65914v4.54545" fill="none" stroke="#000000" stroke-width="2.5" stroke-linecap="round"/></g></g></svg>