<svg version="1.1" xmlns="http://www.w3.org/2000/svg" xmlns:xlink="http://www.w3.org/1999/xlink" width="722.77247" height="389.39521" viewBox="0,0,722.77247,389.39521"><g transform="translate(28.33487,5.28131)"><g data-paper-data="{&quot;isPaintingLayer&quot;:true}" fill-rule="nonzero" stroke="none" stroke-linecap="butt" stroke-linejoin="miter" stroke-miterlimit="10" stroke-dasharray="" stroke-dashoffset="0" style="mix-blend-mode: normal"><path d="M659.08416,-3.93889v381.38139h-666.66667v-381.38139z" fill="#66bfff" stroke-width="0"/><path d="M15.56754,382.10608v-387.38738h41.18099v387.38739z" fill="#4db5ff" stroke-width="0"/><path d="M97.9767,382.36675v-387.38739h41.18099v387.38739z" fill="#4db5ff" stroke-width="0"/><path d="M180.91509,382.36675v-387.38739h41.18099v387.38739z" fill="#4db5ff" stroke-width="0"/><path d="M263.32424,382.6274v-387.38738h41.18099v387.38739z" fill="#4db5ff" stroke-width="0"/><path d="M348.07726,382.86224v-387.38738h41.18099v387.38739z" fill="#4db5ff" stroke-width="0"/><path d="M430.48643,383.12291v-387.38738h41.18099v387.38739z" fill="#4db5ff" stroke-width="0"/><path d="M595.14108,384.1139v-387.38738h41.18099v387.38739z" fill="#4db5ff" stroke-width="0"/><path d="M513.01961,382.1169v-387.38738h41.18099v387.38739z" fill="#4db5ff" stroke-width="0"/><path d="M9.10574,36.44138h645.42552v41.18099h-645.42551z" fill="#66bfff" stroke-width="0"/><path d="M8.78864,118.85058h645.42552v41.18099h-645.42551z" fill="#66bfff" stroke-width="0"/><path d="M8.78864,201.78898h636.41651v41.181h-636.4165z" fill="#66bfff" stroke-width="0"/><path d="M8.47154,284.19811h685.96606v41.18099h-685.96605z" fill="#66bfff" stroke-width="0"/><path d="M55.61881,78.42894v-41.80064h42.87245v41.80064z" fill="#4db5ff" stroke-width="0"/><path d="M-27.80563,77.53396v-41.80064h42.87246v41.80064z" fill="#4db5ff" stroke-width="0"/><path d="M222.46232,77.53396v-41.80064h42.87245v41.80064z" fill="#4db5ff" stroke-width="0"/><path d="M139.03789,76.63898v-41.80064h42.87246v41.80064z" fill="#4db5ff" stroke-width="0"/><path d="M388.59977,79.37441v-41.80064h42.87245v41.80064z" fill="#4db5ff" stroke-width="0"/><path d="M305.17533,78.47946v-41.80065h42.87245v41.80065z" fill="#4db5ff" stroke-width="0"/><path d="M470.17635,78.36841v-41.80064h42.87246v41.80064z" fill="#4db5ff" stroke-width="0"/><path d="M55.08958,161.628v-41.80064h42.87246v41.80064z" fill="#4db5ff" stroke-width="0"/><path d="M-28.33487,160.73303v-41.80064h42.87246v41.80064z" fill="#4db5ff" stroke-width="0"/><path d="M221.9331,160.73303v-41.80064h42.87245v41.80064z" fill="#4db5ff" stroke-width="0"/><path d="M138.50864,159.83806v-41.80064h42.87246v41.80064z" fill="#4db5ff" stroke-width="0"/><path d="M388.07054,162.57347v-41.80065h42.87246v41.80065z" fill="#4db5ff" stroke-width="0"/><path d="M304.64606,161.6785v-41.80064h42.87246v41.80064z" fill="#4db5ff" stroke-width="0"/><path d="M469.6471,161.56747v-41.80065h42.87246v41.80065z" fill="#4db5ff" stroke-width="0"/><path d="M56.14012,245.61695v-41.80065h42.87246v41.80065z" fill="#4db5ff" stroke-width="0"/><path d="M-27.2843,244.72199v-41.80065h42.87246v41.80065z" fill="#4db5ff" stroke-width="0"/><path d="M222.98364,244.72199v-41.80065h42.87246v41.80065z" fill="#4db5ff" stroke-width="0"/><path d="M139.5592,243.82703v-41.80065h42.87246v41.80065z" fill="#4db5ff" stroke-width="0"/><path d="M389.1211,246.56243v-41.80065h42.87246v41.80065z" fill="#4db5ff" stroke-width="0"/><path d="M305.69663,245.66747v-41.80065h42.87246v41.80065z" fill="#4db5ff" stroke-width="0"/><path d="M470.69767,245.55643v-41.80065h42.87245v41.80065z" fill="#4db5ff" stroke-width="0"/><path d="M55.61091,327.23621v-41.80064h42.87246v41.80064z" fill="#4db5ff" stroke-width="0"/><path d="M-27.81354,326.34124v-41.80064h42.87246v41.80064z" fill="#4db5ff" stroke-width="0"/><path d="M222.45442,326.34124v-41.80064h42.87246v41.80064z" fill="#4db5ff" stroke-width="0"/><path d="M139.02995,325.44627v-41.80065h42.87246v41.80065z" fill="#4db5ff" stroke-width="0"/><path d="M388.59185,328.18168v-41.80065h42.87246v41.80065z" fill="#4db5ff" stroke-width="0"/><path d="M305.16742,327.28671v-41.80064h42.87246v41.80064z" fill="#4db5ff" stroke-width="0"/><path d="M470.16845,327.17569v-41.80064h42.87245v41.80064z" fill="#4db5ff" stroke-width="0"/><text transform="translate(1.74544,355.5167) scale(0.25938,0.25938)" font-size="40" xml:space="preserve" fill="#000000" fill-rule="nonzero" stroke="none" stroke-width="1" stroke-linecap="butt" stroke-linejoin="miter" stroke-miterlimit="10" stroke-dasharray="" stroke-dashoffset="0" font-family="Sans Serif" font-weight="normal" text-anchor="start" style="mix-blend-mode: normal"><tspan x="0" dy="0">3.0.0 16:9 Version</tspan></text><text transform="translate(0.85048,371.77072) scale(0.25938,0.25938)" font-size="40" xml:space="preserve" fill="#000000" fill-rule="nonzero" stroke="none" stroke-width="1" stroke-linecap="butt" stroke-linejoin="miter" stroke-miterlimit="10" stroke-dasharray="" stroke-dashoffset="0" font-family="Sans Serif" font-weight="normal" text-anchor="start" style="mix-blend-mode: normal"><tspan x="0" dy="0">©Dannr</tspan></text><path d="M554.0738,77.3624v-41.80064h42.87246v41.80064z" fill="#4db5ff" stroke-width="0"/><path d="M553.54455,160.56146v-41.80065h42.87246v41.80065z" fill="#4db5ff" stroke-width="0"/><path d="M554.59512,244.55042v-41.80065h42.87245v41.80065z" fill="#4db5ff" stroke-width="0"/><path d="M554.06589,326.16968v-41.80064h42.87245v41.80064z" fill="#4db5ff" stroke-width="0"/><path d="M634.831,79.3594v-41.80064h42.87246v41.80064z" fill="#4db5ff" stroke-width="0"/><path d="M634.30175,162.55845v-41.80065h42.87246v41.80065z" fill="#4db5ff" stroke-width="0"/><path d="M635.35232,246.54742v-41.80065h42.87245v41.80065z" fill="#4db5ff" stroke-width="0"/><path d="M634.8231,328.16668v-41.80064h42.87245v41.80064z" fill="#4db5ff" stroke-width="0"/></g></g></svg>