<svg version="1.1" xmlns="http://www.w3.org/2000/svg" xmlns:xlink="http://www.w3.org/1999/xlink" width="555.19355" height="408.13657" viewBox="0,0,555.19355,408.13657"><g transform="translate(51.24387,26.12592)"><g data-paper-data="{&quot;isPaintingLayer&quot;:true}" fill-rule="nonzero" stroke-linecap="butt" stroke-linejoin="miter" stroke-miterlimit="10" stroke-dasharray="" stroke-dashoffset="0" style="mix-blend-mode: normal"><path d="M-51.24387,382.01065v-408.13657h555.19355v408.13657zM443.18415,356.95701c17.92852,0 32.46245,-14.53394 32.46245,-32.46245c0,-17.92852 -14.53394,-32.46245 -32.46245,-32.46245c-17.92852,0 -32.46245,14.53394 -32.46245,32.46245c0,17.92852 14.53394,32.46245 32.46245,32.46245z" fill-opacity="0.3451" fill="#3a3229" stroke="none" stroke-width="NaN"/><path d="M430.87286,142.056h-370.66705c-4.27519,0 -7.7527,-3.47598 -7.7527,-7.75418v-49.53843c0,-4.27366 3.47749,-7.7527 7.7527,-7.7527h370.66855c4.27519,0 7.7527,3.47903 7.7527,7.7527v49.53843c0,4.27819 -3.47903,7.75418 -7.75418,7.75418z" fill="#fcdab3" stroke="#cdac86" stroke-width="1.5"/><text transform="translate(145.34434,107.5453) scale(0.43731,0.43731)" font-size="40" xml:space="preserve" fill="#b58453" fill-rule="nonzero" stroke="none" stroke-width="1" stroke-linecap="butt" stroke-linejoin="miter" stroke-miterlimit="10" stroke-dasharray="" stroke-dashoffset="0" font-family="Sans Serif" font-weight="normal" text-anchor="start" style="mix-blend-mode: normal"><tspan x="0" dy="0">点击掷骰子决定前进步数</tspan></text></g></g></svg>