<svg version="1.1" xmlns="http://www.w3.org/2000/svg" xmlns:xlink="http://www.w3.org/1999/xlink" width="26.15325" height="28.5543" viewBox="0,0,26.15325,28.5543"><g transform="translate(-157.31175,-108.40722)"><g data-paper-data="{&quot;isPaintingLayer&quot;:true}" fill-rule="nonzero" stroke="none" stroke-linecap="butt" stroke-linejoin="miter" stroke-miterlimit="10" stroke-dasharray="" stroke-dashoffset="0" style="mix-blend-mode: normal"><path d="M181.027,114.05896c1.18207,0.66492 2.14249,2.36413 2.14249,3.69397v9.75206c0,1.32982 -0.96043,3.02905 -2.14249,3.69396l-8.4961,4.87602c-1.18207,0.66492 -3.10293,0.66492 -4.28499,0l-8.4961,-4.87602c-1.18207,-0.66492 -2.14249,-2.36413 -2.14249,-3.69396v-9.75206c0,-1.32982 0.96044,-3.02906 2.14249,-3.69397l8.4961,-4.87602c1.18207,-0.66492 3.10293,-0.66492 4.28499,0c0,0 8.42224,4.87602 8.49611,4.87602z" fill="#dfded0" stroke-width="1"/><path d="M170.38839,136.96152c-0.88655,0 -1.69923,-0.22163 -2.29027,-0.51715l-8.4961,-4.87602c-1.25594,-0.73879 -2.29027,-2.5119 -2.29027,-3.98948v-9.75205c0,-1.47759 1.03431,-3.25069 2.29027,-3.98949l8.4961,-4.87602c1.25594,-0.73879 3.32457,-0.73879 4.58051,0l8.4961,4.87602c1.25594,0.73879 2.29027,2.5119 2.29027,3.98949v9.75205c0,1.47759 -1.03431,3.25068 -2.29027,3.98948l-8.4961,4.87602c-0.59104,0.36941 -1.47759,0.51715 -2.29027,0.51715zM170.38839,108.9613c-0.73879,0 -1.47759,0.14776 -1.99475,0.44327l-8.4961,4.87602c-1.10819,0.59104 -1.99474,2.21637 -1.99474,3.47231v9.75206c0,1.25594 0.88655,2.80741 1.99474,3.47232l8.49611,4.87602c1.0343,0.59104 2.95517,0.59104 3.98948,0l8.49611,-4.87602c1.10819,-0.59104 1.99474,-2.21637 1.99474,-3.47232v-9.75206c0,-1.25594 -0.88655,-2.80741 -1.99474,-3.47231l-8.4961,-4.87602c-0.51715,-0.29551 -1.25594,-0.44327 -1.99474,-0.44327z" fill="#dfded0" stroke-width="1"/><path d="M170.38839,121.29913c-0.66492,0 -1.32983,-0.14776 -1.84698,-0.44327l-8.4961,-4.87602c-0.36941,-0.22163 -0.59103,-0.44327 -0.59103,-0.66492c0,-0.22163 0.22163,-0.51715 0.59103,-0.66492l8.4961,-4.87602c0.44327,-0.29551 1.1082,-0.44327 1.84698,-0.44327c0.73879,0 1.32982,0.14776 1.84697,0.44327l8.4961,4.87602c0.36941,0.22163 0.59103,0.44327 0.59103,0.66492c0,0.22163 -0.22163,0.51715 -0.59103,0.66492l-8.4961,4.87602c-0.51715,0.29551 -1.18207,0.44327 -1.84697,0.44327zM169.05856,135.85334c-0.22163,0 -0.44327,-0.07389 -0.66492,-0.22163l-8.4961,-4.87602c-0.96044,-0.59104 -1.84697,-1.99474 -1.84697,-3.17682v-9.75205c0,-0.29551 0.07389,-0.88656 0.59104,-0.88656c0.22163,0 0.44327,0.07389 0.66492,0.22163l8.4961,4.87602c0.96044,0.59104 1.84697,1.99474 1.84697,3.17682v9.67818c0,0.29551 -0.07389,0.59103 -0.22163,0.73879c-0.07388,0.14775 -0.14775,0.22163 -0.36941,0.22163zM171.57046,135.85334c-0.51715,0 -0.59104,-0.66492 -0.59104,-0.88655v-9.75206c0,-1.18207 0.81267,-2.58578 1.84697,-3.17682l8.49611,-4.87602c0.22163,-0.14775 0.44327,-0.22163 0.66492,-0.22163c0.51715,0 0.59103,0.66493 0.59103,0.88656v9.75205c0,1.18207 -0.81267,2.58578 -1.84697,3.17682l-8.4961,4.87602c-0.29551,0.14775 -0.51715,0.22163 -0.66492,0.22163z" fill="#ffffff" stroke-width="1"/><path d="M165.00531,113.65208c0.5978,0 1.08242,0.56278 1.08242,1.257c0,0.69422 -0.48461,1.257 -1.08242,1.257c-0.5978,0 -1.08242,-0.56278 -1.08242,-1.257c0,-0.69422 0.48461,-1.257 1.08242,-1.257z" data-paper-data="{&quot;index&quot;:null}" fill="#3d3d3d" stroke-width="0"/><path d="M176.01103,113.61019c0.5978,0 1.08242,0.56277 1.08242,1.25699c0,0.69422 -0.48461,1.257 -1.08242,1.257c-0.5978,0 -1.08241,-0.56278 -1.08241,-1.257c0,-0.69422 0.4846,-1.25699 1.08241,-1.25699z" data-paper-data="{&quot;index&quot;:null}" fill="#3d3d3d" stroke-width="0"/><path d="M170.47326,119.77648c-0.5978,0 -1.0824,-0.56278 -1.08241,-1.257c0,-0.69422 0.4846,-1.25699 1.08241,-1.25699c0.5978,0 1.08242,0.56277 1.08242,1.25699c0,0.69422 -0.48461,1.257 -1.08242,1.257z" data-paper-data="{&quot;index&quot;:null}" fill="#3d3d3d" stroke-width="0"/><path d="M170.36152,112.75124c-0.5978,0 -1.08241,-0.56278 -1.08241,-1.257c0,-0.69422 0.48461,-1.257 1.08242,-1.257c0.5978,0 1.08242,0.56278 1.08242,1.257c0,0.69422 -0.48461,1.257 -1.08242,1.257z" data-paper-data="{&quot;index&quot;:null}" fill="#3d3d3d" stroke-width="0"/><path d="M178.27363,126.63411c0,0.69422 -0.48461,1.257 -1.08241,1.257c-0.5978,0 -1.08242,-0.56278 -1.08242,-1.257c0,-0.69422 0.48462,-1.257 1.08242,-1.257c0.5978,0 1.08241,0.56278 1.08241,1.257z" fill="#c30d23" stroke-width="0"/><path d="M170.27074,116.22196c-0.5978,0 -1.08241,-0.56278 -1.08241,-1.257c0,-0.69422 0.48461,-1.257 1.08242,-1.257c0.5978,0 1.08241,0.56278 1.08241,1.257c0,0.69422 -0.4846,1.257 -1.08241,1.257z" data-paper-data="{&quot;index&quot;:null}" fill="#3d3d3d" stroke-width="0"/><path d="M167.42852,124.23882c0,0.69422 -0.4846,1.257 -1.08241,1.257c-0.5978,0 -1.08241,-0.56278 -1.08241,-1.257c0,-0.69422 0.48461,-1.257 1.08241,-1.257c0.5978,0 1.08241,0.56278 1.08241,1.257z" fill="#3d3d3d" stroke-width="0"/><path d="M164.47457,126.3827c0,0.69422 -0.4846,1.257 -1.08241,1.257c-0.5978,0 -1.08242,-0.56278 -1.08242,-1.257c0,-0.69422 0.48461,-1.257 1.08242,-1.257c0.5978,0 1.08241,0.56278 1.08241,1.257z" fill="#3d3d3d" stroke-width="0"/><path d="M161.79997,128.52658c0,0.69422 -0.48461,1.257 -1.08242,1.257c-0.5978,0 -1.08242,-0.56278 -1.08242,-1.257c0,-0.69422 0.48461,-1.25699 1.08242,-1.25699c0.5978,0 1.08242,0.56277 1.08242,1.25699z" fill="#3d3d3d" stroke-width="0"/></g></g></svg>