<svg version="1.1" xmlns="http://www.w3.org/2000/svg" xmlns:xlink="http://www.w3.org/1999/xlink" width="11.89872" height="14.6192" viewBox="0,0,11.89872,14.6192"><g transform="translate(-234.05064,-172.6904)"><g data-paper-data="{&quot;isPaintingLayer&quot;:true}" fill-rule="nonzero" stroke="none" stroke-width="1" stroke-linecap="butt" stroke-linejoin="miter" stroke-miterlimit="10" stroke-dasharray="" stroke-dashoffset="0" style="mix-blend-mode: normal"><path d="M245.54554,175.80977c0.25995,0.26158 0.40382,0.60654 0.40382,0.97603c0,0.36948 -0.14388,0.71445 -0.40382,0.97603l-0.99565,0.99565c0.08174,0.34496 0.12425,0.70464 0.12425,1.07249v1.46977c0,0.36458 -0.04251,0.71934 -0.12098,1.05941c-0.07847,0.34006 -0.19619,0.66704 -0.34496,0.9744l0.53461,0.53461c0.62616,0.62616 0.62616,1.6447 0,2.27086c-0.30409,0.30409 -0.70627,0.47085 -1.13461,0.47085c-0.42834,0 -0.83216,-0.16676 -1.13461,-0.47085l-0.56894,-0.56894c-0.2534,0.11281 -0.51826,0.20437 -0.79292,0.27139l-0.27303,0.69974c-0.26158,0.66867 -0.6376,0.7684 -0.83706,0.7684c-0.20109,0 -0.57549,-0.09972 -0.83706,-0.7684l-0.2763,-0.6981c-0.27466,-0.06704 -0.53951,-0.15858 -0.79292,-0.27139l-0.56894,0.56894c-0.30409,0.30409 -0.70627,0.47085 -1.13461,0.47085c-0.42834,0 -0.83216,-0.16676 -1.13461,-0.47085c-0.30409,-0.30246 -0.47085,-0.70627 -0.47085,-1.13461c0,-0.42834 0.16676,-0.83216 0.47085,-1.13461l0.53461,-0.53461c-0.29918,-0.61635 -0.46594,-1.30628 -0.46594,-2.03544v-1.46977c0,-0.36948 0.04251,-0.72752 0.12425,-1.07249l-0.99565,-0.99565c-0.25995,-0.26158 -0.40381,-0.60655 -0.40381,-0.97603c0,-0.36785 0.14387,-0.71445 0.40381,-0.97603c0.25995,-0.25995 0.60654,-0.40382 0.97603,-0.40382c0.36948,0 0.71445,0.14388 0.97603,0.40382l0.51008,0.51008c0.2109,-0.18638 0.43978,-0.35314 0.68174,-0.49865c0.24197,-0.1455 0.49864,-0.26975 0.76676,-0.37112v-1.1248c0,-0.90246 0.73407,-1.63653 1.63653,-1.63653c0.89919,0 1.63326,0.73407 1.63326,1.63653v1.12317c0.53624,0.20109 1.02671,0.49865 1.44852,0.86976l0.51008,-0.51008c0.25995,-0.25995 0.60654,-0.40381 0.97603,-0.40381c0.36785,0 0.71445,0.14387 0.97603,0.40381z" fill="#663333"/><path d="M245.07633,176.27897c0.1357,0.1357 0.2109,0.31553 0.2109,0.50682c0,0.19128 -0.07521,0.37276 -0.2109,0.50682l-0.75533,0.75532c-0.09482,-0.23052 -0.20926,-0.45123 -0.33842,-0.66213c-0.12916,-0.20927 -0.27466,-0.40872 -0.43489,-0.5951l0.51172,-0.51172c0.1357,-0.1357 0.31553,-0.21089 0.50682,-0.21089c0.19455,0 0.37439,0.07521 0.51008,0.21089zM244.2736,184.33898c0.36785,0.36785 0.36785,0.96622 0,1.33407c-0.1782,0.1782 -0.41526,0.2763 -0.66703,0.2763c-0.25177,0 -0.48883,-0.0981 -0.66703,-0.2763l-0.42998,-0.42998c0.26648,-0.17166 0.51663,-0.36785 0.74387,-0.58856c0.22725,-0.22072 0.43161,-0.46267 0.60982,-0.72589z" fill="#f9dcb2"/><path d="M244.01201,180.8959v0.40381c0,1.23107 -0.55749,2.33462 -1.43379,3.07195l-1.05451,-1.82617l0.95314,-1.64961z" fill="#9ace57"/><path d="M244.01201,179.82996v0.40382h-1.53679l-0.92044,-1.59565l1.06432,-1.84415c0.85342,0.7357 1.39292,1.82454 1.39292,3.03599z" fill="#6a973a"/><path d="M242.08122,176.39996l-1.06922,1.85397h-1.96514l-1.08556,-1.88013c0.29918,-0.17656 0.62289,-0.31717 0.96459,-0.41199c0.3417,-0.09482 0.70137,-0.1455 1.07412,-0.1455c0.76186,0 1.47467,0.21417 2.08122,0.58366z" fill="#9ace57"/><path d="M240.95151,182.87575l1.08557,1.88013c-0.05395,0.03106 -0.1079,0.06213 -0.16348,0.09155h-0.00163c-0.03433,0.01963 -0.0703,0.03597 -0.10627,0.05395c-0.53298,0.26486 -1.13298,0.41199 -1.76731,0.41199c-0.63271,0 -1.23271,-0.14713 -1.76731,-0.41036c-0.03597,-0.01798 -0.07194,-0.03433 -0.10627,-0.05395c-0.03923,-0.02125 -0.08012,-0.04251 -0.11935,-0.06539l1.10028,-1.90792zM240.95151,178.91605l0.95151,1.64961l-0.95151,1.64796h-1.90464l-0.95151,-1.64796l0.95151,-1.64961z" fill="#6a973a"/><path d="M240.97275,174.53455v0.72262c-0.15695,-0.0327 -0.31717,-0.05886 -0.47902,-0.07684c-0.16185,-0.01635 -0.32698,-0.02615 -0.49373,-0.02615c-0.33352,0 -0.66049,0.03433 -0.97439,0.103v-0.72262c0.05395,0.04251 0.12098,0.06867 0.19455,0.06867c0.17166,0 0.31063,-0.13897 0.31063,-0.31064c0,-0.17166 -0.13897,-0.31063 -0.31063,-0.31063c-0.05232,0 -0.10136,0.01308 -0.1455,0.03597c0.12916,-0.38583 0.49373,-0.66376 0.92371,-0.66376c0.42834,0 0.79292,0.27956 0.92371,0.66377c-0.04251,-0.02289 -0.09155,-0.03597 -0.14387,-0.03597c-0.17166,0 -0.31063,0.13897 -0.31063,0.31063c0,0.17166 0.13897,0.31064 0.31063,0.31064c0.07357,0 0.1406,-0.02615 0.19455,-0.06867zM240.3515,185.96243l-0.13243,0.33842c-0.09319,0.24033 -0.18638,0.32698 -0.22072,0.34497c-0.03433,-0.01798 -0.12753,-0.10627 -0.22072,-0.34497l-0.13243,-0.33842c0.11607,0.00817 0.23379,0.01308 0.35314,0.01308c0.11935,0 0.23705,-0.00327 0.35314,-0.01308z" fill="#f9dcb2"/><path d="M237.52151,180.8959l0.98257,1.70192l-1.04469,1.80819c-0.44959,-0.36785 -0.81744,-0.83216 -1.07412,-1.36023c-0.25668,-0.52807 -0.39891,-1.1199 -0.39891,-1.74606v-0.40381z" fill="#9ace57"/><path d="M237.41851,176.758l1.05451,1.82617l-0.95151,1.64796h-1.53679v-0.40381c0.00163,-1.22944 0.55749,-2.33299 1.43379,-3.07032z" fill="#6a973a"/><path d="M237.48717,185.24307l-0.42998,0.42834c-0.1782,0.1782 -0.41526,0.2763 -0.66703,0.2763c-0.25177,0 -0.48883,-0.0981 -0.66703,-0.2763c-0.1782,-0.1782 -0.2763,-0.41526 -0.2763,-0.66703c0,-0.25177 0.0981,-0.48883 0.2763,-0.66703l0.41036,-0.41036c0.1782,0.26158 0.3842,0.50518 0.60982,0.72589c0.22725,0.22072 0.47575,0.41853 0.74387,0.59019zM235.93567,176.27897l0.51172,0.51172c-0.32044,0.37275 -0.58202,0.79783 -0.77167,1.25723l-0.75533,-0.75532c-0.1357,-0.1357 -0.2109,-0.31554 -0.2109,-0.50682c0,-0.19128 0.07521,-0.37112 0.2109,-0.50682c0.1357,-0.1357 0.31554,-0.21089 0.50682,-0.21089c0.19128,0 0.37275,0.07521 0.50845,0.21089z" fill="#f9dcb2"/></g></g></svg>