<svg version="1.1" xmlns="http://www.w3.org/2000/svg" xmlns:xlink="http://www.w3.org/1999/xlink" width="61.62034" height="76.53118" viewBox="0,0,61.62034,76.53118"><defs><linearGradient x1="262.46306" y1="86.31786" x2="262.46306" y2="216.87821" gradientUnits="userSpaceOnUse" id="color-1"><stop offset="0" stop-color="#37caf1"/><stop offset="1" stop-color="#62e4d0"/></linearGradient><radialGradient cx="239.41015" cy="180.38152" r="43.04066" gradientUnits="userSpaceOnUse" id="color-2"><stop offset="0" stop-color="#d6ffe2"/><stop offset="1" stop-color="#d6ffe2" stop-opacity="0"/></radialGradient></defs><g transform="translate(-209.17964,-141.34703)"><g data-paper-data="{&quot;isPaintingLayer&quot;:true}" fill-rule="nonzero" stroke-linejoin="miter" stroke-miterlimit="10" stroke-dasharray="" stroke-dashoffset="0" style="mix-blend-mode: normal"><g stroke-linecap="butt"><path d="M269.79994,154.04705v51.13337c0,6.45067 -5.24475,11.69779 -11.69999,11.69779h-36.22254c-6.44844,0 -11.69777,-5.24707 -11.69777,-11.69779v-51.1356c0,-6.45067 5.24935,-11.69779 11.69779,-11.69779h36.22256c0.4697,0 0.933,0.0278 1.38833,0.08182c1.00957,0.25768 2.02301,0.51933 3.03156,0.7844c4.26819,1.74695 7.2801,5.94545 7.2801,10.8338z" fill="url(#color-1)" stroke="#70fbf6" stroke-width="2"/><path d="M211.04893,195.95421c0.9224,-5.91525 -4.86764,-46.16025 4.74063,-51.93676c2.07017,-2.13768 9.56616,-1.33957 18.48325,-1.35697c11.25778,-0.02196 24.26032,-0.47655 25.67074,-0.11525c3.89554,2.11855 6.55134,4.82117 9.60208,7.9903c-1.70909,3.50977 -0.27585,6.62602 0.12014,10.3869c0.19816,1.882 -0.95797,4.58217 -0.70576,6.25874c0.53703,3.56977 0.66344,5.90886 0.88655,9.8505c0.257,4.54012 0.26986,22.22166 -0.26558,27.62901c-0.09039,0.91284 -0.82625,4.96483 -0.87446,6.12155c-0.95389,0.97429 -7.6027,4.99505 -15.66257,6.21076c-10.32825,1.55786 -21.70091,-0.09479 -29.83733,-0.36856c-13.24648,-0.44571 -10.83115,-5.59919 -11.72585,-7.46149c-2.89263,-6.02095 -0.77005,-11.03986 -0.43184,-13.20874z" fill="url(#color-2)" stroke="none" stroke-width="0"/></g><text transform="translate(223.66392,207.61701) scale(0.27778,0.27778)" font-size="40" xml:space="preserve" fill="#5eafa3" fill-rule="nonzero" stroke="none" stroke-width="1" stroke-linecap="butt" stroke-linejoin="miter" stroke-miterlimit="10" stroke-dasharray="" stroke-dashoffset="0" font-family="Sans Serif" font-weight="normal" text-anchor="start" style="mix-blend-mode: normal"><tspan x="0" dy="0">送神卡</tspan></text><g data-paper-data="{&quot;index&quot;:null}" stroke="none" stroke-width="1" stroke-linecap="butt"><path d="M222.39318,163.65276c0,-0.503 0.4077,-0.9108 0.9098,-0.9108c0.5031,0 0.9098,0.4077 0.9098,0.9108c0,0.50209 -0.4067,0.9099 -0.9098,0.9099c-0.50209,0 -0.9098,-0.4078 -0.9098,-0.9099z" fill="#304956"/><g><path d="M226.03337,175.48111h-5.45978v-14.55874h5.45978v1.69206zM223.30288,162.74196c-0.5021,0 -0.9098,0.4077 -0.9098,0.9108c0,0.5021 0.40771,0.9099 0.9098,0.9099c0.5031,0 0.9098,-0.40781 0.9098,-0.9099c0,-0.5031 -0.4066,-0.9108 -0.9098,-0.9108z" fill="#415a6b"/><path d="M221.50096,174.57171h4.53241v0.9095h-5.45978v-14.55874h0.92737z" fill="#304956"/><path d="M242.35447,169.21596c0.09439,0.22504 0.13456,0.49215 0.11548,0.79632c-0.00502,0.08335 -0.01396,0.16861 -0.02812,0.25808c-0.54618,3.67825 -11.16258,4.75574 -14.09983,4.13716c-0.70484,-0.1455 -1.49423,-0.44576 -2.30853,-0.82745v-10.96565c6.83642,2.65497 8.06063,-1.19599 13.75438,-0.74511c3.38603,0.26421 14.63606,6.88774 14.45029,9.57003c-0.12051,1.67278 -2.4683,2.11975 -3.70245,1.93598c-2.54461,-0.36653 -6.23712,-2.49852 -8.18123,-4.15935z" fill="#ffc592"/><path d="M226.03347,172.43599c0.8142,0.38159 1.60339,0.68184 2.30833,0.82735c2.87972,0.60643 13.13912,-0.41774 14.05494,-3.92437c0.06216,0.19793 0.08908,0.42206 0.07321,0.67331c-0.00502,0.08335 -0.01406,0.16871 -0.02812,0.25808c-0.54618,3.67825 -11.16258,4.75574 -14.09983,4.13716c-0.70494,-0.1455 -1.49423,-0.44576 -2.30853,-0.82745v-1.14407z" fill="#eaac7d"/></g></g><path d="M247.42776,179.63811c0,0 7.9928,1.00856 10.07668,2.97531c0.84707,0.79946 0.55431,2.60886 -0.96541,3.72973c-0.61829,0.45602 -3.29329,1.77218 -6.18968,1.9819c-3.25071,0.23537 -6.78029,-0.70224 -7.99415,-1.489c-1.34383,-0.86954 -5.02828,-3.75697 -3.58257,-5.23336c1.66394,-1.69923 8.60555,-1.94332 8.60555,-1.94332" data-paper-data="{&quot;index&quot;:null}" fill="none" stroke="#9c9c9c" stroke-width="2" stroke-linecap="round"/></g></g></svg>