<svg version="1.1" xmlns="http://www.w3.org/2000/svg" xmlns:xlink="http://www.w3.org/1999/xlink" width="33.94262" height="33.9426" viewBox="0,0,33.94262,33.9426"><g transform="translate(-149.90862,-107.79501)"><g data-paper-data="{&quot;isPaintingLayer&quot;:true}" fill-rule="nonzero" stroke-linecap="butt" stroke-linejoin="miter" stroke-miterlimit="10" stroke-dasharray="" stroke-dashoffset="0" style="mix-blend-mode: normal"><path d="M150.65862,124.76631c0,-8.95878 7.26252,-16.2213 16.2213,-16.2213c8.95878,0 16.22132,7.26252 16.22132,16.2213c0,8.95878 -7.26254,16.2213 -16.22132,16.2213c-8.95878,0 -16.2213,-7.26252 -16.2213,-16.2213z" fill="#dcdcdc" stroke="#b8b8b8" stroke-width="1.5"/><g stroke="none"><g><path d="M168.73235,123.35412c0.65096,0.36617 1.17989,1.30195 1.17989,2.03429v5.37056c0,0.73235 -0.52893,1.66813 -1.17989,2.0343l-4.67889,2.68527c-0.65097,0.36617 -1.70881,0.36617 -2.3598,0l-4.67889,-2.68527c-0.65097,-0.36617 -1.1799,-1.30195 -1.1799,-2.0343v-5.37056c0,-0.73236 0.52893,-1.66813 1.1799,-2.03429l4.67889,-2.68527c0.65097,-0.36617 1.70881,-0.36617 2.3598,0c0,0 4.6382,2.68527 4.67889,2.68527z" fill="#dfded0" stroke-width="1"/><path d="M162.87357,135.9668c-0.48825,0 -0.93578,-0.12205 -1.26128,-0.2848l-4.6789,-2.68528c-0.69166,-0.40685 -1.26128,-1.38331 -1.26128,-2.19703v-5.37057c0,-0.81372 0.5696,-1.79018 1.26128,-2.19705l4.6789,-2.68526c0.69166,-0.40685 1.83087,-0.40685 2.52251,0l4.67889,2.68526c0.69166,0.40685 1.26127,1.38332 1.26127,2.19705v5.37057c0,0.81372 -0.5696,1.79018 -1.26127,2.19703l-4.67889,2.68528c-0.32548,0.20344 -0.81373,0.2848 -1.26127,0.2848zM162.87357,120.5468c-0.40685,0 -0.81375,0.08136 -1.09854,0.2441l-4.67889,2.68527c-0.6103,0.32548 -1.09854,1.2206 -1.09854,1.91224v5.37056c0,0.69166 0.48824,1.54606 1.09854,1.91223l4.67889,2.68528c0.5696,0.32548 1.62746,0.32548 2.19707,0l4.6789,-2.68528c0.6103,-0.32548 1.09852,-1.22057 1.09852,-1.91223v-5.37056c0,-0.69166 -0.48822,-1.54608 -1.09852,-1.91224l-4.6789,-2.68527c-0.2848,-0.16275 -0.69166,-0.2441 -1.09852,-0.2441z" fill="#dfded0" stroke-width="1"/><path d="M162.91424,127.38991c-0.36617,0 -0.73235,-0.08137 -1.01714,-0.2441l-4.6789,-2.68527c-0.20343,-0.12205 -0.32548,-0.2441 -0.32548,-0.36617c0,-0.12205 0.12205,-0.2848 0.32548,-0.36617l4.6789,-2.68528c0.2441,-0.16275 0.61028,-0.24412 1.01714,-0.24412c0.40685,0 0.73235,0.08137 1.01714,0.24412l4.6789,2.68528c0.20343,0.12205 0.32548,0.2441 0.32548,0.36617c0,0.12205 -0.12207,0.2848 -0.32548,0.36617l-4.6789,2.68527c-0.2848,0.16275 -0.65097,0.2441 -1.01714,0.2441zM162.18189,135.40505c-0.12205,0 -0.2441,-0.04069 -0.36617,-0.12206l-4.6789,-2.68527c-0.52892,-0.32548 -1.01714,-1.09852 -1.01714,-1.74949v-5.37055c0,-0.16275 0.04069,-0.48824 0.32549,-0.48824c0.12205,0 0.2441,0.0407 0.36617,0.12207l4.67889,2.68528c0.52892,0.32548 1.01714,1.09851 1.01714,1.7495v5.32987c0,0.16275 -0.04069,0.32548 -0.12205,0.40685c-0.04069,0.08137 -0.08136,0.12206 -0.20343,0.12206zM163.56523,135.40505c-0.2848,0 -0.3255,-0.36618 -0.3255,-0.48823v-5.37055c0,-0.65097 0.44754,-1.42401 1.01715,-1.7495l4.67889,-2.68528c0.12205,-0.08137 0.24409,-0.12207 0.36616,-0.12207c0.2848,0 0.32548,0.36617 0.32548,0.48822v5.37055c0,0.65096 -0.44754,1.42401 -1.01713,1.7495l-4.6789,2.68527c-0.16275,0.08137 -0.28481,0.12204 -0.36617,0.12204z" fill="#ffffff" stroke-width="1"/><path d="M158.48995,131.09084c0,0.38231 -0.26688,0.69226 -0.5961,0.69226c-0.32919,0 -0.5961,-0.30993 -0.5961,-0.69226c0,-0.38231 0.26688,-0.69224 0.5961,-0.69224c0.32921,0 0.5961,0.30993 0.5961,0.69224z" fill="#3d3d3d" stroke-width="0"/><path d="M161.41276,129.39868c0,0.38231 -0.26687,0.69223 -0.5961,0.69223c-0.32921,0 -0.5961,-0.30992 -0.5961,-0.69223c0,-0.38231 0.26688,-0.69225 0.5961,-0.69225c0.32919,0 0.5961,0.30992 0.5961,0.69225z" fill="#3d3d3d" stroke-width="0"/><path d="M159.90906,123.13006c0.32919,0 0.59609,0.30992 0.59609,0.69225c0,0.38231 -0.26686,0.69226 -0.59609,0.69226c-0.32921,0 -0.5961,-0.30993 -0.5961,-0.69226c0,-0.38231 0.26688,-0.69225 0.5961,-0.69225z" data-paper-data="{&quot;index&quot;:null}" fill="#c30d23" stroke-width="0"/><path d="M165.58543,123.14543c0.32921,0 0.5961,0.30992 0.5961,0.69223c0,0.38231 -0.26688,0.69225 -0.5961,0.69225c-0.32919,0 -0.5961,-0.30992 -0.5961,-0.69225c0,-0.38231 0.26688,-0.69223 0.5961,-0.69223z" data-paper-data="{&quot;index&quot;:null}" fill="#c30d23" stroke-width="0"/><path d="M162.76648,126.04132c-0.32921,0 -0.5961,-0.30992 -0.5961,-0.69225c0,-0.38231 0.26688,-0.69223 0.5961,-0.69223c0.32919,0 0.5961,0.30994 0.5961,0.69223c0,0.38231 -0.26688,0.69225 -0.5961,0.69225z" data-paper-data="{&quot;index&quot;:null}" fill="#c30d23" stroke-width="0"/><path d="M162.78184,122.94162c-0.32919,0 -0.59611,-0.30994 -0.59611,-0.69227c0,-0.38231 0.26688,-0.69223 0.59611,-0.69223c0.32921,0 0.5961,0.30992 0.5961,0.69223c0,0.38231 -0.26688,0.69227 -0.5961,0.69227z" data-paper-data="{&quot;index&quot;:null}" fill="#c30d23" stroke-width="0"/><path d="M167.21606,130.27938c0,0.38231 -0.26688,0.69225 -0.5961,0.69225c-0.32919,0 -0.59611,-0.30994 -0.59611,-0.69225c0,-0.38231 0.2669,-0.69223 0.59611,-0.69223c0.32921,0 0.5961,0.30992 0.5961,0.69223z" fill="#c30d23" stroke-width="0"/></g><g><path d="M172.18857,115.73391c0.65096,0.36617 1.17989,1.30195 1.17989,2.03429v5.37055c0,0.73236 -0.52892,1.66813 -1.17989,2.03429l-4.67889,2.68528c-0.65097,0.36617 -1.70881,0.36617 -2.3598,0l-4.67889,-2.68528c-0.65097,-0.36617 -1.1799,-1.30195 -1.1799,-2.03429v-5.37055c0,-0.73236 0.52893,-1.66813 1.1799,-2.03429l4.67889,-2.68528c0.65096,-0.36617 1.70881,-0.36617 2.3598,0c0,0 4.6382,2.68528 4.67889,2.68528z" fill="#dfded0" stroke-width="1"/><path d="M166.3298,128.34658c-0.48825,0 -0.93578,-0.12206 -1.26128,-0.2848l-4.6789,-2.68527c-0.69166,-0.40685 -1.26126,-1.38332 -1.26126,-2.19703v-5.37056c0,-0.81372 0.5696,-1.79017 1.26126,-2.19705l4.6789,-2.68528c0.69166,-0.40685 1.83087,-0.40685 2.52251,0l4.6789,2.68528c0.69166,0.40685 1.26126,1.38332 1.26126,2.19705v5.37056c0,0.81372 -0.5696,1.79019 -1.26126,2.19703l-4.6789,2.68527c-0.32548,0.20343 -0.81373,0.2848 -1.26128,0.2848zM166.3298,112.92658c-0.40685,0 -0.81373,0.08136 -1.09854,0.24411l-4.6789,2.68529c-0.6103,0.32548 -1.09853,1.22058 -1.09853,1.91224v5.37055c0,0.69166 0.48824,1.54606 1.09853,1.91224l4.6789,2.68527c0.5696,0.32548 1.62746,0.32548 2.19706,0l4.67889,-2.68527c0.6103,-0.32548 1.09853,-1.22057 1.09853,-1.91224v-5.37055c0,-0.69166 -0.48823,-1.54606 -1.09853,-1.91224l-4.67889,-2.68529c-0.2848,-0.16275 -0.69166,-0.24411 -1.09854,-0.24411z" fill="#dfded0" stroke-width="1"/><path d="M166.37048,119.76968c-0.36617,0 -0.73233,-0.08136 -1.01713,-0.24411l-4.6789,-2.68528c-0.20344,-0.12205 -0.3255,-0.2441 -0.3255,-0.36617c0,-0.12205 0.12206,-0.2848 0.3255,-0.36617l4.6789,-2.68527c0.2441,-0.16275 0.61028,-0.24412 1.01713,-0.24412c0.40685,0 0.73237,0.08138 1.01716,0.24412l4.67887,2.68527c0.20344,0.12205 0.32549,0.2441 0.32549,0.36617c0,0.12205 -0.12207,0.2848 -0.32549,0.36617l-4.67887,2.68528c-0.2848,0.16275 -0.65099,0.24411 -1.01716,0.24411zM165.63813,127.78483c-0.12205,0 -0.2441,-0.0407 -0.36617,-0.12207l-4.67889,-2.68528c-0.52892,-0.32548 -1.01715,-1.09851 -1.01715,-1.74949v-5.37055c0,-0.16275 0.04069,-0.48824 0.32549,-0.48824c0.12205,0 0.2441,0.04068 0.36617,0.12205l4.6789,2.68527c0.52892,0.32548 1.01714,1.09852 1.01714,1.74951v5.32987c0,0.16276 -0.04068,0.32549 -0.12206,0.40687c-0.04071,0.08137 -0.08136,0.12205 -0.20344,0.12205zM167.02146,127.78483c-0.2848,0 -0.32549,-0.36617 -0.32549,-0.48824v-5.37056c0,-0.65097 0.44754,-1.424 1.01714,-1.74949l4.6789,-2.68529c0.12205,-0.08137 0.2441,-0.12205 0.36617,-0.12205c0.2848,0 0.32548,0.36617 0.32548,0.48824v5.37055c0,0.65097 -0.44752,1.42401 -1.01713,1.74949l-4.6789,2.68528c-0.16276,0.08137 -0.2848,0.12205 -0.36617,0.12205z" fill="#ffffff" stroke-width="1"/><path d="M161.94619,123.47061c0,0.38231 -0.26688,0.69226 -0.5961,0.69226c-0.32921,0 -0.59611,-0.30994 -0.59611,-0.69226c0,-0.38231 0.26688,-0.69223 0.59611,-0.69223c0.32919,0 0.5961,0.30993 0.5961,0.69223z" fill="#3d3d3d" stroke-width="0"/><path d="M164.86898,121.77847c0,0.38231 -0.26688,0.69223 -0.5961,0.69223c-0.32919,0 -0.59609,-0.30992 -0.59609,-0.69223c0,-0.38231 0.26686,-0.69225 0.59609,-0.69225c0.32921,0 0.5961,0.30992 0.5961,0.69225z" fill="#3d3d3d" stroke-width="0"/><path d="M163.36527,115.50984c0.32919,0 0.59609,0.30992 0.59609,0.69223c0,0.38231 -0.26686,0.69225 -0.59609,0.69225c-0.32921,0 -0.5961,-0.30992 -0.5961,-0.69225c0,-0.38231 0.26688,-0.69223 0.5961,-0.69223z" data-paper-data="{&quot;index&quot;:null}" fill="#c30d23" stroke-width="0"/><path d="M169.04166,115.52521c0.32919,0 0.59611,0.30992 0.59611,0.69223c0,0.38231 -0.26688,0.69225 -0.59611,0.69225c-0.32919,0 -0.5961,-0.30992 -0.5961,-0.69225c0,-0.38231 0.26688,-0.69223 0.5961,-0.69223z" data-paper-data="{&quot;index&quot;:null}" fill="#c30d23" stroke-width="0"/><path d="M166.22269,118.42109c-0.32919,0 -0.59609,-0.30992 -0.59609,-0.69225c0,-0.38231 0.26686,-0.69223 0.59609,-0.69223c0.32921,0 0.5961,0.30992 0.5961,0.69223c0,0.38231 -0.26688,0.69225 -0.5961,0.69225z" data-paper-data="{&quot;index&quot;:null}" fill="#c30d23" stroke-width="0"/><path d="M166.23808,115.3214c-0.32921,0 -0.5961,-0.30992 -0.5961,-0.69223c0,-0.38231 0.26688,-0.69223 0.5961,-0.69223c0.32919,0 0.5961,0.30992 0.5961,0.69223c0,0.38231 -0.26688,0.69223 -0.5961,0.69223z" data-paper-data="{&quot;index&quot;:null}" fill="#c30d23" stroke-width="0"/><path d="M170.67228,122.65916c0,0.38231 -0.26688,0.69224 -0.5961,0.69224c-0.32921,0 -0.59611,-0.30993 -0.59611,-0.69224c0,-0.38231 0.26688,-0.69224 0.59611,-0.69224c0.32919,0 0.5961,0.30992 0.5961,0.69224z" fill="#c30d23" stroke-width="0"/></g><g><path d="M176.19444,123.67808c0.65097,0.36617 1.17988,1.30196 1.17988,2.03431v5.37055c0,0.73236 -0.52891,1.66813 -1.17988,2.0343l-4.67891,2.68528c-0.65097,0.36617 -1.70882,0.36617 -2.35979,0l-4.6789,-2.68528c-0.65097,-0.36617 -1.17988,-1.30195 -1.17988,-2.0343v-5.37055c0,-0.73235 0.52891,-1.66813 1.17988,-2.03431l4.6789,-2.68527c0.65096,-0.36617 1.70881,-0.36617 2.35979,0c0,0 4.63822,2.68527 4.67891,2.68527z" fill="#dfded0" stroke-width="1"/><path d="M170.33566,136.29076c-0.48825,0 -0.93579,-0.12206 -1.26127,-0.2848l-4.67889,-2.68527c-0.69166,-0.40685 -1.26128,-1.38332 -1.26128,-2.19703v-5.37057c0,-0.81372 0.56961,-1.79018 1.26128,-2.19705l4.67889,-2.68528c0.69166,-0.40685 1.83088,-0.40685 2.52252,0l4.6789,2.68528c0.69166,0.40685 1.26126,1.38332 1.26126,2.19705v5.37057c0,0.81372 -0.5696,1.79019 -1.26126,2.19703l-4.6789,2.68527c-0.32548,0.20343 -0.81371,0.2848 -1.26125,0.2848zM170.33566,120.87076c-0.40685,0 -0.81373,0.08138 -1.09854,0.24412l-4.6789,2.68527c-0.6103,0.32548 -1.09852,1.22057 -1.09852,1.91224v5.37055c0,0.69166 0.48823,1.54608 1.09852,1.91224l4.6789,2.68527c0.5696,0.32548 1.62745,0.32548 2.19706,0l4.6789,-2.68527c0.6103,-0.32548 1.09852,-1.2206 1.09852,-1.91224v-5.37055c0,-0.69166 -0.48823,-1.54606 -1.09852,-1.91224l-4.6789,-2.68527c-0.2848,-0.16275 -0.69167,-0.24412 -1.09853,-0.24412z" fill="#dfded0" stroke-width="1"/><path d="M170.37633,127.71388c-0.36617,0 -0.73234,-0.08136 -1.01714,-0.24412l-4.67889,-2.68527c-0.20344,-0.12205 -0.32548,-0.2441 -0.32548,-0.36617c0,-0.12205 0.12205,-0.2848 0.32548,-0.36617l4.67889,-2.68528c0.2441,-0.16275 0.6103,-0.24412 1.01714,-0.24412c0.40685,0 0.73237,0.08137 1.01717,0.24412l4.67888,2.68528c0.20344,0.12205 0.32548,0.2441 0.32548,0.36617c0,0.12205 -0.12207,0.2848 -0.32548,0.36617l-4.67888,2.68527c-0.2848,0.16276 -0.65099,0.24412 -1.01717,0.24412zM169.644,135.72901c-0.12205,0 -0.24412,-0.04068 -0.36617,-0.12205l-4.6789,-2.68528c-0.52892,-0.32548 -1.01716,-1.09851 -1.01716,-1.74949v-5.37055c0,-0.16275 0.04069,-0.48825 0.32549,-0.48825c0.12205,0 0.24412,0.04071 0.36619,0.12207l4.6789,2.68527c0.52892,0.32548 1.01714,1.09851 1.01714,1.7495v5.32988c0,0.16276 -0.04069,0.3255 -0.12206,0.40687c-0.04069,0.08137 -0.08136,0.12205 -0.20344,0.12205zM171.02732,135.72901c-0.2848,0 -0.32548,-0.36617 -0.32548,-0.48822v-5.37055c0,-0.65097 0.44754,-1.42401 1.01716,-1.7495l4.67889,-2.68529c0.12205,-0.08137 0.24412,-0.12206 0.36619,-0.12206c0.2848,0 0.32548,0.36617 0.32548,0.48825v5.37055c0,0.65097 -0.44754,1.42401 -1.01714,1.74949l-4.67889,2.68528c-0.16275,0.08137 -0.2848,0.12205 -0.36619,0.12205z" fill="#ffffff" stroke-width="1"/><path d="M165.95204,131.4148c0,0.38231 -0.26687,0.69225 -0.5961,0.69225c-0.32919,0 -0.5961,-0.30994 -0.5961,-0.69225c0,-0.38231 0.26688,-0.69225 0.5961,-0.69225c0.32921,0 0.5961,0.30992 0.5961,0.69225z" fill="#3d3d3d" stroke-width="0"/><path d="M168.87485,129.72266c0,0.38231 -0.26688,0.69223 -0.5961,0.69223c-0.32921,0 -0.59609,-0.30992 -0.59609,-0.69223c0,-0.38231 0.26686,-0.69224 0.59609,-0.69224c0.32919,0 0.5961,0.30993 0.5961,0.69224z" fill="#3d3d3d" stroke-width="0"/><path d="M167.37115,123.45403c0.32919,0 0.5961,0.30992 0.5961,0.69224c0,0.38231 -0.26688,0.69225 -0.5961,0.69225c-0.32921,0 -0.5961,-0.30992 -0.5961,-0.69225c0,-0.38231 0.26688,-0.69224 0.5961,-0.69224z" data-paper-data="{&quot;index&quot;:null}" fill="#c30d23" stroke-width="0"/><path d="M173.04754,123.46939c0.32921,0 0.59609,0.30992 0.59609,0.69223c0,0.38231 -0.26688,0.69225 -0.59609,0.69225c-0.32919,0 -0.5961,-0.30994 -0.5961,-0.69225c0,-0.38231 0.26688,-0.69223 0.5961,-0.69223z" data-paper-data="{&quot;index&quot;:null}" fill="#c30d23" stroke-width="0"/><path d="M170.22857,126.3653c-0.32921,0 -0.59609,-0.30993 -0.59609,-0.69224c0,-0.38231 0.26686,-0.69225 0.59609,-0.69225c0.32919,0 0.5961,0.30992 0.5961,0.69225c0,0.38231 -0.26688,0.69224 -0.5961,0.69224z" data-paper-data="{&quot;index&quot;:null}" fill="#c30d23" stroke-width="0"/><path d="M170.24395,123.26558c-0.32919,0 -0.5961,-0.30992 -0.5961,-0.69223c0,-0.38231 0.26688,-0.69224 0.5961,-0.69224c0.32921,0 0.5961,0.30994 0.5961,0.69224c0,0.38231 -0.26688,0.69223 -0.5961,0.69223z" data-paper-data="{&quot;index&quot;:null}" fill="#c30d23" stroke-width="0"/><path d="M174.67815,130.60335c0,0.38231 -0.26691,0.69223 -0.5961,0.69223c-0.32921,0 -0.5961,-0.30992 -0.5961,-0.69223c0,-0.38231 0.2669,-0.69225 0.5961,-0.69225c0.32919,0 0.5961,0.30992 0.5961,0.69225z" fill="#c30d23" stroke-width="0"/></g></g></g></g></svg>