<svg version="1.1" xmlns="http://www.w3.org/2000/svg" xmlns:xlink="http://www.w3.org/1999/xlink" width="30.34924" height="33.13554" viewBox="0,0,30.34924,33.13554"><g transform="translate(-224.82538,-163.43223)"><g data-paper-data="{&quot;isPaintingLayer&quot;:true}" fill-rule="nonzero" stroke="none" stroke-linecap="butt" stroke-linejoin="miter" stroke-miterlimit="10" stroke-dasharray="" stroke-dashoffset="0" style="mix-blend-mode: normal"><g><path d="M252.34547,169.99075c1.37172,0.7716 2.48623,2.74343 2.48623,4.28662v11.31667c0,1.54318 -1.11453,3.51503 -2.48623,4.28662l-9.85921,5.65833c-1.37172,0.7716 -3.60076,0.7716 -4.97247,0l-9.85921,-5.65833c-1.37172,-0.7716 -2.48623,-2.74343 -2.48623,-4.28662v-11.31667c0,-1.54318 1.11453,-3.51503 2.48623,-4.28662l9.85921,-5.65833c1.37172,-0.7716 3.60076,-0.7716 4.97247,0c0,0 9.77349,5.65833 9.85921,5.65833z" fill="#dfded0" stroke-width="1"/><path d="M240.00001,196.56777c-1.02879,0 -1.97185,-0.25719 -2.65771,-0.60012l-9.85921,-5.65833c-1.45744,-0.85732 -2.65771,-2.9149 -2.65771,-4.62955v-11.31667c0,-1.71465 1.20025,-3.77222 2.65771,-4.62955l9.85921,-5.65833c1.45744,-0.85732 3.85796,-0.85732 5.3154,0l9.85921,5.65833c1.45744,0.85732 2.65771,2.9149 2.65771,4.62955v11.31667c0,1.71465 -1.20025,3.77222 -2.65771,4.62955l-9.85921,5.65833c-0.68586,0.42867 -1.71465,0.60012 -2.65771,0.60012zM240.00001,164.07522c-0.85732,0 -1.71465,0.17146 -2.31478,0.51439l-9.85921,5.65833c-1.28599,0.68586 -2.31478,2.57197 -2.31478,4.02941v11.31667c0,1.45744 1.02879,3.25783 2.31478,4.02941l9.85921,5.65833c1.20025,0.68586 3.42929,0.68586 4.62955,0l9.85921,-5.65833c1.28599,-0.68586 2.31478,-2.57197 2.31478,-4.02941v-11.31667c0,-1.45744 -1.02879,-3.25783 -2.31478,-4.02941l-9.85921,-5.65833c-0.60012,-0.34293 -1.45744,-0.51439 -2.31478,-0.51439z" fill="#dfded0" stroke-width="1"/><path d="M240.00001,178.39252c-0.7716,0 -1.54318,-0.17146 -2.1433,-0.51439l-9.85921,-5.65833c-0.42867,-0.25719 -0.68586,-0.51439 -0.68586,-0.7716c0,-0.25719 0.25719,-0.60012 0.68586,-0.7716l9.85921,-5.65833c0.51439,-0.34293 1.28599,-0.51439 2.1433,-0.51439c0.85732,0 1.54318,0.17146 2.1433,0.51439l9.85921,5.65833c0.42867,0.25719 0.68586,0.51439 0.68586,0.7716c0,0.25719 -0.25719,0.60012 -0.68586,0.7716l-9.85921,5.65833c-0.60012,0.34293 -1.37172,0.51439 -2.1433,0.51439zM238.45683,195.28179c-0.25719,0 -0.51439,-0.08574 -0.7716,-0.25719l-9.85921,-5.65833c-1.11453,-0.68586 -2.1433,-2.31478 -2.1433,-3.6865v-11.31667c0,-0.34293 0.08574,-1.02879 0.68586,-1.02879c0.25719,0 0.51439,0.08574 0.7716,0.25719l9.85921,5.65833c1.11453,0.68586 2.1433,2.31478 2.1433,3.6865v11.23094c0,0.34293 -0.08574,0.68586 -0.25719,0.85732c-0.08574,0.17146 -0.17146,0.25719 -0.42867,0.25719zM241.37173,195.28179c-0.60012,0 -0.68586,-0.7716 -0.68586,-1.02879v-11.31667c0,-1.37172 0.94305,-3.00064 2.1433,-3.6865l9.85921,-5.65833c0.25719,-0.17146 0.51439,-0.25719 0.7716,-0.25719c0.60012,0 0.68586,0.7716 0.68586,1.02879v11.31667c0,1.37172 -0.94305,3.00064 -2.1433,3.6865l-9.85921,5.65833c-0.34293,0.17146 -0.60012,0.25719 -0.7716,0.25719z" fill="#ffffff" stroke-width="1"/><path d="M230.763,186.2933c0,0.8056 -0.56236,1.45867 -1.25608,1.45867c-0.69371,0 -1.25608,-0.65307 -1.25608,-1.45867c0,-0.8056 0.56236,-1.45867 1.25608,-1.45867c0.69371,0 1.25608,0.65307 1.25608,1.45867z" fill="#3d3d3d" stroke-width="0"/><path d="M236.92183,182.72767c0,0.8056 -0.56236,1.45867 -1.25608,1.45867c-0.69371,0 -1.25608,-0.65307 -1.25608,-1.45867c0,-0.8056 0.56236,-1.45867 1.25608,-1.45867c0.69371,0 1.25608,0.65307 1.25608,1.45867z" fill="#3d3d3d" stroke-width="0"/><path d="M233.75328,169.51859c0.69371,0 1.25608,0.65307 1.25608,1.45867c0,0.8056 -0.56236,1.45867 -1.25608,1.45867c-0.69371,0 -1.25608,-0.65307 -1.25608,-1.45867c0,-0.8056 0.56236,-1.45867 1.25608,-1.45867z" data-paper-data="{&quot;index&quot;:null}" fill="#c30d23" stroke-width="0"/><path d="M245.71438,169.55101c0.69371,0 1.25608,0.65307 1.25608,1.45867c0,0.8056 -0.56236,1.45867 -1.25608,1.45867c-0.69371,0 -1.25608,-0.65307 -1.25608,-1.45867c0,-0.8056 0.56236,-1.45867 1.25608,-1.45867z" data-paper-data="{&quot;index&quot;:null}" fill="#c30d23" stroke-width="0"/><path d="M239.77435,175.65312c-0.69371,0 -1.25607,-0.65307 -1.25608,-1.45867c0,-0.8056 0.56236,-1.45867 1.25608,-1.45867c0.69371,0 1.25608,0.65307 1.25608,1.45867c0,0.8056 -0.56236,1.45867 -1.25608,1.45867z" data-paper-data="{&quot;index&quot;:null}" fill="#c30d23" stroke-width="0"/><path d="M239.80676,169.12151c-0.69371,0 -1.25607,-0.65307 -1.25607,-1.45867c0,-0.8056 0.56236,-1.45867 1.25608,-1.45867c0.69371,0 1.25608,0.65307 1.25608,1.45867c0,0.8056 -0.56236,1.45867 -1.25608,1.45867z" data-paper-data="{&quot;index&quot;:null}" fill="#c30d23" stroke-width="0"/><path d="M249.15036,184.58343c0,0.8056 -0.56237,1.45867 -1.25608,1.45867c-0.69371,0 -1.25608,-0.65307 -1.25608,-1.45867c0,-0.8056 0.56237,-1.45867 1.25608,-1.45867c0.69371,0 1.25608,0.65307 1.25608,1.45867z" fill="#c30d23" stroke-width="0"/></g></g></g></svg>