<svg version="1.1" xmlns="http://www.w3.org/2000/svg" xmlns:xlink="http://www.w3.org/1999/xlink" width="49.32159" height="61.51447" viewBox="0,0,49.32159,61.51447"><defs><linearGradient x1="239.51523" y1="151.5365" x2="239.51523" y2="202.5365" gradientUnits="userSpaceOnUse" id="color-1"><stop offset="0" stop-color="#f3dd6f" stop-opacity="0"/><stop offset="1" stop-color="#f3dd6f"/></linearGradient></defs><g transform="translate(-215.45787,-151.5365)"><g data-paper-data="{&quot;isPaintingLayer&quot;:true}" fill-rule="nonzero" stroke-linejoin="miter" stroke-miterlimit="10" stroke-dasharray="" stroke-dashoffset="0" style="mix-blend-mode: normal"><path d="M219.6819,202.5365c-9.50406,-12.21951 0,-51 0,-51h39.66667c0,0 12.21951,35.2892 0,51c-12.21951,15.7108 -30.1626,12.21951 -39.66667,0z" fill="url(#color-1)" stroke="none" stroke-width="0" stroke-linecap="butt"/><path d="M244.88606,210.00246c0,0.60437 -0.63333,1.09431 -1.41459,1.09431c-0.78125,0 -2.53558,-0.11628 -2.53558,-0.72065c0,-0.60437 1.75433,-1.46796 2.53558,-1.46796c0.78125,0 1.41459,0.48994 1.41459,1.0943z" fill="#727272" stroke="#723700" stroke-width="1" stroke-linecap="butt"/><path d="M238.44517,209.79412c0,0.60437 -0.63333,1.09431 -1.41459,1.09431c-0.78125,0 -2.53558,-0.11628 -2.53558,-0.72065c0,-0.60437 1.75433,-1.46796 2.53558,-1.46796c0.78125,0 1.41459,0.48994 1.41459,1.0943z" fill="#727272" stroke="#723700" stroke-width="1" stroke-linecap="butt"/><path d="M234.5513,185.74218l2.43607,1.64934l-3.09566,9.32917c0,0 -1.19179,-0.46356 -1.42924,-0.80618c-0.3382,-0.488 -0.90685,-0.90599 -0.90685,-0.90599z" fill="#ff5959" stroke="#723700" stroke-width="1" stroke-linecap="butt"/><path d="M232.74338,207.17259l4.28711,-19.96771h7.0216l3.63131,20.3459c0,0 -0.60549,1.10199 -3.24111,1.4312c-1.47027,0.18365 -4.15417,0.27524 -5.96931,0.2178c-1.83827,-0.05818 -3.02143,-0.00759 -3.72414,-0.18725c-1.91625,-0.48993 -2.00546,-1.83993 -2.00546,-1.83993z" fill="#ff5959" stroke="#723700" stroke-width="1" stroke-linecap="butt"/><path d="M234.26902,196.8149l-0.6144,1.57386l0.39098,0.45904l-0.44684,0.85251c0,0 -0.78476,0.37151 -1.28467,0.26231c-0.49992,-0.1092 -0.78479,-0.36986 -1.11711,-0.78693c-0.33232,-0.41707 -0.47721,-0.72225 -0.5027,-1.24597c-0.02549,-0.52372 0.39098,-1.04924 0.39098,-1.04924l0.37097,-1.63638z" data-paper-data="{&quot;index&quot;:null}" fill="#fed497" stroke="#723700" stroke-width="1" stroke-linecap="round"/><path d="M249.12492,194.90852c0,0 -0.56865,0.41799 -0.90685,0.90599c-0.23745,0.34262 -1.42924,0.80618 -1.42924,0.80618l-3.09566,-9.32917l2.43607,-1.64934z" data-paper-data="{&quot;index&quot;:null}" fill="#ff5959" stroke="#723700" stroke-width="1" stroke-linecap="butt"/><path d="M249.2243,195.14411l0.37097,1.63638c0,0 0.41647,0.52552 0.39099,1.04924c-0.02549,0.52372 -0.17038,0.8289 -0.5027,1.24597c-0.33231,0.41707 -0.61719,0.67773 -1.11711,0.78693c-0.49991,0.1092 -1.28467,-0.26232 -1.28467,-0.26232l-0.44684,-0.8525l0.39099,-0.45905l-0.6144,-1.57386z" data-paper-data="{&quot;index&quot;:null}" fill="#fed497" stroke="#723700" stroke-width="1" stroke-linecap="round"/><text transform="translate(237.80003,199.94126) scale(0.13319,0.13319)" font-size="40" xml:space="preserve" fill="#fff706" fill-rule="nonzero" stroke="none" stroke-width="1" stroke-linecap="butt" stroke-linejoin="miter" stroke-miterlimit="10" stroke-dasharray="" stroke-dashoffset="0" font-family="Sans Serif" font-weight="normal" text-anchor="start" style="mix-blend-mode: normal"><tspan x="0" dy="0">удЈ</tspan></text><g><path d="M238.10938,185.2645h2.40213" fill="none" stroke="#723700" stroke-width="1" stroke-linecap="round"/><g stroke="#723700" stroke-width="1"><path d="M251.81612,177.42c0,3.23508 -1.59001,5.79646 -4.02885,7.35376c-2.11603,1.35118 -5.00488,3.05091 -7.91477,3.05091c-2.18057,0 -5.2312,-1.26072 -6.88611,-2.02523c-3.09882,-1.43156 -3.85311,-4.44084 -3.85311,-8.37944c0,-6.04197 5.07772,-10.93995 11.34141,-10.93995c6.2637,0 11.34142,4.89798 11.34142,10.93995z" fill="#ffce91" stroke-linecap="butt"/><path d="M228.02955,181.94721c-0.56234,-1.0192 -0.32313,-2.22895 0.53429,-2.70203c0.85743,-0.47308 1.36148,0.34535 1.92383,1.36455c0.56235,1.0192 0.97003,2.18779 0.11261,2.66087c-0.85743,0.47308 -2.00838,-0.30419 -2.57073,-1.32339z" fill="#ffce91" stroke-linecap="butt"/><path d="M250.01061,179.94473c0.31923,-1.11942 1.34146,-1.80917 2.28319,-1.5406c0.94173,0.26856 1.44636,1.39375 1.12713,2.51317c-0.31923,1.11942 -1.34146,1.80917 -2.28319,1.5406c-0.94173,-0.26856 -1.44636,-1.39375 -1.12713,-2.51317z" fill="#ffce91" stroke-linecap="butt"/><path d="M242.89379,172.57681l-5.64845,0.28821c0,0 -2.19133,-0.22135 -3.55096,1.03877c-0.94789,0.87852 -3.55432,-0.18708 -4.31512,0.12954c-0.30869,0.12847 -2.85698,-8.06244 -0.21214,-9.88034c0.78923,-0.54247 6.15646,-4.89972 11.07756,-4.78827c4.9211,0.11145 10.14743,1.69493 12.41482,5.30146c2.0762,3.30243 -1.14065,7.73854 -0.81062,9.24169c0,0 -2.56283,-1.22088 -3.54886,-0.93269z" fill="#ff5959" stroke-linecap="butt"/><path d="M233.84729,176.31802c0,0 0.77646,-0.6052 1.25613,-0.69879c0.42913,-0.08373 1.48722,0.1635 1.48722,0.1635" fill="none" stroke-linecap="round"/><path d="M243.15183,175.76633c0,0 0.92722,-0.46826 1.41824,-0.44862c0.43928,0.01757 1.38994,0.56092 1.38994,0.56092" fill="none" stroke-linecap="round"/><path d="M235.64332,178.6018v1.90697" fill="none" stroke-linecap="round"/><path d="M244.38314,180.02806v-1.73969" fill="none" stroke-linecap="round"/><path d="M241.41264,183.9629c0,0 -0.73694,0.46512 -1.10087,0.46512c-0.45286,0 -1.40829,-0.46512 -1.40829,-0.46512" fill="none" stroke-linecap="round"/></g><path d="M243.31046,171.95181l-5.64845,0.28821c0,0 -2.19133,-0.22135 -3.55096,1.03877c-0.94789,0.87852 -3.55432,-0.18708 -4.31512,0.12954c-0.19838,0.08256 -1.32174,-3.27087 -1.39725,-6.16056c2.65212,0.40408 18.51919,-0.4409 24.67569,-0.37149c-0.19458,0.64124 -0.12526,1.43381 -0.46769,2.46062c-0.53813,1.61363 -1.48081,3.49958 -1.3828,3.94597c0,0 -1.52116,-1.22088 -2.50719,-0.93269z" fill="#e04646" stroke="none" stroke-width="0" stroke-linecap="butt"/><path d="M238.04308,166.61777c0,-1.23689 1.0027,-2.23959 2.23959,-2.23959c1.23689,0 2.23958,1.0027 2.23958,2.23959c0,1.23689 -1.00269,2.23958 -2.23958,2.23958c-1.23689,0 -2.23959,-1.00269 -2.23959,-2.23958z" fill="#fff706" stroke="none" stroke-width="0" stroke-linecap="butt"/></g></g></g></svg>