<svg version="1.1" xmlns="http://www.w3.org/2000/svg" xmlns:xlink="http://www.w3.org/1999/xlink" width="497.44457" height="435.56904" viewBox="0,0,497.44457,435.56904"><g transform="translate(14.75473,0.79932)"><g data-paper-data="{&quot;isPaintingLayer&quot;:true}" fill-rule="nonzero" stroke-linecap="butt" stroke-linejoin="miter" stroke-miterlimit="10" stroke-dasharray="" stroke-dashoffset="0" style="mix-blend-mode: normal"><path d="M-14.75473,434.76973v-399.24054c0,0 209.26108,-1.99034 259.3258,-1.99034c1.01942,0 1.07178,-34.33816 1.07178,-34.33816l160.77609,0.67633c0,0 -0.65217,210.38594 -0.65217,294.64247c0,1.26818 76.92308,0.24298 76.92308,1.53847c0,56.03348 -9.23077,138.32717 -9.23077,138.32717z" fill-opacity="0.3451" fill="#3a3229" stroke="none" stroke-width="NaN"/><path d="M367.88581,248.62958h-347.72007c-4.27519,0 -7.7527,-3.47598 -7.7527,-7.75418v-59.53843c0,-4.27366 3.47749,-7.7527 7.7527,-7.7527h347.72157c4.27519,0 7.7527,3.47903 7.7527,7.7527c0,0 0,29.14876 0,40.12233c0,3.28465 17.87879,13.61639 17.87879,13.61639l-17.87879,5.79971c0,4.27819 -3.47903,7.75418 -7.75418,7.75418z" fill="#fcdab3" stroke="#cdac86" stroke-width="1.5"/><text transform="translate(26.47493,199.16054) scale(0.3644,0.3644)" font-size="40" xml:space="preserve" fill="#b58453" fill-rule="nonzero" stroke="none" stroke-width="1" stroke-linecap="butt" stroke-linejoin="miter" stroke-miterlimit="10" stroke-dasharray="" stroke-dashoffset="0" font-family="Sans Serif" font-weight="normal" text-anchor="start" style="mix-blend-mode: normal"><tspan x="0" dy="0">这是状态槽</tspan><tspan x="0" dy="48px">你可以在这里看到各个玩家的资金和状态</tspan></text><text transform="translate(150.05111,238.29873) scale(0.32071,0.32071)" font-size="40" xml:space="preserve" fill="#c29465" fill-rule="nonzero" stroke="none" stroke-width="1" stroke-linecap="butt" stroke-linejoin="miter" stroke-miterlimit="10" stroke-dasharray="" stroke-dashoffset="0" font-family="Sans Serif" font-weight="normal" text-anchor="start" style="mix-blend-mode: normal"><tspan x="0" dy="0">按下空格继续</tspan></text><path d="M218.47342,100.30176l-202.31669,0c-4.27519,0 -7.7527,-3.47598 -7.7527,-7.75418l0,-24.82924c0,-4.27366 3.47749,-7.7527 7.7527,-7.7527c0,0 11.69831,-18.85984 11.69831,-18.85984c0,0 5.39999,18.85984 12.04703,18.85984c46.01528,0 178.57285,0 178.57285,0c4.27519,0 7.7527,3.47903 7.7527,7.7527c0,0 0,29.14876 0,40.12233c0,2.21495 0,-15.29309 0,-15.29309c0,4.27819 -3.47903,7.75418 -7.75418,7.75418z" fill="#fcdab3" stroke="#cdac86" stroke-width="1.5"/><text transform="translate(22.46592,85.54192) scale(0.3644,0.3644)" font-size="40" xml:space="preserve" fill="#b58453" fill-rule="nonzero" stroke="none" stroke-width="1" stroke-linecap="butt" stroke-linejoin="miter" stroke-miterlimit="10" stroke-dasharray="" stroke-dashoffset="0" font-family="Sans Serif" font-weight="normal" text-anchor="start" style="mix-blend-mode: normal"><tspan x="0" dy="0">这里可以看到时间和物价指数</tspan></text></g></g></svg>