<svg version="1.1" xmlns="http://www.w3.org/2000/svg" xmlns:xlink="http://www.w3.org/1999/xlink" width="49.32159" height="61.51447" viewBox="0,0,49.32159,61.51447"><defs><linearGradient x1="240.11867" y1="151.5365" x2="240.11867" y2="213.05097" gradientUnits="userSpaceOnUse" id="color-1"><stop offset="0" stop-color="#c0c0c0" stop-opacity="0"/><stop offset="1" stop-color="#c0c0c0"/></linearGradient></defs><g transform="translate(-215.45787,-151.5365)"><g data-paper-data="{&quot;isPaintingLayer&quot;:true}" fill-rule="nonzero" stroke-linejoin="miter" stroke-miterlimit="10" stroke-dasharray="" stroke-dashoffset="0" style="mix-blend-mode: normal"><path d="M219.6819,202.5365c-9.50406,-12.21951 0,-51 0,-51h39.66667c0,0 12.21951,35.2892 0,51c-12.21951,15.7108 -30.1626,12.21951 -39.66667,0z" fill="url(#color-1)" stroke="none" stroke-width="0" stroke-linecap="butt"/><path d="M220.97543,201.22747c0,0 3.01803,-1.72155 4.05947,-6.58866c1.1052,-5.12216 0.2763,-13.47488 1.31773,-17.53435c1.53027,-5.88729 7.43882,-11.13697 8.79906,-11.8596c3.50687,-1.89158 8.88407,-2.33791 13.45363,0.93517c2.08287,1.48776 5.69601,5.22842 7.03499,10.32933c0.23379,0.91391 0.8289,3.44311 0.8289,6.05732c0,2.29541 -0.53134,4.76084 -0.8289,6.16359c-0.57385,2.65672 -2.50794,6.86496 -5.71726,9.64921c-2.46544,2.12538 -10.88192,4.84586 -18.04444,4.97338c-5.88729,0.10627 -10.94569,-2.21039 -10.94569,-2.21039" fill="#f8faff" stroke="#656668" stroke-width="2" stroke-linecap="round"/><path d="M246.86251,180.25001h-5.24968" fill="none" stroke="#656668" stroke-width="2" stroke-linecap="round"/><path d="M240.0188,188.83653c0,0 0.48884,1.89158 0.17003,3.42186c-0.36131,1.72155 -1.55152,3.10305 -1.72155,3.1243c-0.25505,0.04251 -1.38149,-0.91391 -1.82782,-2.27415c-0.57385,-1.78532 -0.44633,-4.05947 -0.44633,-4.05947" fill="none" stroke="#656668" stroke-width="2" stroke-linecap="round"/><path d="M251.02824,188.96405c0,0 0.02125,2.69923 -0.63761,4.5483c-0.42508,1.21146 -1.40275,1.80657 -1.72155,1.78532c-0.29755,-0.02125 -1.38149,-0.34006 -1.76406,-1.50902c-0.65887,-1.9766 -0.10627,-4.86711 -0.10627,-4.86711" fill="none" stroke="#656668" stroke-width="2" stroke-linecap="round"/><path d="M241.48531,174.78779c0,0.8289 -0.57385,1.48776 -1.27523,1.48776c-0.70137,0 -1.27523,-0.65887 -1.27523,-1.48776c0,-0.8289 0.57385,-1.48776 1.27523,-1.48776c0.70137,0 1.27523,0.65887 1.27523,1.48776z" fill="#656668" stroke="none" stroke-width="1" stroke-linecap="butt"/><path d="M249.75302,174.80905c0,0.8289 -0.57385,1.48776 -1.27523,1.48776c-0.70137,0 -1.27523,-0.65887 -1.27523,-1.48776c0,-0.8289 0.57385,-1.48776 1.27523,-1.48776c0.70137,0 1.27523,0.65887 1.27523,1.48776z" fill="#656668" stroke="none" stroke-width="1" stroke-linecap="butt"/><path d="M239.8771,168.55336c0,0 -6.94161,-0.24409 -8.60555,-1.94332c-1.44571,-1.47639 2.23874,-4.36382 3.58257,-5.23336c1.21386,-0.78676 4.74344,-1.72437 7.99415,-1.489c2.89639,0.20972 5.57139,1.52588 6.18968,1.9819c1.51972,1.12087 1.81248,2.93027 0.96541,3.72973c-2.08388,1.96675 -10.07668,2.97531 -10.07668,2.97531" fill="none" stroke="#ffda1f" stroke-width="2" stroke-linecap="round"/><path d="M260.77413,168.7129c0,0 -1.61108,-0.18002 -2.35766,-1.04397c-0.7687,-0.88955 -0.67206,-2.4709 -0.56685,-2.98075c0.15257,-0.73935 1.80102,-1.32932 1.80102,-1.32932c0,0 0.84516,-0.18562 1.10298,0.44344c0.31928,0.77905 1.10661,3.0546 1.29374,4.0934c0.0482,0.26754 -0.22145,0.7708 -0.22145,0.7708l-3.74145,-0.95712l3.82846,-2.43629c0,0 1.08418,0.04567 1.25334,0.67355c0.22434,0.83268 -0.02547,3.88389 -0.02547,3.88389c0,0 -1.34459,0.30857 -2.30752,0.01708c-0.49349,-0.14938 -2.21376,-1.26457 -2.69735,-1.68864c-0.63492,-0.55678 -1.64325,-1.78399 -0.92952,-2.37646c0.2809,-0.23318 2.03279,-1.27483 3.30337,-0.62491c0.35837,0.18331 2.26865,0.00366 2.87062,0.90852c0.37468,0.56319 -0.43505,2.30227 -0.37336,2.50398c0.00478,0.01564 -1.57406,0.4345 -2.30851,0.08253c-0.40796,-0.19551 -2.51932,-0.05735 -3.25305,-1.01696c-0.64543,-0.84414 -1.0612,-2.31331 -0.99913,-3.27394c0.01853,-0.28677 1.0416,-1.29415 2.02194,-0.88713c0.524,0.21755 2.72001,0.06252 3.766,1.29814c0.46638,0.55094 1.53149,2.9858 0.99153,4.68359c-0.11812,0.37141 -1.783,1.38567 -3.43119,0.87503c-0.45977,-0.14245 -1.50724,-0.49995 -2.12644,-1.05615c-0.74933,-0.67308 -1.03315,-1.61692 -0.98066,-2.5613c0.05071,-0.91243 -0.07866,-2.75274 1.07282,-2.27864c0.1801,0.07415 0.73589,-0.36849 1.21562,-0.30955c0.61587,0.07566 1.18911,0.6747 1.55923,1.03576c0.25122,0.24506 2.11612,0.96019 2.50805,1.87204c0.65458,1.5229 -4.88884,-2.28228 -6.38001,-1.9584c-0.10623,0.02308 -0.36675,0.84611 -0.46387,1.99837c-0.0683,0.81033 0.01016,2.06935 -0.00593,2.08878c-0.01587,0.01915 3.17101,2.01069 4.22973,2.46033c1.57272,0.66795 2.44977,-1.12478 2.44832,-1.12415" fill="none" stroke="#656668" stroke-width="0.5" stroke-linecap="round"/></g></g></svg>