<svg version="1.1" xmlns="http://www.w3.org/2000/svg" xmlns:xlink="http://www.w3.org/1999/xlink" width="33.75" height="33.99766" viewBox="0,0,33.75,33.99766"><defs><linearGradient x1="240.91518" y1="171.84735" x2="240.91518" y2="204.03485" gradientUnits="userSpaceOnUse" id="color-1"><stop offset="0" stop-color="#5c5c5c" stop-opacity="0"/><stop offset="1" stop-color="#5c5c5c"/></linearGradient></defs><g transform="translate(-224.04018,-170.03719)"><g data-paper-data="{&quot;isPaintingLayer&quot;:true}" fill-rule="nonzero" stroke-linejoin="miter" stroke-miterlimit="10" stroke-dasharray="" stroke-dashoffset="0" style="mix-blend-mode: normal"><path d="M257.79018,187.9411c0,8.88833 -7.5552,16.09375 -16.875,16.09375c-9.3198,0 -16.875,-7.20542 -16.875,-16.09375c0,-8.88833 7.5552,-16.09375 16.875,-16.09375c9.3198,0 16.875,7.20542 16.875,16.09375z" fill="url(#color-1)" stroke="none" stroke-width="NaN" stroke-linecap="butt"/><g><path d="M239.7732,178.20866c0,0 -0.52679,-1.84651 -0.19873,-2.79022c0.38556,-1.10915 2.36762,-3.44883 2.36762,-3.44883" fill="none" stroke="#ffc87b" stroke-width="1.5" stroke-linecap="round"/><path d="M228.06027,192.88288c-1.19084,-6.93495 3.48133,-13.5163 10.43554,-14.69987c6.95421,-1.18357 13.55708,3.47886 14.74792,10.41381c1.19084,6.93495 -3.48132,13.5163 -10.43553,14.69987c-6.95421,1.18357 -13.55708,-3.47886 -14.74792,-10.41381z" fill="#252525" stroke="none" stroke-width="0" stroke-linecap="butt"/><path d="M235.2538,188.70416c-0.04807,1.7239 -0.8579,3.09958 -1.80877,3.07268c-0.95087,-0.0269 -1.68274,-1.44618 -1.63466,-3.17008c0.04807,-1.7239 0.8579,-3.09958 1.80877,-3.07268c0.95087,0.0269 1.68274,1.44617 1.63466,3.17007z" fill="#3d3d3d" stroke="none" stroke-width="0" stroke-linecap="butt"/></g><path d="M240.13839,171.75594c0,-0.94924 0.76951,-1.71875 1.71875,-1.71875c0.94924,0 1.71875,0.76951 1.71875,1.71875c0,0.94924 -0.76951,1.71875 -1.71875,1.71875c-0.94924,0 -1.71875,-0.76951 -1.71875,-1.71875z" fill="#ff0000" stroke="none" stroke-width="0" stroke-linecap="butt"/></g></g></svg>