<svg version="1.1" xmlns="http://www.w3.org/2000/svg" xmlns:xlink="http://www.w3.org/1999/xlink" width="340.45641" height="118.44693" viewBox="0,0,340.45641,118.44693"><defs><linearGradient x1="273.13935" y1="121.27585" x2="273.13935" y2="130.77298" gradientUnits="userSpaceOnUse" id="color-1"><stop offset="0" stop-color="#0a0a0a" stop-opacity="0"/><stop offset="1" stop-color="#0a0a0a"/></linearGradient><linearGradient x1="281.28983" y1="119.92273" x2="281.28983" y2="130.26403" gradientUnits="userSpaceOnUse" id="color-2"><stop offset="0" stop-color="#0a0a0a" stop-opacity="0"/><stop offset="1" stop-color="#0a0a0a"/></linearGradient><linearGradient x1="289.29525" y1="120.89108" x2="289.29525" y2="130.38822" gradientUnits="userSpaceOnUse" id="color-3"><stop offset="0" stop-color="#0a0a0a" stop-opacity="0"/><stop offset="1" stop-color="#0a0a0a"/></linearGradient><linearGradient x1="298.26909" y1="120.36911" x2="298.26909" y2="129.86622" gradientUnits="userSpaceOnUse" id="color-4"><stop offset="0" stop-color="#0a0a0a" stop-opacity="0"/><stop offset="1" stop-color="#0a0a0a"/></linearGradient><linearGradient x1="307.70202" y1="120.49986" x2="307.70202" y2="131.05218" gradientUnits="userSpaceOnUse" id="color-5"><stop offset="0" stop-color="#0a0a0a" stop-opacity="0"/><stop offset="1" stop-color="#0a0a0a"/></linearGradient></defs><g transform="translate(-77.02857,-106.04543)"><g data-paper-data="{&quot;isPaintingLayer&quot;:true}" fill-rule="nonzero" stroke-linejoin="miter" stroke-miterlimit="10" stroke-dasharray="" stroke-dashoffset="0" style="mix-blend-mode: normal"><path d="M120.91904,214.22703c0,1.25798 -1.31827,2.27778 -2.94445,2.27778c-1.62617,0 -5.27778,-0.24203 -5.27778,-1.50001c0,-1.25798 3.65161,-3.05555 5.27778,-3.05555c1.62617,0 2.94445,1.01979 2.94445,2.27777z" fill="#727272" stroke="#723700" stroke-width="1.5" stroke-linecap="butt"/><path d="M109.03015,214.22703c0,1.25798 -1.31827,2.27778 -2.94445,2.27778c-1.62617,0 -5.27778,-0.24203 -5.27778,-1.50001c0,-1.25798 3.65161,-3.05554 5.27778,-3.05554c1.62617,0 2.94445,1.01979 2.94445,2.27777z" fill="#727272" stroke="#723700" stroke-width="1.5" stroke-linecap="butt"/><path d="M137.19626,187.24731c-2.55876,0.79893 -5.2807,-0.6277 -6.07963,-3.18646c-0.79893,-2.55876 0.62769,-5.28069 3.18645,-6.07962c2.55876,-0.79893 5.2807,0.62769 6.07963,3.18645c0.79893,2.55876 -0.62769,5.28071 -3.18645,6.07964z" fill="#eca956" stroke="#723700" stroke-width="1.5" stroke-linecap="butt"/><path d="M130.85582,183.01892l-20.50179,-15.61318l4.12489,-5.29165l20.22925,15.69826c0,0 -0.18169,2.65552 -0.71513,3.33986c-0.75979,0.97469 -3.13721,1.86671 -3.13721,1.86671z" fill="#e8c0aa" stroke="#723700" stroke-width="1.5" stroke-linecap="butt"/><path d="M84.69682,182.20674c0,-2.68059 2.17305,-4.85363 4.85363,-4.85363c2.68059,0 4.85362,2.17304 4.85362,4.85363c0,2.68059 -2.17304,4.85362 -4.85362,4.85362c-2.68059,0 -4.85363,-2.17304 -4.85363,-4.85362z" fill="#eca956" stroke="#723700" stroke-width="1.5" stroke-linecap="butt"/><path d="M90.62277,177.41468l21.014,-14.91665l3.82176,5.51456l-21.01399,14.63113c0,0 -2.48068,-0.96489 -2.97493,-1.67806c-0.70395,-1.01576 -0.84685,-3.55099 -0.84685,-3.55099z" fill="#e8c0aa" stroke="#723700" stroke-width="1.5" stroke-linecap="butt"/><path d="M101.22681,190.10825l4.53846,-22.90042h14.61538l3.47938,22.66782z" fill="#bb4b4f" stroke="#723700" stroke-width="1.5" stroke-linecap="butt"/><path d="M98.45321,211.60297c-1.32043,-0.92816 -2.02644,-0.98203 -1.74511,-3.3958c0.56337,-4.83361 4.42925,-18.46969 4.42925,-18.46969l22.66442,0.11107c0,0 3.34452,13.59566 3.84546,18.25564c0.28618,2.66224 -0.22774,2.26459 -2.25176,3.37703c-1.36836,0.75207 -2.95137,0.75585 -5.52066,1.0178c-4.79451,0.4888 -12.84878,0.74865 -17.142,0.37831c-2.76585,-0.23859 -3.00919,-0.38135 -4.27961,-1.27436z" fill="#bb4b4f" stroke="#723700" stroke-width="1.5" stroke-linecap="butt"/><path d="M109.37997,189.60676l2.97028,-19.13899" fill="none" stroke="#723700" stroke-width="1.5" stroke-linecap="round"/><path d="M103.97904,203.07683c-1.40978,-2.59298 1.7222,-13.17558 1.7222,-13.17558h14.36122c0,0 1.90795,11.63432 1.29376,12.8575c-1.93644,3.8565 -6.52274,4.62169 -8.92678,4.62169c-2.38286,0 -7.04062,-1.71062 -8.4504,-4.30361z" fill="#e8c0aa" stroke="#723700" stroke-width="1.5" stroke-linecap="butt"/><path d="M137.17766,149.16894c0,6.44654 -3.16842,11.55056 -8.02828,14.65379c-4.2166,2.69249 -9.9732,6.07954 -15.77173,6.07954c-4.3452,0 -10.4242,-2.51223 -13.72192,-4.03566c-6.17501,-2.85265 -7.67808,-8.84924 -7.67808,-16.69766c0,-12.03981 10.11836,-21.8 22.6,-21.8c12.48164,0 22.6,9.76019 22.6,21.8z" fill="#ffce91" stroke="#723700" stroke-width="1.5" stroke-linecap="butt"/><path d="M89.77825,158.19028c-1.12058,-2.03096 -0.64391,-4.44161 1.06468,-5.38432c1.70859,-0.94271 2.71301,0.68816 3.8336,2.71912c1.12059,2.03096 1.93299,4.3596 0.2244,5.30231c-1.70859,0.94271 -4.00208,-0.60615 -5.12267,-2.63711z" fill="#ffce91" stroke="#723700" stroke-width="1.5" stroke-linecap="butt"/><path d="M133.57981,154.19996c0.63614,-2.23066 2.67312,-3.60513 4.5497,-3.06996c1.87658,0.53517 2.88216,2.77731 2.24602,5.00797c-0.63614,2.23066 -2.67313,3.60513 -4.54971,3.06996c-1.87658,-0.53517 -2.88216,-2.77731 -2.24602,-5.00797z" fill="#ffce91" stroke="#723700" stroke-width="1.5" stroke-linecap="butt"/><path d="M143.03006,142.6436c0.75894,3.4567 2.28107,5.32758 2.28107,5.32758c0,0 -8.0127,1.15265 -8.12913,1.77054c-1.94457,10.31929 -6.8878,9.58407 -6.8878,9.58407c0,0 2.9556,-19.64811 -0.12309,-18.74831c-1.40684,0.41117 -11.18811,-4.115 -11.18811,-4.115c0,0 -2.47182,7.86702 -4.87893,8.33702c-2.71304,0.52973 -9.28274,-9.42327 -9.28274,-9.42327c0,0 -1.04549,4.54066 -3.75482,7.05171c-1.88886,1.75063 -5.53833,1.02207 -7.05438,1.653c-0.61513,0.256 -0.22345,3.11111 0.58612,6.6742c0.27695,1.21893 1.19146,2.52071 1.33322,3.82964c0.33954,3.13501 0.92425,5.70007 0.92425,5.70007c0,0 -3.95307,-5.70396 -5.33961,-5.35345c-1.16546,0.29462 -2.88569,2.43945 -4.29271,3.02823c-2.69586,1.12811 -4.95414,0.81755 -4.95414,0.81755c0,0 1.88292,-3.33482 2.40327,-6.69171c0.22911,-1.478 0.21726,-4.01824 0.47683,-5.84482c0.97353,-6.85072 2.28042,-14.11599 2.28042,-14.11599c0,0 -4.11678,-0.73951 -5.57837,-1.6334c-1.34298,-0.82135 -3.39883,-3.53074 -3.39883,-3.53074c0,0 3.95355,-0.32364 8.11532,-2.41065c5.54629,-2.78131 9.68319,-6.59304 13.73308,-7.99794c0.56342,-0.19545 -1.22862,-1.69689 -1.22862,-1.69689c0,0 13.74998,-2.64452 17.33021,-2.64452c8.33659,0 16.85052,4.98522 21.36873,12.17195c4.13723,6.58074 4.6011,15.26583 5.25874,18.26113z" fill="#e08989" stroke="#723700" stroke-width="1.5" stroke-linecap="butt"/><path d="M93.91924,156.67722c0,0 -2.56127,-3.25943 -2.98013,-4.57112c-0.42548,-1.33243 -0.21988,-5.36221 -0.21988,-5.36221" fill="none" stroke="#723700" stroke-width="1.5" stroke-linecap="round"/><path d="M95.18597,152.44387c0,0 -1.27387,-4.38036 -1.18714,-5.86597c0.03018,-0.51695 0.72046,-9.4007 0.72046,-9.4007" fill="none" stroke="#723700" stroke-width="1.5" stroke-linecap="round"/><path d="M131.41924,146.21056l-0.60003,-10.73335" fill="none" stroke="#723700" stroke-width="1.5" stroke-linecap="round"/><path d="M138.11924,143.17719c0,0 -0.34134,4.91965 -0.51592,5.55561c-0.40643,1.48058 -1.0174,3.47774 -1.0174,3.47774" fill="none" stroke="#723700" stroke-width="1.5" stroke-linecap="round"/><path d="M92.87108,133.30256c-0.15227,0.98628 -0.85479,1.72596 -1.56913,1.65214c-0.71434,-0.07382 -1.16999,-0.93321 -1.01772,-1.91949c0.15227,-0.98628 0.85479,-1.72596 1.56913,-1.65213c0.71434,0.07382 1.16999,0.93321 1.01772,1.91948z" fill="#e0a1a1" stroke="none" stroke-width="0" stroke-linecap="butt"/><path d="M95.04433,130.9022c0,0.55229 -0.26863,1 -0.6,1c-0.33137,0 -0.6,-0.44771 -0.6,-1c0,-0.55229 0.26863,-1 0.6,-1c0.33137,0 0.6,0.44771 0.6,1z" fill="#e0a1a1" stroke="none" stroke-width="0" stroke-linecap="butt"/><path d="M131.17766,126.43555c0,0.5891 -0.38802,1.06667 -0.86667,1.06667c-0.47865,0 -0.86667,-0.47756 -0.86667,-1.06667c0,-0.5891 0.38802,-1.06667 0.86667,-1.06667c0.47865,0 0.86667,0.47756 0.86667,1.06667z" fill="#e0a1a1" stroke="#825738" stroke-width="0" stroke-linecap="butt"/><path d="M142.6162,118.60143c1.06896,1.54633 3.1281,3.10944 4.23848,4.72546c1.58062,2.3004 3.92645,4.43431 3.92645,4.43431c0,0 -2.68729,1.44641 -4.4033,1.52305c-1.34925,0.06026 -1.52832,15.49761 -1.52832,15.49761c0,0 -3.48318,-5.08821 -5.51461,-11.61902c-1.51233,-4.86199 -0.86749,-9.05844 -5.18003,-12.36156c-7.3194,-4.47467 -4.05229,-4.63183 -10.03473,-7.20551c-2.40739,-1.03567 1.60345,-6.15669 5.33259,-6.80034c4.86308,-0.83936 7.02781,-0.2053 9.95507,3.66858c0,0 0.05416,3.57454 3.2084,8.1374z" fill="#e06767" stroke="#723700" stroke-width="1.5" stroke-linecap="butt"/><path d="M145.84427,126.16892l0.26668,6.13334" fill="none" stroke="#723700" stroke-width="1.5" stroke-linecap="round"/><path d="M97.111,146.83559c0,0 1.54724,-1.20597 2.50308,-1.39248c0.85513,-0.16685 2.96358,0.32581 2.96358,0.32581" fill="none" stroke="#723700" stroke-width="1.5" stroke-linecap="round"/><path d="M117.12716,145.70878c0,0 1.84767,-0.9331 2.82611,-0.89397c0.87534,0.03501 2.76973,1.11775 2.76973,1.11775" fill="none" stroke="#723700" stroke-width="1.5" stroke-linecap="round"/><path d="M100.27765,153.0356v3.8" fill="none" stroke="#723700" stroke-width="1.5" stroke-linecap="round"/><path d="M118.93029,156.70227v-3.46667" fill="none" stroke="#723700" stroke-width="1.5" stroke-linecap="round"/><path d="M113.01099,163.16894h-5" fill="none" stroke="#723700" stroke-width="1.5" stroke-linecap="round"/><g><path d="M221.1817,185.01277l0.69652,3.07244l0.73411,1.97003c0,0 -0.33035,1.56944 -0.94385,2.3394c-0.6135,0.76996 -1.11925,1.26385 -2.09745,1.47752c-0.9782,0.21367 -1.60425,0.02759 -2.41206,-0.49251c-0.80781,-0.5201 -0.83898,-1.60064 -0.83898,-1.60064l0.73411,-0.86189l-1.15359,-2.95504z" data-paper-data="{&quot;index&quot;:null}" fill="#fed497" stroke="#000000" stroke-width="1.5" stroke-linecap="round"/><path d="M186.7679,188.42874l-1.15359,2.95504l0.73411,0.86189l-0.83898,1.60064c0,0 -1.47343,0.69753 -2.41206,0.49251c-0.93863,-0.20502 -1.4735,-0.69444 -2.09745,-1.47752c-0.62395,-0.78308 -0.89599,-1.35608 -0.94385,-2.3394c-0.04786,-0.98332 0.73411,-1.97003 0.73411,-1.97003l0.69652,-3.07244z" fill="#fed497" stroke="#000000" stroke-width="1.5" stroke-linecap="round"/><path d="M192.86083,216.45058c0,0 -0.89695,-6.48785 -0.89695,-10.0341c0,-3.26657 0.28693,-11.2281 0.28693,-11.2281l6.39888,-0.35878c0,0 0.03796,8.42267 0.03796,11.81212c0,3.44548 0.39267,9.80887 0.39267,9.80887z" data-paper-data="{&quot;index&quot;:null}" fill="#cfac7a" stroke="#000000" stroke-width="1.5" stroke-linecap="butt"/><path d="M191.8014,216.07865c0,-1.53667 0.25,-8.60833 0.25,-8.60833h6.72712c0,0 0.62765,8.17746 0.00286,8.74526c-1.27779,1.16124 -6.97998,0.60049 -6.97998,-0.13693z" data-paper-data="{&quot;index&quot;:null}" fill="#a56637" stroke="#000000" stroke-width="1.5" stroke-linecap="butt"/><path d="M204.76384,216.69988c0,0 -0.89661,-7.38344 -0.89661,-10.65002c0,-3.54626 -0.43096,-10.43281 -0.43096,-10.43281l6.04009,0.35878c0,0 1.00269,9.40381 1.00269,12.76388c0,3.47209 -0.12072,7.71017 -0.12072,7.71017z" data-paper-data="{&quot;index&quot;:null}" fill="#cfac7a" stroke="#000000" stroke-width="1.5" stroke-linecap="butt"/><path d="M183.13182,177.00307c0,0 2.22289,-7.38824 4.2309,-9.43498c2.11825,-2.15911 8.16554,-3.20057 8.16554,-3.20057l11.18447,0.21509l8.30397,2.09823l7.70352,20.25389l-8.01687,1.94566l-4.07313,-11.67954l-1.6591,-2.07903l4.68314,15.74227l2.09206,8.88506v2.79612l-29.25168,-0.32263l0.83771,-5.04508l5.61486,-20.76523c0,0 -2.19472,4.43503 -3.1427,6.70503c-0.71909,1.72191 -2.05067,5.73091 -2.05067,5.73091l-6.7729,-3.53575z" data-paper-data="{&quot;index&quot;:null}" fill="#a56ad4" stroke="#a56ad4" stroke-width="0.5" stroke-linecap="round"/><path d="M195.39264,164.73872l11.16656,-0.0971c0,0 7.35441,0.92523 9.65741,3.32213c2.02426,2.1068 3.43257,10.30155 3.43257,10.30155l-7.28904,1.54681l-3.17925,-4.68363l5.19585,17.4719l-25.77659,-0.49919l4.07365,-15.4191l-2.08019,2.73119l-6.52298,-4.5393l3.25055,-7.53439z" data-paper-data="{&quot;index&quot;:null}" fill="#ad89d4" stroke="#ad89d4" stroke-width="0.5" stroke-linecap="round"/><path d="M221.59246,143.63858c-1.34542,14.677 -7.46168,14.98528 -16.59559,16.7161c-0.42822,-0.10278 0.91384,1.63907 0.53119,4.04954c-1.87167,0.17097 -3.18112,2.3218 -4.43915,2.13228c-0.72914,-0.10984 -2.82599,-2.39794 -3.91483,-2.43031c0.12801,-3.40203 -0.30691,-2.08092 0.30659,-3.20623c-4.39682,-0.70709 -10.18541,-1.20279 -13.09868,-3.82208c-3.34785,-3.01001 -3.50415,-8.39696 -3.50415,-12.99081c0,-9.69778 1.96168,-16.41975 20.35732,-17.55938c21.10198,-1.30731 21.24258,7.45363 20.35731,17.11092z" data-paper-data="{&quot;index&quot;:null}" fill="#fed497" stroke="#000000" stroke-width="1.5" stroke-linecap="butt"/><path d="M231.24493,158.27173c-1.6536,0.51474 -14.05831,5.69144 -23.82935,1.87339c2.27804,-0.32217 3.917,-1.54872 5.5304,-2.47155c5.52062,-3.15768 6.23934,-8.69735 6.35353,-14.54597c0.13343,-6.83476 -2.80443,-11.31691 -7.28249,-13.21217c-1.99823,1.2845 -1.96347,0.21258 -3.3058,2.09317c-0.06637,0.04155 -0.6294,-0.66899 -1.54022,-2.35778c-1.42502,0.88137 -1.51972,0.28363 -4.20895,2.45716c-1.88029,-1.76204 -2.75096,-2.11558 -3.35737,-0.22966c-1.87507,-2.02201 -2.91159,-2.1931 -3.97787,-2.36521c-1.79429,4.05965 -3.60352,1.43324 -5.82972,1.64204c-2.2262,0.2088 -0.47706,2.28852 -2.77743,-0.83475c-2.48648,1.2766 -2.89398,0.8916 -3.69239,3.74377c-0.87305,3.11881 0.50484,9.40293 0.56335,12.48994c0.06743,3.55745 -1.49784,4.16497 0.42462,7.18507c2.54052,3.99104 7.35014,6.09235 12.46721,6.85604c-5.78333,4.03433 -19.35633,1.57536 -25.56278,-4.00646c-3.80405,-3.42119 4.50526,-5.81952 4.50526,-10.75856c0,-7.32907 2.27399,-20.18648 9.00827,-27.82502c3.09426,-3.50974 11.23545,-6.92786 15.44488,-6.92786c5.98304,0 13.85045,3.95926 18.07533,6.83632c5.2168,3.55255 7.67968,22.45618 7.67968,28.36636c0,0 6.96544,11.47699 5.31184,11.99173z" data-paper-data="{&quot;index&quot;:null}" fill="#4f412e" stroke="#000000" stroke-width="1.5" stroke-linecap="butt"/><path d="M189.65044,186.97767c0.33146,-1.01397 1.01996,-3.28723 1.37802,-5.61869c0.12463,-0.81151 0.12775,-2.83095 0.44405,-3.96565c0.26057,-0.93479 1.016,-1.52724 1.07764,-1.9746c-1.52215,1.6799 -1.5497,4.6445 -2.20614,6.61943c-0.70595,2.12386 -2.00132,3.30564 -2.57319,6.52208c-0.08315,-0.10698 -7.78756,-3.57261 -7.78756,-3.57261c0,0 4.96305,-16.03132 7.73893,-17.88052c2.53712,-1.69015 3.2893,-1.24161 8.13519,-2.96493c1.33595,-0.14161 3.46728,2.49251 5.03219,2.50683c2.08709,0.0191 3.68582,-2.54511 6.06203,-2.50683c9.57998,2.85075 8.47765,0.77778 10.16374,5.28829c1.86094,4.97829 5.51353,17.23141 5.51353,17.23141l-7.93863,1.50545c0,0 -1.83476,-4.16346 -3.15292,-7.74261c-0.82717,-2.24597 -0.89131,-4.16859 -1.91376,-4.97841c-0.04386,-0.03474 -0.10923,-0.02662 -0.16479,-0.03955c0.94604,1.91146 0.9068,2.83682 1.13629,3.55165c0.48759,1.51875 0.42664,1.52933 1.22542,4.10741c0.62625,2.02124 2.77074,10.08743 3.29466,12.39698c0.9438,4.16045 1.32967,4.26346 1.05647,6.28931c-0.24392,1.8087 -2.20903,0.1053 -2.71929,0.13525c-1.16126,0.06816 -2.20156,0.39872 -2.76791,0.40851c-1.34137,0.02319 -1.94211,-0.39618 -2.54579,-0.43011c-1.85994,-0.10456 -2.34215,0.69646 -2.84907,0.67274c-1.63593,-0.07653 -2.8805,-0.67651 -3.44908,-0.72158c-2.03722,-0.16147 -2.93408,0.5075 -3.45395,0.50961c-1.09653,0.00445 -1.86715,-0.479 -2.12832,-0.50165c-2.47388,-0.21456 -2.04872,0.52192 -3.62414,0.49804c-2.28326,-0.03461 -1.8914,-0.56316 -3.18482,-0.55635c-0.70914,0.00373 -1.97151,0.55429 -2.46964,0.61482c-0.91301,0.11095 -1.36388,0.44453 0.19508,-5.72663c0.53823,-2.13058 1.24189,-5.90244 2.47579,-9.67708z" data-paper-data="{&quot;index&quot;:null}" fill="none" stroke="#000000" stroke-width="1.5" stroke-linecap="butt"/><path d="M203.23584,178.36525c2.45446,0.73098 2.26575,2.98229 0.94074,5.40628c-1.04025,1.90306 -3.55742,3.21974 -3.55742,3.21974c0,0 -2.60822,-1.64602 -3.48794,-3.54122c-1.20607,-2.59826 -0.63043,-4.32786 1.34925,-5.19875c2.32633,-0.07402 2.32461,2.33772 2.32461,2.33772c0,0 0.28744,-2.11219 2.43075,-2.22377z" data-paper-data="{&quot;index&quot;:null}" fill="#ff6b6b" stroke="#000000" stroke-width="0" stroke-linecap="butt"/><path d="M188.53912,134.95887c0,0 1.54724,-1.20597 2.50308,-1.39248c0.85513,-0.16685 2.96358,0.32581 2.96358,0.32581" data-paper-data="{&quot;index&quot;:null}" fill="none" stroke="#000000" stroke-width="1.5" stroke-linecap="round"/><path d="M207.52605,134.14781c0,0 1.84767,-0.9331 2.82611,-0.89397c0.87534,0.03501 2.76973,1.11775 2.76973,1.11775" data-paper-data="{&quot;index&quot;:null}" fill="none" stroke="#000000" stroke-width="1.5" stroke-linecap="round"/><path d="M188.47011,121.38699c-0.49848,0.95541 -1.48345,1.42685 -2.20001,1.05299c-0.71655,-0.37385 -0.89335,-1.45144 -0.39487,-2.40685c0.49848,-0.95541 1.48345,-1.42685 2.20001,-1.05299c0.71655,0.37385 0.89335,1.45144 0.39487,2.40685z" data-paper-data="{&quot;index&quot;:null}" fill="#6e5b41" stroke="none" stroke-width="0" stroke-linecap="butt"/><path d="M193.96192,119.33783c-0.49848,0.95541 -1.48345,1.42685 -2.20001,1.053c-0.71655,-0.37385 -0.89335,-1.45144 -0.39487,-2.40685c0.49848,-0.95541 1.48345,-1.42685 2.20001,-1.05299c0.71655,0.37385 0.89335,1.45144 0.39487,2.40685z" data-paper-data="{&quot;index&quot;:null}" fill="#6e5b41" stroke="none" stroke-width="0" stroke-linecap="butt"/><path d="M186.6419,133.24762h1.56966" data-paper-data="{&quot;index&quot;:null}" fill="none" stroke="none" stroke-width="0" stroke-linecap="round"/><path d="M204.5135,152.25102c0,0 -2.0172,1 -3,1c-1.06599,0 -3.16666,-1 -3.16666,-1" fill="none" stroke="#000000" stroke-width="1.5" stroke-linecap="round"/><path d="M192.90433,141.66994v4" fill="none" stroke="#000000" stroke-width="1.5" stroke-linecap="round"/><path d="M209.071,145.3366v-3.16666" fill="none" stroke="#000000" stroke-width="1.5" stroke-linecap="round"/><path d="M203.8014,216.32865c0,-1.53667 0.25,-8.60833 0.25,-8.60833l6.35212,-0.125c0,0 0.75265,8.30246 0.12786,8.87026c-1.27779,1.16124 -6.72998,0.60049 -6.72998,-0.13693z" data-paper-data="{&quot;index&quot;:null}" fill="#a56637" stroke="#000000" stroke-width="1.5" stroke-linecap="butt"/></g><g><path d="M312.04521,143.07916c-0.0282,0.20089 2.09567,-0.27177 2.90228,0.62722c1.27013,1.41563 0.91308,2.64773 0.56643,3.54502c-0.047,0.12165 -0.09558,0.09908 -0.14562,0.21384c-1.93132,4.42821 -6.05475,3.8001 -6.28024,4.22166c-0.83128,1.554 -0.27419,3.82343 -3.99771,6.80785c-3.82666,3.06709 -5.81657,3.65225 -8.86674,4.08005c-0.32346,0.0454 -0.56994,5.37179 -1.25987,6.46977c-1.21809,1.93852 -8.85734,0.40631 -9.43199,0.40631c-1.46708,0 1.45322,-6.51134 -0.22262,-6.89519c-2.33069,-0.53382 -4.86826,-0.47384 -8.8367,-4.08317c-3.31611,-3.01603 -4.30136,-6.26596 -5.1545,-7.5834c-0.08848,-0.13664 -3.14296,-0.13618 -4.21929,-0.77561c-2.38929,-1.41946 -3.26668,-4.87315 -1.88321,-6.61412c1.79856,-2.26327 3.79801,0.1347 3.67367,-1.15187c-0.15642,-1.61847 -1.82503,-3.16099 -1.82503,-4.95063c0,-14.44261 8.25403,-25.59074 23.22666,-25.59074c14.97264,0 23.22381,11.61564 23.22381,26.05826c0,0 -1.32781,4.20595 -1.46942,5.21478z" fill="#ffce91" stroke="#000000" stroke-width="1.5" stroke-linecap="butt"/><path d="M294.40328,155.35732c0,0 -2.35165,1.16579 -3.49739,1.16579c-1.24273,0 -3.69169,-1.16579 -3.69169,-1.16579" fill="none" stroke="#000000" stroke-width="1.5" stroke-linecap="round"/><path d="M292.06848,135.4899c-2.26678,0.18364 -7.56658,1.19591 -7.56658,1.19591c0,0 -2.48777,0.1343 -3.96725,-0.39211c-1.18779,-0.42263 -2.53977,-1.14426 -4.47458,-1.04319c-2.89607,0.15127 -5.30328,1.13564 -7.1742,2.15308c-4.67777,2.54381 -4.62671,-8.36685 -0.44889,-15.3928c2.42267,-3.44105 9.29131,-12.88741 21.05465,-12.621c11.76332,0.2664 17.64336,3.5074 23.06328,12.12839c4.96291,7.89407 1.5647,15.94225 1.06248,16.13729c-2.2308,0.86638 -4.09724,-0.84654 -6.0211,-0.28424c0,0 -5.55367,-1.00032 -7.63326,-1.23915c-2.27241,-0.26095 -3.76341,0.10255 -3.76341,0.10255c0,0 -2.43162,-0.88241 -4.13114,-0.74473z" fill="#1f1f1f" stroke="#000000" stroke-width="1.5" stroke-linecap="butt"/><path d="M277.38406,141.20902c0,0 1.68919,-0.77931 2.83578,-1.00303c1.0258,-0.20016 3.55503,0.39082 3.55503,0.39082" data-paper-data="{&quot;index&quot;:null}" fill="none" stroke="#000000" stroke-width="1.5" stroke-linecap="round"/><path d="M296.43559,141.32966c0,0 2.21642,-1.11933 3.39013,-1.07238c1.05004,0.042 3.3225,1.34083 3.3225,1.34083" fill="none" stroke="#000000" stroke-width="1.5" stroke-linecap="round"/><path d="M276.28405,122.24064c-0.56597,1.35256 -1.61746,2.20104 -2.34858,1.89512c-0.73111,-0.30591 -0.86501,-1.6504 -0.29904,-3.00296c0.56597,-1.35256 1.61745,-2.20103 2.34857,-1.89512c0.73111,0.30593 0.86501,1.6504 0.29905,3.00298z" fill="#393939" stroke="#000000" stroke-width="0" stroke-linecap="butt"/><path d="M279.93993,118.70532c-0.29168,0.75766 -1.00272,1.18911 -1.58816,0.96374c-0.58544,-0.22539 -0.82359,-1.02227 -0.53191,-1.77991c0.29168,-0.75766 1.00271,-1.18909 1.58815,-0.96373c0.58544,0.22539 0.82359,1.02226 0.53193,1.7799z" fill="#393939" stroke="none" stroke-width="0" stroke-linecap="butt"/><path d="M312.16099,146.78397c0,0 -0.19314,0.91089 -0.54098,1.27664c-0.26216,0.27569 -1.36272,0.72516 -1.36272,0.72516" fill="none" stroke="#d5ac79" stroke-width="1" stroke-linecap="round"/><path d="M269.0617,148.00889c0,0 -1.10055,-0.44947 -1.36271,-0.72516c-0.34785,-0.36575 -0.54099,-1.27664 -0.54099,-1.27664" data-paper-data="{&quot;index&quot;:null}" fill="none" stroke="#d5ac79" stroke-width="1" stroke-linecap="round"/><path d="M271.02885,136.42484c0,0 0.02883,-3.4451 0.99546,-5.1925c0.8464,-1.53005 3.22548,-4.30462 3.22548,-4.30462" fill="none" stroke="url(#color-1)" stroke-width="1.5" stroke-linecap="round"/><path d="M282.97821,125.57455c0,0 -0.6907,4.25191 -1.53709,5.78196c-0.96663,1.7474 -1.83963,4.55935 -1.83963,4.55935" fill="none" stroke="url(#color-2)" stroke-width="1.5" stroke-linecap="round"/><path d="M287.75197,136.04005c0,0 -0.39327,-2.1788 0.57338,-3.92621c0.84641,-1.53005 2.59232,-5.57092 2.59232,-5.57092" fill="none" stroke="url(#color-3)" stroke-width="1.5" stroke-linecap="round"/><path d="M296.15861,135.51806c0,0 0.45092,-2.60087 1.41756,-4.34827c0.84641,-1.53005 2.80338,-5.14882 2.80338,-5.14882" fill="none" stroke="url(#color-4)" stroke-width="1.5" stroke-linecap="round"/><path d="M308.76718,126.15166c0,0 0.57558,4.2519 -0.27082,5.78195c-0.96663,1.7474 -2.0507,4.77041 -2.0507,4.77041" fill="none" stroke="url(#color-5)" stroke-width="1.5" stroke-linecap="round"/><path d="M281.07806,145.59135v4.24001" fill="none" stroke="#000000" stroke-width="1.5" stroke-linecap="round"/><path d="M298.7943,145.90315v4.24001" fill="none" stroke="#000000" stroke-width="1.5" stroke-linecap="round"/><path d="M292.72999,216.60812c0,0 -0.43135,-5.63165 -0.43135,-9.62176c0,-0.86678 0.211,-1.52276 -0.93176,-2.60473c-0.79601,-0.75368 -2.20035,-1.10564 -2.23494,-1.88708c-0.17041,-3.84861 -0.28411,-7.6524 -0.28411,-7.6524l14.23457,0.57516c0,0 -0.96256,9.92152 -1.20868,12.89398c-0.34373,4.15118 -0.22912,8.15306 -0.22912,8.15306z" fill="#1c1c1c" stroke="#000000" stroke-width="1.5" stroke-linecap="butt"/><path d="M276.9685,216.37529c0,0 -0.28756,-3.90625 0,-9.62176c0.22332,-4.4385 -0.86272,-12.28796 -0.86272,-12.28796c0,0 10.72724,1.18741 14.52299,2.48804c1.32682,0.45464 -1.55342,5.73667 -1.55342,5.73667c0,0 -2.71702,2.12814 -2.96316,5.10062c-0.34373,4.15118 -0.51671,8.44061 -0.51671,8.44061z" fill="#1c1c1c" stroke="#000000" stroke-width="1.5" stroke-linecap="butt"/><path d="M276.6214,222.54738c0,-2.04966 0.33346,-5.58692 0.33346,-5.58692l8.47266,-0.16674c0,0 1.0039,5.17895 0.17053,5.9363c-1.70436,1.5489 -8.97665,0.80095 -8.97665,-0.18264z" data-paper-data="{&quot;index&quot;:null}" fill="#ffffff" stroke="#000000" stroke-width="1.5" stroke-linecap="butt"/><path d="M292.95884,216.37368l8.47266,-0.16674c0,0 1.00392,5.17895 0.17055,5.93628c-1.70436,1.5489 -8.97665,0.80094 -8.97665,-0.18265z" data-paper-data="{&quot;index&quot;:null}" fill="#ffffff" stroke="#000000" stroke-width="1.5" stroke-linecap="butt"/><path d="M272.88266,184.34724c-0.58683,0.55611 -1.08068,0.8547 -1.42452,0.77615c-4.24906,-0.97066 -6.79969,-4.38046 -6.69999,-5.06713c0.06403,-0.44103 6.31936,-9.63487 6.59976,-10.46195c1.27047,-3.74707 10.60631,-5.95193 10.60631,-5.95193c0,0 5.16679,3.10873 8.02099,3.10873c3.26146,0 9.28284,-2.95789 9.28284,-2.95789c0,0 3.37841,1.4991 6.6671,4.87074c5.72808,5.87258 7.32723,8.55335 7.89195,10.57851c1.42106,2.78636 -7.02569,4.90494 -8.96884,5.4868c-0.47427,0.14202 -3.18548,-5.95736 -3.12962,-5.456c1.00814,9.05198 1.78688,17.34163 1.78688,17.34163c0,0 -0.5642,2.2515 -5.10241,2.81835c-3.87595,0.48412 -8.85269,0.5348 -13.63784,0.38337c-3.08596,-0.09766 -6.45507,-0.39604 -7.80245,-1.43141c-0.76849,-0.59056 -1.76193,-2.76551 -1.76193,-2.76551c0,0 -1.46219,-6.80465 1.67847,-15.62801c1.61469,-4.53632 -0.93243,1.44221 -4.00667,4.3555z" fill="#dedede" stroke="#000000" stroke-width="1.5" stroke-linecap="butt"/><path d="M313.30411,179.9245l0.97796,4.31388c0,0 1.09789,1.38539 1.03073,2.76603c-0.06719,1.38063 -0.44914,2.18518 -1.32521,3.28464c-0.87604,1.0995 -1.62705,1.78664 -2.94496,2.07452c-1.31788,0.28788 -3.38669,-0.69153 -3.38669,-0.69153l-1.17797,-2.24737l1.03073,-1.21016l-1.6197,-4.14904z" data-paper-data="{&quot;index&quot;:null}" fill="#fed497" stroke="#000000" stroke-width="1.5" stroke-linecap="round"/><path d="M270.93354,185.07878c0,0 -0.01485,0.81081 -0.22099,1.3389c-0.29866,0.76505 -1.39867,2.81015 -1.39867,2.81015l1.0307,1.21013l-1.17797,2.2474c0,0 -2.0688,0.97938 -3.38667,0.69149c-1.31792,-0.28788 -2.06889,-0.97504 -2.94496,-2.07452c-0.87607,-1.0995 -1.25804,-1.90402 -1.32524,-3.28465c-0.0672,-1.38063 1.03071,-2.76603 1.03071,-2.76603l2.41061,-4.51854z" data-paper-data="{&quot;index&quot;:null}" fill="#fed497" stroke="#000000" stroke-width="1.5" stroke-linecap="round"/><text transform="translate(282.78016,184.00334) scale(0.1663,0.1663)" font-size="40" xml:space="preserve" fill="#000000" fill-rule="nonzero" stroke="none" stroke-width="1" stroke-linecap="butt" stroke-linejoin="miter" stroke-miterlimit="10" stroke-dasharray="" stroke-dashoffset="0" font-family="Pixel" font-weight="normal" text-anchor="start" style="mix-blend-mode: normal"><tspan x="0" dy="0">Rich</tspan></text></g><g><path d="M355.23279,223.67991c0,0 -2.15305,-26.24262 -2.6921,-36.0072c-0.21978,-3.98108 -0.90833,-9.56863 -0.02787,-13.44587c0.59232,-2.60842 2.53149,-4.06073 3.40328,-5.1679c1.96287,-2.49282 10.19324,-3.55099 11.63201,-2.17128c1.48169,1.42089 5.45873,8.08524 5.80822,10.74649c0.30766,2.34267 -5.72042,1.03045 -5.72042,1.03045c0,0 -3.37134,-5.81244 -3.42006,-5.84248c-2.66234,-1.64164 -6.28873,2.53135 -6.28873,2.93452c0,9.04242 3.85358,47.80694 3.85358,47.80694z" fill="#825738" stroke="#723700" stroke-width="1.5" stroke-linecap="butt"/><path d="M373.97184,169.42218c0.47912,2.26249 -0.96661,4.48503 -3.2291,4.96415c-2.26249,0.47912 -4.48503,-0.96661 -4.96415,-3.22911c-0.47912,-2.26249 0.96661,-4.48503 3.22911,-4.96415c2.26249,-0.47912 4.48501,0.96661 4.96413,3.2291z" fill="#ffce91" stroke="#723700" stroke-width="1.5" stroke-linecap="butt"/><path d="M369.29364,190.41276l6.63017,-25.12482l25.82275,0.23262l5.81594,25.00851z" fill="#c78556" stroke="#723700" stroke-width="1.5" stroke-linecap="butt"/><path d="M413.93512,142.001c0,16.52485 -11.7634,29.92087 -26.27426,29.92087c-14.51087,0 -26.27428,-13.39603 -26.27428,-29.92087c0,-8.43895 1.19781,-16.06192 6.13273,-21.50146c4.72848,-5.21198 13.04112,-8.41941 20.14154,-8.41941c5.22394,0 14.2059,3.04517 18.29703,6.03842c7.27308,5.32131 7.97723,13.30659 7.97723,23.88248z" fill="#ffce91" stroke="#723700" stroke-width="1.5" stroke-linecap="butt"/><path d="M374.97996,126.08693c-1.01794,2.42898 -2.73114,4.02588 -3.82656,3.56681c-1.09542,-0.45908 -1.15822,-2.80029 -0.14029,-5.22926c1.01795,-2.42897 2.73117,-4.02588 3.82659,-3.5668c1.09542,0.45908 1.1582,2.80031 0.14026,5.22926z" fill="#ffdaad" stroke="none" stroke-width="0" stroke-linecap="butt"/><path d="M357.00268,146.97834l3.26836,-4.0808l-6.48622,-0.95003l8.6566,-2.77728l-6.76541,-2.28205c0,0 10.20932,-2.88459 18.8131,-2.49863c1.39214,0.06245 3.22295,2.28551 3.40299,3.56243c0.18433,1.30724 -1.21304,4.26499 -2.83678,4.80817c-1.03126,0.34499 -13.3538,2.15885 -13.3538,2.15885z" fill="#dfdfdf" stroke="#723700" stroke-width="1.5" stroke-linecap="butt"/><path d="M383.91265,143.05125c-1.62373,-0.54318 -3.02109,-3.50093 -2.83678,-4.80817c0.18006,-1.27693 2.01083,-3.49997 3.40299,-3.56242c8.60378,-0.38595 18.8131,2.49861 18.8131,2.49861l-6.88068,0.32248l8.77186,4.73684l-6.48623,0.95003l3.84472,4.08078l-4.65446,-2.16461c0,0 -12.65574,-1.61238 -13.97453,-2.05355z" data-paper-data="{&quot;index&quot;:null}" fill="#dfdfdf" stroke="#723700" stroke-width="1.5" stroke-linecap="butt"/><path d="M375.10956,190.52906l4.88537,-21.16999" fill="none" stroke="#723700" stroke-width="1.5" stroke-linecap="round"/><path d="M416.73498,148.66713c-1.06486,2.63568 -3.63015,4.08468 -5.72977,3.23642c-0.64468,-0.26046 -1.17048,-0.70719 -1.55882,-1.27757l0.17194,-0.09732c1.55776,-1.66733 1.98297,-3.94697 0.803,-5.93656c0,0 -0.18793,-0.31113 -0.51974,-0.38215c1.26762,-1.72405 3.26537,-2.53564 4.9598,-1.85108c2.09962,0.84827 2.93847,3.67258 1.87361,6.30826z" fill="#ffce91" stroke="#723700" stroke-width="1.5" stroke-linecap="butt"/><path d="M408.49732,134.67575l-1.25641,-7.76211c0,0 3.33925,-0.77043 4.38117,-1.01084c0.5778,-0.13331 1.29365,-0.57928 1.29365,-0.57928l1.3638,8.46002c0,0 -0.80349,-0.25649 -1.37156,-0.12542c-1.03924,0.23978 -4.41065,1.01762 -4.41065,1.01762z" fill="#dfdfdf" stroke="#723700" stroke-width="1.5" stroke-linecap="butt"/><path d="M405.23608,185.35291c0,-2.85872 2.31745,-5.17617 5.17617,-5.17617c2.85872,0 5.17619,2.31746 5.17619,5.17617c0,2.85872 -2.31746,5.17617 -5.17619,5.17617c-2.85872,0 -5.17617,-2.31745 -5.17617,-5.17617z" fill="#ffce91" stroke="#723700" stroke-width="1.5" stroke-linecap="butt"/><path d="M405.58506,181.8052l-3.83851,-15.93566l7.09544,-0.34896l4.76906,15.12141z" fill="#c78556" stroke="#723700" stroke-width="1.5" stroke-linecap="butt"/><path d="M361.57603,146.42372l4.95782,3.74923l7.9245,-4.37368l8.19832,3.54813l6.91297,-2.82675l5.88729,2.20787c0,0 8.75281,-3.33229 8.9528,-2.86504c0.04779,0.11167 6.23384,-2.00254 7.04361,-0.55773c1.80784,3.22559 -0.9358,11.44554 -0.9358,11.44554l-5.91291,-1.12081c0,0 5.59648,9.76425 5.41254,9.78277c-1.19162,0.12009 -7.02918,-0.23325 -7.02918,-0.23325l-6.1733,6.80407l-6.6677,-2.91682l-9.9663,6.61662l-9.04206,-8.11547l-8.47202,3.98091l1.76689,-10.06244l-9.86586,4.03849l7.88241,-10.94064l-7.67723,0.41335z" data-paper-data="{&quot;index&quot;:null}" fill="#dfdfdf" stroke="#723700" stroke-width="1.5" stroke-linecap="butt"/><path d="M376.38904,206.81372l-0.69791,-15.47037l23.26373,-0.23262c0,0 -9.39878,6.39948 -8.78749,8.31601c1.02284,3.20679 -2.61174,7.27069 -2.61174,7.27069z" fill="#825738" stroke="#723700" stroke-width="1.5" stroke-linecap="butt"/><path d="M389.7657,198.20614l-3.95482,-4.07115" fill="none" stroke="#723700" stroke-width="1.5" stroke-linecap="round"/><path d="M391.74311,198.08981l5.69961,-6.74646l11.28291,0.11631l-1.04686,14.53982l-11.10741,0.2531z" fill="#825738" stroke="#723700" stroke-width="1.5" stroke-linecap="butt"/><path d="M376.04009,223.56361c0,0 1.2978,-1.70346 1.31406,-2.90589c0.0389,-2.87899 -1.08144,-14.30927 -1.08144,-14.30927l11.51555,-0.34896l0.34895,16.28461z" fill="#727272" stroke="#723700" stroke-width="1.5" stroke-linecap="butt"/><path d="M396.74481,223.09836c0,0 1.00463,-1.62633 0.96865,-2.91228c-0.08003,-2.86078 -1.43395,-13.7213 -1.43395,-13.7213l11.51555,-0.34896l0.34896,16.28461z" fill="#727272" stroke="#723700" stroke-width="1.5" stroke-linecap="butt"/><path d="M387.09038,211.81542l-9.77077,0.58159" fill="none" stroke="#723700" stroke-width="1.5" stroke-linecap="round"/><path d="M407.09719,211.00121l-10.46869,0.23264" fill="none" stroke="#723700" stroke-width="1.5" stroke-linecap="round"/></g></g></g></svg>