<svg version="1.1" xmlns="http://www.w3.org/2000/svg" xmlns:xlink="http://www.w3.org/1999/xlink" width="61.62034" height="76.53118" viewBox="0,0,61.62034,76.53118"><defs><linearGradient x1="262.46305" y1="86.31786" x2="262.46305" y2="216.87821" gradientUnits="userSpaceOnUse" id="color-1"><stop offset="0" stop-color="#37caf1"/><stop offset="1" stop-color="#62e4d0"/></linearGradient><radialGradient cx="239.41012" cy="180.38152" r="43.04066" gradientUnits="userSpaceOnUse" id="color-2"><stop offset="0" stop-color="#d6ffe2"/><stop offset="1" stop-color="#d6ffe2" stop-opacity="0"/></radialGradient></defs><g transform="translate(-209.17964,-141.34703)"><g data-paper-data="{&quot;isPaintingLayer&quot;:true}" fill-rule="nonzero" stroke-linecap="butt" stroke-linejoin="miter" stroke-miterlimit="10" stroke-dasharray="" stroke-dashoffset="0" style="mix-blend-mode: normal"><g><path d="M269.79994,154.04705v51.13337c0,6.45067 -5.24475,11.69779 -11.69999,11.69779h-36.22254c-6.44844,0 -11.69777,-5.24707 -11.69777,-11.69779v-51.1356c0,-6.45067 5.24935,-11.69779 11.69779,-11.69779h36.22256c0.4697,0 0.933,0.02779 1.38833,0.08182c1.00957,0.25768 2.023,0.51934 3.03156,0.7844c4.26819,1.74695 7.2801,5.94545 7.2801,10.8338z" fill="url(#color-1)" stroke="#70fbf6" stroke-width="2"/><path d="M211.0489,195.95421c0.9224,-5.91525 -4.86764,-46.16025 4.74063,-51.93676c2.07017,-2.13768 9.56616,-1.33957 18.48325,-1.35697c11.25778,-0.02196 24.26032,-0.47654 25.67074,-0.11525c3.89554,2.11855 6.55134,4.82117 9.60208,7.99029c-1.70909,3.50977 -0.27585,6.62603 0.12014,10.3869c0.19816,1.882 -0.95797,4.58217 -0.70576,6.25874c0.53703,3.56977 0.66344,5.90886 0.88655,9.8505c0.257,4.54011 0.26986,22.22166 -0.26558,27.62901c-0.09039,0.91284 -0.82625,4.96483 -0.87446,6.12156c-0.95389,0.97429 -7.6027,4.99505 -15.66257,6.21076c-10.32825,1.55786 -21.70091,-0.09479 -29.83732,-0.36855c-13.24648,-0.44571 -10.83116,-5.59919 -11.72586,-7.46149c-2.89263,-6.02095 -0.77004,-11.03986 -0.43183,-13.20874z" fill="url(#color-2)" stroke="none" stroke-width="0"/></g><g stroke="none"><path d="M245.05368,167.8419c1.27695,0.62372 2.3849,2.34284 2.46572,3.73396l0.59271,10.2014c0.08082,1.39111 -0.82059,3.22699 -2.0167,3.99438l-8.59122,5.61706c-1.19612,0.76739 -3.20549,0.88415 -4.48243,0.26042l-9.18394,-4.58432c-1.27695,-0.62372 -2.3849,-2.34285 -2.46572,-3.73396l-0.59271,-10.2014c-0.08082,-1.39111 0.82059,-3.22699 2.01669,-3.99438l8.59123,-5.61706c1.19612,-0.76739 3.20549,-0.88415 4.48243,-0.26042c0,0 9.10666,4.58882 9.18394,4.58433z" fill="#dfded0" stroke-width="1"/><path d="M235.31684,192.44632c-0.9274,0.05388 -1.79099,-0.12857 -2.42721,-0.40178l-9.18394,-4.58432c-1.35871,-0.69649 -2.54846,-2.48844 -2.63827,-4.03411l-0.59271,-10.2014c-0.0898,-1.54567 0.8844,-3.46333 2.15332,-4.3125l8.59123,-5.61706c1.26891,-0.84916 3.43285,-0.97489 4.79156,-0.27839l9.18394,4.58433c1.35871,0.69649 2.54845,2.48844 2.63826,4.03411l0.59271,10.2014c0.0898,1.54567 -0.88439,3.46333 -2.15332,4.3125l-8.59123,5.61706c-0.59581,0.42234 -1.51425,0.63078 -2.36436,0.68017zM233.61504,163.15589c-0.77284,0.0449 -1.53669,0.24436 -2.05972,0.58493l-8.59122,5.61706c-1.12334,0.68562 -1.95195,2.43974 -1.87562,3.75355l0.59271,10.2014c0.07634,1.31381 1.09804,2.88289 2.2977,3.51108l9.18394,4.58433c1.1179,0.55541 3.12725,0.43867 4.1733,-0.24247l8.59123,-5.61706c1.12334,-0.68562 1.95194,-2.43974 1.87561,-3.75355l-0.59271,-10.2014c-0.07634,-1.31381 -1.09804,-2.88289 -2.2977,-3.51108l-9.18394,-4.58433c-0.55894,-0.27771 -1.34076,-0.38737 -2.1136,-0.34245z" fill="#dfded0" stroke-width="1"/><path d="M234.36489,176.06224c-0.69556,0.04041 -1.40008,-0.07374 -1.95902,-0.35144l-9.18394,-4.58433c-0.3999,-0.20939 -0.64521,-0.42777 -0.65868,-0.65964c-0.01347,-0.23184 0.20041,-0.55444 0.57787,-0.73147l8.59122,-5.61706c0.44573,-0.33607 1.13231,-0.53105 1.90514,-0.57595c0.77284,-0.0449 1.40008,0.07374 1.95902,0.35144l9.18394,4.58433c0.3999,0.20939 0.64521,0.42777 0.65868,0.65964c0.01347,0.23184 -0.20041,0.55444 -0.57786,0.73147l-8.59122,5.61706c-0.52302,0.34056 -1.2096,0.53554 -1.90514,0.57595zM233.85838,191.36789c-0.23184,0.01347 -0.46819,-0.05035 -0.70904,-0.19143l-9.18395,-4.58433c-1.04061,-0.5599 -2.05332,-1.9744 -2.12515,-3.21094l-0.59271,-10.2014c-0.01797,-0.30913 0.02341,-0.93189 0.56438,-0.96332c0.23184,-0.01347 0.46819,0.05035 0.70904,0.19143l9.18395,4.58433c1.04061,0.5599 2.05332,1.9744 2.12515,3.21094l0.58823,10.12412c0.01797,0.30913 -0.04137,0.62277 -0.18694,0.7863c-0.06832,0.15905 -0.14109,0.24082 -0.37296,0.2543zM236.48601,191.21522c-0.54098,0.03143 -0.65868,-0.65964 -0.67215,-0.89148l-0.59271,-10.2014c-0.07183,-1.23654 0.69296,-2.75432 1.739,-3.43545l8.59123,-5.61706c0.22287,-0.16804 0.45022,-0.25879 0.68208,-0.27226c0.54098,-0.03143 0.65868,0.65964 0.67215,0.89148l0.59271,10.2014c0.07183,1.23654 -0.69296,2.75432 -1.739,3.43546l-8.59122,5.61706c-0.30015,0.17253 -0.52752,0.26328 -0.68208,0.27226z" fill="#ffffff" stroke-width="1"/><path d="M242.93773,181.16381c0.04219,0.72621 -0.43055,1.34437 -1.05589,1.3807c-0.62535,0.03634 -1.16649,-0.52293 -1.20869,-1.24913c-0.04219,-0.72621 0.43055,-1.34438 1.05589,-1.38071c0.62535,-0.03634 1.16649,0.52293 1.20869,1.24914z" fill="#c30d23" stroke-width="0"/><path d="M231.44733,179.31729c0.04219,0.72621 -0.43054,1.34437 -1.05589,1.38071c-0.62535,0.03634 -1.16648,-0.52293 -1.20869,-1.24913c-0.04219,-0.72621 0.43054,-1.34437 1.05589,-1.38071c0.62535,-0.03634 1.16649,0.52293 1.2087,1.24913z" fill="#3d3d3d" stroke-width="0"/><path d="M228.48758,181.73948c0.04219,0.72621 -0.43054,1.34437 -1.05589,1.3807c-0.62535,0.03634 -1.16649,-0.52292 -1.20869,-1.24913c-0.04219,-0.72621 0.43054,-1.34437 1.05589,-1.38071c0.62535,-0.03634 1.16649,0.52293 1.2087,1.24913z" fill="#3d3d3d" stroke-width="0"/><path d="M225.82,184.14471c0.04219,0.72621 -0.43054,1.34437 -1.05589,1.38071c-0.62535,0.03634 -1.16649,-0.52293 -1.20869,-1.24914c-0.04219,-0.72621 0.43054,-1.34436 1.05589,-1.3807c0.62535,-0.03634 1.16649,0.52293 1.20869,1.24913z" fill="#3d3d3d" stroke-width="0"/><path d="M237.25626,167.52333c0.62535,-0.03634 1.16649,0.52293 1.2087,1.24913c0.04219,0.72621 -0.43054,1.34437 -1.05589,1.3807c-0.62535,0.03634 -1.16649,-0.52292 -1.2087,-1.24913c-0.04219,-0.72621 0.43054,-1.34437 1.05589,-1.38071z" data-paper-data="{&quot;index&quot;:null}" fill="#3d3d3d" stroke-width="0"/><path d="M230.27673,168.12677c0.62535,-0.03634 1.16649,0.52293 1.2087,1.24913c0.04219,0.72621 -0.43054,1.34437 -1.05589,1.38071c-0.62535,0.03634 -1.16649,-0.52293 -1.20869,-1.24913c-0.04219,-0.72621 0.43054,-1.34437 1.05589,-1.38071z" data-paper-data="{&quot;index&quot;:null}" fill="#3d3d3d" stroke-width="0"/></g><g stroke="none"><path d="M261.56251,162.50198c0.94424,0.98258 1.3752,2.89586 0.9894,4.17515l-2.82923,9.38145c-0.3858,1.27929 -1.80271,2.63529 -3.13274,2.93201l-9.58783,2.22586c-1.33005,0.29672 -3.17791,-0.26055 -4.12214,-1.24314l-6.75861,-7.15557c-0.94424,-0.98258 -1.37519,-2.89586 -0.98938,-4.17515l2.82923,-9.38144c0.3858,-1.27929 1.80272,-2.6353 3.13274,-2.93202l9.58782,-2.22587c1.33005,-0.29672 3.17791,0.26055 4.12215,1.24315c0,0 6.68755,7.13415 6.75861,7.15557z" fill="#dfded0" stroke-width="1"/><path d="M244.68387,181.44776c-0.85287,-0.2572 -1.57035,-0.70618 -2.05319,-1.16194l-6.75861,-7.15557c-0.99387,-1.07509 -1.47448,-3.08088 -1.04582,-4.50231l2.82923,-9.38144c0.42867,-1.42144 1.93807,-2.82708 3.36063,-3.17343l9.58783,-2.22586c1.42254,-0.34635 3.41256,0.25379 4.40644,1.32887l6.75861,7.15557c0.99388,1.07508 1.47448,3.08087 1.04582,4.50231l-2.82923,9.38145c-0.42867,1.42144 -1.93807,2.82708 -3.36063,3.17343l-9.58783,2.22586c-0.67574,0.1839 -1.57146,0.06883 -2.35326,-0.16694zM252.80717,154.51161c-0.71071,-0.21433 -1.46429,-0.28653 -2.04754,-0.15228l-9.58783,2.22586c-1.23755,0.24706 -2.56194,1.55344 -2.92631,2.76165l-2.82923,9.38144c-0.36437,1.20821 0.03839,2.95793 0.91156,3.91907l6.75861,7.15556c0.82353,0.86864 2.6714,1.4259 3.83787,1.1574l9.58784,-2.22586c1.23755,-0.24706 2.56194,-1.55343 2.92631,-2.76164l2.82922,-9.38144c0.36437,-1.20821 -0.03839,-2.95793 -0.91157,-3.91907l-6.75861,-7.15557c-0.41176,-0.43432 -1.0796,-0.79078 -1.79034,-1.00513z" fill="#dfded0" stroke-width="1"/><path d="M249.22777,166.38056c-0.63965,-0.1929 -1.23642,-0.52794 -1.64818,-0.96227l-6.75861,-7.15557c-0.29108,-0.32038 -0.43996,-0.5979 -0.37567,-0.81113c0.0643,-0.2132 0.36324,-0.43319 0.76147,-0.46818l9.58784,-2.22587c0.51217,-0.15569 1.19467,-0.10492 1.90538,0.10941c0.71071,0.21433 1.23642,0.52794 1.64818,0.96226l6.7586,7.15556c0.29107,0.32038 0.43998,0.5979 0.37568,0.81113c-0.0643,0.2132 -0.36325,0.43319 -0.76148,0.46817l-9.58783,2.22588c-0.58323,0.13426 -1.26574,0.08349 -1.90538,-0.10941zM243.72607,179.99589c-0.2132,-0.06429 -0.40499,-0.19968 -0.57536,-0.40612l-6.75861,-7.15557c-0.75247,-0.84721 -1.19808,-2.45477 -0.85514,-3.59192l2.82922,-9.38145c0.08573,-0.28429 0.32828,-0.83142 0.82578,-0.68139c0.2132,0.06429 0.40498,0.19968 0.57535,0.40611l6.75862,7.15557c0.75247,0.84721 1.19807,2.45477 0.85513,3.59193l-2.80778,9.31036c-0.08573,0.28429 -0.24255,0.54714 -0.42755,0.64642c-0.11395,0.12071 -0.20644,0.17034 -0.41967,0.10604zM246.14251,180.72462c-0.49749,-0.15003 -0.37566,-0.81112 -0.31137,-1.02433l2.82922,-9.38144c0.34294,-1.13715 1.53196,-2.25174 2.69843,-2.52025l9.58783,-2.22587c0.25607,-0.07784 0.49073,-0.0846 0.70396,-0.0203c0.4975,0.15003 0.37568,0.81112 0.31137,1.02432l-2.82923,9.38144c-0.34294,1.13715 -1.53195,2.25174 -2.69842,2.52025l-9.58784,2.22586c-0.32715,0.05641 -0.56178,0.06317 -0.70395,0.0203z" fill="#ffffff" stroke-width="1"/><path d="M239.59513,170.62101c-0.2014,0.66784 -0.83087,1.06864 -1.40596,0.89521c-0.57507,-0.17343 -0.87801,-0.85542 -0.6766,-1.52326c0.2014,-0.66784 0.83087,-1.06863 1.40596,-0.8952c0.57507,0.17343 0.87801,0.85541 0.6766,1.52325z" fill="#3d3d3d" stroke-width="0"/><path d="M245.59218,169.20483c-0.2014,0.66784 -0.83087,1.06863 -1.40595,0.89521c-0.57507,-0.17343 -0.87801,-0.85542 -0.67661,-1.52326c0.2014,-0.66784 0.83088,-1.06863 1.40596,-0.89521c0.57507,0.17343 0.878,0.85542 0.6766,1.52326z" fill="#3d3d3d" stroke-width="0"/><path d="M246.26781,157.4624c0.57507,0.17343 0.878,0.85542 0.6766,1.52325c-0.20139,0.66784 -0.83087,1.06863 -1.40596,0.89521c-0.57507,-0.17343 -0.87801,-0.85541 -0.67661,-1.52326c0.20139,-0.66784 0.83088,-1.06864 1.40596,-0.8952z" data-paper-data="{&quot;index&quot;:null}" fill="#c30d23" stroke-width="0"/><path d="M256.1753,160.47964c0.57507,0.17343 0.87801,0.85541 0.67661,1.52326c-0.20139,0.66784 -0.83088,1.06864 -1.40596,0.89521c-0.57507,-0.17343 -0.87801,-0.85542 -0.6766,-1.52326c0.20139,-0.66784 0.83087,-1.06864 1.40596,-0.89521z" data-paper-data="{&quot;index&quot;:null}" fill="#c30d23" stroke-width="0"/><path d="M249.72556,164.05324c-0.57507,-0.17343 -0.878,-0.85542 -0.6766,-1.52326c0.20139,-0.66784 0.83087,-1.06864 1.40596,-0.89521c0.57507,0.17343 0.87801,0.85543 0.67661,1.52326c-0.20139,0.66784 -0.83088,1.06863 -1.40596,0.8952z" data-paper-data="{&quot;index&quot;:null}" fill="#c30d23" stroke-width="0"/><path d="M251.38538,158.64665c-0.57507,-0.17343 -0.878,-0.85542 -0.6766,-1.52325c0.20139,-0.66784 0.83087,-1.06864 1.40596,-0.89521c0.57507,0.17343 0.87801,0.85542 0.67661,1.52326c-0.20139,0.66784 -0.83088,1.06863 -1.40596,0.89521z" data-paper-data="{&quot;index&quot;:null}" fill="#c30d23" stroke-width="0"/><path d="M255.26559,173.80046c-0.20139,0.66784 -0.83088,1.06864 -1.40596,0.8952c-0.57507,-0.17343 -0.87801,-0.85541 -0.67661,-1.52326c0.20139,-0.66784 0.83088,-1.06864 1.40596,-0.89521c0.57507,0.17343 0.878,0.85542 0.6766,1.52326z" fill="#c30d23" stroke-width="0"/></g><text transform="translate(223.66391,207.617) scale(0.27778,0.27778)" font-size="40" xml:space="preserve" fill="#5eafa3" fill-rule="nonzero" stroke="none" stroke-width="1" stroke-linecap="butt" stroke-linejoin="miter" stroke-miterlimit="10" stroke-dasharray="" stroke-dashoffset="0" font-family="Sans Serif" font-weight="normal" text-anchor="start" style="mix-blend-mode: normal"><tspan x="0" dy="0">骰子卡</tspan></text></g></g></svg>