<svg version="1.1" xmlns="http://www.w3.org/2000/svg" xmlns:xlink="http://www.w3.org/1999/xlink" width="30.72592" height="30.72591" viewBox="0,0,30.72592,30.72591"><g transform="translate(-313.83065,-42.99646)"><g data-paper-data="{&quot;isPaintingLayer&quot;:true}" fill-rule="nonzero" stroke-linecap="butt" stroke-linejoin="miter" stroke-miterlimit="10" stroke-dasharray="" stroke-dashoffset="0" style="mix-blend-mode: normal"><path d="M314.58065,58.35941c0,-8.07051 6.54244,-14.61295 14.61296,-14.61295c8.07051,0 14.61296,6.54245 14.61296,14.61296c0,8.07051 -6.54244,14.61295 -14.61295,14.61295c-8.07051,0 -14.61295,-6.54244 -14.61295,-14.61295z" fill="#fcdab3" stroke="#cdac86" stroke-width="1.5"/><path d="M336.93688,53.53223v2.29021c0,1.10244 -0.89785,2.00029 -2.00029,2.00029h-0.1755c-0.24531,2.51903 -2.21167,4.53193 -4.7084,4.85094v2.56654h3.26563c0.81156,0 1.46894,0.65836 1.46894,1.46992v0.1784h-10.85956v-0.1784c0,-0.81156 0.65836,-1.46992 1.46992,-1.46992h3.26563v-2.56654c-2.49673,-0.319 -4.46309,-2.3319 -4.7084,-4.85093h-0.24046c-1.10244,0 -2.00029,-0.89785 -2.00029,-2.00029v-2.29021c0,-0.6283 0.51098,-1.13928 1.13929,-1.13928h1.07432v-0.17259c0,-0.46735 0.37911,-0.8455 0.84549,-0.8455h9.16858c0.46735,0 0.84549,0.37815 0.84549,0.8455v0.17259h1.01033c0.62831,0 1.13928,0.51098 1.13928,1.13928zM323.9277,53.36254h-1.07432c-0.09308,0 -0.16968,0.0766 -0.16968,0.16968v2.29021c0,0.56818 0.4625,1.03069 1.03069,1.03069h0.21331zM331.87943,56.21124l-0.64382,-1.3206c-0.02521,-0.05139 -0.07853,-0.08435 -0.13574,-0.08435h-3.54876c-0.05721,0 -0.11053,0.03296 -0.13574,0.08435l-0.64382,1.3206c-0.02812,0.05817 -0.01648,0.12799 0.02909,0.17356l2.41819,2.41819c0.05915,0.05915 0.15417,0.05915 0.21331,0l2.41819,-2.41819c0.04557,-0.04557 0.05721,-0.11539 0.02909,-0.17356zM335.96727,53.53223c0,-0.09308 -0.0766,-0.16968 -0.16968,-0.16968h-1.01033v3.49058h0.14933c0.56819,0 1.03068,-0.46251 1.03068,-1.03069z" fill="#cdac86" stroke="none" stroke-width="1"/></g></g></svg>