<svg version="1.1" xmlns="http://www.w3.org/2000/svg" xmlns:xlink="http://www.w3.org/1999/xlink" width="30.19471" height="34.09981" viewBox="0,0,30.19471,34.09981"><g transform="translate(-224.90402,-169.45362)"><g data-paper-data="{&quot;isPaintingLayer&quot;:true}" fill-rule="nonzero" stroke="none" stroke-linecap="butt" stroke-linejoin="miter" stroke-miterlimit="10" stroke-dasharray="" stroke-dashoffset="0" style="mix-blend-mode: normal"><g><path d="M254.42574,195.43651c0.3944,0.14555 0.66066,0.51631 0.67257,0.93654c0.01191,0.42023 -0.23291,0.80548 -0.61843,0.97314l-14.0681,6.12171c-0.262,0.11403 -0.55959,0.11403 -0.82159,0l-14.06733,-6.1221c-0.38552,-0.16766 -0.63034,-0.5529 -0.61843,-0.97313c0.01191,-0.42023 0.27817,-0.79099 0.67257,-0.93654l7.67569,-2.83383l4.2921,-21.82422c0.04801,-0.24168 0.18112,-0.45812 0.37515,-0.61c0.09341,-0.0732 0.94512,-0.71446 2.08086,-0.71446c1.13574,0 1.98746,0.64126 2.08086,0.71446c0.19403,0.15188 0.32713,0.36832 0.37514,0.61l4.2921,21.82422l7.67569,2.83383zM234.8303,195.25618c1.54863,0.4777 3.31763,0.72895 5.1705,0.72895c1.85287,0 3.62187,-0.25125 5.16897,-0.72781l-0.64812,-3.30315c-1.40986,0.33931 -2.94934,0.51927 -4.52085,0.51927c-1.57151,0 -3.11023,-0.17843 -4.52085,-0.51927zM237.59168,181.21134l-0.89441,4.54868c2.18381,0.40417 4.42324,0.40417 6.60705,0l-0.89441,-4.54868c-0.79953,0.0948 -1.60398,0.14202 -2.40911,0.14144c-0.80513,0.00058 -1.60958,-0.04664 -2.40911,-0.14144zM237.99009,179.18462c0.66773,0.07326 1.33898,0.10979 2.01071,0.10942c0.67197,0.00065 1.34347,-0.03562 2.01147,-0.10865l-0.39688,-2.01833c-0.5326,0.04194 -1.07208,0.06367 -1.61421,0.06367c-0.54213,0 -1.08046,-0.02173 -1.61421,-0.06367l-0.39688,2.01795zM236.30001,187.78103l-0.4228,2.14986c1.27414,0.31682 2.6798,0.48266 4.12359,0.48266c1.44379,0 2.84983,-0.16623 4.12359,-0.48266l-0.4228,-2.14986c-1.22008,0.23011 -2.4592,0.3441 -3.70078,0.34045c-1.24158,0.00365 -2.48071,-0.11034 -3.70078,-0.34045zM239.47506,171.63093l-0.68815,3.50101c0.40107,0.02478 0.80672,0.03813 1.21389,0.03813c0.40717,0 0.81283,-0.01182 1.2139,-0.03813l-0.68816,-3.50063c-0.16548,-0.07482 -0.3442,-0.1159 -0.52574,-0.12085c-0.18156,0.00445 -0.36036,0.04542 -0.52574,0.12047zM251.30903,196.48037l-4.09538,-1.51165l0.15784,0.80253c0.10965,0.55775 -0.25357,1.09881 -0.8113,1.20856c-0.02974,0.00572 -0.05985,0.01029 -0.08959,0.01334c-1.90777,0.68777 -4.13693,1.05072 -6.46866,1.05072c-2.33172,0 -4.56279,-0.36447 -6.46904,-1.05072c-0.02974,-0.00305 -0.05985,-0.00762 -0.08959,-0.01334c-0.26805,-0.05244 -0.50427,-0.20926 -0.65665,-0.43594c-0.15238,-0.22668 -0.20842,-0.50461 -0.1558,-0.77262l0.15784,-0.80253l-4.09537,1.51165l11.30746,4.92002z" fill="#d0003f" stroke-width="1"/><path d="M240.0008,171.46046c0.18153,0.00495 0.37496,0.04825 0.54044,0.12307l0.7015,3.58981c-0.40107,0.02631 -0.83477,0.04673 -1.24195,0.04673c-0.40717,0 -0.84087,-0.02195 -1.24194,-0.04673l0.7015,-3.59019c0.16538,-0.07505 0.35888,-0.11824 0.54044,-0.12268z" data-paper-data="{&quot;noHover&quot;:false,&quot;origItem&quot;:[&quot;Path&quot;,{&quot;applyMatrix&quot;:true,&quot;segments&quot;:[[[239.47506,171.63093],[0.16538,-0.07505],[0,0]],[[238.7869,175.13194],[0,0],[0.40107,0.02478]],[[240.0008,175.17007],[-0.40717,0],[0.40717,0]],[[241.2147,175.13194],[-0.40107,0.02631],[0,0]],[[240.52654,171.63131],[0,0],[-0.16548,-0.07482]],[[240.0008,171.51046],[0.18153,0.00495],[-0.18156,0.00445]]],&quot;closed&quot;:true,&quot;fillColor&quot;:[0,0,0,1]}]}" fill="#ffffff" stroke-width="0.5"/><path d="M235.43428,191.93381c1.41062,0.34083 2.99503,0.48963 4.56654,0.48963c1.57151,0 3.15664,-0.15031 4.5665,-0.48962l0.65097,3.33559c-1.54711,0.47656 -3.3646,0.76572 -5.21747,0.76572c-1.85287,0 -3.6704,-0.28917 -5.21904,-0.76688z" data-paper-data="{&quot;noHover&quot;:false,&quot;origItem&quot;:[&quot;Path&quot;,{&quot;applyMatrix&quot;:true,&quot;segments&quot;:[[[234.8303,195.25618],[0,0],[1.54863,0.4777]],[[240.0008,195.98513],[-1.85287,0],[1.85287,0]],[[245.16977,195.25732],[-1.54711,0.47656],[0,0]],[[244.52165,191.95418],[0,0],[-1.40986,0.33931]],[[240.0008,192.47344],[1.57151,0],[-1.57151,0]],[[235.47995,191.95418],[1.41062,0.34083],[0,0]]],&quot;closed&quot;:true,&quot;fillColor&quot;:[0,0,0,1]}]}" fill="#ffffff" stroke-width="0.5"/><path d="M240.00079,201.45039l-11.3569,-4.97747l4.09915,-1.52456l-0.06465,0.83845c-0.05262,0.26801 0.00465,0.54147 0.15703,0.76815c0.15238,0.22668 0.38902,0.38145 0.65707,0.43389c0.02974,0.00572 0.05985,0.01031 0.08959,0.01336c1.90625,0.68625 4.08841,0.99167 6.42013,0.99167c2.33172,0 4.51144,-0.3039 6.41921,-0.99167c0.02974,-0.00305 0.05985,-0.00764 0.08959,-0.01336c0.55773,-0.10975 0.9226,-0.64428 0.81296,-1.20203l-0.06466,-0.83845l4.09916,1.52456z" data-paper-data="{&quot;noHover&quot;:false,&quot;origItem&quot;:[&quot;Path&quot;,{&quot;applyMatrix&quot;:true,&quot;segments&quot;:[[251.30903,196.48037],[247.21365,194.96872],[[247.37149,195.77125],[0,0],[0.10965,0.55775]],[[246.56019,196.97981],[0.55773,-0.10975],[-0.02974,0.00572]],[[246.4706,196.99315],[0.02974,-0.00305],[-1.90777,0.68777]],[[240.00194,198.04387],[2.33172,0],[-2.33172,0]],[[233.53291,196.99315],[1.90625,0.68625],[-0.02974,-0.00305]],[[233.44331,196.97981],[0.02974,0.00572],[-0.26805,-0.05244]],[[232.78667,196.54387],[0.15238,0.22668],[-0.15238,-0.22668]],[[232.63087,195.77125],[-0.05262,0.26801],[0,0]],[232.78871,194.96872],[228.69333,196.48037],[240.0008,201.40039]],&quot;closed&quot;:true,&quot;fillColor&quot;:[0,0,0,1]}]}" fill="#ff4363" stroke-width="0.5"/><path d="M240.0008,181.30278c0.80513,0.00058 1.64482,-0.03212 2.44435,-0.12692l0.90124,4.61119c-2.18381,0.40417 -4.50737,0.40417 -6.69118,0l0.90124,-4.61119c0.79953,0.0948 1.63922,0.1275 2.44435,0.12692z" data-paper-data="{&quot;noHover&quot;:false,&quot;origItem&quot;:[&quot;Path&quot;,{&quot;applyMatrix&quot;:true,&quot;segments&quot;:[[[237.59168,181.21134],[0.79953,0.0948],[0,0]],[[236.69727,185.76002],[0,0],[2.18381,0.40417]],[[243.30432,185.76002],[-2.18381,0.40417],[0,0]],[[242.40991,181.21134],[0,0],[-0.79953,0.0948]],[[240.0008,181.35278],[0.80513,0.00058],[-0.80513,0.00058]]],&quot;closed&quot;:true,&quot;fillColor&quot;:[0,0,0,1]}]}" fill="#ffffff" stroke-width="0.5"/><path d="M240.0008,188.07148c1.24158,0.00365 2.52782,-0.07711 3.74789,-0.30721l0.4247,2.17652c-1.27375,0.31644 -2.72881,0.52276 -4.1726,0.52276c-1.44379,0 -2.89846,-0.20594 -4.1726,-0.52276l0.4247,-2.17652c1.22008,0.23011 2.50631,0.31086 3.74789,0.30721z" data-paper-data="{&quot;noHover&quot;:false,&quot;origItem&quot;:[&quot;Path&quot;,{&quot;applyMatrix&quot;:true,&quot;segments&quot;:[[[236.30001,187.78103],[1.22008,0.23011],[0,0]],[[235.87721,189.93089],[0,0],[1.27414,0.31682]],[[240.0008,190.41355],[-1.44379,0],[1.44379,0]],[[244.12439,189.93089],[-1.27375,0.31644],[0,0]],[[243.70158,187.78103],[0,0],[-1.22008,0.23011]],[[240.0008,188.12148],[1.24158,0.00365],[-1.24158,0.00365]]],&quot;closed&quot;:true,&quot;fillColor&quot;:[0,0,0,1]}]}" fill="#ff4363" stroke-width="0.5"/><path d="M237.94492,179.20644l0.4003,-2.0669c0.53375,0.04194 1.11382,0.04117 1.65596,0.04117c0.54213,0 1.12336,0.00077 1.65596,-0.04117l0.40029,2.06728c-0.668,0.07304 -1.38468,0.13787 -2.05666,0.13721c-0.67174,0.00037 -1.38814,-0.06472 -2.05587,-0.13798z" data-paper-data="{&quot;noHover&quot;:false,&quot;origItem&quot;:[&quot;Path&quot;,{&quot;applyMatrix&quot;:true,&quot;segments&quot;:[[[237.99009,179.18462],[0,0],[0.66773,0.07326]],[[240.0008,179.29404],[-0.67174,0.00037],[0.67197,0.00065]],[[242.01227,179.18538],[-0.668,0.07304],[0,0]],[[241.61539,177.16705],[0,0],[-0.5326,0.04194]],[[240.00118,177.23072],[0.54213,0],[-0.54213,0]],[[238.38697,177.16705],[0.53375,0.04194],[0,0]],[237.99009,179.185]],&quot;closed&quot;:true,&quot;fillColor&quot;:[0,0,0,1]}]}" fill="#ff4363" stroke-width="0.5"/></g></g></g></svg>