<svg version="1.1" xmlns="http://www.w3.org/2000/svg" xmlns:xlink="http://www.w3.org/1999/xlink" width="26.15325" height="28.5543" viewBox="0,0,26.15325,28.5543"><g transform="translate(-46.02224,-108.40722)"><g data-paper-data="{&quot;isPaintingLayer&quot;:true}" fill-rule="nonzero" stroke="none" stroke-linecap="butt" stroke-linejoin="miter" stroke-miterlimit="10" stroke-dasharray="" stroke-dashoffset="0" style="mix-blend-mode: normal"><path d="M69.73747,114.05896c1.18207,0.66492 2.14249,2.36413 2.14249,3.69397v9.75206c0,1.32982 -0.96044,3.02905 -2.14249,3.69396l-8.4961,4.87602c-1.18207,0.66492 -3.10293,0.66492 -4.28499,0l-8.4961,-4.87602c-1.18207,-0.66492 -2.14249,-2.36413 -2.14249,-3.69396v-9.75206c0,-1.32982 0.96043,-3.02906 2.14249,-3.69397l8.49611,-4.87602c1.18207,-0.66492 3.10293,-0.66492 4.28499,0c0,0 8.42223,4.87602 8.4961,4.87602z" fill="#dfded0" stroke-width="1"/><path d="M59.09886,136.96152c-0.88655,0 -1.69922,-0.22163 -2.29026,-0.51715l-8.4961,-4.87602c-1.25594,-0.73879 -2.29026,-2.5119 -2.29026,-3.98948v-9.75205c0,-1.47759 1.03431,-3.25069 2.29026,-3.98949l8.49611,-4.87602c1.25594,-0.73879 3.32457,-0.73879 4.58051,0l8.49611,4.87602c1.25594,0.73879 2.29026,2.5119 2.29026,3.98949v9.75205c0,1.47759 -1.0343,3.25068 -2.29026,3.98948l-8.4961,4.87602c-0.59103,0.36941 -1.47759,0.51715 -2.29026,0.51715zM59.09886,108.9613c-0.73879,0 -1.47758,0.14776 -1.99474,0.44327l-8.4961,4.87602c-1.1082,0.59104 -1.99474,2.21637 -1.99474,3.47231v9.75206c0,1.25594 0.88654,2.80741 1.99474,3.47232l8.49611,4.87602c1.03431,0.59104 2.95517,0.59104 3.98948,0l8.49611,-4.87602c1.1082,-0.59104 1.99474,-2.21637 1.99474,-3.47232v-9.75206c0,-1.25594 -0.88655,-2.80741 -1.99474,-3.47231l-8.4961,-4.87602c-0.51715,-0.29551 -1.25594,-0.44327 -1.99475,-0.44327z" fill="#dfded0" stroke-width="1"/><path d="M59.09886,121.29913c-0.66492,0 -1.32982,-0.14776 -1.84697,-0.44327l-8.4961,-4.87602c-0.36941,-0.22163 -0.59103,-0.44327 -0.59103,-0.66492c0,-0.22163 0.22163,-0.51715 0.59103,-0.66492l8.4961,-4.87602c0.44327,-0.29551 1.10819,-0.44327 1.84697,-0.44327c0.73879,0 1.32982,0.14776 1.84698,0.44327l8.4961,4.87602c0.36941,0.22163 0.59103,0.44327 0.59103,0.66492c0,0.22163 -0.22163,0.51715 -0.59103,0.66492l-8.4961,4.87602c-0.51715,0.29551 -1.18207,0.44327 -1.84698,0.44327zM57.76903,135.85334c-0.22163,0 -0.44327,-0.07389 -0.66492,-0.22163l-8.4961,-4.87602c-0.96044,-0.59104 -1.84697,-1.99474 -1.84697,-3.17682v-9.75205c0,-0.29551 0.07388,-0.88656 0.59103,-0.88656c0.22163,0 0.44327,0.07389 0.66492,0.22163l8.49611,4.87602c0.96044,0.59104 1.84697,1.99474 1.84697,3.17682v9.67818c0,0.29551 -0.07389,0.59103 -0.22163,0.73879c-0.07388,0.14775 -0.14776,0.22163 -0.36941,0.22163zM60.28093,135.85334c-0.51715,0 -0.59103,-0.66492 -0.59103,-0.88655v-9.75206c0,-1.18207 0.81267,-2.58578 1.84698,-3.17682l8.4961,-4.87602c0.22163,-0.14775 0.44327,-0.22163 0.66492,-0.22163c0.51715,0 0.59103,0.66493 0.59103,0.88656v9.75205c0,1.18207 -0.81266,2.58578 -1.84697,3.17682l-8.4961,4.87602c-0.29552,0.14775 -0.51715,0.22163 -0.66492,0.22163z" fill="#ffffff" stroke-width="1"/><path d="M60.00077,114.83228c0,0.69422 -0.48461,1.257 -1.08241,1.257c-0.5978,0 -1.08242,-0.56278 -1.08242,-1.257c0,-0.69422 0.48462,-1.257 1.08242,-1.257c0.5978,0 1.08241,0.56278 1.08241,1.257z" fill="#c30d23" stroke-width="0"/><path d="M56.139,124.23882c0,0.69422 -0.48461,1.257 -1.08242,1.257c-0.5978,0 -1.08241,-0.56278 -1.08241,-1.257c0,-0.69422 0.48461,-1.257 1.08241,-1.257c0.5978,0 1.08242,0.56278 1.08242,1.257z" fill="#3d3d3d" stroke-width="0"/><path d="M53.18504,126.3827c0,0.69422 -0.4846,1.257 -1.08241,1.257c-0.5978,0 -1.08242,-0.56278 -1.08242,-1.257c0,-0.69422 0.48461,-1.257 1.08242,-1.257c0.5978,0 1.08241,0.56278 1.08241,1.257z" fill="#3d3d3d" stroke-width="0"/><path d="M50.51043,128.52658c0,0.69422 -0.48461,1.257 -1.08242,1.257c-0.5978,0 -1.08241,-0.56278 -1.08241,-1.257c0,-0.69422 0.4846,-1.25699 1.08241,-1.25699c0.5978,0 1.08242,0.56277 1.08242,1.25699z" fill="#3d3d3d" stroke-width="0"/><path d="M63.3039,123.31003c0.5978,0 1.08241,0.56278 1.08241,1.257c0,0.69422 -0.4846,1.257 -1.08241,1.257c-0.5978,0 -1.08242,-0.56278 -1.08242,-1.257c0,-0.69422 0.48461,-1.257 1.08242,-1.257z" data-paper-data="{&quot;index&quot;:null}" fill="#3d3d3d" stroke-width="0"/><path d="M66.11817,125.52376c0.5978,0 1.08241,0.56278 1.08241,1.257c0,0.69422 -0.4846,1.257 -1.08241,1.257c-0.5978,0 -1.08242,-0.56278 -1.08242,-1.257c0,-0.69422 0.48461,-1.257 1.08242,-1.257z" data-paper-data="{&quot;index&quot;:null}" fill="#3d3d3d" stroke-width="0"/><path d="M68.86262,127.5978c0.5978,0 1.08242,0.56278 1.08242,1.257c0,0.69422 -0.48461,1.257 -1.08242,1.257c-0.5978,0 -1.08242,-0.56278 -1.08242,-1.257c0,-0.69422 0.48461,-1.257 1.08242,-1.257z" data-paper-data="{&quot;index&quot;:null}" fill="#3d3d3d" stroke-width="0"/><path d="M63.81368,131.73891c-0.5978,0 -1.08241,-0.56277 -1.08242,-1.25699c0,-0.69422 0.48461,-1.257 1.08242,-1.257c0.5978,0 1.08241,0.56278 1.08241,1.257c0,0.69422 -0.4846,1.25699 -1.08241,1.25699z" data-paper-data="{&quot;index&quot;:null}" fill="#3d3d3d" stroke-width="0"/><path d="M68.52044,124.22485c-0.5978,0 -1.08241,-0.56277 -1.08241,-1.25699c0,-0.69422 0.48461,-1.257 1.08242,-1.257c0.5978,0 1.08242,0.56278 1.08242,1.257c0,0.69422 -0.48461,1.25699 -1.08242,1.25699z" data-paper-data="{&quot;index&quot;:null}" fill="#3d3d3d" stroke-width="0"/></g></g></svg>