<svg version="1.1" xmlns="http://www.w3.org/2000/svg" xmlns:xlink="http://www.w3.org/1999/xlink" width="107.51652" height="227.65193" viewBox="0,0,107.51652,227.65193"><g transform="translate(-185.96251,-55.98064)"><g data-paper-data="{&quot;isPaintingLayer&quot;:true}" fill-rule="nonzero" stroke-linecap="butt" stroke-linejoin="miter" stroke-miterlimit="10" stroke-dasharray="" stroke-dashoffset="0" style="mix-blend-mode: normal"><text transform="translate(206.23358,121.83005) scale(0.40369,0.40369)" font-size="40" xml:space="preserve" fill-opacity="0.79216" fill="#f5f5f5" fill-rule="nonzero" stroke="none" stroke-width="1" stroke-linecap="butt" stroke-linejoin="miter" stroke-miterlimit="10" stroke-dasharray="" stroke-dashoffset="0" font-family="Sans Serif" font-weight="normal" text-anchor="start" style="mix-blend-mode: normal"><tspan x="0" dy="0">本次奖金</tspan></text><text transform="translate(186.22864,79.13395) scale(0.53226,0.53226)" font-size="40" xml:space="preserve" fill="#ffffff" fill-rule="nonzero" stroke="none" stroke-width="1" stroke-linecap="butt" stroke-linejoin="miter" stroke-miterlimit="10" stroke-dasharray="" stroke-dashoffset="0" font-family="Sans Serif" font-weight="normal" text-anchor="start" style="mix-blend-mode: normal"><tspan x="0" dy="0">大富翁彩票</tspan></text><path d="M268.94942,160.16749h-60.5415c-3.31114,0 -6.00449,-2.69213 -6.00449,-6.00562v-10.88123c0,-3.30999 2.69331,-6.00449 6.00449,-6.00449h60.54265c3.31114,0 6.00449,2.6945 6.00449,6.00449v10.88123c0,3.31348 -2.69451,6.00562 -6.00563,6.00562z" fill="#fcdab3" stroke="#cdac86" stroke-width="1.5"/><path d="M198.9356,241.76358c0,-22.70939 18.40958,-41.11898 41.11898,-41.11898c22.70939,0 41.11903,18.40958 41.11903,41.11898c0,22.7094 -18.40964,41.11898 -41.11903,41.11898c-22.70939,0 -41.11898,-18.40959 -41.11898,-41.11898z" fill="#fcdab3" stroke="#cdac86" stroke-width="1.5"/><text transform="translate(206.34054,187.57279) scale(0.40369,0.40369)" font-size="40" xml:space="preserve" fill-opacity="0.79216" fill="#f5f5f5" fill-rule="nonzero" stroke="none" stroke-width="1" stroke-linecap="butt" stroke-linejoin="miter" stroke-miterlimit="10" stroke-dasharray="" stroke-dashoffset="0" font-family="Sans Serif" font-weight="normal" text-anchor="start" style="mix-blend-mode: normal"><tspan x="0" dy="0">中奖号码</tspan></text></g></g></svg>