<svg version="1.1" xmlns="http://www.w3.org/2000/svg" xmlns:xlink="http://www.w3.org/1999/xlink" width="72.33332" height="72.33332" viewBox="0,0,72.33332,72.33332"><defs><radialGradient cx="597.58239" cy="324.81368" r="36.16666" gradientUnits="userSpaceOnUse" id="color-1"><stop offset="0" stop-color="#e1d8d9"/><stop offset="1" stop-color="#e1d8d9" stop-opacity="0"/></radialGradient></defs><g transform="translate(-562.5824,-287.81372)"><g data-paper-data="{&quot;isPaintingLayer&quot;:true}" fill-rule="nonzero" stroke="none" stroke-linecap="butt" stroke-linejoin="miter" stroke-miterlimit="10" stroke-dasharray="" stroke-dashoffset="0" style="mix-blend-mode: normal"><path d="M562.5824,323.98038c0,-19.97429 16.19236,-36.16666 36.16666,-36.16666c19.97429,0 36.16666,16.19236 36.16666,36.16666c0,19.97429 -16.19236,36.16666 -36.16666,36.16666c-19.97429,0 -36.16666,-16.19236 -36.16666,-36.16666z" fill="url(#color-1)" stroke-width="0"/><g><path d="M616.89731,311.8673c1.94522,1.0942 3.52572,3.89047 3.52572,6.07884v16.04818c0,2.1884 -1.58051,4.98465 -3.52572,6.07887l-13.98136,8.02409c-1.94522,1.0942 -5.10625,1.0942 -7.05147,0l-13.98136,-8.02409c-1.94522,-1.0942 -3.52572,-3.89047 -3.52572,-6.07887v-16.04818c0,-2.1884 1.58051,-4.98465 3.52572,-6.07884l13.98136,-8.02409c1.94522,-1.0942 5.10625,-1.0942 7.05147,0c0,0 13.85978,8.02409 13.98136,8.02409z" fill="#dfded0" stroke-width="1"/><path d="M599.39022,349.55621c-1.45893,0 -2.79628,-0.36473 -3.76891,-0.85102l-13.98136,-8.02409c-2.0668,-1.21577 -3.76889,-4.13362 -3.76889,-6.56516v-16.04819c0,-2.43155 1.70207,-5.34939 3.76889,-6.56518l13.98136,-8.02407c2.0668,-1.21577 5.47098,-1.21577 7.53777,0l13.98136,8.02407c2.0668,1.21577 3.7689,4.13362 3.7689,6.56518v16.04819c0,2.43155 -1.70209,5.34939 -3.7689,6.56516l-13.98136,8.02409c-0.97263,0.6079 -2.43154,0.85102 -3.76889,0.85102zM599.39022,303.47849c-1.21577,0 -2.43156,0.24315 -3.2826,0.72947l-13.98136,8.0241c-1.82368,0.97263 -3.2826,3.64732 -3.2826,5.71411v16.04818c0,2.0668 1.45893,4.61992 3.2826,5.71411l13.98136,8.0241c1.70207,0.97263 4.86309,0.97263 6.56519,0l13.98136,-8.0241c1.82368,-0.97263 3.2826,-3.64732 3.2826,-5.71411v-16.04818c0,-2.0668 -1.45893,-4.61992 -3.2826,-5.71411l-13.98136,-8.0241c-0.85102,-0.48631 -2.06682,-0.72947 -3.2826,-0.72947z" fill="#dfded0" stroke-width="1"/><path d="M599.51176,323.92695c-1.0942,0 -2.18837,-0.24315 -3.03942,-0.72944l-13.98138,-8.02407c-0.6079,-0.36473 -0.97263,-0.72945 -0.97263,-1.09421c0,-0.36473 0.36473,-0.85102 0.97263,-1.09419l13.98138,-8.02409c0.72944,-0.48631 1.82364,-0.72948 3.03942,-0.72948c1.21577,0 2.1884,0.24315 3.03943,0.72948l13.98136,8.02409c0.6079,0.36473 0.97262,0.72944 0.97262,1.09419c0,0.36473 -0.36474,0.85105 -0.97262,1.09421l-13.98136,8.02407c-0.85102,0.48631 -1.94523,0.72944 -3.03943,0.72944zM597.32338,347.87763c-0.36473,0 -0.72944,-0.1216 -1.09419,-0.36472l-13.98138,-8.0241c-1.58051,-0.97263 -3.03943,-3.28258 -3.03943,-5.22782v-16.04818c0,-0.48631 0.12158,-1.45894 0.97263,-1.45894c0.36473,0 0.72944,0.1216 1.0942,0.36473l13.98136,8.0241c1.58051,0.97263 3.03942,3.28257 3.03942,5.22781v15.92661c0,0.48631 -0.1216,0.97263 -0.36473,1.21577c-0.1216,0.24315 -0.24314,0.36473 -0.6079,0.36473zM601.45703,347.87763c-0.85102,0 -0.97263,-1.0942 -0.97263,-1.45893v-16.04818c0,-1.94522 1.33732,-4.25521 3.03942,-5.22781l13.98138,-8.0241c0.36473,-0.24315 0.72944,-0.36473 1.09419,-0.36473c0.85102,0 0.97263,1.09421 0.97263,1.45894v16.04818c0,1.94522 -1.33734,4.25521 -3.03942,5.22782l-13.98136,8.0241c-0.48631,0.24315 -0.85102,0.36472 -1.0942,0.36472z" fill="#ffffff" stroke-width="1"/><path d="M586.29119,334.98597c0,1.14243 -0.79749,2.06857 -1.78126,2.06857c-0.98374,0 -1.78126,-0.92611 -1.78126,-2.06857c0,-1.14243 0.79749,-2.06854 1.78126,-2.06854c0.98374,0 1.78126,0.92611 1.78126,2.06854z" fill="#3d3d3d" stroke-width="0"/><path d="M595.02504,329.92954c0,1.14243 -0.79746,2.06853 -1.78123,2.06853c-0.98374,0 -1.78123,-0.92611 -1.78123,-2.06853c0,-1.14243 0.79747,-2.06853 1.78123,-2.06853c0.98374,0 1.78123,0.92611 1.78123,2.06853z" fill="#3d3d3d" stroke-width="0"/><path d="M590.53172,311.19776c0.98374,0 1.78123,0.92611 1.78123,2.06856c0,1.14243 -0.79746,2.06857 -1.78123,2.06857c-0.98374,0 -1.78126,-0.92612 -1.78126,-2.06857c0,-1.14243 0.79749,-2.06856 1.78126,-2.06856z" data-paper-data="{&quot;index&quot;:null}" fill="#c30d23" stroke-width="0"/><path d="M607.49377,311.24368c0.98374,0 1.78126,0.92611 1.78126,2.06854c0,1.14243 -0.79749,2.06853 -1.78126,2.06853c-0.98374,0 -1.78126,-0.92611 -1.78126,-2.06853c0,-1.14243 0.79749,-2.06854 1.78126,-2.06854z" data-paper-data="{&quot;index&quot;:null}" fill="#c30d23" stroke-width="0"/><path d="M599.0702,319.89713c-0.98374,0 -1.78123,-0.92611 -1.78123,-2.06856c0,-1.14243 0.79746,-2.06854 1.78123,-2.06854c0.98374,0 1.78127,0.92611 1.78127,2.06854c0,1.14243 -0.7975,2.06856 -1.78127,2.06856z" data-paper-data="{&quot;index&quot;:null}" fill="#c30d23" stroke-width="0"/><path d="M599.11616,310.63464c-0.98374,0 -1.78123,-0.92611 -1.78123,-2.06856c0,-1.14243 0.79749,-2.06854 1.78126,-2.06854c0.98374,0 1.78126,0.92611 1.78126,2.06854c0,1.14243 -0.79749,2.06856 -1.78126,2.06856z" data-paper-data="{&quot;index&quot;:null}" fill="#c30d23" stroke-width="0"/><path d="M612.36633,332.56121c0,1.14243 -0.79752,2.06854 -1.78126,2.06854c-0.98374,0 -1.78126,-0.92611 -1.78126,-2.06854c0,-1.14243 0.79752,-2.06856 1.78126,-2.06856c0.98374,0 1.78126,0.92611 1.78126,2.06856z" fill="#c30d23" stroke-width="0"/></g></g></g></svg>