<svg version="1.1" xmlns="http://www.w3.org/2000/svg" xmlns:xlink="http://www.w3.org/1999/xlink" width="522.52252" height="383.3834" viewBox="0,0,522.52252,383.3834"><g transform="translate(21.76176,11.6917)"><g data-paper-data="{&quot;isPaintingLayer&quot;:true}" fill-rule="nonzero" stroke-linecap="butt" stroke-linejoin="miter" stroke-miterlimit="10" stroke-dasharray="" stroke-dashoffset="0" style="mix-blend-mode: normal"><path d="M-20.76073,371.6917c0,0 -1.00103,-168.32003 -1.00103,-231.28254c0,-64.78021 1.00103,-152.10086 1.00103,-152.10086h521.52149v383.3834zM92.74675,172.41615c13.80712,0 25,-11.19288 25,-25c0,-13.80712 -11.19288,-25 -25,-25c-13.80712,0 -25,11.19288 -25,25c0,13.80712 11.19288,25 25,25z" fill-opacity="0.3451" fill="#3a3229" stroke="none" stroke-width="NaN"/><path d="M453.3954,140.5545h-214.51089c-4.27519,0 -7.7527,-3.47598 -7.7527,-7.75418v-49.53843c0,-4.27366 3.47749,-7.7527 7.7527,-7.7527h214.51239c4.27519,0 7.7527,3.47903 7.7527,7.7527v49.53843c0,4.27819 -3.47903,7.75418 -7.75418,7.75418z" fill="#fcdab3" stroke="#cdac86" stroke-width="1.5"/><text transform="translate(275.94646,105.0453) scale(0.43731,0.43731)" font-size="40" xml:space="preserve" fill="#b58453" fill-rule="nonzero" stroke="none" stroke-width="1" stroke-linecap="butt" stroke-linejoin="miter" stroke-miterlimit="10" stroke-dasharray="" stroke-dashoffset="0" font-family="Sans Serif" font-weight="normal" text-anchor="start" style="mix-blend-mode: normal"><tspan x="0" dy="0">购入地产以收取他</tspan><tspan x="0" dy="48px">人过路费作为资金</tspan></text></g></g></svg>