<svg version="1.1" xmlns="http://www.w3.org/2000/svg" xmlns:xlink="http://www.w3.org/1999/xlink" width="20.3436" height="20.34359" viewBox="0,0,20.3436,20.34359"><g transform="translate(-614.20213,-4.16766)"><g data-paper-data="{&quot;isPaintingLayer&quot;:true}" fill-rule="nonzero" stroke-linecap="butt" stroke-linejoin="miter" stroke-miterlimit="10" stroke-dasharray="" stroke-dashoffset="0" style="mix-blend-mode: normal"><path d="M614.95213,14.33945c0,-5.20351 4.21828,-9.42179 9.4218,-9.42179c5.20351,0 9.4218,4.21828 9.4218,9.4218c0,5.20351 -4.21828,9.42179 -9.42179,9.42179c-5.20351,0 -9.42179,-4.21828 -9.42179,-9.42179z" fill="#ffe4d3" stroke="#d0baac" stroke-width="1.5"/><g fill="#d0baac" stroke="none" stroke-width="1"><path d="M621.03428,8.3019h4.75189c0.23895,0 0.43199,0.19304 0.43199,0.43199c0,0.23894 -0.19304,0.43199 -0.43199,0.43199h-4.75189c-0.47654,0 -0.86398,0.38744 -0.86398,0.86398v8.6398c0,0.47654 0.38744,0.86398 0.86398,0.86398h4.75189c0.23895,0 0.43199,0.19304 0.43199,0.43199c0,0.23895 -0.19304,0.43199 -0.43199,0.43199h-4.75189c-0.95443,0 -1.72796,-0.77353 -1.72796,-1.72796v-8.6398c0,-0.95443 0.77353,-1.72796 1.72796,-1.72796z"/><path d="M631.64633,14.63097l-4.30135,3.88831c-0.48782,0.44153 -1.2688,0.09495 -1.2688,-0.56378v-1.55248c0,-0.05222 -0.04273,-0.09495 -0.09496,-0.09495h-3.70315c-0.21008,0 -0.37981,-0.16972 -0.37981,-0.37981v-3.15718c0,-0.21008 0.16972,-0.37981 0.37981,-0.37981h3.70315c0.05223,0 0.09496,-0.04272 0.09496,-0.09495v-1.55367c0,-0.65873 0.78098,-1.00531 1.2688,-0.56378l4.30135,3.88831c0.16735,0.15193 0.16735,0.41305 0,0.56378z"/></g></g></g></svg>