<svg version="1.1" xmlns="http://www.w3.org/2000/svg" xmlns:xlink="http://www.w3.org/1999/xlink" width="427.99052" height="303.20297" viewBox="0,0,427.99052,303.20297"><g transform="translate(-24.00329,-36.14967)"><g data-paper-data="{&quot;isPaintingLayer&quot;:true}" fill-rule="nonzero" stroke-linecap="butt" stroke-linejoin="miter" stroke-miterlimit="10" stroke-dasharray="" stroke-dashoffset="0" style="mix-blend-mode: normal"><text transform="translate(179.00005,72.57155) scale(0.84375,0.84375)" font-size="40" xml:space="preserve" fill="#000000" fill-rule="nonzero" stroke="none" stroke-width="1" stroke-linecap="butt" stroke-linejoin="miter" stroke-miterlimit="10" stroke-dasharray="" stroke-dashoffset="0" font-family="Sans Serif" font-weight="normal" text-anchor="start" style="mix-blend-mode: normal"><tspan x="0" dy="0">游戏结束</tspan></text><path d="M443.81009,338.60264h-411.62453c-4.09849,0 -7.43227,-3.33232 -7.43227,-7.43369v-217.82269c0,-4.09704 3.33376,-7.43226 7.43227,-7.43226h411.62597c4.0985,0 7.43228,3.33523 7.43228,7.43226v217.82269c0,4.10137 -3.33523,7.43369 -7.43369,7.43369z" fill="#fcdab3" stroke="#cdac86" stroke-width="1.5"/><path d="M236.09649,329.44683h-191.19358c-7.34506,0 -13.31968,-5.97193 -13.31968,-13.32219v-189.22458c0,-7.34251 5.97455,-13.31968 13.31968,-13.31968h191.19612c7.34506,0 13.31968,5.97718 13.31968,13.31968v189.22458c0,7.35026 -5.9772,13.32219 -13.32222,13.32219z" fill="#ebcba7" stroke="none" stroke-width="0"/><text transform="translate(288.8271,167.47381) scale(0.38244,0.38244)" font-size="40" xml:space="preserve" fill="#76624c" fill-rule="nonzero" stroke="none" stroke-width="1" stroke-linecap="butt" stroke-linejoin="miter" stroke-miterlimit="10" stroke-dasharray="" stroke-dashoffset="0" font-family="Sans Serif" font-weight="normal" text-anchor="start" style="mix-blend-mode: normal"><tspan x="0" dy="0">游戏总时长</tspan></text></g></g></svg>