<svg version="1.1" xmlns="http://www.w3.org/2000/svg" xmlns:xlink="http://www.w3.org/1999/xlink" width="61.62034" height="76.53118" viewBox="0,0,61.62034,76.53118"><defs><linearGradient x1="262.46306" y1="86.31786" x2="262.46306" y2="216.87821" gradientUnits="userSpaceOnUse" id="color-1"><stop offset="0" stop-color="#37caf1"/><stop offset="1" stop-color="#62e4d0"/></linearGradient><radialGradient cx="239.41015" cy="180.38152" r="43.04066" gradientUnits="userSpaceOnUse" id="color-2"><stop offset="0" stop-color="#d6ffe2"/><stop offset="1" stop-color="#d6ffe2" stop-opacity="0"/></radialGradient></defs><g transform="translate(-209.17964,-141.34703)"><g data-paper-data="{&quot;isPaintingLayer&quot;:true}" fill-rule="nonzero" stroke-linecap="butt" stroke-linejoin="miter" stroke-miterlimit="10" stroke-dasharray="" stroke-dashoffset="0" style="mix-blend-mode: normal"><g><path d="M269.79994,154.04705v51.13337c0,6.45067 -5.24475,11.69779 -11.69999,11.69779h-36.22254c-6.44844,0 -11.69777,-5.24707 -11.69777,-11.69779v-51.1356c0,-6.45067 5.24935,-11.69779 11.69779,-11.69779h36.22256c0.4697,0 0.933,0.0278 1.38833,0.08182c1.00957,0.25768 2.02301,0.51933 3.03156,0.7844c4.26819,1.74695 7.2801,5.94545 7.2801,10.8338z" fill="url(#color-1)" stroke="#70fbf6" stroke-width="2"/><path d="M211.04894,195.95421c0.9224,-5.91525 -4.86764,-46.16025 4.74063,-51.93676c2.07017,-2.13768 9.56616,-1.33957 18.48325,-1.35697c11.25778,-0.02196 24.26032,-0.47655 25.67074,-0.11525c3.89554,2.11855 6.55134,4.82117 9.60208,7.9903c-1.70909,3.50977 -0.27585,6.62602 0.12014,10.3869c0.19816,1.882 -0.95797,4.58217 -0.70576,6.25874c0.53703,3.56977 0.66344,5.90886 0.88655,9.8505c0.257,4.54012 0.26986,22.22166 -0.26558,27.62901c-0.09039,0.91284 -0.82625,4.96483 -0.87446,6.12155c-0.95389,0.97429 -7.6027,4.99505 -15.66257,6.21076c-10.32825,1.55786 -21.70091,-0.09479 -29.83733,-0.36856c-13.24648,-0.44571 -10.83115,-5.59919 -11.72585,-7.46149c-2.89263,-6.02095 -0.77005,-11.03986 -0.43184,-13.20874z" fill="url(#color-2)" stroke="none" stroke-width="0"/></g><text transform="translate(222.40001,207.92461) scale(0.27778,0.27778)" font-size="40" xml:space="preserve" fill="#5eafa3" fill-rule="nonzero" stroke="none" stroke-width="1" stroke-linecap="butt" stroke-linejoin="miter" stroke-miterlimit="10" stroke-dasharray="" stroke-dashoffset="0" font-family="Sans Serif" font-weight="normal" text-anchor="start" style="mix-blend-mode: normal"><tspan x="0" dy="0">汽车卡</tspan></text><g stroke="none" stroke-width="1"><path d="M251.2617,174.48234c3.58153,0 6.77617,1.42806 8.85567,3.65265" fill="#aebcc3"/><path d="M220.06628,177.0995c0,-1.50203 0.91886,-2.71957 2.49484,-2.71957h0.74817c1.38539,-5.37656 6.47463,-9.36488 12.54246,-9.36488c6.07637,0 10.69337,4.2472 13.07726,9.36773l2.44648,0.01138h-0.07112c2.36681,0.00061 4.6835,0.68199 6.67376,1.96287v3.1918c0.01085,0.38429 0.32968,0.68787 0.71403,0.6799h1.62719v0.77376c0,1.51624 -1.28866,2.74517 -2.88172,2.74517h-34.87651c-1.08954,0 -2.034,-0.57748 -2.51476,-1.4309" fill="#e8447a"/><path d="M220.06343,176.77804h0.59455c0.98428,0 1.78081,0.75955 1.78081,1.69831v0.7823c-0.01044,0.46177 -0.20396,0.90048 -0.53796,1.21953c-0.33399,0.31905 -0.78108,0.49231 -1.24285,0.48162h-0.61162" fill="#f5bb1d"/><path d="M228.79963,178.01266c2.49491,0 4.51745,1.92701 4.51745,4.30409c0,2.37708 -2.02254,4.30409 -4.51745,4.30409c-2.49491,0 -4.51744,-1.92701 -4.51744,-4.30409c0,-2.37708 2.02253,-4.30409 4.51744,-4.30409z" fill="#455963"/><path d="M228.79963,180.50465c1.0495,0 1.90029,0.8113 1.90029,1.8121c0,1.0008 -0.85079,1.8121 -1.90029,1.8121c-1.0495,0 -1.90028,-0.81131 -1.90028,-1.8121c0,-1.0008 0.85079,-1.8121 1.90028,-1.8121z" fill="#aebcc3"/><path d="M250.66715,178.01266c2.49335,0 4.5146,1.92701 4.5146,4.30409c0,2.37708 -2.02125,4.30409 -4.5146,4.30409c-2.49335,0 -4.51461,-1.92701 -4.51461,-4.30409c0,-2.37708 2.02126,-4.30409 4.51461,-4.30409z" fill="#455963"/><path d="M250.66999,180.50465c1.0495,0 1.90028,0.8113 1.90028,1.8121c0,1.0008 -0.85079,1.8121 -1.90028,1.8121c-1.0495,0 -1.90029,-0.81131 -1.90029,-1.8121c0,-1.0008 0.85079,-1.8121 1.90029,-1.8121z" fill="#aebcc3"/><path d="M260.31935,178.34834v1.88038h-1.62719c-0.39258,0 -0.71403,-0.30439 -0.71403,-0.6799v-3.1918c0.7836,0.50344 1.50293,1.1005 2.14209,1.77797v0.00853z" fill="#f5bb1d"/><path d="M235.19745,174.37992h-9.62944c1.12652,-4.17892 4.96691,-7.31098 9.62944,-7.59261zM236.9811,166.82145c4.42357,0.4637 7.79743,3.69816 9.62945,7.55847h-9.62945z" fill="#631536"/></g></g></g></svg>