<svg version="1.1" xmlns="http://www.w3.org/2000/svg" xmlns:xlink="http://www.w3.org/1999/xlink" width="61.62034" height="76.53118" viewBox="0,0,61.62034,76.53118"><defs><linearGradient x1="262.46306" y1="86.31786" x2="262.46306" y2="216.87821" gradientUnits="userSpaceOnUse" id="color-1"><stop offset="0" stop-color="#37caf1"/><stop offset="1" stop-color="#62e4d0"/></linearGradient><radialGradient cx="239.41016" cy="180.38152" r="43.04066" gradientUnits="userSpaceOnUse" id="color-2"><stop offset="0" stop-color="#d6ffe2"/><stop offset="1" stop-color="#d6ffe2" stop-opacity="0"/></radialGradient></defs><g transform="translate(-209.17964,-141.34703)"><g data-paper-data="{&quot;isPaintingLayer&quot;:true}" fill-rule="nonzero" stroke-linecap="butt" stroke-linejoin="miter" stroke-miterlimit="10" stroke-dasharray="" stroke-dashoffset="0" style="mix-blend-mode: normal"><g><path d="M269.79994,154.04705v51.13337c0,6.45067 -5.24475,11.69779 -11.69999,11.69779h-36.22254c-6.44844,0 -11.69777,-5.24707 -11.69777,-11.69779v-51.1356c0,-6.45067 5.24935,-11.69779 11.69779,-11.69779h36.22256c0.4697,0 0.933,0.0278 1.38833,0.08182c1.00957,0.25768 2.02301,0.51933 3.03156,0.7844c4.26819,1.74695 7.2801,5.94545 7.2801,10.8338z" fill="url(#color-1)" stroke="#70fbf6" stroke-width="2"/><path d="M211.04895,195.95421c0.9224,-5.91525 -4.86764,-46.16025 4.74063,-51.93676c2.07017,-2.13768 9.56616,-1.33957 18.48325,-1.35697c11.25778,-0.02196 24.26032,-0.47655 25.67074,-0.11525c3.89554,2.11855 6.55134,4.82117 9.60208,7.9903c-1.70909,3.50977 -0.27585,6.62602 0.12014,10.3869c0.19816,1.882 -0.95797,4.58217 -0.70576,6.25874c0.53703,3.56977 0.66344,5.90886 0.88655,9.8505c0.257,4.54012 0.26986,22.22166 -0.26558,27.62901c-0.09039,0.91284 -0.82625,4.96483 -0.87446,6.12155c-0.95389,0.97429 -7.6027,4.99505 -15.66257,6.21076c-10.32825,1.55786 -21.70091,-0.09479 -29.83733,-0.36856c-13.24648,-0.44571 -10.83115,-5.59919 -11.72585,-7.46149c-2.89263,-6.02095 -0.77005,-11.03986 -0.43184,-13.20874z" fill="url(#color-2)" stroke="none" stroke-width="0"/></g><text transform="translate(222.40003,207.92461) scale(0.27778,0.27778)" font-size="40" xml:space="preserve" fill="#5eafa3" fill-rule="nonzero" stroke="none" stroke-width="1" stroke-linecap="butt" stroke-linejoin="miter" stroke-miterlimit="10" stroke-dasharray="" stroke-dashoffset="0" font-family="Sans Serif" font-weight="normal" text-anchor="start" style="mix-blend-mode: normal"><tspan x="0" dy="0">摩托卡</tspan></text><g stroke="none" stroke-width="1"><path d="M243.66896,164.40057l-5.23181,1.91668l-0.54054,-1.47284l5.23181,-1.91667z" fill="#140509"/><path d="M248.71728,163.97162c0,0.30746 -0.24795,0.55789 -0.55293,0.55789h-3.05478c-0.30714,-0.00136 -0.55541,-0.25074 -0.55541,-0.55789v-2.59607c0,-0.30498 0.25043,-0.5579 0.55541,-0.5579h3.05478c0.30498,0 0.55293,0.25292 0.55293,0.5579z" fill="#e1b030"/><path d="M247.23949,163.97162c0,0.30715 -0.24827,0.55652 -0.55542,0.55789h-3.05478c-0.14774,0 -0.28939,-0.05885 -0.39362,-0.16355c-0.10423,-0.1047 -0.16246,-0.2466 -0.1618,-0.39434v-2.59607c0,-0.30498 0.24796,-0.5579 0.55542,-0.5579h3.05478c0.30498,0 0.55542,0.25292 0.55542,0.5579z" fill="#2b9eb1"/><path d="M236.81059,172.73675c0,0.30746 -0.24795,0.56037 -0.55045,0.56037h-11.32401c-0.1473,-0.00131 -0.28806,-0.06109 -0.39129,-0.16618c-0.10323,-0.10509 -0.16048,-0.24689 -0.15916,-0.39419v-1.939c0,-0.30746 0.24547,-0.5579 0.55045,-0.5579h11.32401c0.3025,0 0.55045,0.25044 0.55045,0.5579z" fill="#33464d"/><path d="M229.10173,183.1235l-1.21992,-0.80832l4.22016,-6.37239l1.21993,0.80832z" fill="#4f6974"/><path d="M254.91859,175.81881c-0.59757,-0.13637 -1.21497,-0.21076 -1.86213,-0.21076c-4.36149,0 -7.90722,3.35728 -8.02871,7.54272c-1.22736,0.38929 -7.16089,0.30746 -9.86605,0.25291c-0.46615,-3.0647 -2.67046,-5.53927 -5.53183,-6.30048c-1.15298,-0.90999 -2.65557,-1.24224 -4.68878,-0.24547c0,0 -1.44805,-2.61094 0.00992,-2.98287l10.95704,-0.2306c0,0 -1.95635,4.16809 0.63972,5.55663c0,0 2.99279,0.30994 4.79541,0.04215c1.80509,-0.27027 2.41258,-0.33474 3.63003,-2.33572c0.86535,-1.42325 1.00916,-3.61268 1.00916,-3.61268c0,0 -1.21497,-7.751 -1.49019,-9.04284h2.74236c0,0 5.8269,7.19559 7.68406,11.567z" fill="#2b9eb1"/><path d="M247.74779,177.27429l1.22241,-0.8108l4.22263,6.36247l-1.2224,0.81329z" fill="#4f6974"/><path d="M236.01714,183.63924h-1.52243c0,-3.53333 -2.56384,-6.40711 -5.7178,-6.40711c-1.44805,0 -2.82915,0.60748 -3.88542,1.70839l-1.10091,-1.05132c1.29252,-1.3801 3.09553,-2.16818 4.98633,-2.1795c3.99204,0 7.24023,3.55812 7.24023,7.92953z" fill="#278592"/><path d="M252.64734,188.29332c-2.70658,-0.0041 -4.8993,-2.19793 -4.90203,-4.90451c0,-2.70021 2.19934,-4.89955 4.90203,-4.89955c2.70269,0 4.89955,2.19934 4.89955,4.89955c-0.00137,2.70619 -2.19337,4.90041 -4.89955,4.90451zM252.64734,180.32163c-1.69532,0 -3.06966,1.37433 -3.06966,3.06966c0,1.69532 1.37433,3.06965 3.06966,3.06965c1.69532,0 3.06966,-1.37433 3.06966,-3.06965c0,-1.69532 -1.37434,-3.06966 -3.06966,-3.06966z" fill="#425760"/><path d="M252.70685,183.44584M252.70685,181.73744c0.94352,0 1.7084,0.76487 1.7084,1.70839c0,0.94352 -0.76488,1.7084 -1.7084,1.7084c-0.94352,0 -1.70839,-0.76488 -1.70839,-1.7084c0,-0.94352 0.76487,-1.70839 1.70839,-1.70839z" fill="#607385"/><path d="M228.59343,188.55119c-2.83658,0 -5.14006,-2.30596 -5.14006,-5.14006c0,-2.8341 2.30596,-5.14254 5.14006,-5.14254c2.8341,0 5.14006,2.30844 5.14006,5.14254c0,2.8341 -2.30845,5.14006 -5.14006,5.14006zM228.59343,180.09599c-1.82742,0 -3.31761,1.48772 -3.31761,3.31513c0.00546,1.82919 1.48841,3.30993 3.31761,3.31265c1.82494,0 3.31265,-1.48771 3.31265,-3.31265c0,-1.82742 -1.48771,-3.31513 -3.31265,-3.31513z" fill="#425760"/><path d="M228.36779,183.44584M228.36779,181.73744c0.94352,0 1.70839,0.76487 1.70839,1.70839c0,0.94352 -0.76487,1.7084 -1.70839,1.7084c-0.94352,0 -1.70839,-0.76488 -1.70839,-1.7084c0,-0.94352 0.76487,-1.70839 1.70839,-1.70839z" fill="#607385"/><path d="M254.91363,175.82128c-0.94154,-0.21972 -1.91479,-0.26925 -2.87377,-0.14629v-5.1847c1.16042,1.9142 2.24893,3.84574 2.87377,5.33098z" fill="#e1b030"/><path d="M246.28735,183.16813h-1.51995c0,-4.4334 3.49614,-8.04607 7.8006,-8.04607c1.99354,0 3.89286,0.77858 5.34587,2.19439l-1.06372,1.09099c-1.14246,-1.12512 -2.68116,-1.75646 -4.28463,-1.75799c-3.46142,0 -6.27817,2.92089 -6.27817,6.51868z" fill="#278592"/></g></g></g></svg>