<svg version="1.1" xmlns="http://www.w3.org/2000/svg" xmlns:xlink="http://www.w3.org/1999/xlink" width="67.84351" height="64.88524" viewBox="0,0,67.84351,64.88524"><defs><linearGradient x1="239.51523" y1="151.5365" x2="239.51523" y2="202.5365" gradientUnits="userSpaceOnUse" id="color-1"><stop offset="0" stop-color="#f3dd6f" stop-opacity="0"/><stop offset="1" stop-color="#f3dd6f"/></linearGradient></defs><g transform="translate(-206.07825,-148.16573)"><g data-paper-data="{&quot;isPaintingLayer&quot;:true}" fill-rule="nonzero" stroke-linejoin="miter" stroke-miterlimit="10" stroke-dasharray="" stroke-dashoffset="0" style="mix-blend-mode: normal"><path d="M219.6819,202.5365c-9.50406,-12.21951 0,-51 0,-51h39.66667c0,0 12.21951,35.2892 0,51c-12.21951,15.7108 -30.1626,12.21951 -39.66667,0z" fill="url(#color-1)" stroke="none" stroke-width="0" stroke-linecap="butt"/><path d="M250.30661,151.53472c0,0.89414 -4.75879,1.61898 -10.62906,1.61898c-5.87027,0 -10.62906,-0.72484 -10.62906,-1.61898c0,-0.89414 4.75879,-1.61899 10.62906,-1.61899c5.87027,0 10.62906,0.72485 10.62906,1.61899z" fill="none" stroke="#ffda1f" stroke-width="3.5" stroke-linecap="butt"/><g data-paper-data="{&quot;index&quot;:null}" stroke="#723700" stroke-width="1"><g fill="#f0f0f0" stroke-linecap="round"><path d="M268.54741,163.96153c0.54442,-2.09664 0.94114,-5.49587 0.94114,-5.49587c0,0 1.3495,4.81771 1.52375,6.65555c0.17424,1.83784 0.29189,2.62758 -0.26297,4.58496c-0.55486,1.95738 -1.02066,3.17909 -2.14968,4.95126c-1.12903,1.77217 -1.4907,2.0069 -3.59271,3.87573c-2.102,1.86883 -4.08432,2.90933 -5.36309,3.71947c-1.27877,0.81014 -2.30783,0.98434 -3.86901,2.12936c-1.56118,1.14502 -2.90915,2.58156 -3.67491,3.42862c-0.76576,0.84706 -1.65819,2.47062 -1.65819,2.47062c0,0 -0.36041,-0.25128 0.22408,-2.1681c0.5845,-1.91682 1.34785,-3.65731 1.88227,-4.73956c0.53442,-1.08226 0.60887,-1.20801 1.703,-2.52105c1.09413,-1.31304 1.19431,-1.62331 3.00268,-3.12609c1.80836,-1.50278 3.51299,-2.23863 4.88495,-3.42862c1.37197,-1.19 2.35956,-2.08024 3.22972,-3.26901c0.87016,-1.18877 1.43817,-2.17473 2.06746,-3.48405c0.6293,-1.30931 0.56709,-1.48657 1.11151,-3.58321z"/><path d="M270.47998,172.57247c0.86934,-1.52902 1.89779,-4.11055 1.89779,-4.11055c0,0 0.04136,4.06224 -0.20989,5.54002c-0.25125,1.47778 -0.32567,2.12182 -1.17381,3.53945c-0.84815,1.41762 -1.4712,2.27723 -2.73045,3.42847c-1.25925,1.15124 -1.59236,1.25895 -3.63489,2.28064c-2.04253,1.02168 -3.8164,1.41915 -4.99003,1.78448c-1.17363,0.36533 -2.01725,0.28474 -3.48297,0.85304c-1.46573,0.5683 -2.8258,1.41017 -3.60499,1.91271c-0.77919,0.50254 -1.82156,1.5872 -1.82156,1.5872c0,0 -0.22956,-0.27308 0.63326,-1.65266c0.86282,-1.37957 1.82867,-2.58314 2.47609,-3.31892c0.64743,-0.73578 0.73235,-0.81867 1.86734,-1.61727c1.13499,-0.7986 1.27901,-1.02075 3.01406,-1.81739c1.73505,-0.79664 3.22688,-1.01385 4.55374,-1.65734c1.32686,-0.6435 2.2891,-1.13309 3.22225,-1.88153c0.93315,-0.74844 1.58659,-1.40163 2.35633,-2.29542c0.76974,-0.89379 0.75837,-1.0459 1.62772,-2.57492z"/><path d="M270.37442,179.85657c1.04892,-1.1035 2.45076,-3.05812 2.45076,-3.05812c0,0 -0.81153,3.42151 -1.33047,4.61072c-0.51894,1.18921 -0.71565,1.7148 -1.72355,2.72913c-1.0079,1.01433 -1.71044,1.60672 -3.00823,2.31159c-1.29779,0.70487 -1.60009,0.72598 -3.52897,1.15883c-1.92888,0.43285 -3.502,0.39722 -4.56413,0.45967c-1.06213,0.06243 -1.7541,-0.18102 -3.10393,-0.00892c-1.34983,0.1721 -2.66788,0.59606 -3.4272,0.85595c-0.75932,0.25988 -1.86104,0.954 -1.86104,0.954c0,0 -0.13598,-0.27725 0.87633,-1.25655c1.0123,-0.9793 2.07449,-1.78925 2.77171,-2.27255c0.69723,-0.48329 0.78583,-0.53524 1.90576,-0.96973c1.11993,-0.43449 1.28722,-0.59113 2.91088,-0.89897c1.62366,-0.30784 2.92228,-0.17954 4.17109,-0.44375c1.24882,-0.26422 2.15924,-0.47508 3.09915,-0.90948c0.93991,-0.4344 1.62498,-0.84704 2.45786,-1.4376c0.83289,-0.59055 0.85504,-0.72073 1.90395,-1.82423z"/><path d="M269.60114,185.66393c1.12397,-0.72551 2.72535,-2.10489 2.72535,-2.10489c0,0 -1.40055,2.7542 -2.08965,3.6625c-0.68909,0.9083 -0.96576,1.31649 -2.03626,1.97432c-1.0705,0.65784 -1.79298,1.01848 -3.04706,1.3521c-1.25409,0.33362 -1.51662,0.28913 -3.25341,0.25994c-1.73679,-0.02919 -3.07289,-0.3849 -3.99288,-0.55121c-0.91998,-0.16631 -1.46061,-0.51731 -2.64896,-0.64945c-1.18835,-0.13214 -2.40165,-0.04262 -3.10386,0.02232c-0.70221,0.06493 -1.78663,0.42991 -1.78663,0.42991c0,0 -0.0588,-0.26489 1.00823,-0.89191c1.06703,-0.62702 2.14162,-1.09908 2.837,-1.36765c0.69538,-0.26857 0.78178,-0.29461 1.82807,-0.4341c1.04628,-0.13949 1.22154,-0.23865 2.67182,-0.16581c1.45029,0.07283 2.53279,0.45093 3.65393,0.48352c1.12114,0.03259 1.94224,0.04076 2.83477,-0.13586c0.89253,-0.17663 1.56291,-0.38737 2.39632,-0.71949c0.83342,-0.33212 0.87924,-0.43871 2.00322,-1.16422z"/><path d="M266.17967,191.07632c1.02015,-0.30644 2.55005,-1.00749 2.55005,-1.00749c0,0 -1.68026,1.79706 -2.40818,2.33947c-0.72791,0.54241 -1.02979,0.79346 -1.99407,1.05996c-0.96429,0.26649 -1.59665,0.38262 -2.62968,0.36053c-1.03303,-0.0221 -1.224,-0.11417 -2.54604,-0.52051c-1.32204,-0.40634 -2.2654,-0.97383 -2.93232,-1.30445c-0.66694,-0.33062 -1.00285,-0.71864 -1.88262,-1.08246c-0.87977,-0.36382 -1.82763,-0.5636 -2.37912,-0.6692c-0.55149,-0.10559 -1.46166,-0.06618 -1.46166,-0.06618c0,0 0.01359,-0.21563 0.96841,-0.45932c0.95481,-0.24369 1.88116,-0.36719 2.47244,-0.41887c0.59128,-0.05168 0.66313,-0.05248 1.49428,0.07215c0.83115,0.12464 0.98713,0.08752 2.08037,0.4639c1.09323,0.37637 1.83765,0.90492 2.68802,1.17774c0.85038,0.27282 1.47663,0.46061 2.19839,0.52284c0.72175,0.06223 1.28114,0.04924 1.99205,-0.02052c0.71092,-0.06977 0.76954,-0.14116 1.78969,-0.4476z"/></g><path d="M250.87209,191.30069c-1.05438,0 -1.90913,-0.85474 -1.90913,-1.90913c0,-1.05438 0.85475,-1.90913 1.90913,-1.90913c1.05438,0 1.90914,0.85475 1.90914,1.90913c0,1.05438 -0.85475,1.90913 -1.90914,1.90913z" fill="#ffda1f" stroke-linecap="butt"/></g><g stroke="#723700" stroke-width="1"><g fill="#f0f0f0" stroke-linecap="round"><path d="M212.56409,166.94199c0.6293,1.30931 1.19731,2.29527 2.06746,3.48404c0.87016,1.18877 1.85776,2.07902 3.22972,3.26901c1.37196,1.19 3.07658,1.92585 4.88495,3.42862c1.80837,1.50278 1.90854,1.81306 3.00268,3.12609c1.09413,1.31304 1.16858,1.43879 1.703,2.52105c0.53442,1.08226 1.29778,2.82273 1.88227,4.73955c0.5845,1.91682 0.22408,2.1681 0.22408,2.1681c0,0 -0.89243,-1.62356 -1.6582,-2.47062c-0.76576,-0.84706 -2.11373,-2.2836 -3.67491,-3.42862c-1.56118,-1.14502 -2.59023,-1.31921 -3.86901,-2.12935c-1.27877,-0.81014 -3.2611,-1.85063 -5.3631,-3.71947c-2.102,-1.86883 -2.46367,-2.10357 -3.5927,-3.87573c-1.12903,-1.77217 -1.59483,-2.99388 -2.14969,-4.95126c-0.55486,-1.95738 -0.43722,-2.74712 -0.26297,-4.58496c0.17425,-1.83784 1.52375,-6.65556 1.52375,-6.65556c0,0 0.39672,3.39923 0.94113,5.49588c0.54442,2.09664 0.48221,2.27391 1.11151,3.58322z"/><path d="M211.14774,174.54463c0.76974,0.89379 1.42318,1.54698 2.35634,2.29541c0.93315,0.74844 1.89538,1.23803 3.22224,1.88153c1.32686,0.6435 2.8187,0.86071 4.55375,1.65735c1.73505,0.79664 1.87908,1.01879 3.01406,1.81739c1.13499,0.7986 1.21991,0.88148 1.86734,1.61727c0.64742,0.73578 1.61328,1.93935 2.4761,3.31892c0.86282,1.37957 0.63326,1.65266 0.63326,1.65266c0,0 -1.04237,-1.08465 -1.82156,-1.5872c-0.77919,-0.50254 -2.13926,-1.34442 -3.60499,-1.91271c-1.46573,-0.5683 -2.30935,-0.48771 -3.48297,-0.85304c-1.17362,-0.36533 -2.9475,-0.76279 -4.99004,-1.78448c-2.04253,-1.02169 -2.37564,-1.1294 -3.63489,-2.28064c-1.25925,-1.15124 -1.88231,-2.01084 -2.73045,-3.42846c-0.84814,-1.41763 -0.92257,-2.06167 -1.17382,-3.53945c-0.25125,-1.47778 -0.20989,-5.54002 -0.20989,-5.54002c0,0 1.02845,2.58152 1.8978,4.11054c0.86935,1.52902 0.85798,1.68114 1.62772,2.57493z"/><path d="M211.52955,181.07802c0.8329,0.59056 1.51796,1.0032 2.45787,1.4376c0.93991,0.4344 1.85032,0.64527 3.09914,0.90949c1.24882,0.26422 2.54744,0.13591 4.17109,0.44375c1.62366,0.30784 1.79094,0.46446 2.91088,0.89896c1.11993,0.43449 1.20854,0.48644 1.90576,0.96973c0.69723,0.48329 1.7594,1.29325 2.77171,2.27255c1.0123,0.9793 0.87633,1.25655 0.87633,1.25655c0,0 -1.10171,-0.69412 -1.86103,-0.954c-0.75932,-0.25988 -2.07737,-0.68385 -3.4272,-0.85595c-1.34983,-0.1721 -2.0418,0.07135 -3.10393,0.00892c-1.06213,-0.06243 -2.63526,-0.0268 -4.56413,-0.45967c-1.92888,-0.43285 -2.23118,-0.45396 -3.52896,-1.15883c-1.29779,-0.70487 -2.00033,-1.29726 -3.00823,-2.31159c-1.00789,-1.01433 -1.2046,-1.53992 -1.72355,-2.72913c-0.51895,-1.18921 -1.33047,-4.61071 -1.33047,-4.61071c0,0 1.40184,1.95461 2.45076,3.05811c1.04892,1.1035 1.07106,1.23366 1.90396,1.82422z"/><path d="M212.40209,186.22537c0.83342,0.33212 1.5038,0.54287 2.39632,0.71949c0.89252,0.17663 1.71363,0.16846 2.83477,0.13587c1.12115,-0.03259 2.20365,-0.4107 3.65393,-0.48353c1.45029,-0.07284 1.62553,0.02633 2.67182,0.16582c1.04628,0.13949 1.1327,0.16553 1.82807,0.43409c0.69538,0.26857 1.76997,0.74064 2.837,1.36766c1.06702,0.62702 1.00823,0.8919 1.00823,0.8919c0,0 -1.08441,-0.36497 -1.78662,-0.4299c-0.70221,-0.06493 -1.91551,-0.15446 -3.10387,-0.02232c-1.18836,0.13214 -1.72897,0.48314 -2.64896,0.64944c-0.91998,0.1663 -2.25609,0.52202 -3.99288,0.55121c-1.7368,0.02919 -1.99932,0.07368 -3.25341,-0.25994c-1.25409,-0.33362 -1.97656,-0.69425 -3.04706,-1.35209c-1.0705,-0.65784 -1.34717,-1.06602 -2.03626,-1.97432c-0.68909,-0.9083 -2.08965,-3.66251 -2.08965,-3.66251c0,0 1.60138,1.37938 2.72535,2.10489c1.12397,0.72551 1.1698,0.8321 2.00322,1.16422z"/><path d="M215.61002,190.92115c0.71093,0.06977 1.2703,0.08275 1.99205,0.02052c0.72176,-0.06223 1.34802,-0.25003 2.19839,-0.52284c0.85037,-0.27282 1.59479,-0.80137 2.68803,-1.17774c1.09323,-0.37637 1.24921,-0.33927 2.08037,-0.46391c0.83115,-0.12464 0.903,-0.12383 1.49428,-0.07214c0.59128,0.05168 1.51763,0.17518 2.47245,0.41887c0.95481,0.24369 0.9684,0.45931 0.9684,0.45931c0,0 -0.91017,-0.03941 -1.46166,0.06618c-0.55149,0.10559 -1.49935,0.30537 -2.37912,0.6692c-0.87977,0.36382 -1.21569,0.75183 -1.88262,1.08245c-0.66693,0.33062 -1.61029,0.89812 -2.93232,1.30446c-1.32204,0.40634 -1.51302,0.4984 -2.54604,0.52049c-1.03303,0.02209 -1.66539,-0.09402 -2.62967,-0.36052c-0.96428,-0.2665 -1.26616,-0.51755 -1.99408,-1.05996c-0.72791,-0.54241 -2.40817,-2.33946 -2.40817,-2.33946c0,0 1.5299,0.70104 2.55005,1.00748c1.02015,0.30644 1.07877,0.37784 1.78969,0.44761z"/></g><path d="M227.21878,188.78879c0,-1.05438 0.85475,-1.90913 1.90913,-1.90913c1.05438,0 1.90914,0.85475 1.90914,1.90913c0,1.05438 -0.85475,1.90914 -1.90914,1.90914c-1.05438,0 -1.90913,-0.85475 -1.90913,-1.90914z" fill="#ffda1f" stroke-linecap="butt"/></g><path d="M244.15689,209.79412c0,0.60437 -0.63333,1.09431 -1.41459,1.09431c-0.78125,0 -2.53558,-0.11628 -2.53558,-0.72065c0,-0.60437 1.75433,-1.46796 2.53558,-1.46796c0.78125,0 1.41459,0.48994 1.41459,1.0943z" fill="#727272" stroke="#723700" stroke-width="1" stroke-linecap="butt"/><path d="M238.44517,209.79412c0,0.60437 -0.63333,1.09431 -1.41459,1.09431c-0.78125,0 -2.53558,-0.11628 -2.53558,-0.72065c0,-0.60437 1.75433,-1.46796 2.53558,-1.46796c0.78125,0 1.41459,0.48994 1.41459,1.0943z" fill="#727272" stroke="#723700" stroke-width="1" stroke-linecap="butt"/><path d="M234.5513,185.74218l2.43607,1.64934l-3.09566,9.32917c0,0 -1.19179,-0.46356 -1.42924,-0.80618c-0.3382,-0.488 -0.90685,-0.90599 -0.90685,-0.90599z" fill="#ffffff" stroke="#723700" stroke-width="1" stroke-linecap="butt"/><path d="M232.74338,207.17259l4.28711,-19.96771h7.0216l3.63131,20.3459c0,0 -0.60549,1.10199 -3.24111,1.4312c-1.47027,0.18365 -4.15417,0.27524 -5.96931,0.2178c-1.83827,-0.05818 -3.02143,-0.00759 -3.72414,-0.18725c-1.91625,-0.48993 -2.00546,-1.83993 -2.00546,-1.83993z" fill="#ffffff" stroke="#723700" stroke-width="1" stroke-linecap="butt"/><path d="M240.51151,185.2645h-2.40213" fill="none" stroke="#723700" stroke-width="1" stroke-linecap="round"/><path d="M251.35637,151.56071c0,1.35261 -5.16928,2.44913 -11.5459,2.44913c-6.37662,0 -11.5459,-1.09652 -11.5459,-2.44913c0,-1.35261 5.16927,-2.44913 11.5459,-2.44913c6.37662,0 11.5459,1.09652 11.5459,2.44913z" fill="none" stroke="#723700" stroke-width="1" stroke-linecap="butt"/><path d="M248.35665,151.74936c0,0.63709 -3.90333,1.15355 -8.71833,1.15355c-4.815,0 -8.71833,-0.51646 -8.71833,-1.15355c0,-0.63709 3.90333,-1.15355 8.71833,-1.15355c4.815,0 8.71833,0.51646 8.71833,1.15355z" fill="none" stroke="#723700" stroke-width="1" stroke-linecap="butt"/><g><path d="M251.81612,177.42c0,3.23508 -1.59001,5.79646 -4.02885,7.35376c-2.11603,1.35118 -5.00488,3.05091 -7.91477,3.05091c-2.18057,0 -5.2312,-1.26072 -6.88611,-2.02523c-3.09882,-1.43156 -3.85311,-4.44084 -3.85311,-8.37944c0,-6.04197 5.07772,-10.93995 11.34141,-10.93995c6.2637,0 11.34142,4.89798 11.34142,10.93995z" fill="#ffce91" stroke="#723700" stroke-width="1" stroke-linecap="butt"/><path d="M228.02955,181.94721c-0.56234,-1.0192 -0.32313,-2.22895 0.53429,-2.70203c0.85743,-0.47308 1.36148,0.34535 1.92383,1.36455c0.56235,1.0192 0.97003,2.18779 0.11261,2.66087c-0.85743,0.47308 -2.00838,-0.30419 -2.57073,-1.32339z" fill="#ffce91" stroke="#723700" stroke-width="1" stroke-linecap="butt"/><path d="M250.01061,179.94473c0.31923,-1.11942 1.34146,-1.80917 2.28319,-1.5406c0.94173,0.26856 1.44636,1.39375 1.12713,2.51317c-0.31923,1.11942 -1.34146,1.80917 -2.28319,1.5406c-0.94173,-0.26856 -1.44636,-1.39375 -1.12713,-2.51317z" fill="#ffce91" stroke="#723700" stroke-width="1" stroke-linecap="butt"/><path d="M230.10764,181.1879c0,0 -1.28533,-1.63568 -1.49553,-2.29394c-0.21352,-0.66866 -0.11034,-2.69093 -0.11034,-2.69093" fill="none" stroke="#723700" stroke-width="1" stroke-linecap="round"/><path d="M254.26141,178.60073c-0.26296,0.31917 -2.11371,-0.37156 -2.91039,-1.29376c-1.40541,-1.62683 -2.06497,-4.61998 -3.051,-4.33179c-0.706,0.20634 -5.61456,-2.06504 -5.61456,-2.06504c0,0 -1.42226,3.40247 -2.63022,3.63833c-1.36149,0.26584 -4.47656,-4.18345 -4.47656,-4.18345c0,0 -0.52466,2.27865 -1.88429,3.53877c-0.94789,0.87852 -2.51265,0.64625 -3.27345,0.96287c-0.30869,0.12847 -0.2188,1.58792 0.18747,3.376c0.13898,0.6117 -1.34376,3.15695 -3.14105,2.2676c-1.79729,-0.88934 -1.89097,-3.77648 -1.76071,-4.69312c0.48855,-3.43792 1.01105,-6.95053 1.01105,-6.95053c0,0 1.88793,-4.77072 4.53276,-6.58862c0.78923,-0.54247 1.53235,-1.24292 2.6975,-1.72489c2.73948,-1.13321 6.30264,-1.81338 7.44255,-1.81338c4.18357,0 9.0016,2.31993 11.26899,5.92646c2.0762,3.30243 2.29685,7.84271 2.62688,9.34586c0,0 -0.29812,3.70649 -1.02497,4.5887z" fill="#f3dd6f" stroke="#723700" stroke-width="1" stroke-linecap="butt"/><path d="M229.58164,169.45773c-0.07641,0.49495 -0.42896,0.86614 -0.78744,0.82909c-0.35848,-0.03705 -0.58714,-0.46831 -0.51073,-0.96326c0.07641,-0.49495 0.42896,-0.86614 0.78744,-0.82909c0.35848,0.03705 0.58714,0.46831 0.51073,0.96326z" fill="#f3e9b7" stroke="none" stroke-width="0" stroke-linecap="butt"/><path d="M230.67224,168.25316c0,0.27715 -0.13481,0.50183 -0.3011,0.50183c-0.16629,0 -0.3011,-0.22468 -0.3011,-0.50183c0,-0.27715 0.13481,-0.50183 0.3011,-0.50183c0.16629,0 0.3011,0.22468 0.3011,0.50183z" fill="#f3e9b7" stroke="none" stroke-width="0" stroke-linecap="butt"/><path d="M248.80513,166.01164c0,0.29563 -0.19473,0.53529 -0.43492,0.53529c-0.2402,0 -0.43492,-0.23965 -0.43492,-0.53529c0,-0.29563 0.19472,-0.53529 0.43492,-0.53529c0.2402,0 0.43492,0.23965 0.43492,0.53529z" fill="#f3e9b7" stroke="#825738" stroke-width="0" stroke-linecap="butt"/><path d="M233.84729,176.31802c0,0 0.77646,-0.6052 1.25613,-0.69879c0.42913,-0.08373 1.48722,0.1635 1.48722,0.1635" fill="none" stroke="#723700" stroke-width="1" stroke-linecap="round"/><path d="M243.15183,175.76633c0,0 0.92722,-0.46826 1.41824,-0.44862c0.43928,0.01757 1.38994,0.56092 1.38994,0.56092" fill="none" stroke="#723700" stroke-width="1" stroke-linecap="round"/><path d="M235.64332,178.6018v1.90697" fill="none" stroke="#723700" stroke-width="1" stroke-linecap="round"/><path d="M244.38314,178.28837v1.73969" fill="none" stroke="#723700" stroke-width="1" stroke-linecap="round"/><path d="M238.90348,183.9629h2.50916" fill="none" stroke="#723700" stroke-width="1" stroke-linecap="round"/></g><path d="M234.26902,196.8149l-0.6144,1.57386l0.39098,0.45904l-0.44684,0.85251c0,0 -0.78476,0.37151 -1.28467,0.26231c-0.49992,-0.1092 -0.78479,-0.36986 -1.11711,-0.78693c-0.33232,-0.41707 -0.47721,-0.72225 -0.5027,-1.24597c-0.02549,-0.52372 0.39098,-1.04924 0.39098,-1.04924l0.37097,-1.63638z" data-paper-data="{&quot;index&quot;:null}" fill="#fed497" stroke="#723700" stroke-width="1" stroke-linecap="round"/><path d="M249.12492,194.90852c0,0 -0.56865,0.41799 -0.90685,0.90599c-0.23745,0.34262 -1.42924,0.80618 -1.42924,0.80618l-3.09566,-9.32917l2.43607,-1.64934z" data-paper-data="{&quot;index&quot;:null}" fill="#ffffff" stroke="#723700" stroke-width="1" stroke-linecap="butt"/><path d="M249.2243,195.14411l0.37097,1.63638c0,0 0.41647,0.52552 0.39099,1.04924c-0.02549,0.52372 -0.17038,0.8289 -0.5027,1.24597c-0.33231,0.41707 -0.61719,0.67773 -1.11711,0.78693c-0.49991,0.1092 -1.28467,-0.26232 -1.28467,-0.26232l-0.44684,-0.8525l0.39099,-0.45905l-0.6144,-1.57386z" data-paper-data="{&quot;index&quot;:null}" fill="#fed497" stroke="#723700" stroke-width="1" stroke-linecap="round"/></g></g></svg>