<svg version="1.1" xmlns="http://www.w3.org/2000/svg" xmlns:xlink="http://www.w3.org/1999/xlink" width="394.26239" height="214.05058" viewBox="0,0,394.26239,214.05058"><g transform="translate(-37.33983,-78.24693)"><g data-paper-data="{&quot;isPaintingLayer&quot;:true}" fill-rule="nonzero" stroke-linecap="butt" stroke-linejoin="miter" stroke-miterlimit="10" stroke-dasharray="" stroke-dashoffset="0" style="mix-blend-mode: normal"><path d="M415.50241,291.54751h-362.06571c-8.46296,0 -15.34686,-6.8809 -15.34686,-15.3498v-181.85392c0,-8.45995 6.88386,-15.34686 15.34686,-15.34686h362.06867c8.46296,0 15.34686,6.88691 15.34686,15.34686v181.85392c0,8.4689 -6.88691,15.3498 -15.3498,15.3498z" fill="#fcdab3" stroke="#cdac86" stroke-width="1.5"/><text transform="translate(213.26414,111.59222) scale(0.45874,0.45874)" font-size="40" xml:space="preserve" fill="#b58453" fill-rule="nonzero" stroke="none" stroke-width="1" stroke-linecap="butt" stroke-linejoin="miter" stroke-miterlimit="10" stroke-dasharray="" stroke-dashoffset="0" font-family="Sans Serif" font-weight="normal" text-anchor="start" style="mix-blend-mode: normal"><tspan x="0" dy="0">商店</tspan></text><text transform="translate(121.51413,130.17116) scale(0.27585,0.27585)" font-size="40" xml:space="preserve" fill="#b58453" fill-rule="nonzero" stroke="none" stroke-width="1" stroke-linecap="butt" stroke-linejoin="miter" stroke-miterlimit="10" stroke-dasharray="" stroke-dashoffset="0" font-family="Sans Serif" font-weight="normal" text-anchor="start" style="mix-blend-mode: normal"><tspan x="0" dy="0">欢迎来到大富翁商店，你可购买至多三张卡片</tspan></text><path d="M111.71567,233.43934h-41.30986c-1.21634,0 -2.20573,-0.98895 -2.20573,-2.20614v-11.90755c0,-1.2159 0.98938,-2.20573 2.20573,-2.20573h41.31029c1.21634,0 2.20572,0.98982 2.20572,2.20573v11.90755c0,1.21719 -0.98982,2.20614 -2.20614,2.20614z" fill="#eacca8" stroke="none" stroke-width="0"/><path d="M167.82679,233.16156h-41.30986c-1.21634,0 -2.20573,-0.98895 -2.20573,-2.20614v-11.90755c0,-1.2159 0.98938,-2.20573 2.20573,-2.20573h41.31029c1.21634,0 2.20572,0.98982 2.20572,2.20573v11.90755c0,1.21719 -0.98982,2.20614 -2.20614,2.20614z" fill="#eacca8" stroke="none" stroke-width="0"/><path d="M223.38234,233.06898h-41.30986c-1.21634,0 -2.20573,-0.98895 -2.20573,-2.20614v-11.90755c0,-1.2159 0.98938,-2.20573 2.20573,-2.20573h41.31029c1.21634,0 2.20572,0.98982 2.20572,2.20573v11.90755c0,1.21719 -0.98982,2.20614 -2.20614,2.20614z" fill="#eacca8" stroke="none" stroke-width="0"/><path d="M279.49345,232.7912h-41.30986c-1.21634,0 -2.20573,-0.98895 -2.20573,-2.20614v-11.90755c0,-1.2159 0.98938,-2.20573 2.20573,-2.20573h41.31029c1.21634,0 2.20572,0.98982 2.20572,2.20573v11.90755c0,1.21719 -0.98982,2.20614 -2.20614,2.20614z" fill="#eacca8" stroke="none" stroke-width="0"/><path d="M335.65196,232.56729h-41.30986c-1.21634,0 -2.20573,-0.98895 -2.20573,-2.20614v-11.90755c0,-1.2159 0.98938,-2.20573 2.20573,-2.20573h41.31029c1.21634,0 2.20572,0.98982 2.20572,2.20573v11.90755c0,1.21719 -0.98982,2.20614 -2.20614,2.20614z" fill="#eacca8" stroke="none" stroke-width="0"/><path d="M391.76308,232.28951h-41.30986c-1.21634,0 -2.20573,-0.98895 -2.20573,-2.20614v-11.90755c0,-1.2159 0.98938,-2.20573 2.20573,-2.20573h41.31029c1.21634,0 2.20572,0.98982 2.20572,2.20573v11.90755c0,1.21719 -0.98982,2.20614 -2.20614,2.20614z" fill="#eacca8" stroke="none" stroke-width="0"/></g></g></svg>