<svg version="1.1" xmlns="http://www.w3.org/2000/svg" xmlns:xlink="http://www.w3.org/1999/xlink" width="107.51652" height="165.90388" viewBox="0,0,107.51652,165.90388"><g transform="translate(-185.96251,-55.98065)"><g data-paper-data="{&quot;isPaintingLayer&quot;:true}" fill-rule="nonzero" stroke-linecap="butt" stroke-linejoin="miter" stroke-miterlimit="10" stroke-dasharray="" stroke-dashoffset="0" style="mix-blend-mode: normal"><text transform="translate(198.98613,120.4658) scale(0.40369,0.40369)" font-size="40" xml:space="preserve" fill-opacity="0.79216" fill="#f5f5f5" fill-rule="nonzero" stroke="none" stroke-width="1" stroke-linecap="butt" stroke-linejoin="miter" stroke-miterlimit="10" stroke-dasharray="" stroke-dashoffset="0" font-family="Sans Serif" font-weight="normal" text-anchor="start" style="mix-blend-mode: normal"><tspan x="0" dy="0">恭喜中奖者</tspan></text><text transform="translate(186.22864,79.13396) scale(0.53226,0.53226)" font-size="40" xml:space="preserve" fill="#ffffff" fill-rule="nonzero" stroke="none" stroke-width="1" stroke-linecap="butt" stroke-linejoin="miter" stroke-miterlimit="10" stroke-dasharray="" stroke-dashoffset="0" font-family="Sans Serif" font-weight="normal" text-anchor="start" style="mix-blend-mode: normal"><tspan x="0" dy="0">大富翁彩票</tspan></text><path d="M271.29345,180.55931c0,19.8101 -14.10205,35.86937 -31.49779,35.86937c-17.39574,0 -31.49779,-16.05927 -31.49779,-35.86937c0,-10.11669 1.43592,-19.25515 7.35196,-25.77612c5.66853,-6.24815 15.63379,-10.09326 24.14582,-10.09326c6.26249,0 17.03015,3.65057 21.93463,7.2389c8.71903,6.37922 9.56316,15.95204 9.56316,28.6305z" fill="#ffce91" stroke="#723700" stroke-width="1.5"/><path d="M224.5937,161.48142c-1.22032,2.91187 -3.27413,4.82625 -4.58732,4.27591c-1.3132,-0.55035 -1.38848,-3.35702 -0.16817,-6.26887c1.22033,-2.91186 3.27415,-4.82625 4.58735,-4.27591c1.31318,0.55035 1.38846,3.35703 0.16815,6.26889z" fill="#ffdaad" stroke="none" stroke-width="0"/><path d="M203.04242,186.5262l3.91814,-4.89209l-7.77573,-1.13891l10.3776,-3.32942l-8.11043,-2.73573c0,0 12.23902,-3.45805 22.5533,-2.99537c1.66891,0.07486 3.86368,2.73988 4.07953,4.27067c0.22097,1.56714 -1.45419,5.11291 -3.40074,5.76408c-1.23629,0.41357 -16.00864,2.58805 -16.00864,2.58805z" fill="#dfdfdf" stroke="#723700" stroke-width="1.5"/><path d="M235.30227,181.81837c-1.94654,-0.65118 -3.62171,-4.19695 -3.40074,-5.76408c0.21585,-1.53079 2.4106,-4.1958 4.07953,-4.27067c10.31427,-0.46268 22.55329,2.99537 22.55329,2.99537l-8.2486,0.38659l10.51576,5.67855l-7.77573,1.13891l4.60906,4.89208l-5.5798,-2.59496c0,0 -15.1718,-1.93293 -16.75277,-2.4618z" data-paper-data="{&quot;index&quot;:null}" fill="#dfdfdf" stroke="#723700" stroke-width="1.5"/><path d="M274.64993,188.55073c-1.27656,3.15968 -4.35185,4.89674 -6.86889,3.87984c-0.77284,-0.31224 -1.40318,-0.84779 -1.86873,-1.53155l0.20612,-0.11667c1.86746,-1.9988 2.37721,-4.73165 0.96264,-7.11679c0,0 -0.2253,-0.373 -0.62308,-0.45812c1.51963,-2.06679 3.91454,-3.03974 5.94583,-2.21908c2.51704,1.0169 3.52266,4.4027 2.24611,7.56239z" fill="#ffce91" stroke="#723700" stroke-width="1.5"/><path d="M264.77456,171.77778l-1.5062,-9.30528c0,0 4.00312,-0.9236 5.25218,-1.21178c0.69267,-0.15981 1.55083,-0.69445 1.55083,-0.69445l1.63494,10.14195c0,0 -0.96325,-0.30748 -1.64425,-0.15036c-1.24584,0.28744 -5.28751,1.21993 -5.28751,1.21993z" fill="#dfdfdf" stroke="#723700" stroke-width="1.5"/><path d="M208.52501,185.86129l5.94347,4.49461l9.49994,-5.2432l9.82821,4.25352l8.28732,-3.38872l7.05774,2.64681c0,0 10.49293,-3.99478 10.73269,-3.43464c0.0573,0.13387 7.47318,-2.40067 8.44393,-0.66861c2.16725,3.86686 -1.12185,13.72098 -1.12185,13.72098l-7.08844,-1.34362c0,0 6.70909,11.70546 6.48859,11.72767c-1.42853,0.14396 -8.42662,-0.27963 -8.42662,-0.27963l-7.4006,8.15676l-7.99329,-3.4967l-11.94767,7.93204l-10.83969,-9.72888l-10.15633,4.77234l2.11816,-12.06294l-11.82727,4.84139l9.4495,-13.11571l-9.20352,0.49552z" data-paper-data="{&quot;index&quot;:null}" fill="#dfdfdf" stroke="#723700" stroke-width="1.5"/></g></g></svg>