<svg version="1.1" xmlns="http://www.w3.org/2000/svg" xmlns:xlink="http://www.w3.org/1999/xlink" width="54.23683" height="62.38556" viewBox="0,0,54.23683,62.38556"><g transform="translate(-211.78477,-149.83887)"><g data-paper-data="{&quot;isPaintingLayer&quot;:true}" fill-rule="nonzero" stroke-linecap="butt" stroke-linejoin="miter" stroke-miterlimit="10" stroke-dasharray="" stroke-dashoffset="0" style="mix-blend-mode: normal"><path d="M213.35697,207.36343v-52.60679c0,-1.85305 1.50664,-3.36035 3.36099,-3.36035h44.34274c1.85239,0 3.36035,1.50729 3.36035,3.36035v52.60744c0,1.85305 -1.50796,3.36035 -3.36035,3.36035h-44.34274c-1.85435,0 -3.36099,-1.50796 -3.36099,-3.36099z" fill="none" stroke="#ffffff" stroke-width="3"/><path d="M222.40724,152.80943l-3.02284,-2.92018h7.55712l3.02284,2.92018z" fill="#39d45c" stroke="none" stroke-width="0"/><path d="M237.21487,152.75905l-3.02284,-2.92018h7.55712l3.02284,2.92018z" fill="#39d45c" stroke="none" stroke-width="0"/><path d="M265.83875,165.42403l-2.92018,-3.02285v-7.55711l2.92018,3.02285z" data-paper-data="{&quot;index&quot;:null}" fill="#39d45c" stroke="none" stroke-width="0"/><path d="M266.0216,178.86399l-2.92018,-3.02284v-7.55712l2.92018,3.02284z" data-paper-data="{&quot;index&quot;:null}" fill="#39d45c" stroke="none" stroke-width="0"/><path d="M265.88913,193.07357l-2.92018,-3.02285v-7.55711l2.92018,3.02284z" data-paper-data="{&quot;index&quot;:null}" fill="#39d45c" stroke="none" stroke-width="0"/><path d="M251.45904,153.00006l-3.02284,-2.92018h7.55712l3.02284,2.92018z" fill="#39d45c" stroke="none" stroke-width="0"/><path d="M265.95228,206.4845l-2.92018,-3.02285v-7.55711l2.92018,3.02284z" data-paper-data="{&quot;index&quot;:null}" fill="#39d45c" stroke="none" stroke-width="0"/><path d="M214.70495,166.03572l-2.92018,-3.02285v-7.55711l2.92018,3.02285z" data-paper-data="{&quot;index&quot;:null}" fill="#39d45c" stroke="none" stroke-width="0"/><path d="M214.88779,179.47568l-2.92018,-3.02284v-7.55712l2.92018,3.02284z" data-paper-data="{&quot;index&quot;:null}" fill="#39d45c" stroke="none" stroke-width="0"/><path d="M214.75533,193.68526l-2.92018,-3.02285v-7.55711l2.92018,3.02284z" data-paper-data="{&quot;index&quot;:null}" fill="#39d45c" stroke="none" stroke-width="0"/><path d="M214.81848,207.09619l-2.92018,-3.02285v-7.55711l2.92018,3.02284z" data-paper-data="{&quot;index&quot;:null}" fill="#39d45c" stroke="none" stroke-width="0"/><path d="M222.47039,211.93192l-3.02284,-2.92018h7.55712l3.02284,2.92018z" fill="#39d45c" stroke="none" stroke-width="0"/><path d="M237.27802,211.88154l-3.02284,-2.92018h7.55712l3.02284,2.92018z" fill="#39d45c" stroke="none" stroke-width="0"/><path d="M251.52219,212.12255l-3.02284,-2.92018h7.55712l3.02284,2.92018z" fill="#39d45c" stroke="none" stroke-width="0"/></g></g></svg>