<svg version="1.1" xmlns="http://www.w3.org/2000/svg" xmlns:xlink="http://www.w3.org/1999/xlink" width="13.86775" height="13.85928" viewBox="0,0,13.86775,13.85928"><g transform="translate(-233.06614,-173.07035)"><g data-paper-data="{&quot;isPaintingLayer&quot;:true}" fill="#fff53e" fill-rule="nonzero" stroke="none" stroke-linecap="butt" stroke-linejoin="miter" stroke-miterlimit="10" stroke-dasharray="" stroke-dashoffset="0" style="mix-blend-mode: normal"><path d="M240.00329,186.92785c-1.51906,0.02975 -3.02242,-0.31178 -4.37953,-0.99495c-0.14105,-0.07119 -0.23593,-0.20954 -0.25153,-0.36677c-0.0156,-0.15723 0.05023,-0.31152 0.17455,-0.40905c1.94547,-1.53682 1.61382,-5.03393 3.49414,-5.89266c-0.70682,-0.43124 -1.04047,-1.28005 -0.8165,-2.07717c0.22397,-0.79712 0.95087,-1.34793 1.77886,-1.34793c0.82799,0 1.5549,0.55081 1.77887,1.34793c0.22397,0.79712 -0.10968,1.64593 -0.8165,2.07717c1.88032,0.85576 1.54867,4.35584 3.49414,5.89266c0.1243,0.09752 0.19015,0.25182 0.17454,0.40905c-0.0156,0.15723 -0.11049,0.29558 -0.25153,0.36677c-1.3571,0.68317 -2.86047,1.0247 -4.37953,0.99495z" stroke-width="1"/><path d="M238.24437,179.23778c-0.06445,-0.08743 -0.13574,-0.16961 -0.2132,-0.24577c-0.30179,-0.29822 -0.67813,-0.50991 -1.0897,-0.61296c-0.43068,-0.11231 -0.88427,-0.10102 -1.30882,0.03258c-0.6219,0.21387 -1.14079,0.6535 -1.45392,1.23183c-0.4264,0.72252 -0.42344,1.44503 -0.42049,2.16755c0.00296,0.72252 0,1.35917 -0.46193,1.92474c-0.04441,0.05034 -0.09771,0.09772 -0.13621,0.15102c-0.10867,0.14713 -0.12028,0.34454 -0.02961,0.50339c0.14435,0.18523 0.35848,0.30302 0.59222,0.32573c0.59313,0.09341 1.19952,0.05601 1.77668,-0.10956c0.5104,-0.56385 0.89052,-1.2331 1.11338,-1.96028c0.39975,-1.10154 0.74621,-2.59691 1.65528,-3.40235zM240.00329,173.99361c-0.21302,-0.00109 -0.42583,0.01375 -0.63664,0.04441c-0.1736,0.02535 -0.34422,0.068 -0.50932,0.12733c-0.04641,0.01734 -0.09187,0.03711 -0.13621,0.05922l0.13621,0.05922c0.16511,0.05931 0.33573,0.10197 0.50932,0.12733c0.4222,0.06144 0.85108,0.06144 1.27328,0c0.17391,-0.02819 0.34455,-0.07382 0.50931,-0.13621c0.04641,-0.01735 0.09188,-0.03712 0.13622,-0.05922c-0.04433,-0.02212 -0.0898,-0.0419 -0.13622,-0.05922c-0.16508,-0.05938 -0.33571,-0.10204 -0.50931,-0.12733c-0.2108,-0.03069 -0.42362,-0.04553 -0.63665,-0.04441zM239.22747,173.12895c0.51525,-0.07812 1.03934,-0.07812 1.5546,0c0.23521,0.03518 0.46635,0.0937 0.68995,0.17471c0.20057,0.06956 0.38637,0.17601 0.54781,0.31388c0.18486,0.1466 0.29263,0.36962 0.29263,0.60555c0,0.23594 -0.10778,0.45895 -0.29263,0.60555c-0.16123,0.13815 -0.34708,0.24464 -0.54781,0.31388c-0.22356,0.08118 -0.45471,0.1397 -0.68995,0.1747c-0.5152,0.07886 -1.0394,0.07886 -1.5546,0c-0.23524,-0.035 -0.46639,-0.09352 -0.68994,-0.1747c-0.20165,-0.06916 -0.3885,-0.17564 -0.55077,-0.31388c-0.18486,-0.1466 -0.29263,-0.36961 -0.29263,-0.60555c0,-0.23594 0.10778,-0.45896 0.29263,-0.60555c0.16249,-0.13796 0.34927,-0.24439 0.55077,-0.31388c0.22356,-0.08118 0.45469,-0.13971 0.68994,-0.17471zM241.75925,179.23778c0.06452,-0.08739 0.13581,-0.16956 0.2132,-0.24577c0.30231,-0.29814 0.67835,-0.51068 1.0897,-0.61592c0.43068,-0.11231 0.88427,-0.10102 1.30883,0.03258c0.62161,0.21438 1.14034,0.65388 1.45392,1.23183c0.42344,0.72252 0.42049,1.44504 0.42049,2.16756c0,0.72252 0,1.35916 0.4649,1.92474c0.04146,0.05034 0.09475,0.09772 0.13325,0.15102c0.10867,0.14713 0.12027,0.34454 0.0296,0.50339c-0.14435,0.18523 -0.35848,0.30302 -0.59222,0.32573c-0.59312,0.09351 -1.19953,0.05612 -1.77668,-0.10956c-0.50986,-0.56425 -0.88989,-1.23337 -1.11338,-1.96028c-0.37903,-1.1045 -0.72548,-2.59988 -1.63455,-3.4053z" stroke-width="1"/><path d="M238.27199,179.24025c-0.90907,0.80543 -1.25606,2.30825 -1.65582,3.4098c-0.22287,0.72717 -0.60665,1.39765 -1.11705,1.96151c-0.57716,0.16558 -1.186,0.20221 -1.77912,0.1088c-0.23374,-0.02272 -0.44862,-0.14105 -0.59297,-0.32628c-0.09066,-0.15886 -0.0794,-0.35658 0.02927,-0.50373c0.0385,-0.05329 0.09178,-0.10071 0.1362,-0.15105c0.46194,-0.56557 0.46356,-1.20503 0.46059,-1.92754c-0.00296,-0.72252 -0.00398,-1.44989 0.42242,-2.17242c0.31312,-0.57833 0.8352,-1.01909 1.4571,-1.23296c0.42455,-0.1336 0.88017,-0.14451 1.31083,-0.0322c0.41156,0.10305 0.78951,0.31576 1.09131,0.61398c0.07746,0.07615 0.1491,0.15869 0.21354,0.24612z" data-paper-data="{&quot;noHover&quot;:false,&quot;origItem&quot;:[&quot;Path&quot;,{&quot;applyMatrix&quot;:true,&quot;segments&quot;:[[[433.21806,304.60334],[0,0],[-1.23195,-1.67136]],[[429.14278,299.90545],[1.48063,1.45563],[-5.76858,-5.70027]],[[408.31357,288.18902],[7.867,1.96974],[-8.23213,-2.14677]],[[383.29588,288.81163],[8.11516,-2.5536],[-11.88743,4.08807]],[[355.50474,312.35769],[5.98515,-11.05448],[-8.15056,13.81067]],[[347.46738,353.7897],[-0.0566,-13.81067],[0.0566,13.81067]],[[338.63761,390.58042],[8.82977,-10.81081],[-0.84902,0.96222]],[[336.03396,393.46707],[0.73581,-1.01882],[-2.07707,2.81246]],[[335.46795,403.08926],[-1.73301,-3.03658],[2.75928,3.54071]],[[346.78817,409.31538],[-4.46785,-0.43421],[11.33755,1.7856]],[[380.74883,407.22114],[-11.03226,3.16507],[9.7563,-10.77792]],[[402.03085,369.75121],[-4.25998,13.8997],[7.64115,-21.05561]],[[433.67086,304.71654],[-17.37654,15.3955],[0,0]]],&quot;closed&quot;:true,&quot;fillColor&quot;:[0,0,0,1]}]}" stroke-width="0.5"/></g></g></svg>