<svg version="1.1" xmlns="http://www.w3.org/2000/svg" xmlns:xlink="http://www.w3.org/1999/xlink" width="16.15797" height="13.00381" viewBox="0,0,16.15797,13.00381"><g transform="translate(-231.92102,-173.4981)"><g data-paper-data="{&quot;isPaintingLayer&quot;:true}" fill-rule="nonzero" stroke="none" stroke-width="1" stroke-linecap="butt" stroke-linejoin="miter" stroke-miterlimit="10" stroke-dasharray="" stroke-dashoffset="0" style="mix-blend-mode: normal"><g><path d="M241.39978,175.17807l-2.45311,0.8987l-0.25345,-0.69059l2.45311,-0.8987z" fill="#140509"/><path d="M243.76686,174.97694c0,0.14416 -0.11626,0.26159 -0.25926,0.26159h-1.43234c-0.14402,-0.00064 -0.26043,-0.11757 -0.26042,-0.26159v-1.21726c0,-0.143 0.11742,-0.26159 0.26042,-0.26159h1.43234c0.143,0 0.25926,0.11859 0.25926,0.26159z" fill="#e1b030"/><path d="M243.07394,174.97694c0,0.14402 -0.11641,0.26095 -0.26043,0.26159h-1.43234c-0.06927,0 -0.13569,-0.02759 -0.18456,-0.07669c-0.04887,-0.04909 -0.07617,-0.11563 -0.07586,-0.1849v-1.21726c0,-0.143 0.11626,-0.26159 0.26043,-0.26159h1.43234c0.143,0 0.26043,0.11859 0.26043,0.26159z" fill="#2b9eb1"/><path d="M238.184,179.08677c0,0.14416 -0.11626,0.26275 -0.2581,0.26275h-5.30964c-0.06907,-0.00061 -0.13507,-0.02864 -0.18347,-0.07792c-0.0484,-0.04927 -0.07525,-0.11576 -0.07463,-0.18483v-0.90916c0,-0.14416 0.1151,-0.26159 0.2581,-0.26159h5.30964c0.14184,0 0.2581,0.11742 0.2581,0.26159z" fill="#33464d"/><path d="M234.56944,183.95695l-0.572,-0.37901l1.97876,-2.98791l0.572,0.37901z" fill="#4f6974"/><path d="M246.67455,180.5319c-0.28019,-0.06394 -0.56968,-0.09882 -0.87312,-0.09882c-2.04503,0 -3.70757,1.57417 -3.76453,3.53666c-0.57549,0.18253 -3.35762,0.14416 -4.62603,0.11859c-0.21857,-1.43699 -1.25213,-2.59727 -2.59379,-2.95419c-0.54061,-0.42668 -1.24515,-0.58247 -2.1985,-0.1151c0,0 -0.67897,-1.22423 0.00465,-1.39862l5.13758,-0.10812c0,0 -0.9173,1.95435 0.29995,2.60541c0,0 1.40327,0.14533 2.24849,0.01977c0.84638,-0.12673 1.13122,-0.15695 1.70206,-1.09518c0.40575,-0.66734 0.47318,-1.69392 0.47318,-1.69392c0,0 -0.56968,-3.63432 -0.69873,-4.24004h1.28585c0,0 2.73214,3.3739 3.60293,5.42358z" fill="#2b9eb1"/><path d="M243.31228,181.21435l0.57317,-0.38017l1.97993,2.98326l-0.57317,0.38134z" fill="#4f6974"/><path d="M237.81197,184.19877h-0.71384c0,-1.65672 -1.20214,-3.00419 -2.68098,-3.00419c-0.67896,0 -1.32654,0.28484 -1.82181,0.80104l-0.5162,-0.49295c0.60604,-0.64711 1.45144,-1.01663 2.33801,-1.02193c1.8718,0 3.39482,1.66835 3.39482,3.71803z" fill="#278592"/><path d="M245.6096,186.38099c-1.26907,-0.00192 -2.2972,-1.03057 -2.29848,-2.29965c0,-1.26608 1.03124,-2.29732 2.29848,-2.29732c1.26725,0 2.29732,1.03124 2.29732,2.29732c-0.00064,1.26889 -1.02844,2.29772 -2.29732,2.29965zM245.6096,182.6432c-0.79491,0 -1.43931,0.6444 -1.43931,1.43931c0,0.79491 0.6444,1.43931 1.43931,1.43931c0.79491,0 1.43931,-0.6444 1.43931,-1.43931c0,-0.79491 -0.6444,-1.43931 -1.43931,-1.43931z" fill="#425760"/><path d="M245.6375,184.10809M245.6375,183.30705c0.4424,0 0.80104,0.35864 0.80104,0.80104c0,0.4424 -0.35864,0.80104 -0.80104,0.80104c-0.4424,0 -0.80104,-0.35864 -0.80104,-0.80104c0,-0.4424 0.35864,-0.80104 0.80104,-0.80104z" fill="#607385"/><path d="M234.33111,186.5019c-1.33003,0 -2.41009,-1.08123 -2.41009,-2.41009c0,-1.32886 1.08123,-2.41125 2.41009,-2.41125c1.32886,0 2.41009,1.08239 2.41009,2.41125c0,1.32886 -1.08239,2.41009 -2.41009,2.41009zM234.33111,182.5374c-0.85685,0 -1.55557,0.69757 -1.55557,1.55441c0.00256,0.85768 0.69789,1.55197 1.55557,1.55325c0.85568,0 1.55325,-0.69757 1.55325,-1.55325c0,-0.85685 -0.69757,-1.55441 -1.55325,-1.55441z" fill="#425760"/><path d="M234.22531,184.10809M234.22531,183.30705c0.4424,0 0.80104,0.35864 0.80104,0.80104c0,0.4424 -0.35864,0.80104 -0.80104,0.80104c-0.4424,0 -0.80104,-0.35864 -0.80104,-0.80104c0,-0.4424 0.35864,-0.80104 0.80104,-0.80104z" fill="#607385"/><path d="M246.67222,180.53306c-0.44147,-0.10302 -0.89781,-0.12625 -1.34747,-0.06859v-2.43102c0.5441,0.89754 1.05449,1.80321 1.34747,2.49961z" fill="#e1b030"/><path d="M242.6275,183.97787h-0.71268c0,-2.07875 1.63928,-3.77267 3.65757,-3.77267c0.93474,0 1.8253,0.36506 2.50659,1.02891l-0.49876,0.51155c-0.53568,-0.52755 -1.25715,-0.82357 -2.00899,-0.82429c-1.62301,0 -2.94373,1.36956 -2.94373,3.0565z" fill="#278592"/></g></g></g></svg>