<svg version="1.1" xmlns="http://www.w3.org/2000/svg" xmlns:xlink="http://www.w3.org/1999/xlink" width="57.24662" height="64.46642" viewBox="0,0,57.24662,64.46642"><g transform="translate(-84.81484,-254.12812)"><g data-paper-data="{&quot;isPaintingLayer&quot;:true}" fill-rule="nonzero" stroke-linejoin="miter" stroke-miterlimit="10" stroke-dasharray="" stroke-dashoffset="0" style="mix-blend-mode: normal"><path d="M141.81146,256.76967v59.18378c0,1.31855 -1.07207,2.39109 -2.39155,2.39109h-51.96398c-1.31809,0 -2.39109,-1.07253 -2.39109,-2.39109v-59.18424c0,-1.31855 1.073,-2.39109 2.39109,-2.39109h51.96398c1.31948,0 2.39155,1.073 2.39155,2.39155z" fill="#feffde" stroke="#442903" stroke-width="0.5" stroke-linecap="butt"/><g><path d="M100.43692,309.12986c0,0 -0.89735,-10.93741 -1.12202,-15.0071c-0.0916,-1.65924 -0.37857,-3.98802 -0.01162,-5.60398c0.24687,-1.08714 1.05508,-1.69244 1.41842,-2.15388c0.81808,-1.03896 4.24834,-1.47998 4.84799,-0.90494c0.61754,0.5922 2.27509,3.36977 2.42076,4.47893c0.12823,0.97638 -2.38416,0.42947 -2.38416,0.42947c0,0 -1.40511,-2.42251 -1.42542,-2.43503c-1.10961,-0.68421 -2.62102,1.05502 -2.62102,1.22305c0,3.76871 1.60609,19.925 1.60609,19.925z" fill="#825738" stroke="#723700" stroke-width="0.5" stroke-linecap="butt"/><path d="M108.24698,286.51631c0.19969,0.94297 -0.40286,1.86927 -1.34583,2.06896c-0.94297,0.19969 -1.86927,-0.40286 -2.06896,-1.34583c-0.19969,-0.94297 0.40286,-1.86927 1.34583,-2.06896c0.94297,-0.19969 1.86927,0.40286 2.06896,1.34583z" fill="#ffce91" stroke="#723700" stroke-width="0.5" stroke-linecap="butt"/><path d="M106.2972,295.26476l2.76333,-10.47153l10.76242,0.09695l2.42397,10.42306z" fill="#c78556" stroke="#723700" stroke-width="0.5" stroke-linecap="butt"/><path d="M124.90291,275.08768c0,6.88723 -4.90275,12.47044 -10.9506,12.47044c-6.04785,0 -10.9506,-5.58321 -10.9506,-12.47044c0,-3.51719 0.49922,-6.6943 2.556,-8.96139c1.97073,-2.17225 5.43528,-3.50905 8.3946,-3.50905c2.17723,0 5.92075,1.26917 7.62585,2.51669c3.03128,2.21782 3.32475,5.54593 3.32475,9.95375z" fill="#ffce91" stroke="#723700" stroke-width="0.5" stroke-linecap="butt"/><path d="M108.66715,268.45502c-0.42426,1.01235 -1.13829,1.67791 -1.59484,1.48657c-0.45655,-0.19134 -0.48272,-1.16711 -0.05847,-2.17945c0.42426,-1.01234 1.1383,-1.67791 1.59485,-1.48657c0.45655,0.19134 0.48272,1.16711 0.05846,2.17946z" fill="#ffdaad" stroke="none" stroke-width="0" stroke-linecap="butt"/><path d="M101.17457,277.16214l1.36219,-1.7008l-2.70333,-0.39596l3.6079,-1.15752l-2.81969,-0.95111c0,0 4.25505,-1.20224 7.84094,-1.04138c0.58022,0.02603 1.34326,0.95255 1.4183,1.48475c0.07682,0.54483 -0.50557,1.77757 -1.18231,2.00396c-0.42981,0.14378 -5.5656,0.89977 -5.5656,0.89977z" fill="#dfdfdf" stroke="#723700" stroke-width="0.5" stroke-linecap="butt"/><path d="M112.39011,275.52544c-0.67674,-0.22639 -1.25913,-1.45912 -1.18231,-2.00396c0.07504,-0.5322 0.83808,-1.45872 1.4183,-1.48475c3.58589,-0.16086 7.84093,1.04138 7.84093,1.04138l-2.86773,0.1344l3.65594,1.97422l-2.70333,0.39596l1.6024,1.70079l-1.93989,-0.90217c0,0 -5.27467,-0.67201 -5.82431,-0.85587z" data-paper-data="{&quot;index&quot;:null}" fill="#dfdfdf" stroke="#723700" stroke-width="0.5" stroke-linecap="butt"/><path d="M108.72117,295.31323l2.03613,-8.82324" fill="none" stroke="#723700" stroke-width="0.5" stroke-linecap="round"/><path d="M126.06982,277.866c-0.44381,1.0985 -1.51298,1.70241 -2.38806,1.34887c-0.26869,-0.10855 -0.48783,-0.29474 -0.64969,-0.53246l0.07166,-0.04056c0.64924,-0.69491 0.82647,-1.64502 0.33467,-2.47424c0,0 -0.07833,-0.12968 -0.21662,-0.15927c0.52832,-0.71855 1.36094,-1.05681 2.06714,-0.77149c0.87508,0.35354 1.2247,1.53066 0.78089,2.62916z" fill="#ffce91" stroke="#723700" stroke-width="0.5" stroke-linecap="butt"/><path d="M122.63653,272.03467l-0.52365,-3.2351c0,0 1.39173,-0.3211 1.82599,-0.42129c0.24081,-0.05556 0.53917,-0.24143 0.53917,-0.24143l0.56841,3.52598c0,0 -0.33488,-0.1069 -0.57164,-0.05227c-0.43313,0.09993 -1.83827,0.42412 -1.83827,0.42412z" fill="#dfdfdf" stroke="#723700" stroke-width="0.5" stroke-linecap="butt"/><path d="M121.27731,293.15593c0,-1.19146 0.96587,-2.15732 2.15733,-2.15732c1.19146,0 2.15733,0.96587 2.15733,2.15732c0,1.19146 -0.96587,2.15733 -2.15733,2.15733c-1.19146,0 -2.15733,-0.96587 -2.15733,-2.15733z" fill="#ffce91" stroke="#723700" stroke-width="0.5" stroke-linecap="butt"/><path d="M121.42276,291.67732l-1.59982,-6.64167l2.95725,-0.14544l1.98765,6.30231z" fill="#c78556" stroke="#723700" stroke-width="0.5" stroke-linecap="butt"/><path d="M103.08067,276.93101l2.06632,1.56261l3.30278,-1.82286l3.4169,1.47879l2.88119,-1.17813l2.45371,0.9202c0,0 3.648,-1.38884 3.73135,-1.1941c0.01992,0.04654 2.59815,-0.83462 2.93564,-0.23245c0.75347,1.34436 -0.39003,4.77027 -0.39003,4.77027l-2.46438,-0.46713c0,0 2.3325,4.06955 2.25584,4.07727c-0.49665,0.05005 -2.92962,-0.09722 -2.92962,-0.09722l-2.57291,2.8358l-2.77897,-1.21567l-4.15376,2.75768l-3.76855,-3.38237l-3.53098,1.65916l0.73641,-4.19383l-4.1119,1.68317l3.28524,-4.55984l-3.19972,0.17227z" data-paper-data="{&quot;index&quot;:null}" fill="#dfdfdf" stroke="#723700" stroke-width="0.5" stroke-linecap="butt"/><path d="M109.25444,302.10036l-0.29088,-6.44775l9.69587,-0.09696c0,0 -3.91723,2.66718 -3.66245,3.46595c0.4263,1.33653 -1.08853,3.03028 -1.08853,3.03028z" fill="#825738" stroke="#723700" stroke-width="0.5" stroke-linecap="butt"/><path d="M114.82956,298.51291l-1.64829,-1.69677" fill="none" stroke="#723700" stroke-width="0.5" stroke-linecap="round"/><path d="M115.65371,298.46442l2.37549,-2.8118l4.7025,0.04848l-0.43631,6.05991l-4.62935,0.10549z" fill="#825738" stroke="#723700" stroke-width="0.5" stroke-linecap="butt"/><path d="M109.10899,309.08141c0,0 0.5409,-0.70997 0.54767,-1.21112c0.01621,-1.1999 -0.45072,-5.96382 -0.45072,-5.96382l4.79945,-0.14544l0.14544,6.78711z" fill="#727272" stroke="#723700" stroke-width="0.5" stroke-linecap="butt"/><path d="M117.73832,308.88751c0,0 0.41871,-0.67782 0.40372,-1.21378c-0.03335,-1.19232 -0.59764,-5.71877 -0.59764,-5.71877l4.79945,-0.14544l0.14544,6.78711z" fill="#727272" stroke="#723700" stroke-width="0.5" stroke-linecap="butt"/><path d="M109.64225,304.4274l4.07227,-0.24239" fill="none" stroke="#723700" stroke-width="0.5" stroke-linecap="round"/><path d="M117.68984,303.94261l4.36314,-0.09696" fill="none" stroke="#723700" stroke-width="0.5" stroke-linecap="round"/></g></g></g></svg>