<svg version="1.1" xmlns="http://www.w3.org/2000/svg" xmlns:xlink="http://www.w3.org/1999/xlink" width="15.08394" height="8.09229" viewBox="0,0,15.08394,8.09229"><g transform="translate(-232.45803,-175.95386)"><g data-paper-data="{&quot;isPaintingLayer&quot;:true}" fill-rule="nonzero" stroke="none" stroke-width="1" stroke-linecap="butt" stroke-linejoin="miter" stroke-miterlimit="10" stroke-dasharray="" stroke-dashoffset="0" style="mix-blend-mode: normal"><g><path d="M244.14949,179.49976c1.34143,0 2.53796,0.53487 3.31683,1.36807" fill="#aebcc3"/><path d="M232.46549,180.47999c0,-0.56257 0.34415,-1.01859 0.93442,-1.01859h0.28022c0.51889,-2.01375 2.42502,-3.50754 4.69768,-3.50754c2.27585,0 4.00512,1.59076 4.89799,3.50861l0.91631,0.00426h-0.02664c0.88647,0.00023 1.75417,0.25543 2.49961,0.73518v1.19546c0.00407,0.14393 0.12348,0.25763 0.26743,0.25465h0.60945v0.28981c0,0.5679 -0.48266,1.02818 -1.07933,1.02818h-13.06273c-0.40808,0 -0.76182,-0.21629 -0.94188,-0.53593" fill="#e8447a"/><path d="M232.46442,180.3596h0.22268c0.36865,0 0.66699,0.28448 0.66699,0.63609v0.293c-0.00391,0.17296 -0.07639,0.33727 -0.20149,0.45677c-0.12509,0.1195 -0.29255,0.18439 -0.4655,0.18039h-0.22908" fill="#f5bb1d"/><path d="M235.7365,180.82202c0.93445,0 1.69198,0.72175 1.69198,1.61206c0,0.89032 -0.75752,1.61206 -1.69198,1.61206c-0.93445,0 -1.69198,-0.72175 -1.69198,-1.61206c0,-0.89032 0.75752,-1.61206 1.69198,-1.61206z" fill="#455963"/><path d="M235.7365,181.75537c0.39308,0 0.71174,0.30387 0.71174,0.67871c0,0.37484 -0.31866,0.67871 -0.71174,0.67871c-0.39308,0 -0.71174,-0.30387 -0.71174,-0.67871c0,-0.37484 0.31866,-0.67871 0.71174,-0.67871z" fill="#aebcc3"/><path d="M243.9268,180.82202c0.93387,0 1.69091,0.72175 1.69091,1.61206c0,0.89032 -0.75705,1.61206 -1.69091,1.61206c-0.93387,0 -1.69091,-0.72175 -1.69091,-1.61206c0,-0.89032 0.75705,-1.61206 1.69091,-1.61206z" fill="#455963"/><path d="M243.92787,181.75537c0.39308,0 0.71174,0.30387 0.71174,0.67871c0,0.37484 -0.31866,0.67871 -0.71174,0.67871c-0.39308,0 -0.71174,-0.30387 -0.71174,-0.67871c0,-0.37484 0.31866,-0.67871 0.71174,-0.67871z" fill="#aebcc3"/><path d="M247.54197,180.94774v0.70428h-0.60945c-0.14703,0 -0.26743,-0.11401 -0.26743,-0.25465v-1.19546c0.29349,0.18856 0.56291,0.41218 0.8023,0.66592v0.00319z" fill="#f5bb1d"/><path d="M238.13275,179.4614h-3.60663c0.42193,-1.56518 1.86032,-2.73827 3.60663,-2.84375zM238.8008,176.63043c1.65681,0.17367 2.92047,1.38512 3.60663,2.83097h-3.60663z" fill="#631536"/></g></g></g></svg>