<svg version="1.1" xmlns="http://www.w3.org/2000/svg" xmlns:xlink="http://www.w3.org/1999/xlink" width="61.62034" height="76.53118" viewBox="0,0,61.62034,76.53118"><defs><linearGradient x1="262.46306" y1="86.31786" x2="262.46306" y2="216.87821" gradientUnits="userSpaceOnUse" id="color-1"><stop offset="0" stop-color="#37caf1"/><stop offset="1" stop-color="#62e4d0"/></linearGradient><radialGradient cx="239.41013" cy="180.38152" r="43.04066" gradientUnits="userSpaceOnUse" id="color-2"><stop offset="0" stop-color="#d6ffe2"/><stop offset="1" stop-color="#d6ffe2" stop-opacity="0"/></radialGradient></defs><g transform="translate(-209.17964,-141.34703)"><g data-paper-data="{&quot;isPaintingLayer&quot;:true}" fill-rule="nonzero" stroke-linecap="butt" stroke-linejoin="miter" stroke-miterlimit="10" stroke-dasharray="" stroke-dashoffset="0" style="mix-blend-mode: normal"><g><path d="M269.79994,154.04705v51.13337c0,6.45067 -5.24475,11.69779 -11.69999,11.69779h-36.22254c-6.44844,0 -11.69777,-5.24707 -11.69777,-11.69779v-51.1356c0,-6.45067 5.24935,-11.69779 11.69779,-11.69779h36.22256c0.4697,0 0.933,0.0278 1.38833,0.08182c1.00957,0.25768 2.02301,0.51933 3.03156,0.7844c4.26819,1.74695 7.2801,5.94545 7.2801,10.8338z" fill="url(#color-1)" stroke="#70fbf6" stroke-width="2"/><path d="M211.04891,195.95421c0.9224,-5.91525 -4.86764,-46.16025 4.74063,-51.93676c2.07017,-2.13768 9.56616,-1.33957 18.48325,-1.35697c11.25778,-0.02196 24.26032,-0.47655 25.67074,-0.11525c3.89554,2.11855 6.55134,4.82117 9.60208,7.9903c-1.70909,3.50977 -0.27585,6.62602 0.12014,10.3869c0.19816,1.882 -0.95797,4.58217 -0.70576,6.25874c0.53703,3.56977 0.66344,5.90886 0.88655,9.8505c0.257,4.54012 0.26986,22.22166 -0.26558,27.62901c-0.09039,0.91284 -0.82625,4.96483 -0.87446,6.12155c-0.95389,0.97429 -7.6027,4.99505 -15.66257,6.21076c-10.32825,1.55786 -21.70091,-0.09479 -29.83733,-0.36856c-13.24648,-0.44571 -10.83115,-5.59919 -11.72585,-7.46149c-2.89263,-6.02095 -0.77005,-11.03986 -0.43184,-13.20874z" fill="url(#color-2)" stroke="none" stroke-width="0"/></g><text transform="translate(223.66392,207.61701) scale(0.27778,0.27778)" font-size="40" xml:space="preserve" fill="#5eafa3" fill-rule="nonzero" stroke="none" stroke-width="1" stroke-linecap="butt" stroke-linejoin="miter" stroke-miterlimit="10" stroke-dasharray="" stroke-dashoffset="0" font-family="Sans Serif" font-weight="normal" text-anchor="start" style="mix-blend-mode: normal"><tspan x="0" dy="0">冬眠卡</tspan></text><g fill="#5ae3cf" stroke="#669bff" stroke-width="0"><path d="M233.32927,180.23631c-0.11296,-0.1279 -0.24019,-0.29464 -0.34825,-0.4934c-0.25582,-0.47055 -0.53329,-1.15066 -0.63718,-1.55182c-0.11326,-0.43735 -0.11284,-1.0824 -0.13044,-1.67084c-0.01216,-0.40665 0.03137,-0.7746 0.06113,-0.97175c0.02867,-0.18987 0.15006,-0.25926 0.29505,-0.38515c0.84463,-0.73333 8.29928,-7.20569 8.29928,-7.20569c0,0 -5.55726,-0.7207 -6.36115,-0.82496c-0.27952,-0.03625 -0.40556,-0.22482 -0.46225,-0.50092c-0.05314,-0.25886 -0.1067,-0.6061 -0.1158,-0.98327c-0.01808,-0.74916 0.15346,-1.61642 0.25726,-2.14373c0.08745,-0.44422 0.16268,-1.09939 0.41756,-1.59951c0.19248,-0.37767 0.46073,-0.67693 0.62361,-0.83906c0.19551,-0.1946 0.41761,-0.09171 0.69032,-0.0502c1.2608,0.19193 9.88572,1.50492 11.7909,1.79496c0.2814,0.04284 0.42149,0.20335 0.51256,0.47303c0.09243,0.27372 0.44028,0.93566 0.69245,1.68248c0.16681,0.494 0.23947,1.07741 0.35608,1.42276c0.08537,0.25281 0.1686,0.47292 -0.02762,0.65376c-0.73281,0.67538 -8.80577,8.3075 -8.80577,8.3075c0,0 5.69579,0.36276 6.62336,0.42184c0.23416,0.01491 0.45176,0.11787 0.4082,0.34842c-0.05695,0.30143 0.12034,1.54002 -0.09355,2.67214c-0.22964,1.21545 -0.69045,2.44484 -0.92752,3.06178c-0.09243,0.24054 -0.23205,0.39416 -0.48736,0.35924c-1.89856,-0.25972 -10.95334,-1.49841 -11.99566,-1.641c-0.1922,-0.02629 -0.63524,-0.33661 -0.63524,-0.33661z"/><path d="M224.76051,173.76366c-0.07161,-0.05184 -0.15483,-0.12169 -0.232,-0.2099c-0.18268,-0.20884 -0.40009,-0.52114 -0.4981,-0.71213c-0.10686,-0.20822 -0.17982,-0.53433 -0.25546,-0.82978c-0.05227,-0.20417 -0.07201,-0.3951 -0.07932,-0.49813c-0.00704,-0.09922 0.04644,-0.14807 0.10545,-0.22815c0.34376,-0.46649 3.37776,-4.58369 3.37776,-4.58369c0,0 -2.89082,0.26606 -3.30899,0.30455c-0.14541,0.01338 -0.2305,-0.06764 -0.29048,-0.20077c-0.05623,-0.12482 -0.12268,-0.29426 -0.17007,-0.48389c-0.09411,-0.37663 -0.10578,-0.83447 -0.11312,-1.11279c-0.00618,-0.23446 -0.04247,-0.57417 0.02964,-0.85588c0.05446,-0.21274 0.1561,-0.39443 0.22005,-0.49486c0.07675,-0.12054 0.20069,-0.09373 0.34325,-0.10368c0.65908,-0.04599 5.16771,-0.36063 6.16363,-0.43013c0.1471,-0.01027 0.23612,0.05498 0.31274,0.18097c0.07777,0.12788 0.32868,0.42301 0.54086,0.77191c0.14035,0.23078 0.24326,0.51744 0.34138,0.67878c0.07183,0.11811 0.13887,0.21993 0.0602,0.33359c-0.29381,0.42451 -3.50879,5.19809 -3.50879,5.19809c0,0 2.92024,-0.4627 3.39581,-0.53806c0.12005,-0.01902 0.24172,0.00834 0.24586,0.12982c0.00541,0.15883 0.23552,0.7648 0.25581,1.36132c0.02179,0.64043 -0.07169,1.31413 -0.12154,1.65287c-0.01944,0.13207 -0.07259,0.22556 -0.2056,0.23687c-0.98914,0.08407 -5.70663,0.48502 -6.24967,0.53118c-0.10014,0.00851 -0.35928,-0.09809 -0.35928,-0.09809z"/><path d="M246.11016,187.0424c-0.04348,-0.10121 -0.08789,-0.2291 -0.11409,-0.37277c-0.06201,-0.34012 -0.09506,-0.81312 -0.07789,-1.08007c0.01872,-0.29102 0.14901,-0.6865 0.25685,-1.0509c0.07452,-0.25182 0.17539,-0.46868 0.23339,-0.58358c0.05586,-0.11065 0.14429,-0.12874 0.25858,-0.1767c0.66579,-0.27942 6.54197,-2.7456 6.54197,-2.7456c0,0 -3.26256,-1.56228 -3.73451,-1.78827c-0.1641,-0.07858 -0.20338,-0.21962 -0.18248,-0.40037c0.0196,-0.16945 0.05675,-0.39318 0.12721,-0.62631c0.13994,-0.46305 0.41997,-0.96029 0.58993,-1.26273c0.14318,-0.25478 0.32139,-0.64138 0.57851,-0.89668c0.19417,-0.1928 0.419,-0.32223 0.55157,-0.38882c0.15913,-0.07992 0.27458,0.02795 0.43344,0.10838c0.73446,0.37187 5.75879,2.91578 6.86862,3.47771c0.16393,0.083 0.21748,0.20967 0.21895,0.39341c0.0015,0.18649 0.08136,0.66253 0.08545,1.17134c0.0027,0.33656 -0.07035,0.70897 -0.06846,0.94426c0.00138,0.17224 0.00805,0.324 -0.14873,0.39533c-0.58553,0.26643 -7.07468,3.31916 -7.07468,3.31916c0,0 3.41968,1.37071 3.97657,1.59393c0.14059,0.05635 0.25327,0.16335 0.18008,0.29595c-0.09569,0.17337 -0.23667,0.96864 -0.59606,1.61977c-0.38585,0.69905 -0.91627,1.36005 -1.18602,1.69058c-0.10517,0.12887 -0.22176,0.19493 -0.37128,0.12204c-1.11189,-0.54201 -6.41479,-3.12702 -7.02523,-3.42459c-0.11256,-0.05487 -0.32169,-0.33448 -0.32169,-0.33448z"/></g></g></g></svg>