<svg version="1.1" xmlns="http://www.w3.org/2000/svg" xmlns:xlink="http://www.w3.org/1999/xlink" width="61.62034" height="76.53118" viewBox="0,0,61.62034,76.53118"><defs><linearGradient x1="262.46306" y1="86.31786" x2="262.46306" y2="216.87821" gradientUnits="userSpaceOnUse" id="color-1"><stop offset="0" stop-color="#37caf1"/><stop offset="1" stop-color="#62e4d0"/></linearGradient><radialGradient cx="239.41013" cy="180.38152" r="43.04066" gradientUnits="userSpaceOnUse" id="color-2"><stop offset="0" stop-color="#d6ffe2"/><stop offset="1" stop-color="#d6ffe2" stop-opacity="0"/></radialGradient></defs><g transform="translate(-209.17964,-141.34703)"><g data-paper-data="{&quot;isPaintingLayer&quot;:true}" fill-rule="nonzero" stroke-linecap="butt" stroke-linejoin="miter" stroke-miterlimit="10" stroke-dasharray="" stroke-dashoffset="0" style="mix-blend-mode: normal"><g><path d="M269.79994,154.04705v51.13337c0,6.45067 -5.24475,11.69779 -11.69999,11.69779h-36.22254c-6.44844,0 -11.69777,-5.24707 -11.69777,-11.69779v-51.1356c0,-6.45067 5.24935,-11.69779 11.69779,-11.69779h36.22256c0.4697,0 0.933,0.0278 1.38833,0.08182c1.00957,0.25768 2.02301,0.51933 3.03156,0.7844c4.26819,1.74695 7.2801,5.94545 7.2801,10.8338z" fill="url(#color-1)" stroke="#70fbf6" stroke-width="2"/><path d="M211.04891,195.95421c0.9224,-5.91525 -4.86764,-46.16025 4.74063,-51.93676c2.07017,-2.13768 9.56616,-1.33957 18.48325,-1.35697c11.25778,-0.02196 24.26032,-0.47655 25.67074,-0.11525c3.89554,2.11855 6.55134,4.82117 9.60208,7.9903c-1.70909,3.50977 -0.27585,6.62602 0.12014,10.3869c0.19816,1.882 -0.95797,4.58217 -0.70576,6.25874c0.53703,3.56977 0.66344,5.90886 0.88655,9.8505c0.257,4.54012 0.26986,22.22166 -0.26558,27.62901c-0.09039,0.91284 -0.82625,4.96483 -0.87446,6.12155c-0.95389,0.97429 -7.6027,4.99505 -15.66257,6.21076c-10.32825,1.55786 -21.70091,-0.09479 -29.83733,-0.36856c-13.24648,-0.44571 -10.83115,-5.59919 -11.72585,-7.46149c-2.89263,-6.02095 -0.77005,-11.03986 -0.43184,-13.20874z" fill="url(#color-2)" stroke="none" stroke-width="0"/></g><text transform="translate(223.66392,207.61701) scale(0.27778,0.27778)" font-size="40" xml:space="preserve" fill="#5eafa3" fill-rule="nonzero" stroke="none" stroke-width="1" stroke-linecap="butt" stroke-linejoin="miter" stroke-miterlimit="10" stroke-dasharray="" stroke-dashoffset="0" font-family="Sans Serif" font-weight="normal" text-anchor="start" style="mix-blend-mode: normal"><tspan x="0" dy="0">乌龟卡</tspan></text><g stroke="none" stroke-width="1"><path d="M255.19887,161.4632c0.68915,0.69348 1.07057,1.60801 1.07057,2.58756c0,0.97955 -0.38142,1.89408 -1.07057,2.58756l-2.63957,2.63958c0.21671,0.91453 0.3294,1.86807 0.3294,2.84328v3.89651c0,0.96654 -0.11269,1.90707 -0.32073,2.80861c-0.20804,0.90153 -0.52011,1.76839 -0.91453,2.58323l1.4173,1.4173c1.66002,1.66002 1.66002,4.36028 0,6.0203c-0.80617,0.80617 -1.8724,1.24827 -3.00798,1.24827c-1.13558,0 -2.20615,-0.4421 -3.00799,-1.24827l-1.50833,-1.50833c-0.67181,0.29907 -1.37397,0.54179 -2.10213,0.71949l-0.72383,1.85507c-0.69348,1.77272 -1.69036,2.03711 -2.21914,2.03711c-0.53312,0 -1.52567,-0.26439 -2.21914,-2.03711l-0.7325,-1.85074c-0.72815,-0.17771 -1.43031,-0.42042 -2.10212,-0.71948l-1.50833,1.50832c-0.80617,0.80617 -1.8724,1.24827 -3.00798,1.24827c-1.13558,0 -2.20615,-0.4421 -3.00799,-1.24827c-0.80617,-0.80184 -1.24827,-1.8724 -1.24827,-3.00798c0,-1.13558 0.44209,-2.20614 1.24827,-3.00798l1.41731,-1.4173c-0.79317,-1.63402 -1.23526,-3.46309 -1.23526,-5.39617v-3.89651c0,-0.97955 0.11269,-1.92875 0.32941,-2.84328l-2.63958,-2.63957c-0.68915,-0.69348 -1.07056,-1.60802 -1.07056,-2.58756c0,-0.97521 0.38141,-1.89408 1.07056,-2.58756c0.68915,-0.68915 1.60801,-1.07057 2.58756,-1.07057c0.97955,0 1.89409,0.38142 2.58757,1.07057l1.35229,1.35229c0.55912,-0.49411 1.16591,-0.93621 1.80739,-1.32196c0.64148,-0.38575 1.32195,-0.71515 2.03277,-0.98388v-2.98198c0,-2.39252 1.94609,-4.33861 4.33861,-4.33861c2.38385,0 4.32994,1.94609 4.32994,4.33861v2.97764c1.42165,0.53312 2.72193,1.32196 3.84017,2.30584l1.35229,-1.35229c0.68915,-0.68915 1.60801,-1.07056 2.58756,-1.07056c0.97521,0 1.89408,0.38141 2.58756,1.07056z" fill="#663333"/><path d="M253.95494,162.70714c0.35975,0.35975 0.55912,0.83651 0.55912,1.34363c0,0.50711 -0.19938,0.98822 -0.55912,1.34363l-2.00244,2.00243c-0.25138,-0.61113 -0.55478,-1.19626 -0.89719,-1.75538c-0.34241,-0.55479 -0.72816,-1.08356 -1.15292,-1.57767l1.35663,-1.35663c0.35975,-0.35975 0.83651,-0.55911 1.34363,-0.55911c0.51578,0 0.99255,0.19937 1.35229,0.55911zM251.82681,184.0751c0.97521,0.97521 0.97521,2.56156 0,3.53677c-0.47243,0.47243 -1.10091,0.73249 -1.76838,0.73249c-0.66747,0 -1.29595,-0.26006 -1.76838,-0.73249l-1.13992,-1.13992c0.70648,-0.4551 1.36963,-0.97521 1.97209,-1.56034c0.60246,-0.58513 1.14425,-1.2266 1.61668,-1.92442z" fill="#f9dcb2"/><path d="M251.13332,174.94713v1.07056c0,3.2637 -1.47798,6.18934 -3.80115,8.14409l-2.7956,-4.84138l2.52688,-4.37328z" fill="#9ace57"/><path d="M251.13332,172.12118v1.07057h-4.07421l-2.4402,-4.23025l2.82162,-4.88906c2.26249,1.95042 3.69279,4.83705 3.69279,8.04874z" fill="#6a973a"/><path d="M246.01457,163.02788l-2.83461,4.91506h-5.2098l-2.87795,-4.98442c0.79317,-0.4681 1.65135,-0.84085 2.55722,-1.09223c0.90587,-0.25138 1.8594,-0.38575 2.84761,-0.38575c2.01977,0 3.90951,0.56779 5.51753,1.54734z" fill="#9ace57"/><path d="M243.01958,180.19593l2.87796,4.98442c-0.14303,0.08235 -0.28606,0.1647 -0.43342,0.24272h-0.00433c-0.09102,0.05202 -0.18637,0.09536 -0.28173,0.14303c-1.41297,0.70216 -3.00365,1.09224 -4.68535,1.09224c-1.67737,0 -3.26805,-0.39008 -4.68535,-1.0879c-0.09536,-0.04767 -0.19071,-0.09102 -0.28172,-0.14303c-0.10402,-0.05634 -0.21239,-0.11269 -0.31641,-0.17337l2.91697,-5.0581zM243.01958,169.69832l2.52255,4.37328l-2.52255,4.36894h-5.04943l-2.52254,-4.36894l2.52254,-4.37328z" fill="#6a973a"/><path d="M243.07591,158.08247v1.91575c-0.41609,-0.08668 -0.84085,-0.15604 -1.26994,-0.20371c-0.42909,-0.04334 -0.86686,-0.06934 -1.30895,-0.06934c-0.88419,0 -1.75105,0.09102 -2.58322,0.27306v-1.91575c0.14303,0.1127 0.32074,0.18204 0.51578,0.18204c0.4551,0 0.82351,-0.36842 0.82351,-0.82352c0,-0.4551 -0.36841,-0.82351 -0.82351,-0.82351c-0.1387,0 -0.26872,0.03468 -0.38575,0.09536c0.34241,-1.02289 1.30895,-1.75971 2.44886,-1.75971c1.13558,0 2.10212,0.74116 2.44886,1.75972c-0.1127,-0.06068 -0.24272,-0.09536 -0.38141,-0.09536c-0.4551,0 -0.82351,0.36841 -0.82351,0.82351c0,0.4551 0.36841,0.82352 0.82351,0.82352c0.19504,0 0.37274,-0.06934 0.51577,-0.18204zM241.42889,188.37904l-0.35108,0.89719c-0.24705,0.63714 -0.49411,0.86686 -0.58513,0.91454c-0.09102,-0.04767 -0.33808,-0.28173 -0.58513,-0.91454l-0.35108,-0.89719c0.30773,0.02167 0.6198,0.03467 0.93621,0.03467c0.31641,0 0.62847,-0.00867 0.9362,-0.03467z" fill="#f9dcb2"/><path d="M233.92628,174.94713l2.60489,4.51197l-2.7696,4.79371c-1.19192,-0.97521 -2.16714,-2.20615 -2.84762,-3.60612c-0.68048,-1.39997 -1.05756,-2.96898 -1.05756,-4.629v-1.07056z" fill="#9ace57"/><path d="M233.6532,163.97708l2.7956,4.84138l-2.52254,4.36894h-4.07422v-1.07056c0.00433,-3.25938 1.47798,-6.18501 3.80115,-8.13976z" fill="#6a973a"/><path d="M233.83524,186.47195l-1.13992,1.13558c-0.47243,0.47243 -1.10091,0.73249 -1.76838,0.73249c-0.66747,0 -1.29595,-0.26006 -1.76838,-0.73249c-0.47243,-0.47243 -0.7325,-1.10091 -0.7325,-1.76838c0,-0.66747 0.26006,-1.29595 0.7325,-1.76838l1.08791,-1.0879c0.47243,0.69348 1.01855,1.33929 1.61668,1.92442c0.60246,0.58513 1.26127,1.10957 1.97209,1.56467zM229.72204,162.70714l1.35663,1.35663c-0.84951,0.98821 -1.543,2.11513 -2.04577,3.33306l-2.00244,-2.00243c-0.35975,-0.35975 -0.55912,-0.83652 -0.55912,-1.34363c0,-0.50711 0.19937,-0.98388 0.55912,-1.34363c0.35975,-0.35975 0.83652,-0.55911 1.34363,-0.55911c0.50711,0 0.98821,0.19937 1.34795,0.55911z" fill="#f9dcb2"/></g></g></g></svg>