<svg version="1.1" xmlns="http://www.w3.org/2000/svg" xmlns:xlink="http://www.w3.org/1999/xlink" width="61.62034" height="76.53118" viewBox="0,0,61.62034,76.53118"><defs><linearGradient x1="262.46306" y1="86.31786" x2="262.46306" y2="216.87821" gradientUnits="userSpaceOnUse" id="color-1"><stop offset="0" stop-color="#37caf1"/><stop offset="1" stop-color="#62e4d0"/></linearGradient><radialGradient cx="239.41014" cy="180.38152" r="43.04066" gradientUnits="userSpaceOnUse" id="color-2"><stop offset="0" stop-color="#d6ffe2"/><stop offset="1" stop-color="#d6ffe2" stop-opacity="0"/></radialGradient><radialGradient cx="238.66205" cy="173.93176" r="11.92535" gradientUnits="userSpaceOnUse" id="color-3"><stop offset="0" stop-color="#ffd587"/><stop offset="1" stop-color="#d98b4f"/></radialGradient></defs><g transform="translate(-209.17964,-141.34703)"><g data-paper-data="{&quot;isPaintingLayer&quot;:true}" fill-rule="nonzero" stroke-linejoin="miter" stroke-miterlimit="10" stroke-dasharray="" stroke-dashoffset="0" style="mix-blend-mode: normal"><g stroke-linecap="butt"><path d="M269.79994,154.04705v51.13337c0,6.45067 -5.24475,11.69779 -11.69999,11.69779h-36.22254c-6.44844,0 -11.69777,-5.24707 -11.69777,-11.69779v-51.1356c0,-6.45067 5.24935,-11.69779 11.69779,-11.69779h36.22256c0.4697,0 0.933,0.0278 1.38833,0.08182c1.00957,0.25768 2.02301,0.51933 3.03156,0.7844c4.26819,1.74695 7.2801,5.94545 7.2801,10.8338z" fill="url(#color-1)" stroke="#70fbf6" stroke-width="2"/><path d="M211.04892,195.95421c0.9224,-5.91525 -4.86764,-46.16025 4.74063,-51.93676c2.07017,-2.13768 9.56616,-1.33957 18.48325,-1.35697c11.25778,-0.02196 24.26032,-0.47655 25.67074,-0.11525c3.89554,2.11855 6.55134,4.82117 9.60208,7.9903c-1.70909,3.50977 -0.27585,6.62602 0.12014,10.3869c0.19816,1.882 -0.95797,4.58217 -0.70576,6.25874c0.53703,3.56977 0.66344,5.90886 0.88655,9.8505c0.257,4.54012 0.26986,22.22166 -0.26558,27.62901c-0.09039,0.91284 -0.82625,4.96483 -0.87446,6.12155c-0.95389,0.97429 -7.6027,4.99505 -15.66257,6.21076c-10.32825,1.55786 -21.70091,-0.09479 -29.83733,-0.36856c-13.24648,-0.44571 -10.83115,-5.59919 -11.72585,-7.46149c-2.89263,-6.02095 -0.77005,-11.03986 -0.43184,-13.20874z" fill="url(#color-2)" stroke="none" stroke-width="0"/></g><text transform="translate(223.20886,207.92461) scale(0.27778,0.27778)" font-size="40" xml:space="preserve" fill="#5eafa3" fill-rule="nonzero" stroke="none" stroke-width="1" stroke-linecap="butt" stroke-linejoin="miter" stroke-miterlimit="10" stroke-dasharray="" stroke-dashoffset="0" font-family="Sans Serif" font-weight="normal" text-anchor="start" style="mix-blend-mode: normal"><tspan x="0" dy="0">炸药卡</tspan></text><g><path d="M232.57031,158.65495c0,0 2.82469,1.70864 3.58963,2.8145c0.89979,1.30084 1.47052,4.50098 1.47052,4.50098" fill="none" stroke="#a86941" stroke-width="1.5" stroke-linecap="round"/><path d="M247.54939,163.27814c0,0 1.44015,4.4396 2.28068,7.03068c1.03904,3.20306 3.48522,10.74397 3.48522,10.74397c0.43932,1.3543 -0.30445,2.81308 -1.6597,3.25272l-17.0411,5.52795c-1.35382,0.43917 -2.81325,-0.30494 -3.25258,-1.65923l-5.76604,-17.77512c-0.43932,-1.3543 0.30542,-2.81339 1.65925,-3.25258l17.0411,-5.52795c1.35525,-0.43963 2.81387,0.30528 3.25318,1.65956z" fill="url(#color-3)" stroke="#ffc89d" stroke-width="0" stroke-linecap="butt"/><path d="M248.40692,168.34877l-21.3884,6.93815" fill="none" stroke="#a86941" stroke-width="1.5" stroke-linecap="round"/><path d="M251.14166,175.81416l-21.5189,6.98049" fill="none" stroke="#a86941" stroke-width="1.5" stroke-linecap="round"/><path d="M246.56816,185.56159l-7.12864,-21.97561" fill="none" stroke="#a86941" stroke-width="1.5" stroke-linecap="round"/><path d="M232.11071,165.5063l7.14979,22.04086" fill="none" stroke="#a86941" stroke-width="1.5" stroke-linecap="round"/><path d="M247.32856,162.79729c0,0 1.45754,4.49317 2.3082,7.11553c1.05157,3.24173 3.52728,10.87364 3.52728,10.87364c0.44463,1.37065 -0.30811,2.84703 -1.67973,3.29199l-17.24679,5.59467c-1.37016,0.44448 -2.8472,-0.30862 -3.29183,-1.67926l-5.83564,-17.98966c-0.44463,-1.37065 0.30909,-2.84736 1.67926,-3.29183l17.24679,-5.59467c1.3716,-0.44494 2.84783,0.30895 3.29245,1.67959z" fill="none" stroke="#ffd19e" stroke-width="1" stroke-linecap="butt"/></g></g></g></svg>