<svg version="1.1" xmlns="http://www.w3.org/2000/svg" xmlns:xlink="http://www.w3.org/1999/xlink" width="702.68437" height="392.39241" viewBox="0,0,702.68437,392.39241"><g transform="translate(55.2569,11.3674)"><g data-paper-data="{&quot;isPaintingLayer&quot;:true}" fill-rule="nonzero" stroke-linecap="butt" stroke-linejoin="miter" stroke-miterlimit="10" stroke-dasharray="" stroke-dashoffset="0" style="mix-blend-mode: normal"><path d="M-16.23614,372.016c0,0 -1.00103,-168.32003 -1.00103,-231.28254c0,-64.78021 1.00103,-152.10086 1.00103,-152.10086l663.66362,9.00901v383.3834c0,0 -663.44085,-9.00901 -702.28854,-9.00901c-4.97708,0 38.62492,0 38.62492,0zM239.41346,181.74946c13.80712,0 25,-11.19288 25,-25c0,-13.80712 -11.19288,-25 -25,-25c-13.80712,0 -25,11.19288 -25,25c0,13.80712 11.19288,25 25,25z" fill-opacity="0.3451" fill="#3a3229" stroke="none" stroke-width="NaN"/><path d="M457.3954,290.5545h-214.51089c-4.27519,0 -7.7527,-3.47598 -7.7527,-7.75418v-49.53843c0,-4.27366 3.47749,-7.7527 7.7527,-7.7527h214.51239c4.27519,0 7.7527,3.47903 7.7527,7.7527v49.53843c0,4.27819 -3.47903,7.75418 -7.75418,7.75418z" fill="#fcdab3" stroke="#cdac86" stroke-width="1.5"/><text transform="translate(276.61308,254.21199) scale(0.43731,0.43731)" font-size="40" xml:space="preserve" fill="#b58453" fill-rule="nonzero" stroke="none" stroke-width="1" stroke-linecap="butt" stroke-linejoin="miter" stroke-miterlimit="10" stroke-dasharray="" stroke-dashoffset="0" font-family="Sans Serif" font-weight="normal" text-anchor="start" style="mix-blend-mode: normal"><tspan x="0" dy="0">停止在对手的地产</tspan><tspan x="0" dy="48px">上将需要缴纳费用</tspan></text></g></g></svg>