<svg version="1.1" xmlns="http://www.w3.org/2000/svg" xmlns:xlink="http://www.w3.org/1999/xlink" width="62.77599" height="107.15284" viewBox="0,0,62.77599,107.15284"><g transform="translate(-208.612,-126.43872)"><g data-paper-data="{&quot;isPaintingLayer&quot;:true}" fill-rule="nonzero" stroke-linejoin="miter" stroke-miterlimit="10" stroke-dasharray="" stroke-dashoffset="0" style="mix-blend-mode: normal"><path d="" data-paper-data="{&quot;index&quot;:null}" fill="#9966ff" stroke="none" stroke-width="0.5" stroke-linecap="butt"/><path d="" data-paper-data="{&quot;index&quot;:null}" fill="#6696ff" stroke="none" stroke-width="0.5" stroke-linecap="butt"/><path d="" data-paper-data="{&quot;index&quot;:null}" fill="#6696ff" stroke="none" stroke-width="0.5" stroke-linecap="butt"/><path d="" data-paper-data="{&quot;index&quot;:null}" fill="#6696ff" stroke="none" stroke-width="0.5" stroke-linecap="butt"/><path d="" data-paper-data="{&quot;index&quot;:null}" fill="#6696ff" stroke="none" stroke-width="0.5" stroke-linecap="butt"/><path d="" data-paper-data="{&quot;index&quot;:null}" fill="#6696ff" stroke="none" stroke-width="0.5" stroke-linecap="butt"/><path d="" data-paper-data="{&quot;index&quot;:null}" fill="#6696ff" stroke="none" stroke-width="0.5" stroke-linecap="butt"/><path d="" data-paper-data="{&quot;index&quot;:null}" fill="#6696ff" stroke="none" stroke-width="0.5" stroke-linecap="butt"/><path d="" data-paper-data="{&quot;index&quot;:null}" fill="#6696ff" stroke="none" stroke-width="0.5" stroke-linecap="butt"/><path d="" data-paper-data="{&quot;index&quot;:null}" fill="#6696ff" stroke="none" stroke-width="0.5" stroke-linecap="butt"/><path d="" data-paper-data="{&quot;index&quot;:null}" fill="#6696ff" stroke="none" stroke-width="0.5" stroke-linecap="butt"/><path d="" data-paper-data="{&quot;index&quot;:null}" fill="#6696ff" stroke="none" stroke-width="0.5" stroke-linecap="butt"/><path d="" data-paper-data="{&quot;index&quot;:null}" fill="#6696ff" stroke="none" stroke-width="0.5" stroke-linecap="butt"/><path d="" data-paper-data="{&quot;index&quot;:null}" fill="#6696ff" stroke="none" stroke-width="0.5" stroke-linecap="butt"/><path d="" data-paper-data="{&quot;index&quot;:null}" fill="#6696ff" stroke="none" stroke-width="0.5" stroke-linecap="butt"/><path d="" data-paper-data="{&quot;index&quot;:null}" fill="#6696ff" stroke="none" stroke-width="0.5" stroke-linecap="butt"/><path d="" data-paper-data="{&quot;index&quot;:null}" fill="#6696ff" stroke="none" stroke-width="0.5" stroke-linecap="butt"/><path d="" data-paper-data="{&quot;index&quot;:null}" fill="#6696ff" stroke="none" stroke-width="0.5" stroke-linecap="butt"/><path d="" data-paper-data="{&quot;index&quot;:null}" fill="#6696ff" stroke="none" stroke-width="0.5" stroke-linecap="butt"/><path d="" data-paper-data="{&quot;index&quot;:null}" fill="#6696ff" stroke="none" stroke-width="0.5" stroke-linecap="butt"/><path d="" data-paper-data="{&quot;index&quot;:null}" fill="#6696ff" stroke="none" stroke-width="0.5" stroke-linecap="butt"/><path d="" data-paper-data="{&quot;index&quot;:null}" fill="#6696ff" stroke="none" stroke-width="0.5" stroke-linecap="butt"/><path d="" data-paper-data="{&quot;index&quot;:null}" fill="#6696ff" stroke="none" stroke-width="0.5" stroke-linecap="butt"/><path d="" data-paper-data="{&quot;index&quot;:null}" fill="#6696ff" stroke="none" stroke-width="0.5" stroke-linecap="butt"/><path d="" data-paper-data="{&quot;index&quot;:null}" fill="#6696ff" stroke="none" stroke-width="0.5" stroke-linecap="butt"/><path d="" data-paper-data="{&quot;index&quot;:null}" fill="#6696ff" stroke="none" stroke-width="0.5" stroke-linecap="butt"/><path d="" data-paper-data="{&quot;index&quot;:null}" fill="#6696ff" stroke="none" stroke-width="0.5" stroke-linecap="butt"/><path d="" data-paper-data="{&quot;index&quot;:null}" fill="#6696ff" stroke="none" stroke-width="0.5" stroke-linecap="butt"/><path d="" data-paper-data="{&quot;index&quot;:null}" fill="#6696ff" stroke="none" stroke-width="0.5" stroke-linecap="butt"/><path d="" data-paper-data="{&quot;index&quot;:null}" fill="#6696ff" stroke="none" stroke-width="0.5" stroke-linecap="butt"/><path d="" data-paper-data="{&quot;index&quot;:null}" fill="#6696ff" stroke="none" stroke-width="0.5" stroke-linecap="butt"/><path d="" data-paper-data="{&quot;index&quot;:null}" fill="#dfdfdf" stroke="#723700" stroke-width="0.5" stroke-linecap="butt"/><path d="" data-paper-data="{&quot;index&quot;:null}" fill="#dfdfdf" stroke="#723700" stroke-width="0.5" stroke-linecap="butt"/><g><path d="M260.32089,201.12417l0.69652,3.07244l0.73411,1.97003c0,0 -0.33035,1.56944 -0.94385,2.3394c-0.6135,0.76996 -1.11925,1.26385 -2.09745,1.47752c-0.9782,0.21367 -1.60425,0.02759 -2.41206,-0.49251c-0.80781,-0.5201 -0.83898,-1.60064 -0.83898,-1.60064l0.73411,-0.86189l-1.15359,-2.95504z" data-paper-data="{&quot;index&quot;:null}" fill="#fed497" stroke="#000000" stroke-width="1.5" stroke-linecap="round"/><path d="M225.90709,204.54014l-1.15359,2.95504l0.73411,0.86189l-0.83898,1.60064c0,0 -1.47343,0.69753 -2.41206,0.49251c-0.93863,-0.20502 -1.4735,-0.69444 -2.09745,-1.47752c-0.62395,-0.78308 -0.89599,-1.35608 -0.94385,-2.3394c-0.04786,-0.98332 0.73411,-1.97003 0.73411,-1.97003l0.69652,-3.07244z" fill="#fed497" stroke="#000000" stroke-width="1.5" stroke-linecap="round"/><path d="M232.00002,232.56198c0,0 -0.89695,-6.48785 -0.89695,-10.0341c0,-3.26657 0.28693,-11.2281 0.28693,-11.2281l6.39888,-0.35878c0,0 0.03796,8.42267 0.03796,11.81212c0,3.44548 0.39267,9.80887 0.39267,9.80887z" data-paper-data="{&quot;index&quot;:null}" fill="#cfac7a" stroke="#000000" stroke-width="1.5" stroke-linecap="butt"/><path d="M230.94059,231.70016c0,-1.53667 0.25,-8.60833 0.25,-8.60833h6.72712c0,0 0.62765,8.17746 0.00286,8.74526c-1.27779,1.16124 -6.97998,0.60049 -6.97998,-0.13693z" data-paper-data="{&quot;index&quot;:null}" fill="#a56637" stroke="#000000" stroke-width="1.5" stroke-linecap="butt"/><path d="M243.90303,232.81128c0,0 -0.89661,-7.38344 -0.89661,-10.65002c0,-3.54626 -0.43096,-10.43281 -0.43096,-10.43281l6.04009,0.35878c0,0 1.00269,9.40381 1.00269,12.76388c0,3.47209 -0.12072,7.71017 -0.12072,7.71017z" data-paper-data="{&quot;index&quot;:null}" fill="#cfac7a" stroke="#000000" stroke-width="1.5" stroke-linecap="butt"/><path d="M222.27103,193.11447c0,0 2.22289,-7.38824 4.2309,-9.43498c2.11825,-2.15911 8.16554,-3.20057 8.16554,-3.20057l11.18447,0.21509l8.30397,2.09823l7.70352,20.25389l-8.01687,1.94566l-4.07313,-11.67954l-1.6591,-2.07903l4.68314,15.74227l2.09206,8.88506v2.79612l-29.25168,-0.32263l0.83771,-5.04508l5.61486,-20.76523c0,0 -2.19472,4.43503 -3.1427,6.70503c-0.71909,1.72191 -2.05067,5.73091 -2.05067,5.73091l-6.7729,-3.53575z" data-paper-data="{&quot;index&quot;:null}" fill="#a56ad4" stroke="#a56ad4" stroke-width="0.5" stroke-linecap="round"/><path d="M234.53183,180.85012l11.16656,-0.0971c0,0 7.35441,0.92523 9.65741,3.32213c2.02426,2.1068 3.43257,10.30155 3.43257,10.30155l-7.28904,1.54681l-3.17925,-4.68363l5.19585,17.4719l-25.77659,-0.49919l4.07365,-15.4191l-2.08019,2.73119l-6.52298,-4.5393l3.25055,-7.53439z" data-paper-data="{&quot;index&quot;:null}" fill="#ad89d4" stroke="#ad89d4" stroke-width="0.5" stroke-linecap="round"/><path d="M260.73165,159.74999c-1.34542,14.677 -7.46168,14.98528 -16.59559,16.7161c-0.42822,-0.10278 0.91384,1.63907 0.53119,4.04954c-1.87167,0.17097 -3.18112,2.3218 -4.43915,2.13228c-0.72914,-0.10984 -2.82599,-2.39794 -3.91483,-2.43031c0.12801,-3.40203 -0.30691,-2.08092 0.30659,-3.20623c-4.39682,-0.70709 -10.18541,-1.20279 -13.09868,-3.82208c-3.34785,-3.01001 -3.50415,-8.39696 -3.50415,-12.99081c0,-9.69778 1.96168,-16.41975 20.35732,-17.55938c21.10198,-1.30731 21.24258,7.45363 20.35731,17.11092z" data-paper-data="{&quot;index&quot;:null}" fill="#fed497" stroke="#000000" stroke-width="1.5" stroke-linecap="butt"/><path d="M270.38412,174.38313c-1.6536,0.51474 -14.05831,5.69144 -23.82935,1.87339c2.27804,-0.32217 3.917,-1.54872 5.5304,-2.47155c5.52062,-3.15768 6.23934,-8.69735 6.35353,-14.54597c0.13343,-6.83476 -2.80443,-11.31691 -7.28249,-13.21217c-1.99823,1.2845 -1.96347,0.21258 -3.3058,2.09317c-0.06637,0.04155 -0.6294,-0.66899 -1.54022,-2.35778c-1.42502,0.88137 -1.51972,0.28363 -4.20895,2.45716c-1.88029,-1.76204 -2.75096,-2.11558 -3.35737,-0.22966c-1.87507,-2.02201 -2.91159,-2.1931 -3.97787,-2.36521c-1.79429,4.05965 -3.60352,1.43324 -5.82972,1.64204c-2.2262,0.2088 -0.47706,2.28852 -2.77743,-0.83475c-2.48648,1.2766 -2.89398,0.8916 -3.69239,3.74377c-0.87305,3.11881 0.50484,9.40293 0.56335,12.48994c0.06743,3.55745 -1.49784,4.16497 0.42462,7.18507c2.54052,3.99104 7.35014,6.09235 12.46721,6.85604c-5.78333,4.03433 -19.35633,1.57536 -25.56278,-4.00646c-3.80405,-3.42119 4.50526,-5.81952 4.50526,-10.75856c0,-7.32907 2.27399,-20.18648 9.00827,-27.82502c3.09426,-3.50974 11.23545,-6.92786 15.44488,-6.92786c5.98304,0 13.85045,3.95926 18.07533,6.83632c5.2168,3.55255 7.67968,22.45618 7.67968,28.36636c0,0 6.96544,11.47699 5.31184,11.99173z" data-paper-data="{&quot;index&quot;:null}" fill="#4f412e" stroke="#000000" stroke-width="1.5" stroke-linecap="butt"/><path d="M228.78963,203.08907c0.33146,-1.01397 1.01996,-3.28723 1.37802,-5.61869c0.12463,-0.81151 0.12775,-2.83095 0.44405,-3.96565c0.26057,-0.93479 1.016,-1.52724 1.07764,-1.9746c-1.52215,1.6799 -1.5497,4.6445 -2.20614,6.61943c-0.70595,2.12386 -2.00132,3.30564 -2.57319,6.52208c-0.08315,-0.10698 -7.78756,-3.57261 -7.78756,-3.57261c0,0 4.96305,-16.03132 7.73893,-17.88052c2.53712,-1.69015 3.2893,-1.24161 8.13519,-2.96493c1.33595,-0.14161 3.46728,2.49251 5.03219,2.50683c2.08709,0.0191 3.68582,-2.54511 6.06203,-2.50683c9.57998,2.85075 8.47765,0.77778 10.16374,5.28829c1.86094,4.97829 5.51353,17.23141 5.51353,17.23141l-7.93863,1.50545c0,0 -1.83476,-4.16346 -3.15292,-7.74261c-0.82717,-2.24597 -0.89131,-4.16859 -1.91376,-4.97841c-0.04386,-0.03474 -0.10923,-0.02662 -0.16479,-0.03955c0.94604,1.91146 0.9068,2.83682 1.13629,3.55165c0.48759,1.51875 0.42664,1.52933 1.22542,4.10741c0.62625,2.02124 2.77074,10.08743 3.29466,12.39698c0.9438,4.16045 1.32967,4.26346 1.05647,6.28931c-0.24392,1.8087 -2.20903,0.1053 -2.71929,0.13525c-1.16126,0.06816 -2.20156,0.39872 -2.76791,0.40851c-1.34137,0.02319 -1.94211,-0.39618 -2.54579,-0.43011c-1.85994,-0.10456 -2.34215,0.69646 -2.84907,0.67274c-1.63593,-0.07653 -2.8805,-0.67651 -3.44908,-0.72158c-2.03722,-0.16147 -2.93408,0.5075 -3.45395,0.50961c-1.09653,0.00445 -1.86715,-0.479 -2.12832,-0.50165c-2.47388,-0.21456 -2.04872,0.52192 -3.62414,0.49804c-2.28326,-0.03461 -1.8914,-0.56316 -3.18482,-0.55635c-0.70914,0.00373 -1.97151,0.55429 -2.46964,0.61482c-0.91301,0.11095 -1.36388,0.44453 0.19508,-5.72663c0.53823,-2.13058 1.24189,-5.90244 2.47579,-9.67708z" data-paper-data="{&quot;index&quot;:null}" fill="none" stroke="#000000" stroke-width="1.5" stroke-linecap="butt"/><path d="M242.37503,194.47665c2.45446,0.73098 2.26575,2.98229 0.94074,5.40628c-1.04025,1.90306 -3.55742,3.21974 -3.55742,3.21974c0,0 -2.60822,-1.64602 -3.48794,-3.54122c-1.20607,-2.59826 -0.63043,-4.32786 1.34925,-5.19875c2.32633,-0.07402 2.32461,2.33772 2.32461,2.33772c0,0 0.28744,-2.11219 2.43075,-2.22377z" data-paper-data="{&quot;index&quot;:null}" fill="#ff6b6b" stroke="#000000" stroke-width="0" stroke-linecap="butt"/><path d="M227.67831,151.07028c0,0 1.54724,-1.20597 2.50308,-1.39248c0.85513,-0.16685 2.96358,0.32581 2.96358,0.32581" data-paper-data="{&quot;index&quot;:null}" fill="none" stroke="#000000" stroke-width="1.5" stroke-linecap="round"/><path d="M246.66524,150.25922c0,0 1.84767,-0.9331 2.82611,-0.89397c0.87534,0.03501 2.76973,1.11775 2.76973,1.11775" data-paper-data="{&quot;index&quot;:null}" fill="none" stroke="#000000" stroke-width="1.5" stroke-linecap="round"/><path d="M227.6093,137.49839c-0.49848,0.95541 -1.48345,1.42685 -2.20001,1.05299c-0.71655,-0.37385 -0.89335,-1.45144 -0.39487,-2.40685c0.49848,-0.95541 1.48345,-1.42685 2.20001,-1.05299c0.71655,0.37385 0.89335,1.45144 0.39487,2.40685z" data-paper-data="{&quot;index&quot;:null}" fill="#6e5b41" stroke="none" stroke-width="0" stroke-linecap="butt"/><path d="M233.10111,135.44923c-0.49848,0.95541 -1.48345,1.42685 -2.20001,1.053c-0.71655,-0.37385 -0.89335,-1.45144 -0.39487,-2.40685c0.49848,-0.95541 1.48345,-1.42685 2.20001,-1.05299c0.71655,0.37385 0.89335,1.45144 0.39487,2.40685z" data-paper-data="{&quot;index&quot;:null}" fill="#6e5b41" stroke="none" stroke-width="0" stroke-linecap="butt"/><path d="M227.35075,149.35902h-1.56966" data-paper-data="{&quot;index&quot;:null}" fill="none" stroke="none" stroke-width="0" stroke-linecap="round"/><path d="M243.65269,168.36242c0,0 -2.0172,1 -3,1c-1.06599,0 -3.16666,-1 -3.16666,-1" fill="none" stroke="#000000" stroke-width="1.5" stroke-linecap="round"/><path d="M232.04352,157.78134v4" fill="none" stroke="#000000" stroke-width="1.5" stroke-linecap="round"/><path d="M248.21019,158.28134v3.16666" fill="none" stroke="#000000" stroke-width="1.5" stroke-linecap="round"/><path d="M242.94059,231.95016c0,-1.53667 0.25,-8.60833 0.25,-8.60833l6.35212,-0.125c0,0 0.75265,8.30246 0.12786,8.87026c-1.27779,1.16124 -6.72998,0.60049 -6.72998,-0.13693z" data-paper-data="{&quot;index&quot;:null}" fill="#a56637" stroke="#000000" stroke-width="1.5" stroke-linecap="butt"/></g></g></g></svg>