<svg version="1.1" xmlns="http://www.w3.org/2000/svg" xmlns:xlink="http://www.w3.org/1999/xlink" width="61.62034" height="76.53118" viewBox="0,0,61.62034,76.53118"><defs><linearGradient x1="262.46306" y1="86.31786" x2="262.46306" y2="216.87821" gradientUnits="userSpaceOnUse" id="color-1"><stop offset="0" stop-color="#37caf1"/><stop offset="1" stop-color="#62e4d0"/></linearGradient><radialGradient cx="239.41015" cy="180.38152" r="43.04066" gradientUnits="userSpaceOnUse" id="color-2"><stop offset="0" stop-color="#d6ffe2"/><stop offset="1" stop-color="#d6ffe2" stop-opacity="0"/></radialGradient></defs><g transform="translate(-209.17964,-141.34703)"><g data-paper-data="{&quot;isPaintingLayer&quot;:true}" fill-rule="nonzero" stroke-linejoin="miter" stroke-miterlimit="10" stroke-dasharray="" stroke-dashoffset="0" style="mix-blend-mode: normal"><g stroke-linecap="butt"><path d="M269.79994,154.04705v51.13337c0,6.45067 -5.24475,11.69779 -11.69999,11.69779h-36.22254c-6.44844,0 -11.69777,-5.24707 -11.69777,-11.69779v-51.1356c0,-6.45067 5.24935,-11.69779 11.69779,-11.69779h36.22256c0.4697,0 0.933,0.0278 1.38833,0.08182c1.00957,0.25768 2.02301,0.51933 3.03156,0.7844c4.26819,1.74695 7.2801,5.94545 7.2801,10.8338z" fill="url(#color-1)" stroke="#70fbf6" stroke-width="2"/><path d="M211.04893,195.95421c0.9224,-5.91525 -4.86764,-46.16025 4.74063,-51.93676c2.07017,-2.13768 9.56616,-1.33957 18.48325,-1.35697c11.25778,-0.02196 24.26032,-0.47655 25.67074,-0.11525c3.89554,2.11855 6.55134,4.82117 9.60208,7.9903c-1.70909,3.50977 -0.27585,6.62602 0.12014,10.3869c0.19816,1.882 -0.95797,4.58217 -0.70576,6.25874c0.53703,3.56977 0.66344,5.90886 0.88655,9.8505c0.257,4.54012 0.26986,22.22166 -0.26558,27.62901c-0.09039,0.91284 -0.82625,4.96483 -0.87446,6.12155c-0.95389,0.97429 -7.6027,4.99505 -15.66257,6.21076c-10.32825,1.55786 -21.70091,-0.09479 -29.83733,-0.36856c-13.24648,-0.44571 -10.83115,-5.59919 -11.72585,-7.46149c-2.89263,-6.02095 -0.77005,-11.03986 -0.43184,-13.20874z" fill="url(#color-2)" stroke="none" stroke-width="0"/></g><text transform="translate(223.66392,207.61701) scale(0.27778,0.27778)" font-size="40" xml:space="preserve" fill="#5eafa3" fill-rule="nonzero" stroke="none" stroke-width="1" stroke-linecap="butt" stroke-linejoin="miter" stroke-miterlimit="10" stroke-dasharray="" stroke-dashoffset="0" font-family="Sans Serif" font-weight="normal" text-anchor="start" style="mix-blend-mode: normal"><tspan x="0" dy="0">请神卡</tspan></text><g stroke="none" stroke-width="1" stroke-linecap="butt"><path d="M223.30298,184.72165c0.5031,0 0.9098,0.40781 0.9098,0.9099c0,0.5031 -0.4067,0.9108 -0.9098,0.9108c-0.5021,0 -0.9098,-0.4078 -0.9098,-0.9108c0,-0.5021 0.40771,-0.9099 0.9098,-0.9099z" fill="#304956"/><g><path d="M226.03337,186.66988v1.69206h-5.45978v-14.55874h5.45978zM224.21268,185.63155c0,-0.50209 -0.4067,-0.9099 -0.9098,-0.9099c-0.50209,0 -0.9098,0.4078 -0.9098,0.9099c0,0.5031 0.4077,0.9108 0.9098,0.9108c0.5032,0 0.9098,-0.4077 0.9098,-0.9108z" fill="#415a6b"/><path d="M221.50096,188.36184h-0.92737v-14.55874h5.45978v0.9095h-4.53241z" fill="#304956"/><path d="M242.35446,180.06834c1.94411,-1.66083 5.63662,-3.79282 8.18123,-4.15935c1.23415,-0.18377 3.58194,0.2632 3.70245,1.93598c0.18577,2.68229 -11.06426,9.30582 -14.45029,9.57003c-5.69375,0.45088 -6.91796,-3.40008 -13.75438,-0.74511v-10.96565c0.8143,-0.38169 1.60369,-0.68195 2.30853,-0.82745c2.93725,-0.61858 13.55365,0.45891 14.09983,4.13716c0.01416,0.08947 0.0231,0.17473 0.02812,0.25808c0.01908,0.30417 -0.02109,0.57128 -0.11548,0.79632z" fill="#ffc592"/><path d="M226.03347,176.84831v-1.14407c0.8143,-0.38169 1.60359,-0.68195 2.30853,-0.82745c2.93725,-0.61858 13.55365,0.45891 14.09983,4.13716c0.01406,0.08937 0.0231,0.17473 0.02812,0.25808c0.01587,0.25125 -0.01105,0.47538 -0.07321,0.67331c-0.91582,-3.50663 -11.17522,-4.5308 -14.05494,-3.92437c-0.70494,0.14551 -1.49413,0.44576 -2.30833,0.82735z" fill="#eaac7d"/></g></g><path d="M247.37818,169.62494c0,0 -6.94161,-0.24409 -8.60555,-1.94332c-1.44571,-1.47639 2.23874,-4.36382 3.58257,-5.23336c1.21386,-0.78676 4.74344,-1.72437 7.99415,-1.489c2.89639,0.20972 5.57139,1.52588 6.18968,1.9819c1.51972,1.12087 1.81248,2.93027 0.96541,3.72973c-2.08388,1.96675 -10.07668,2.97531 -10.07668,2.97531" fill="none" stroke="#ffda1f" stroke-width="2" stroke-linecap="round"/></g></g></svg>