<svg version="1.1" xmlns="http://www.w3.org/2000/svg" xmlns:xlink="http://www.w3.org/1999/xlink" width="64.18955" height="108.17118" viewBox="0,0,64.18955,108.17118"><g transform="translate(-207.22161,-125.94826)"><g data-paper-data="{&quot;isPaintingLayer&quot;:true}" fill-rule="nonzero" stroke-linejoin="miter" stroke-miterlimit="10" stroke-dasharray="" stroke-dashoffset="0" style="mix-blend-mode: normal"><g><path d="M211.91243,233.30179c0,0 -2.05666,-25.06775 -2.57158,-34.39517c-0.20994,-3.80285 -0.86766,-9.14024 -0.02663,-12.84391c0.5658,-2.49164 2.41816,-3.87894 3.25092,-4.93653c1.87499,-2.38122 9.73689,-3.39201 11.11125,-2.07406c1.41536,1.35727 5.21435,7.72327 5.5482,10.26537c0.29389,2.23779 -5.46433,0.98431 -5.46433,0.98431c0,0 -3.2204,-5.55222 -3.26695,-5.58092c-2.54315,-1.56815 -6.00718,2.41802 -6.00718,2.80314c0,8.6376 3.68105,45.66665 3.68105,45.66665z" fill="#825738" stroke="#723700" stroke-width="1.5" stroke-linecap="butt"/><path d="M229.81254,181.47315c0.45767,2.16121 -0.92333,4.28423 -3.08454,4.7419c-2.16121,0.45767 -4.28423,-0.92333 -4.7419,-3.08454c-0.45767,-2.16121 0.92333,-4.28423 3.08454,-4.7419c2.16121,-0.45767 4.28423,0.92333 4.7419,3.08454z" fill="#ffce91" stroke="#723700" stroke-width="1.5" stroke-linecap="butt"/><path d="M225.34376,201.52398l6.33334,-23.99999l24.66668,0.22221l5.55556,23.88889z" fill="#c78556" stroke="#723700" stroke-width="1.5" stroke-linecap="butt"/><path d="M267.98668,155.2796c0,15.78503 -11.23675,28.58133 -25.09798,28.58133c-13.86123,0 -25.09798,-12.7963 -25.09798,-28.58133c0,-8.06115 1.14417,-15.34284 5.85817,-20.53886c4.51678,-4.97864 12.45727,-8.04248 19.23981,-8.04248c4.99006,0 13.56992,2.90884 17.47789,5.76808c6.94747,5.08307 7.62009,12.71086 7.62009,22.81327z" fill="#ffce91" stroke="#723700" stroke-width="1.5" stroke-linecap="butt"/><path d="M230.77551,140.07801c-0.97237,2.32023 -2.60888,3.84564 -3.65526,3.40712c-1.04638,-0.43853 -1.10637,-2.67493 -0.134,-4.99515c0.97238,-2.32022 2.6089,-3.84564 3.65528,-3.40712c1.04637,0.43853 1.10635,2.67494 0.13398,4.99516z" fill="#ffdaad" stroke="none" stroke-width="0" stroke-linecap="butt"/><path d="M213.60307,160.03411l3.12204,-3.8981l-6.19584,-0.9075l8.26905,-2.65294l-6.46253,-2.17988c0,0 9.75226,-2.75544 17.97086,-2.38676c1.32982,0.05965 3.07865,2.18318 3.25064,3.40294c0.17607,1.24872 -1.15873,4.07405 -2.70977,4.59292c-0.9851,0.32954 -12.75596,2.0622 -12.75596,2.0622z" fill="#dfdfdf" stroke="#723700" stroke-width="1.5" stroke-linecap="butt"/><path d="M239.30828,156.28283c-1.55104,-0.51887 -2.88584,-3.3442 -2.70977,-4.59292c0.17199,-1.21976 1.92081,-3.34328 3.25064,-3.40294c8.21859,-0.36867 17.97085,2.38676 17.97085,2.38676l-6.57263,0.30804l8.37914,4.52477l-6.19584,0.9075l3.67258,3.89809l-4.44608,-2.06771c0,0 -12.08915,-1.54019 -13.3489,-1.9616z" data-paper-data="{&quot;index&quot;:null}" fill="#dfdfdf" stroke="#723700" stroke-width="1.5" stroke-linecap="butt"/><path d="M230.89931,201.63508l4.66666,-20.22222" fill="none" stroke="#723700" stroke-width="1.5" stroke-linecap="round"/><path d="M270.66117,161.64729c-1.01718,2.51769 -3.46763,3.90181 -5.47325,3.09152c-0.61581,-0.2488 -1.11808,-0.67553 -1.48904,-1.22037l0.16424,-0.09296c1.48802,-1.59268 1.8942,-3.77026 0.76705,-5.67078c0,0 -0.17952,-0.29721 -0.49648,-0.36504c1.21087,-1.64686 3.11917,-2.42212 4.73774,-1.7682c2.00562,0.81029 2.80692,3.50815 1.78974,6.02584z" fill="#ffce91" stroke="#723700" stroke-width="1.5" stroke-linecap="butt"/><path d="M262.79231,148.28231l-1.20016,-7.41461c0,0 3.18975,-0.73594 4.18503,-0.96557c0.55193,-0.12734 1.23573,-0.55335 1.23573,-0.55335l1.30275,8.08128c0,0 -0.76753,-0.24501 -1.31016,-0.11981c-0.99271,0.22904 -4.21318,0.97206 -4.21318,0.97206z" fill="#dfdfdf" stroke="#723700" stroke-width="1.5" stroke-linecap="butt"/><path d="M259.67708,196.69066c0,-2.73074 2.2137,-4.94443 4.94444,-4.94443c2.73074,0 4.94444,2.2137 4.94444,4.94443c0,2.73074 -2.2137,4.94444 -4.94444,4.94444c-2.73074,0 -4.94444,-2.2137 -4.94444,-4.94444z" fill="#ffce91" stroke="#723700" stroke-width="1.5" stroke-linecap="butt"/><path d="M260.01043,193.30178l-3.66666,-15.22223l6.77779,-0.33334l4.55555,14.44443z" fill="#c78556" stroke="#723700" stroke-width="1.5" stroke-linecap="butt"/><path d="M217.9717,159.5043l4.73586,3.58138l7.56972,-4.17787l7.83129,3.38928l6.60348,-2.70019l5.62373,2.10902c0,0 8.36095,-3.18311 8.55199,-2.73678c0.04566,0.10667 5.95476,-1.91289 6.72827,-0.53276c1.7269,3.08118 -0.89391,10.93312 -0.89391,10.93312l-5.64819,-1.07062c0,0 5.34592,9.32711 5.17022,9.34481c-1.13828,0.11471 -6.71448,-0.22281 -6.71448,-0.22281l-5.89693,6.49945l-6.36919,-2.78623l-9.52011,6.32039l-8.63725,-7.75214l-8.09274,3.80268l1.68779,-9.61196l-9.42417,3.8577l7.52952,-10.45083l-7.33353,0.39484z" data-paper-data="{&quot;index&quot;:null}" fill="#dfdfdf" stroke="#723700" stroke-width="1.5" stroke-linecap="butt"/><path d="M232.12152,217.19068l-0.66667,-14.77777l22.22223,-0.22222c0,0 -8.978,6.11298 -8.39407,7.9437c0.97704,3.06322 -2.49482,6.94519 -2.49482,6.94519z" fill="#825738" stroke="#723700" stroke-width="1.5" stroke-linecap="butt"/><path d="M241.12153,205.07957l3.77777,3.88888" fill="none" stroke="#723700" stroke-width="1.5" stroke-linecap="round"/><path d="M246.78819,208.85735l5.44444,-6.44444l10.77778,0.11111l-1,13.88888l-10.61014,0.24177z" fill="#825738" stroke="#723700" stroke-width="1.5" stroke-linecap="butt"/><path d="M231.78819,233.19068c0,0 1.23971,-1.62721 1.25523,-2.7758c0.03716,-2.75009 -1.03302,-13.66864 -1.03302,-13.66864l11,-0.33334l0.33334,15.55556z" fill="#727272" stroke="#723700" stroke-width="1.5" stroke-linecap="butt"/><path d="M251.56597,232.74627c0,0 0.95965,-1.55352 0.92529,-2.78189c-0.07644,-2.73271 -1.36975,-13.10701 -1.36975,-13.10701l11,-0.33334l0.33334,15.55556z" fill="#727272" stroke="#723700" stroke-width="1.5" stroke-linecap="butt"/><path d="M233.01041,222.52402l9.33334,-0.55555" fill="none" stroke="#723700" stroke-width="1.5" stroke-linecap="round"/><path d="M251.45486,221.41292l10,-0.22222" fill="none" stroke="#723700" stroke-width="1.5" stroke-linecap="round"/></g></g></g></svg>