<svg version="1.1" xmlns="http://www.w3.org/2000/svg" xmlns:xlink="http://www.w3.org/1999/xlink" width="33.16507" height="22.94295" viewBox="0,0,33.16507,22.94295"><g transform="translate(-223.75334,-182.32585)"><g data-paper-data="{&quot;isPaintingLayer&quot;:true}" fill-rule="nonzero" stroke="none" stroke-width="1" stroke-linecap="butt" stroke-linejoin="miter" stroke-miterlimit="10" stroke-dasharray="" stroke-dashoffset="0" style="mix-blend-mode: normal"><path d="M254.86792,188.53483c0.63048,0.00033 1.14151,0.51136 1.14185,1.14185v6.95407c-0.00033,0.63048 -0.51136,1.14151 -1.14185,1.14185l-25.58101,0c-0.63048,-0.00033 -1.14151,-0.51136 -1.14185,-1.14185v-6.95407c0.00033,-0.63048 0.51136,-1.14151 1.14185,-1.14185z" fill="#e7004c"/><path d="M256.00977,198.52372c0,0.63013 -0.47794,1.14185 -1.06658,1.14185l-25.73154,0c-0.58864,0 -1.06658,-0.51171 -1.06658,-1.14185v-4.22817c0,-0.63013 0.47794,-1.14185 1.06658,-1.14185l25.73154,0c0.58864,0 1.06658,0.51171 1.06658,1.14185z" fill="#d0003f"/><path d="M232.68823,197.77258l0,-9.23776h3.63452l0,9.23776zM248.55248,197.77258v-9.23776h3.63452v9.23776z" fill="#2e436c"/><path d="M228.37222,185.2789c2.54917,0 4.61888,2.06971 4.61888,4.61888c0,2.54917 -2.06971,4.61888 -4.61888,4.61888c-2.54917,0 -4.61888,-2.06971 -4.61888,-4.61888c0,-2.54917 2.06971,-4.61888 4.61888,-4.61888zM228.37222,193.16326c1.80227,0 3.26547,-1.4632 3.26547,-3.26547c0,-1.80227 -1.4632,-3.26547 -3.26547,-3.26547c-1.80227,0 -3.26547,1.4632 -3.26547,3.26547c0,1.80227 1.4632,3.26547 3.26547,3.26547z" fill="#2d456d"/><path d="M225.10675,189.89777c-0.00079,0.60194 0.16562,1.19228 0.48066,1.7052c-0.34846,0.16885 -0.73963,0.2635 -1.1526,0.2635c-0.08329,0 -0.16552,-0.00379 -0.24684,-0.01136c-0.2788,-0.59439 -0.43463,-1.25785 -0.43463,-1.95735c0,-1.26664 0.51096,-2.41484 1.33781,-3.24957c0.46721,0.11962 0.89287,0.36458 1.23105,0.70843c-0.74114,0.59879 -1.21544,1.51499 -1.21544,2.54114z" fill="#ffce71"/><path d="M223.75335,197.46971c0,-2.54917 2.06971,-4.61888 4.61888,-4.61888c2.54917,0 4.61888,2.06971 4.61888,4.61888c0,2.54917 -2.06971,4.61888 -4.61888,4.61888c-2.54917,0 -4.61888,-2.06971 -4.61888,-4.61888zM225.10675,197.46971c0,1.80227 1.4632,3.26547 3.26547,3.26547c1.80227,0 3.26547,-1.4632 3.26547,-3.26547c0,-1.80227 -1.4632,-3.26547 -3.26547,-3.26547c-1.80227,0 -3.26547,1.4632 -3.26547,3.26547z" fill="#ffba5a"/><path d="M226.3222,200.01084c-0.33817,0.34386 -0.76383,0.58881 -1.23105,0.70843c-0.82686,-0.83473 -1.33781,-1.98294 -1.33781,-3.24957c0,-0.6995 0.15583,-1.36295 0.43463,-1.95735c0.08132,-0.00757 0.16356,-0.01136 0.24684,-0.01136c0.41297,0 0.80414,0.09465 1.1526,0.2635c-0.31505,0.51292 -0.48145,1.10325 -0.48066,1.7052c0,1.02615 0.47431,1.94235 1.21544,2.54114z" fill="#ffce71"/><path d="M254.86792,182.32585c0.63048,0.00033 1.14151,0.51136 1.14185,1.14185v6.95407c-0.00033,0.63048 -0.51136,1.14151 -1.14185,1.14185h-25.58101c-0.63048,-0.00033 -1.14151,-0.51136 -1.14185,-1.14185v-6.95407c0.00033,-0.63048 0.51136,-1.14151 1.14185,-1.14185z" fill="#e7004c"/><path d="M256.00977,192.31474c0,0.63013 -0.47794,1.14185 -1.06658,1.14185l-25.73154,0c-0.58864,0 -1.06658,-0.51171 -1.06658,-1.14185v-4.22817c0,-0.63013 0.47794,-1.14185 1.06658,-1.14185h25.73154c0.58864,0 1.06658,0.51171 1.06658,1.14185z" fill="#d0003f"/><path d="M232.68823,191.56361l0,-9.23776h3.63452l0,9.23776zM248.55248,191.56361v-9.23776l3.63452,0l0,9.23776z" fill="#2e436c"/><path d="M229.28691,205.2688c-0.63048,-0.00033 -1.14151,-0.51136 -1.14185,-1.14185v-6.95407c0.00033,-0.63048 0.51136,-1.14151 1.14185,-1.14185h25.58101c0.63048,0.00033 1.14151,0.51136 1.14185,1.14185l0,6.95407c-0.00033,0.63048 -0.51136,1.14151 -1.14185,1.14185z" fill="#eb004b"/><path d="M256.00977,199.50807c0,0.63013 -0.47794,1.14185 -1.06658,1.14185h-25.73154c-0.58864,0 -1.06658,-0.51171 -1.06658,-1.14185v-4.22817c0,-0.63013 0.47794,-1.14185 1.06658,-1.14185l25.73154,0c0.58864,0 1.06658,0.51171 1.06658,1.14185z" fill="#d0003f"/><path d="M232.68823,205.2688l0,-9.23776l3.63452,0v9.23776zM248.55248,205.2688v-9.23776l3.63452,0v9.23776z" fill="#2e436c"/><path d="M255.77656,188.98915c0.63048,0.00033 1.14151,0.51136 1.14185,1.14185l0,6.95407c-0.00033,0.63048 -0.51136,1.14151 -1.14185,1.14185h-27.54971c-0.63048,-0.00033 -1.14151,-0.51136 -1.14185,-1.14185v-6.95407c0.00033,-0.63048 0.51136,-1.14151 1.14185,-1.14185z" fill="#fb174c"/><path d="M256.9184,197.08507c-0.00033,0.63048 -0.51136,1.14151 -1.14185,1.14185h-27.54971c-0.63048,-0.00033 -1.14151,-0.51136 -1.14185,-1.14185l0,-4.22817c0.00033,-0.63048 0.51136,-1.14151 1.14185,-1.14185l27.54971,0c0.63048,0.00033 1.14151,0.51136 1.14185,1.14185z" fill="#ff4363"/><path d="M232.68823,198.2269v-9.23776h3.63452v9.23776zM248.55248,198.2269v-9.23776l3.63452,0v9.23776z" fill="#2e436c"/></g></g></svg>