<svg version="1.1" xmlns="http://www.w3.org/2000/svg" xmlns:xlink="http://www.w3.org/1999/xlink" width="38.84574" height="33.90117" viewBox="0,0,38.84574,33.90117"><defs><radialGradient cx="240.23955" cy="192.28306" r="18.34412" gradientUnits="userSpaceOnUse" id="color-1"><stop offset="0" stop-color="#ffd587"/><stop offset="1" stop-color="#d98b4f"/></radialGradient></defs><g transform="translate(-220.57713,-178.25566)"><g data-paper-data="{&quot;isPaintingLayer&quot;:true}" fill-rule="nonzero" stroke-linejoin="miter" stroke-miterlimit="10" stroke-dasharray="" stroke-dashoffset="0" style="mix-blend-mode: normal"><path d="M233.95516,186.42713c0,0 -0.52679,-1.84651 -0.19873,-2.79022c0.38556,-1.10915 2.36762,-3.44883 2.36762,-3.44883" fill="none" stroke="#ffc87b" stroke-width="1.5" stroke-linecap="round"/><path d="M234.32035,179.97441c0,-0.94924 0.76951,-1.71875 1.71875,-1.71875c0.94924,0 1.71875,0.76951 1.71875,1.71875c0,0.94924 -0.76951,1.71875 -1.71875,1.71875c-0.94924,0 -1.71875,-0.76951 -1.71875,-1.71875z" fill="#ff0000" stroke="none" stroke-width="0" stroke-linecap="butt"/><path d="M227.46359,205.2743l1.76829,-1.03659" fill="none" stroke="#a86941" stroke-width="1.5" stroke-linecap="round"/><path d="M233.86603,208.87186l1.76829,-1.03659" fill="none" stroke="#a86941" stroke-width="1.5" stroke-linecap="round"/><path d="M257.9848,192.46436l-0.00542,9.10244l-17.41491,10.12041l0.00542,-9.10244z" fill="#ffd587" stroke="none" stroke-width="1" stroke-linecap="butt"/><path d="M239.48412,202.48079l-0.00544,9.16179l-17.53037,-10.12118l0.00543,-9.16179z" fill="#ffd587" stroke="none" stroke-width="1" stroke-linecap="butt"/><path d="M258.05445,191.8012c0.34095,0.19681 0.34325,0.51605 0.00387,0.71364l-17.41491,10.12041c-0.34015,0.19759 -0.89109,0.19759 -1.2328,0.00077l-17.53037,-10.12118c-0.34095,-0.19681 -0.34325,-0.51605 -0.0031,-0.71364c0,0 2.66016,-1.72845 4.74913,-2.94242c0.86365,-0.5019 2.48466,-1.64252 3.97853,-2.42551c0.94404,-0.4948 1.5083,-1.20158 2.4112,-1.74613c1.53549,-0.92606 2.67363,-1.01627 3.88084,-1.54436c1.14146,-0.49933 2.3952,-1.462 2.3952,-1.462c0.33939,-0.19681 0.89031,-0.19681 1.23124,0c0,0 2.79161,0.66351 4.06162,1.95989c0.89934,0.91802 1.96751,1.84018 3.82579,2.98082c1.72212,1.05706 1.51024,1.07303 3.1869,1.77335c2.27489,0.9502 6.45686,3.40634 6.45686,3.40634z" fill="url(#color-1)" stroke="none" stroke-width="0.5" stroke-linecap="butt"/><path d="M240.56989,202.67672l-0.00542,8.91962c-0.05811,0.03409 -0.1232,0.06199 -0.19216,0.08445l0.00544,-8.91962c0.06897,-0.02247 0.13327,-0.05035 0.19215,-0.08445M240.37775,202.76116l-0.00544,8.91962c-0.05269,0.01704 -0.10848,0.03099 -0.16504,0.04106l0.00542,-8.91962c0.05656,-0.01008 0.11235,-0.02402 0.16505,-0.04106" fill="#ffd587" stroke="none" stroke-width="1" stroke-linecap="butt"/><path d="M240.21267,202.80225l-0.00542,8.91962c-0.03695,0.0068 -0.07418,0.01196 -0.11158,0.0155l0.00543,-8.91962c0.03797,-0.00388 0.07517,-0.00852 0.11158,-0.01551M240.1011,202.81773l-0.00543,8.91962c-0.0322,0.00325 -0.0645,0.00531 -0.09686,0.0062l0.00542,-8.91962c0.03235,-0.00088 0.06466,-0.00293 0.09686,-0.00618" fill="#ffd587" stroke="none" stroke-width="1" stroke-linecap="butt"/><path d="M240.00502,202.82393l-0.00542,8.91962l-0.08911,0.00078l0.00542,-8.91962c0.02944,0.00077 0.0589,0.00077 0.08911,-0.00078" fill="#c3965c" stroke="none" stroke-width="1" stroke-linecap="butt"/><path d="M239.91589,202.82471l-0.00542,8.91963c-0.02871,-0.00078 -0.05739,-0.00232 -0.08602,-0.00466l0.00542,-8.91962l0.08601,0.00465" fill="#c3965c" stroke="none" stroke-width="1" stroke-linecap="butt"/><path d="M239.74545,202.81076l-0.00542,8.91962c-0.02882,-0.00403 -0.0575,-0.00893 -0.08601,-0.01472l0.00542,-8.91962l0.08602,0.01473M239.65943,202.79528l-0.00542,8.91962c-0.03052,-0.0062 -0.06076,-0.01371 -0.09065,-0.02247l0.00542,-8.91963c0.02944,0.00931 0.05967,0.01627 0.09066,0.02247" fill="#c3965c" stroke="none" stroke-width="1" stroke-linecap="butt"/><path d="M239.56878,202.77356l-0.00542,8.91962c-0.03569,-0.01013 -0.07086,-0.02203 -0.10538,-0.03564l0.00542,-8.91963c0.03332,0.01317 0.06897,0.0248 0.10538,0.03564M239.46262,202.73794l-0.00542,8.91963c-0.04328,-0.01701 -0.08524,-0.03721 -0.12553,-0.06044l0.00543,-8.91962c0.03952,0.02247 0.08136,0.04261 0.12552,0.06043" fill="#c3965c" stroke="none" stroke-width="1" stroke-linecap="butt"/><path d="M222.00281,201.68969c0,0 -0.67568,-3.29025 -0.67568,-4.7813c0,-1.4662 0.67568,-4.09169 0.67568,-4.09169l17.82708,10.00336c0,0 -0.06182,8.31077 -0.08988,8.30686l0.00542,-8.31617c0.0279,0.00388 0.05579,0.00697 0.08445,0.0093l18.16731,-10.05548c0,0 0.67568,3.03404 0.67568,4.41408c0,1.3776 -0.67568,3.85885 -0.67568,3.85885" fill="none" stroke="#ffd19e" stroke-width="1.5" stroke-linecap="round"/><path d="M257.74159,201.2022c0,0 -4.5947,2.62209 -8.37384,5.0423c-2.13583,1.36782 -3.63896,2.72432 -4.82395,3.37528c-1.79927,0.98841 -4.88176,1.51424 -4.88176,1.51424" fill="none" stroke="#ffd19e" stroke-width="1.5" stroke-linecap="round"/><path d="M235.17394,184.90877l17.6,10.2v8.8186" fill="none" stroke="#a86941" stroke-width="1.5" stroke-linecap="round"/><path d="M228.54604,188.86225l17.6,10.2v8.8186" fill="none" stroke="#a86941" stroke-width="1.5" stroke-linecap="round"/><path d="M239.9234,211.40674c0,0 -1.68606,0.03321 -3.85891,-1.14768c-1.91561,-1.04109 -4.19218,-3.23466 -6.27125,-4.2756c-2.03122,-1.01699 -3.6141,-1.39636 -4.59586,-1.93568c-1.42758,-0.78423 -3.35353,-2.57285 -3.35353,-2.57285" data-paper-data="{&quot;index&quot;:null}" fill="none" stroke="#ffd19e" stroke-width="1.5" stroke-linecap="round"/><path d="M227.26696,205.20218v-9.97714l17.6,-10.2" data-paper-data="{&quot;index&quot;:null}" fill="none" stroke="#a86941" stroke-width="1.5" stroke-linecap="round"/><path d="M233.89487,208.78982v-9.61129l17.6,-10.2" data-paper-data="{&quot;index&quot;:null}" fill="none" stroke="#a86941" stroke-width="1.5" stroke-linecap="round"/></g></g></svg>