<svg viewBox="0,0,30.34924,33.13554" height="33.13554" width="30.34924" xmlns:xlink="http://www.w3.org/1999/xlink" xmlns="http://www.w3.org/2000/svg" version="1.1"><g transform="translate(-224.82537,-162.74637)"><g style="mix-blend-mode: normal" stroke-dashoffset="0" stroke-dasharray="" stroke-miterlimit="10" stroke-linejoin="miter" stroke-linecap="butt" stroke="none" fill-rule="nonzero" data-paper-data="{&quot;isPaintingLayer&quot;:true}"><g><path stroke-width="1" fill="#dfded0" d="M252.34546,169.30489c1.37172,0.7716 2.48623,2.74343 2.48623,4.28662v11.31667c0,1.54318 -1.11453,3.51503 -2.48623,4.28662l-9.85921,5.65833c-1.37172,0.7716 -3.60076,0.7716 -4.97247,0l-9.85921,-5.65833c-1.37172,-0.7716 -2.48623,-2.74343 -2.48623,-4.28662v-11.31667c0,-1.54318 1.11453,-3.51503 2.48623,-4.28662l9.85921,-5.65833c1.37172,-0.7716 3.60076,-0.7716 4.97247,0c0,0 9.77349,5.65833 9.85921,5.65833z"></path><path stroke-width="1" fill="#dfded0" d="M240,195.88191c-1.02879,0 -1.97185,-0.25719 -2.65771,-0.60012l-9.85921,-5.65833c-1.45744,-0.85732 -2.65771,-2.9149 -2.65771,-4.62955v-11.31667c0,-1.71465 1.20025,-3.77222 2.65771,-4.62955l9.85921,-5.65833c1.45744,-0.85732 3.85796,-0.85732 5.3154,0l9.85921,5.65833c1.45744,0.85732 2.65771,2.9149 2.65771,4.62955v11.31667c0,1.71465 -1.20025,3.77222 -2.65771,4.62955l-9.85921,5.65833c-0.68586,0.42867 -1.71465,0.60012 -2.65771,0.60012zM240,163.38936c-0.85732,0 -1.71465,0.17146 -2.31478,0.51439l-9.85921,5.65833c-1.28599,0.68586 -2.31478,2.57197 -2.31478,4.02941v11.31667c0,1.45744 1.02879,3.25783 2.31478,4.02941l9.85921,5.65833c1.20025,0.68586 3.42929,0.68586 4.62955,0l9.85921,-5.65833c1.28599,-0.68586 2.31478,-2.57197 2.31478,-4.02941v-11.31667c0,-1.45744 -1.02879,-3.25783 -2.31478,-4.02941l-9.85921,-5.65833c-0.60012,-0.34293 -1.45744,-0.51439 -2.31478,-0.51439z"></path><path stroke-width="1" fill="#ffffff" d="M240,177.70666c-0.7716,0 -1.54318,-0.17146 -2.1433,-0.51439l-9.85921,-5.65833c-0.42867,-0.25719 -0.68586,-0.51439 -0.68586,-0.7716c0,-0.25719 0.25719,-0.60012 0.68586,-0.7716l9.85921,-5.65833c0.51439,-0.34293 1.28599,-0.51439 2.1433,-0.51439c0.85732,0 1.54318,0.17146 2.1433,0.51439l9.85921,5.65833c0.42867,0.25719 0.68586,0.51439 0.68586,0.7716c0,0.25719 -0.25719,0.60012 -0.68586,0.7716l-9.85921,5.65833c-0.60012,0.34293 -1.37172,0.51439 -2.1433,0.51439zM238.45682,194.59593c-0.25719,0 -0.51439,-0.08574 -0.7716,-0.25719l-9.85921,-5.65833c-1.11453,-0.68586 -2.1433,-2.31478 -2.1433,-3.6865v-11.31667c0,-0.34293 0.08574,-1.02879 0.68586,-1.02879c0.25719,0 0.51439,0.08574 0.7716,0.25719l9.85921,5.65833c1.11453,0.68586 2.1433,2.31478 2.1433,3.6865v11.23094c0,0.34293 -0.08574,0.68586 -0.25719,0.85732c-0.08574,0.17146 -0.17146,0.25719 -0.42867,0.25719zM241.37172,194.59593c-0.60012,0 -0.68586,-0.7716 -0.68586,-1.02879v-11.31667c0,-1.37172 0.94305,-3.00064 2.1433,-3.6865l9.85921,-5.65833c0.25719,-0.17146 0.51439,-0.25719 0.7716,-0.25719c0.60012,0 0.68586,0.7716 0.68586,1.02879v11.31667c0,1.37172 -0.94305,3.00064 -2.1433,3.6865l-9.85921,5.65833c-0.34293,0.17146 -0.60012,0.25719 -0.7716,0.25719z"></path><path stroke-width="0" fill="#3d3d3d" data-paper-data="{&quot;index&quot;:null}" d="M233.75327,168.83273c0.69371,0 1.25608,0.65307 1.25608,1.45867c0,0.8056 -0.56236,1.45867 -1.25608,1.45867c-0.69371,0 -1.25608,-0.65307 -1.25608,-1.45867c0,-0.8056 0.56236,-1.45867 1.25608,-1.45867z"></path><path stroke-width="0" fill="#3d3d3d" data-paper-data="{&quot;index&quot;:null}" d="M246.52474,168.78411c0.69371,0 1.25608,0.65307 1.25608,1.45867c0,0.8056 -0.56236,1.45867 -1.25608,1.45867c-0.69371,0 -1.25608,-0.65307 -1.25608,-1.45867c0,-0.8056 0.56236,-1.45867 1.25608,-1.45867z"></path><path stroke-width="0" fill="#3d3d3d" data-paper-data="{&quot;index&quot;:null}" d="M240.09849,175.93971c-0.69371,0 -1.25607,-0.65307 -1.25608,-1.45867c0,-0.8056 0.56236,-1.45867 1.25608,-1.45867c0.69371,0 1.25608,0.65307 1.25608,1.45867c0,0.8056 -0.56236,1.45867 -1.25608,1.45867z"></path><path stroke-width="0" fill="#3d3d3d" data-paper-data="{&quot;index&quot;:null}" d="M239.96882,167.78735c-0.69371,0 -1.25607,-0.65307 -1.25607,-1.45867c0,-0.8056 0.56236,-1.45867 1.25608,-1.45867c0.69371,0 1.25608,0.65307 1.25608,1.45867c0,0.8056 -0.56236,1.45867 -1.25608,1.45867z"></path><path stroke-width="0" fill="#c30d23" d="M249.15035,183.89757c0,0.8056 -0.56237,1.45867 -1.25608,1.45867c-0.69371,0 -1.25608,-0.65307 -1.25608,-1.45867c0,-0.8056 0.56237,-1.45867 1.25608,-1.45867c0.69371,0 1.25608,0.65307 1.25608,1.45867z"></path><path stroke-width="0" fill="#3d3d3d" data-paper-data="{&quot;index&quot;:null}" d="M239.86348,171.81491c-0.69371,0 -1.25607,-0.65307 -1.25607,-1.45867c0,-0.8056 0.56236,-1.45867 1.25608,-1.45867c0.69371,0 1.25608,0.65307 1.25608,1.45867c0,0.8056 -0.56236,1.45867 -1.25608,1.45867z"></path><path stroke-width="0" fill="#3d3d3d" d="M236.56526,181.11799c0,0.8056 -0.56236,1.45867 -1.25608,1.45867c-0.69371,0 -1.25607,-0.65307 -1.25607,-1.45867c0,-0.8056 0.56236,-1.45867 1.25607,-1.45867c0.69371,0 1.25608,0.65307 1.25608,1.45867z"></path><path stroke-width="0" fill="#3d3d3d" d="M233.13738,183.60583c0,0.8056 -0.56236,1.45867 -1.25608,1.45867c-0.69371,0 -1.25608,-0.65307 -1.25608,-1.45867c0,-0.8056 0.56236,-1.45867 1.25608,-1.45867c0.69371,0 1.25608,0.65307 1.25608,1.45867z"></path><path stroke-width="0" fill="#3d3d3d" d="M230.03366,186.09367c0,0.8056 -0.56236,1.45867 -1.25608,1.45867c-0.69371,0 -1.25608,-0.65307 -1.25608,-1.45867c0,-0.8056 0.56236,-1.45867 1.25608,-1.45867c0.69371,0 1.25608,0.65307 1.25608,1.45867z"></path></g></g></g></svg>