<svg version="1.1" xmlns="http://www.w3.org/2000/svg" xmlns:xlink="http://www.w3.org/1999/xlink" width="162.42841" height="91.99458" viewBox="0,0,162.42841,91.99458"><g transform="translate(-158.78579,-134.00271)"><g data-paper-data="{&quot;isPaintingLayer&quot;:true}" fill-rule="nonzero" stroke="none" stroke-width="1" stroke-linecap="butt" stroke-linejoin="miter" stroke-miterlimit="10" stroke-dasharray="" stroke-dashoffset="0" style="mix-blend-mode: normal"><g><path d="M284.76465,140.98734l-12.39721,-0.22297c0.71351,-8.99318 11.95126,-9.11209 12.39721,0.22297z" fill="#dc1d4a"/><path d="M268.36882,141.49274c-1.15945,1.08959 -1.69012,2.47647 -1.59053,4.16213c0.47567,8.00616 0.59905,16.02866 0.37162,24.06604c-0.0327,1.07026 -0.93202,1.92499 -2.03647,1.93242l-6.03509,0.05946l-0.68378,-0.05946c-0.26757,-4.89645 -0.53067,-9.79141 -0.78783,-14.68638c-0.17838,-3.09187 -1.5608,-5.38104 -4.84591,-5.32158l4.04321,-0.10405c0.44594,-0.02081 0.81607,-0.34189 0.89189,-0.77297c0.495,-2.84511 0.43108,-5.7378 -0.19324,-8.68102c-0.08273,-0.43293 -0.45159,-0.75261 -0.89189,-0.77297l-7.92291,-0.13378c-0.45549,-0.00098 -0.85884,0.294 -0.99594,0.72837c-1.15945,3.36835 -0.9558,6.61482 0.60945,9.73641c0.43554,0.63324 0.55,1.27242 0.34189,1.91755c-0.11446,0.35675 -0.55297,0.58567 -1.0554,0.55l-11.07424,-0.71351c-0.42696,-0.0226 -0.80289,-0.28864 -0.96621,-0.68378c-0.26757,-0.65405 -0.5604,-0.91716 -0.87702,-0.78783c1.53553,-3.00268 2.01715,-6.21347 1.44188,-9.63236c-0.07432,-0.495 -0.44148,-0.86216 -0.86216,-0.86216l-8.47291,-0.01486c-0.43108,0 -0.8131,0.36121 -0.90675,0.86216c-0.65405,3.23011 -0.48608,6.35171 0.5054,9.3648l-1.2635,20.08228c-12.70936,0.22297 -60.49955,-1.08513 -62.7144,1.04053v5.9459c-0.23784,1.15945 -0.10405,2.19404 0.40135,3.10673c0.20067,0.36567 0.64364,0.59905 1.15945,0.60945l60.93063,0.31216c0.76256,5.91617 0.88743,11.86207 0.37162,17.83771l-17.74852,0.01486c-0.46311,-0.01239 -0.88599,-0.26612 -1.11486,-0.66891c-8.45805,-14.13638 -27.58898,-14.49314 -35.85379,-0.04459c-0.24824,0.43108 -0.66891,0.69716 -1.09999,0.69864h-5.12834c1.11932,-0.08919 1.90715,-0.59013 2.3635,-1.50134c0.14419,-0.29581 0.01486,-0.75662 -0.32702,-1.15945c-0.33743,-0.40729 -0.31216,-0.84729 0.07432,-1.32296c0.0907,-0.11549 0.12156,-0.26702 0.08324,-0.40878c-0.03518,-0.13224 -0.14235,-0.23307 -0.27648,-0.26013c-1.24864,-0.22297 -3.15133,0.17838 -4.177,-0.13378c-1.70499,-0.53513 -1.32296,-0.79824 1.14459,-0.78783l5.21753,-0.16351c0.41621,-0.01189 0.77743,-0.38648 0.86216,-0.89189c0.47567,-2.81538 0.42067,-5.58915 -0.16351,-8.32426c-0.09811,-0.47419 -0.46973,-0.82202 -0.90675,-0.84729l-3.52295,-0.17838l-2.66079,-0.68378l0.38648,-46.85371c0.00391,-0.27598 0.11731,-0.53909 0.31525,-0.73145c0.19793,-0.19236 0.46418,-0.29819 0.74015,-0.29422l101.11006,-0.53513c0.44594,0 0.85918,0.25865 1.07026,0.66891zM208.16657,155.49534c0,-6.90425 -5.597,-12.50126 -12.50126,-12.50126c-6.90425,0 -12.50126,5.597 -12.50126,12.50126c0,6.90425 5.597,12.50126 12.50126,12.50126c6.90425,0 12.50126,-5.597 12.50126,-12.50126z" fill="#e2f0fa"/><path d="M272.36744,140.76437l12.39721,0.22297c4.11308,-0.71351 7.08603,0.7031 8.91885,4.25132c3.28957,6.36211 6.68914,12.65882 10.19722,18.8931c0.22675,0.4002 0.62886,0.67011 1.08513,0.72837l10.53911,1.5162c0.48756,0.07432 0.90378,0.34932 1.12972,0.74324c0.79229,1.43594 0.91121,2.94768 0.35675,4.53375l-57.91308,0.05946l6.03509,-0.05946c1.10445,-0.00743 2.00377,-0.86216 2.03647,-1.93242c0.22743,-8.03737 0.10405,-16.05988 -0.37162,-24.06604c-0.09959,-1.68566 0.43108,-3.07254 1.59053,-4.16213c1.77337,0.32702 3.10673,0.08324 3.99862,-0.72837zM286.96463,148.52377l-15.28097,0.23784c-0.32628,0.00513 -0.63559,0.14632 -0.85324,0.38946c-0.22549,0.25189 -0.34574,0.58071 -0.33594,0.91864l0.53513,16.84177c0.02378,0.57229 0.47567,1.02567 1.02567,1.02567l23.73901,-0.02973c0.28243,0 0.54702,-0.1427 0.69864,-0.37905c0.15108,-0.23419 0.16802,-0.53053 0.04459,-0.7804l-8.39859,-17.49582c-0.21519,-0.45166 -0.67407,-0.73629 -1.17432,-0.72837z" fill="#c8d9e5"/><path d="M234.67042,151.9278l-8.29453,-0.28243c-0.99148,-3.01309 -1.15945,-6.13468 -0.5054,-9.3648c0.09365,-0.50094 0.47567,-0.86216 0.90675,-0.86216l8.47291,0.01486c0.42067,0 0.78783,0.36716 0.86216,0.86216c0.57527,3.41889 0.09365,6.62968 -1.44188,9.63236zM252.76083,151.64537h-4.45943c-1.56526,-3.1216 -1.76891,-6.36806 -0.60945,-9.73641c0.1371,-0.43437 0.54045,-0.72935 0.99594,-0.72837l7.92291,0.13378c0.44029,0.02036 0.80915,0.34004 0.89189,0.77297c0.62432,2.94322 0.68824,5.8359 0.19324,8.68102c-0.0797,0.43467 -0.4503,0.75586 -0.89189,0.77297z" fill="#dc1d4a"/><path d="M226.37589,151.64537l8.29453,0.28243c0.31662,-0.12932 0.60945,0.13378 0.87702,0.78783c0.16332,0.39513 0.53925,0.66118 0.96621,0.68378l11.07424,0.71351c0.50243,0.03568 0.94094,-0.19324 1.0554,-0.55c0.20811,-0.64513 0.09365,-1.28431 -0.34189,-1.91755h4.45943c3.28511,-0.05946 4.66753,2.22971 4.84591,5.32158c0.25716,4.89496 0.52027,9.78993 0.78783,14.68638l-0.37162,10.77695l-0.69864,18.17959l-32.06328,-0.02973c0.51581,-5.97563 0.39094,-11.92153 -0.37162,-17.83771l0.22297,-11.01478zM249.01045,160.808c-0.00236,-0.44155 -0.18003,-0.86407 -0.49392,-1.17462c-0.31389,-0.31055 -0.7383,-0.48368 -1.17985,-0.48131l-11.14857,0.05946c-0.91889,0.00491 -1.66005,0.75339 -1.65593,1.67228l0.03865,7.28373c0.00236,0.44155 0.18003,0.86407 0.49392,1.17462c0.31389,0.31055 0.7383,0.48368 1.17985,0.48131l11.14857,-0.05797c0.44155,-0.00236 0.86407,-0.18003 1.17462,-0.49392c0.31055,-0.31389 0.48368,-0.7383 0.48131,-1.17985z" fill="#c8d9e5"/><path d="M225.11239,171.72765l-0.22297,11.01478l-60.93063,-0.31216c-0.51581,-0.01041 -0.95878,-0.24378 -1.15945,-0.60945c-0.5054,-0.9127 -0.63918,-1.94728 -0.40135,-3.10673c0.69418,-1.99188 0.69418,-3.97484 0,-5.9459c2.21485,-2.12566 50.00503,-0.81756 62.7144,-1.04053zM258.39457,171.65333l0.68378,0.05946l57.91308,-0.05946l0.37162,10.77695l-5.88644,0.43108c-14.77341,-0.59363 -29.56323,-0.66304 -44.34156,-0.20811l-9.11209,-0.22297z" fill="#dc1d4a"/><path d="M162.39799,172.76819c0.69418,1.97107 0.69418,3.95402 0,5.9459z" fill="#f7c2a1"/><path d="M258.02295,182.43028l9.11209,0.22297l0.11892,17.92689l-9.92966,0.02973z" fill="#e2f0fa"/><path d="M311.47661,182.86135l-1.50134,8.88912c-0.42662,2.5166 0.69418,3.517 3.35943,3.00268c1.02121,-0.19919 2.38282,0.2973 4.08781,1.48648v4.34051l-6.76346,-0.10405c-0.4281,0 -0.86662,-0.25419 -1.17432,-0.68378c-9.8702,-13.72017 -26.20656,-14.86475 -35.91325,0.19324c-0.25366,0.39528 -0.68979,0.63571 -1.15945,0.63918l-5.15807,-0.04459l-0.11892,-17.92689c14.77833,-0.45493 29.56815,-0.38552 44.34156,0.20811z" fill="#c8d9e5"/><path d="M317.36305,182.43028c3.60768,3.11119 4.67199,6.93143 3.19592,11.46073c-0.12486,0.3627 -0.45486,0.7254 -0.92161,1.0108l-2.21485,1.33783c-1.70499,-1.18918 -3.0666,-1.68566 -4.08781,-1.48648c-2.66525,0.51432 -3.78605,-0.48608 -3.35943,-3.00268l1.50134,-8.88912z" fill="#e2f0fa"/><path d="M162.02637,183.91675l2.66079,0.68378l-5.88644,1.17432c0.45635,-1.53702 1.53107,-2.15539 3.22565,-1.85809z" fill="#d7815b"/><path d="M164.68716,184.60053l3.52295,0.17838c0.43702,0.02527 0.80864,0.37311 0.90675,0.84729c0.58418,2.73511 0.63918,5.50888 0.16351,8.32426c-0.08473,0.5054 -0.44594,0.87999 -0.86216,0.89189l-5.21753,0.16351l-3.50808,-0.68378c-0.43405,-0.0877 -0.75067,-0.51432 -0.7581,-1.02567l-0.13378,-7.52157z" fill="#dc1d4a"/><path d="M225.26103,200.58014l32.06328,0.02973l9.92966,-0.02973l5.15807,0.04459c0.46966,-0.00347 0.90579,-0.2439 1.15945,-0.63918c9.70668,-15.058 26.04305,-13.91341 35.91325,-0.19324c0.3077,0.42959 0.74621,0.68378 1.17432,0.68378l6.76346,0.10405c0.75449,-0.08997 1.51949,-0.01905 2.24458,0.20811c0.43554,0.12784 0.78337,0.49797 0.92161,0.98107c0.87284,2.85965 0.83127,5.92045 -0.11892,8.75534c-0.15013,0.45783 -0.54851,0.76553 -0.98107,0.7581l-12.38234,-0.16351c-4.4297,-20.7512 -28.31736,-19.27959 -30.93355,-0.01486c-24.14036,0.54405 -48.27626,0.52473 -72.40622,-0.05946c-2.89863,-20.15661 -27.87141,-19.60661 -30.59166,0c-4.42816,0.54502 -8.90675,0.54003 -13.33368,-0.01486c-0.46081,-0.05054 -0.81756,-0.40432 -0.83243,-0.83243l-0.22297,-8.35399c-0.00527,-0.45816 0.34586,-0.84181 0.8027,-0.87702l4.72699,-0.38648h5.12834c0.43108,-0.00149 0.85175,-0.26757 1.09999,-0.69864c8.2648,-14.44854 27.39574,-14.09179 35.85379,0.04459c0.22887,0.40279 0.65175,0.65652 1.11486,0.66891z" fill="#4f687d"/><path d="M203.7666,211.04493c-2.12566,19.82958 -28.27276,19.91877 -30.59166,0c2.72025,-19.60661 27.69304,-20.15661 30.59166,0zM196.02206,211.03006c0,-4.16226 -3.37417,-7.53643 -7.53643,-7.53643c-4.16226,0 -7.53643,3.37417 -7.53643,7.53643c0,4.16226 3.37417,7.53643 7.53643,7.53643c4.16226,0 7.53643,-3.37417 7.53643,-7.53643zM307.10637,211.11925c-4.66753,20.30525 -28.37682,19.36878 -30.93355,-0.01486c2.6162,-19.26472 26.50386,-20.73633 30.93355,0.01486zM299.09427,211.03006c0,-4.16226 -3.37417,-7.53643 -7.53643,-7.53643c-4.16226,0 -7.53643,3.37417 -7.53643,7.53643c0,4.16226 3.37417,7.53643 7.53643,7.53643c4.16226,0 7.53643,-3.37417 7.53643,-7.53643z" fill="#3a4c5d"/><path d="M208.16657,155.49534c0,6.90425 -5.597,12.50126 -12.50126,12.50126c-6.90425,0 -12.50126,-5.597 -12.50126,-12.50126c0,-6.90425 5.597,-12.50126 12.50126,-12.50126c6.90425,0 12.50126,5.597 12.50126,12.50126zM198.43015,153.71157c-0.47089,-0.08749 -0.84147,-0.45218 -0.93648,-0.92161l-0.68378,-3.41889c-0.11225,-0.54945 -0.59734,-0.94285 -1.15813,-0.93923c-0.56079,0.00362 -1.04076,0.40325 -1.14591,0.9541l-0.63918,3.41889c-0.08749,0.47089 -0.45218,0.84147 -0.92161,0.93648l-3.41889,0.68378c-0.54945,0.11225 -0.94285,0.59734 -0.93923,1.15813c0.00362,0.56079 0.40325,1.04076 0.9541,1.14591l3.41889,0.63918c0.47089,0.08749 0.84147,0.45218 0.93648,0.92161l0.68378,3.41889c0.11225,0.54945 0.59734,0.94285 1.15813,0.93923c0.56079,-0.00362 1.04076,-0.40325 1.14591,-0.9541l0.63918,-3.41889c0.08749,-0.47089 0.45218,-0.84147 0.92161,-0.93648l3.41889,-0.68378c0.54945,-0.11225 0.94285,-0.59734 0.93923,-1.15813c-0.00362,-0.56079 -0.40325,-1.04076 -0.9541,-1.14591z" fill="#dc1d4a"/><path d="M286.96463,148.52377c0.50024,-0.00792 0.95913,0.27671 1.17432,0.72837l8.39859,17.49582c0.12342,0.24987 0.10649,0.54621 -0.04459,0.7804c-0.15304,0.23718 -0.41637,0.38005 -0.69864,0.37905l-23.73901,0.02973c-0.56117,-0.01258 -1.01309,-0.4645 -1.02567,-1.02567l-0.53513,-16.84177c-0.00979,-0.33794 0.11045,-0.66675 0.33594,-0.91864c0.21765,-0.24314 0.52695,-0.38432 0.85324,-0.38946z" fill="#3a4c5d"/><path d="M234.52382,159.21978M236.18865,159.21106l11.14841,-0.05837c1.10989,-0.00581 1.66774,0.54623 1.67355,1.65611l0.03814,7.28363c0.00581,1.10989 -0.54623,1.66774 -1.65611,1.67355l-11.14841,0.05837c-1.10989,0.00581 -1.66774,-0.54623 -1.67355,-1.65611l-0.03814,-7.28363c-0.00581,-1.10989 0.54623,-1.66774 1.65611,-1.67355z" fill="#3a4c5d"/><path d="M188.48563,211.03006M188.48563,203.49363c4.16226,0 7.53643,3.37417 7.53643,7.53643c0,4.16226 -3.37417,7.53643 -7.53643,7.53643c-4.16226,0 -7.53643,-3.37417 -7.53643,-7.53643c0,-4.16226 3.37417,-7.53643 7.53643,-7.53643z" fill="#e2f0fa"/><path d="M291.55784,211.03006M291.55784,203.49363c4.16226,0 7.53643,3.37417 7.53643,7.53643c0,4.16226 -3.37417,7.53643 -7.53643,7.53643c-4.16226,0 -7.53643,-3.37417 -7.53643,-7.53643c0,-4.16226 3.37417,-7.53643 7.53643,-7.53643z" fill="#e2f0fa"/><path d="M198.43015,153.71157l3.41889,0.63918c0.55085,0.10515 0.95048,0.58512 0.9541,1.14591c0.00362,0.56079 -0.38978,1.04587 -0.93923,1.15813l-3.41889,0.68378c-0.46943,0.09501 -0.83413,0.46559 -0.92161,0.93648l-0.63918,3.41889c-0.10515,0.55085 -0.58512,0.95048 -1.14591,0.9541c-0.56079,0.00362 -1.04587,-0.38978 -1.15813,-0.93923l-0.68378,-3.41889c-0.09501,-0.46943 -0.46559,-0.83413 -0.93648,-0.92161l-3.41889,-0.63918c-0.55085,-0.10515 -0.95048,-0.58512 -0.9541,-1.14591c-0.00362,-0.56079 0.38978,-1.04587 0.93923,-1.15813l3.41889,-0.68378c0.46943,-0.09501 0.83413,-0.46559 0.92161,-0.93648l0.63918,-3.41889c0.10515,-0.55085 0.58512,-0.95048 1.14591,-0.9541c0.56079,-0.00362 1.04587,0.38978 1.15813,0.93923l0.68378,3.41889c0.09501,0.46943 0.46559,0.83413 0.93648,0.92161z" fill="#e2f0fa"/></g></g></g></svg>