<svg version="1.1" xmlns="http://www.w3.org/2000/svg" xmlns:xlink="http://www.w3.org/1999/xlink" width="14.5174" height="15.9598" viewBox="0,0,14.5174,15.9598"><g transform="translate(-233.14687,-171.59327)"><g data-paper-data="{&quot;isPaintingLayer&quot;:true}" fill-rule="nonzero" stroke-linejoin="miter" stroke-miterlimit="10" stroke-dasharray="" stroke-dashoffset="0" style="mix-blend-mode: normal"><path d="M239.63785,184.69562h-1.18619" fill="none" stroke="#723700" stroke-width="1" stroke-linecap="round"/><g stroke="#723700" stroke-width="0.5"><path d="M246.49055,181.65154c0,1.75721 -0.86364,3.14847 -2.18837,3.99436c-1.14937,0.73391 -2.71851,1.65717 -4.29909,1.65717c-1.18441,0 -2.84146,-0.68479 -3.74035,-1.10005c-1.68319,-0.77758 -2.09289,-2.41214 -2.09289,-4.55149c0,-3.28184 2.75807,-5.94227 6.16034,-5.94227c3.40226,0 6.16034,2.66044 6.16034,5.94227z" fill="#ffce91" stroke-linecap="butt"/><path d="M233.57036,184.1106c-0.30544,-0.5536 -0.17551,-1.2107 0.2902,-1.46766c0.46574,-0.25696 0.73953,0.18758 1.04497,0.74119c0.30544,0.5536 0.52689,1.18836 0.06116,1.4453c-0.46574,0.25696 -1.09089,-0.16522 -1.39635,-0.71883z" fill="#ffce91" stroke-linecap="butt"/><path d="M245.50986,183.02289c0.17339,-0.60805 0.72865,-0.98269 1.24016,-0.83682c0.51152,0.14588 0.78562,0.75704 0.61221,1.3651c-0.17339,0.60805 -0.72865,0.98269 -1.24016,0.83682c-0.51152,-0.14588 -0.78562,-0.75704 -0.61221,-1.3651z" fill="#ffce91" stroke-linecap="butt"/><path d="M241.6442,179.02084l-3.06808,0.15656c0,0 -1.19027,-0.12022 -1.92878,0.56424c-0.51488,0.47719 -1.9306,-0.10163 -2.34386,0.07036c-0.16767,0.06978 -1.55183,-4.37929 -0.11524,-5.36673c0.4287,-0.29465 3.34402,-2.6614 6.01703,-2.60086c2.673,0.06053 5.51181,0.92064 6.74339,2.8796c1.12772,1.79379 -0.61958,4.20335 -0.44031,5.01983c0,0 -1.39205,-0.66314 -1.92764,-0.50661z" fill="#776896" stroke-linecap="butt"/><path d="M236.73038,181.05297c0,0 0.42175,-0.32873 0.68229,-0.37957c0.23309,-0.04547 0.80782,0.08882 0.80782,0.08882" fill="none" stroke-linecap="round"/><path d="M241.78435,180.75331c0,0 0.50364,-0.25435 0.77034,-0.24368c0.2386,0.00955 0.75498,0.30468 0.75498,0.30468" fill="none" stroke-linecap="round"/><path d="M237.70593,182.29345v1.03581" fill="none" stroke-linecap="round"/><path d="M242.45318,183.06816v-0.94495" fill="none" stroke-linecap="round"/><path d="M239.47678,185.20546c0,0 0.52564,-0.25263 0.76495,-0.25263c0.21159,0 0.59796,0.25263 0.59796,0.25263" fill="none" stroke-linecap="round"/></g><path d="M241.73047,178.68136l-3.06808,0.15656c0,0 -1.19027,-0.12022 -1.92878,0.56424c-0.51488,0.47719 -1.9306,-0.10163 -2.34386,0.07036c-0.10775,0.04484 -0.71794,-1.77664 -0.75894,-3.34624c1.44056,0.21949 10.05911,-0.23948 13.40315,-0.20178c-0.10569,0.34831 -0.06804,0.77882 -0.25404,1.33654c-0.29231,0.87649 -0.80435,1.90087 -0.75109,2.14334c0,0 -0.82625,-0.66314 -1.36183,-0.50661z" fill="#5a4e71" stroke="none" stroke-width="0" stroke-linecap="butt"/><path d="M238.86939,176.10357c0,-0.67184 0.54464,-1.21649 1.21649,-1.21649c0.67184,0 1.21647,0.54464 1.21647,1.21649c0,0.67184 -0.54463,1.21647 -1.21647,1.21647c-0.67184,0 -1.21649,-0.54463 -1.21649,-1.21647z" fill="#5a4e71" stroke="none" stroke-width="0" stroke-linecap="butt"/></g></g></svg>