<svg version="1.1" xmlns="http://www.w3.org/2000/svg" xmlns:xlink="http://www.w3.org/1999/xlink" width="57.24662" height="64.46642" viewBox="0,0,57.24662,64.46642"><g transform="translate(-211.3962,-254.2041)"><g data-paper-data="{&quot;isPaintingLayer&quot;:true}" fill-rule="nonzero" stroke-linejoin="miter" stroke-miterlimit="10" stroke-dasharray="" stroke-dashoffset="0" style="mix-blend-mode: normal"><path d="M268.39282,256.84565v59.18378c0,1.31855 -1.07207,2.39109 -2.39155,2.39109h-51.96398c-1.31809,0 -2.39109,-1.07253 -2.39109,-2.39109v-59.18424c0,-1.31855 1.073,-2.39109 2.39109,-2.39109h51.96398c1.31948,0 2.39155,1.073 2.39155,2.39155z" fill="#feffde" stroke="#442903" stroke-width="0.5" stroke-linecap="butt"/><g><path d="M248.99947,296.10235l0.30686,1.35361l0.32342,0.86793c0,0 -0.14554,0.69144 -0.41583,1.03066c-0.27029,0.33922 -0.4931,0.55681 -0.92406,0.65094c-0.43096,0.09414 -0.70678,0.01216 -1.06267,-0.21698c-0.35589,-0.22914 -0.36962,-0.70519 -0.36962,-0.70519l0.32342,-0.37972l-0.50823,-1.30189z" data-paper-data="{&quot;index&quot;:null}" fill="#fed497" stroke="#000000" stroke-width="0.5" stroke-linecap="round"/><path d="M233.83796,297.60729l-0.50823,1.30189l0.32342,0.37972l-0.36962,0.70519c0,0 -0.64914,0.30731 -1.06267,0.21698c-0.41353,-0.09032 -0.64917,-0.30595 -0.92406,-0.65094c-0.27489,-0.345 -0.39474,-0.59744 -0.41583,-1.03066c-0.02109,-0.43322 0.32342,-0.86793 0.32342,-0.86793l0.30686,-1.35361z" fill="#fed497" stroke="#000000" stroke-width="0.5" stroke-linecap="round"/><path d="M236.52229,309.95273c0,0 -0.39516,-2.85832 -0.39516,-4.42067c0,-1.43914 0.12641,-4.9467 0.12641,-4.9467l2.81912,-0.15807c0,0 0.01672,3.71073 0.01672,5.204c0,1.51796 0.173,4.32144 0.173,4.32144z" data-paper-data="{&quot;index&quot;:null}" fill="#cfac7a" stroke="#000000" stroke-width="0.5" stroke-linecap="butt"/><path d="M236.05554,309.57304c0,-0.677 0.11014,-3.79253 0.11014,-3.79253h2.96373c0,0 0.27652,3.6027 0.00126,3.85285c-0.56295,0.5116 -3.07513,0.26455 -3.07513,-0.06033z" data-paper-data="{&quot;index&quot;:null}" fill="#a56637" stroke="#000000" stroke-width="0.5" stroke-linecap="butt"/><path d="M241.76634,310.06257c0,0 -0.39501,-3.25288 -0.39501,-4.69202c0,-1.56236 -0.18987,-4.59633 -0.18987,-4.59633l2.66105,0.15807c0,0 0.44175,4.14299 0.44175,5.62331c0,1.52968 -0.05318,3.39683 -0.05318,3.39683z" data-paper-data="{&quot;index&quot;:null}" fill="#cfac7a" stroke="#000000" stroke-width="0.5" stroke-linecap="butt"/><path d="M232.23604,292.57354c0,0 0.97933,-3.255 1.86398,-4.15672c0.93323,-0.95123 3.59745,-1.41006 3.59745,-1.41006l4.92748,0.09476l3.65844,0.92441l3.3939,8.92315l-3.53195,0.85719l-1.79448,-5.14559l-0.73094,-0.91595l2.06323,6.93549l0.92169,3.91444v1.23187l-12.88726,-0.14214l0.36907,-2.22268l2.47371,-9.14843c0,0 -0.96692,1.95392 -1.38456,2.954c-0.31681,0.75861 -0.90345,2.52484 -0.90345,2.52484l-2.9839,-1.55773z" data-paper-data="{&quot;index&quot;:null}" fill="#a56ad4" stroke="#a56ad4" stroke-width="0.5" stroke-linecap="round"/><path d="M237.63772,287.17031l4.91959,-0.04278c0,0 3.24009,0.40762 4.25471,1.46361c0.89182,0.92818 1.51227,4.5385 1.51227,4.5385l-3.21129,0.68147l-1.40067,-2.06344l2.28911,7.6975l-11.35625,-0.21993l1.79471,-6.79311l-0.91646,1.20327l-2.87379,-1.99986l1.43208,-3.31939z" data-paper-data="{&quot;index&quot;:null}" fill="#ad89d4" stroke="#ad89d4" stroke-width="0.5" stroke-linecap="round"/><path d="M249.18043,277.87433c-0.59274,6.46617 -3.28735,6.60198 -7.31143,7.36452c-0.18866,-0.04528 0.40261,0.72212 0.23402,1.78408c-0.82459,0.07532 -1.40149,1.0229 -1.95573,0.93941c-0.32123,-0.04839 -1.24503,-1.05645 -1.72474,-1.07071c0.0564,-1.49881 -0.13521,-0.91678 0.13507,-1.41255c-1.93708,-0.31152 -4.48733,-0.52991 -5.77082,-1.68387c-1.47494,-1.3261 -1.5438,-3.6994 -1.5438,-5.72329c0,-4.2725 0.86425,-7.23396 8.96872,-7.73604c9.29679,-0.57595 9.35873,3.28381 8.96871,7.53847z" data-paper-data="{&quot;index&quot;:null}" fill="#fed497" stroke="#000000" stroke-width="0.5" stroke-linecap="butt"/><path d="M253.43297,284.3212c-0.72852,0.22678 -6.19359,2.50745 -10.49837,0.82535c1.00362,-0.14194 1.72569,-0.68231 2.4365,-1.08888c2.43219,-1.39116 2.74883,-3.83174 2.79914,-6.40844c0.05878,-3.01115 -1.23553,-4.98583 -3.20841,-5.82082c-0.88035,0.56591 -0.86504,0.09366 -1.45642,0.92218c-0.02924,0.01831 -0.27729,-0.29473 -0.67857,-1.03875c-0.62781,0.3883 -0.66953,0.12496 -1.85431,1.08254c-0.82839,-0.77629 -1.21198,-0.93205 -1.47914,-0.10118c-0.82609,-0.89083 -1.28274,-0.9662 -1.75251,-1.04203c-0.7905,1.78854 -1.58758,0.63143 -2.56837,0.72342c-0.98079,0.09199 -0.21018,1.00824 -1.22364,-0.36776c-1.09546,0.56242 -1.27499,0.39281 -1.62674,1.64937c-0.38463,1.37404 0.22241,4.1426 0.24819,5.50263c0.02971,1.56729 -0.6599,1.83494 0.18707,3.16549c1.11926,1.75831 3.23821,2.68407 5.49261,3.02053c-2.54793,1.77738 -8.52771,0.69405 -11.26206,-1.7651c-1.67593,-1.50726 1.98486,-2.56387 1.98486,-4.73984c0,-3.22893 1.00184,-8.89345 3.96873,-12.25872c1.36322,-1.54627 4.94994,-3.05217 6.80447,-3.05217c2.63592,0 6.10202,1.74431 7.96335,3.01184c2.29834,1.56513 3.3834,9.8934 3.3834,12.49722c0,0 3.06873,5.05636 2.34021,5.28313z" data-paper-data="{&quot;index&quot;:null}" fill="#4f412e" stroke="#000000" stroke-width="0.5" stroke-linecap="butt"/><path d="M235.10791,296.96801c0.14603,-0.44672 0.44936,-1.44824 0.60711,-2.4754c0.05491,-0.35752 0.05628,-1.24722 0.19563,-1.74713c0.1148,-0.41184 0.44761,-0.67285 0.47477,-0.86994c-0.67061,0.7401 -0.68274,2.0462 -0.97195,2.91629c-0.31102,0.9357 -0.88171,1.45635 -1.13366,2.8734c-0.03663,-0.04713 -3.43092,-1.57397 -3.43092,-1.57397c0,0 2.18654,-7.06283 3.4095,-7.87753c1.11777,-0.74462 1.44915,-0.54701 3.58408,-1.30624c0.58857,-0.06239 1.52756,1.09811 2.21701,1.10442c0.9195,0.00841 1.62384,-1.12129 2.67072,-1.10442c4.2206,1.25594 3.73495,0.34266 4.47778,2.32983c0.81986,2.19326 2.42907,7.59155 2.42907,7.59155l-3.49748,0.66325c0,0 -0.80833,-1.83427 -1.38907,-3.41112c-0.36442,-0.98949 -0.39268,-1.83653 -0.84314,-2.19331c-0.01932,-0.01531 -0.04812,-0.01173 -0.0726,-0.01742c0.41679,0.84212 0.3995,1.2498 0.50061,1.56473c0.21481,0.66911 0.18796,0.67377 0.53988,1.80958c0.2759,0.89049 1.22069,4.44417 1.45151,5.46167c0.4158,1.83295 0.58581,1.87833 0.46544,2.77085c-0.10746,0.79685 -0.97322,0.04639 -1.19802,0.05959c-0.51161,0.03003 -0.96993,0.17566 -1.21944,0.17998c-0.59096,0.01022 -0.85563,-0.17454 -1.12159,-0.18949c-0.81942,-0.04607 -1.03187,0.30684 -1.2552,0.29639c-0.72073,-0.03372 -1.26905,-0.29805 -1.51954,-0.3179c-0.89753,-0.07114 -1.29265,0.22359 -1.52169,0.22452c-0.48309,0.00196 -0.8226,-0.21103 -0.93766,-0.22101c-1.0899,-0.09453 -0.90259,0.22994 -1.59667,0.21942c-1.00592,-0.01525 -0.83328,-0.24811 -1.40312,-0.24511c-0.31242,0.00164 -0.86858,0.2442 -1.08804,0.27087c-0.40224,0.04888 -0.60088,0.19584 0.08595,-2.52295c0.23713,-0.93866 0.54713,-2.60041 1.09075,-4.26338z" data-paper-data="{&quot;index&quot;:null}" fill="none" stroke="#000000" stroke-width="0.5" stroke-linecap="butt"/><path d="M241.09315,293.17368c1.08135,0.32204 0.99821,1.31389 0.41446,2.38182c-0.4583,0.83842 -1.56727,1.4185 -1.56727,1.4185c0,0 -1.14909,-0.72518 -1.53666,-1.56014c-0.53135,-1.1447 -0.27775,-1.9067 0.59443,-2.29039c1.0249,-0.03261 1.02414,1.02992 1.02414,1.02992c0,0 0.12664,-0.93056 1.0709,-0.97971z" data-paper-data="{&quot;index&quot;:null}" fill="#ff6b6b" stroke="#000000" stroke-width="0" stroke-linecap="butt"/><path d="M234.6183,274.05037c0,0 0.68166,-0.53131 1.10277,-0.61348c0.37674,-0.07351 1.30565,0.14354 1.30565,0.14354" data-paper-data="{&quot;index&quot;:null}" fill="none" stroke="#000000" stroke-width="0.5" stroke-linecap="round"/><path d="M242.98327,273.69306c0,0 0.81402,-0.41109 1.24508,-0.39385c0.38564,0.01542 1.22025,0.49244 1.22025,0.49244" data-paper-data="{&quot;index&quot;:null}" fill="none" stroke="#000000" stroke-width="0.5" stroke-linecap="round"/><path d="M234.5879,268.07109c-0.21961,0.42092 -0.65356,0.62862 -0.96925,0.46391c-0.31569,-0.16471 -0.39358,-0.63945 -0.17397,-1.06037c0.21961,-0.42092 0.65356,-0.62862 0.96925,-0.46391c0.31569,0.16471 0.39358,0.63945 0.17397,1.06037z" data-paper-data="{&quot;index&quot;:null}" fill="#6e5b41" stroke="none" stroke-width="0" stroke-linecap="butt"/><path d="M237.00739,267.16828c-0.21961,0.42092 -0.65356,0.62862 -0.96925,0.46391c-0.31569,-0.16471 -0.39358,-0.63945 -0.17397,-1.06037c0.21961,-0.42092 0.65356,-0.62862 0.96925,-0.46391c0.31569,0.16471 0.39358,0.63945 0.17397,1.06037z" data-paper-data="{&quot;index&quot;:null}" fill="#6e5b41" stroke="none" stroke-width="0" stroke-linecap="butt"/><path d="M234.47399,273.29645h-0.69154" data-paper-data="{&quot;index&quot;:null}" fill="none" stroke="none" stroke-width="0" stroke-linecap="round"/><path d="M241.65605,281.66869c0,0 -0.88871,0.44056 -1.32169,0.44056c-0.46964,0 -1.39512,-0.44056 -1.39512,-0.44056" fill="none" stroke="#000000" stroke-width="0.5" stroke-linecap="round"/><path d="M236.54146,278.7693v-1.76226" fill="none" stroke="#000000" stroke-width="0.5" stroke-linecap="round"/><path d="M243.66392,277.22731v1.39512" fill="none" stroke="#000000" stroke-width="0.5" stroke-linecap="round"/><path d="M241.34232,309.68318c0,-0.677 0.11014,-3.79253 0.11014,-3.79253l2.79852,-0.05507c0,0 0.33159,3.65777 0.05633,3.90792c-0.56295,0.5116 -2.96499,0.26455 -2.96499,-0.06033z" data-paper-data="{&quot;index&quot;:null}" fill="#a56637" stroke="#000000" stroke-width="0.5" stroke-linecap="butt"/></g></g></g></svg>