<svg version="1.1" xmlns="http://www.w3.org/2000/svg" xmlns:xlink="http://www.w3.org/1999/xlink" width="57.24662" height="64.46642" viewBox="0,0,57.24662,64.46642"><g transform="translate(-149.01484,-253.92812)"><g data-paper-data="{&quot;isPaintingLayer&quot;:true}" fill-rule="nonzero" stroke-linejoin="miter" stroke-miterlimit="10" stroke-dasharray="" stroke-dashoffset="0" style="mix-blend-mode: normal"><path d="M206.01146,256.56967v59.18378c0,1.31855 -1.07207,2.39109 -2.39155,2.39109h-51.96398c-1.31809,0 -2.39109,-1.07253 -2.39109,-2.39109v-59.18424c0,-1.31855 1.073,-2.39109 2.39109,-2.39109h51.96398c1.31948,0 2.39155,1.073 2.39155,2.39155z" fill="#feffde" stroke="#442903" stroke-width="0.5" stroke-linecap="butt"/><g><path d="M182.17186,309.14151c0,0.55604 -0.58269,1.0068 -1.30147,1.0068c-0.71878,0 -2.33282,-0.10698 -2.33282,-0.66302c0,-0.55604 1.61404,-1.35058 2.33282,-1.35058c0.71878,0 1.30147,0.45076 1.30147,1.00679z" fill="#727272" stroke="#723700" stroke-width="0.5" stroke-linecap="butt"/><path d="M176.91686,309.14151c0,0.55604 -0.58269,1.0068 -1.30147,1.0068c-0.71878,0 -2.33282,-0.10698 -2.33282,-0.66302c0,-0.55604 1.61404,-1.35057 2.33282,-1.35057c0.71878,0 1.30147,0.45076 1.30147,1.00679z" fill="#727272" stroke="#723700" stroke-width="0.5" stroke-linecap="butt"/><path d="M189.36654,297.21626c-1.13099,0.35313 -2.33411,-0.27745 -2.68725,-1.40844c-0.35313,-1.13099 0.27744,-2.33411 1.40844,-2.68724c1.13099,-0.35313 2.33411,0.27744 2.68725,1.40844c0.35313,1.13099 -0.27744,2.33412 -1.40844,2.68725z" fill="#eca956" stroke="#723700" stroke-width="0.5" stroke-linecap="butt"/><path d="M186.564,295.34725l-9.06197,-6.90116l1.82324,-2.33895l8.9415,6.93876c0,0 -0.08031,1.17376 -0.31609,1.47625c-0.33583,0.43082 -1.38667,0.8251 -1.38667,0.8251z" fill="#e8c0aa" stroke="#723700" stroke-width="0.5" stroke-linecap="butt"/><path d="M166.16134,294.98828c0,-1.18484 0.96051,-2.14535 2.14535,-2.14535c1.18484,0 2.14534,0.9605 2.14534,2.14535c0,1.18484 -0.9605,2.14534 -2.14534,2.14534c-1.18484,0 -2.14535,-0.9605 -2.14535,-2.14534z" fill="#eca956" stroke="#723700" stroke-width="0.5" stroke-linecap="butt"/><path d="M168.78065,292.87014l9.28837,-6.59329l1.68925,2.43748l-9.28836,6.46708c0,0 -1.09648,-0.42649 -1.31494,-0.74172c-0.31115,-0.44897 -0.37431,-1.56957 -0.37431,-1.56957z" fill="#e8c0aa" stroke="#723700" stroke-width="0.5" stroke-linecap="butt"/><path d="M173.46772,298.4808l2.00604,-10.12218h6.46012l1.53792,10.01937z" fill="#bb4b4f" stroke="#723700" stroke-width="0.5" stroke-linecap="butt"/><path d="M172.24178,307.98166c-0.58364,-0.41025 -0.8957,-0.43407 -0.77135,-1.50097c0.24901,-2.1365 1.95777,-8.16376 1.95777,-8.16376l10.01787,0.04909c0,0 1.47831,6.0094 1.69973,8.06915c0.12649,1.17673 -0.10066,1.00097 -0.9953,1.49268c-0.60483,0.33242 -1.30453,0.33409 -2.44018,0.44988c-2.11921,0.21605 -5.67927,0.33091 -7.57691,0.16722c-1.22253,-0.10546 -1.33009,-0.16856 -1.89162,-0.56328z" fill="#bb4b4f" stroke="#723700" stroke-width="0.5" stroke-linecap="butt"/><path d="M178.38439,289.79954l-1.31289,8.4596" fill="none" stroke="#723700" stroke-width="0.5" stroke-linecap="round"/><path d="M174.68423,304.21302c-0.62313,-1.14612 0.76123,-5.82372 0.76123,-5.82372h6.34778c0,0 0.84333,5.14247 0.57185,5.68312c-0.85592,1.70461 -2.88311,2.04283 -3.94571,2.04283c-1.05324,0 -3.11201,-0.75611 -3.73515,-1.90223z" fill="#e8c0aa" stroke="#723700" stroke-width="0.5" stroke-linecap="butt"/><path d="M189.3583,280.38527c0,2.84943 -1.40047,5.10545 -3.54857,6.4771c-1.86377,1.1901 -4.40824,2.68721 -6.97124,2.68721c-1.92062,0 -4.60758,-1.11043 -6.06521,-1.7838c-2.72941,-1.2609 -3.39378,-3.91144 -3.39378,-7.38051c0,-5.3217 4.4724,-9.63578 9.98939,-9.63578c5.51699,0 9.98939,4.31409 9.98939,9.63578z" fill="#ffce91" stroke="#723700" stroke-width="0.5" stroke-linecap="butt"/><path d="M168.40737,284.37278c-0.49531,-0.8977 -0.28461,-1.96323 0.4706,-2.37992c0.75521,-0.41669 1.19917,0.30417 1.69448,1.20187c0.49531,0.8977 0.8544,1.92698 0.09919,2.34367c-0.75521,0.41669 -1.76895,-0.26792 -2.26426,-1.16562z" fill="#ffce91" stroke="#723700" stroke-width="0.5" stroke-linecap="butt"/><path d="M187.76804,282.60904c0.28118,-0.98597 1.18154,-1.5935 2.01101,-1.35695c0.82946,0.23655 1.27394,1.22759 0.99276,2.21357c-0.28118,0.98597 -1.18155,1.5935 -2.01101,1.35695c-0.82946,-0.23655 -1.27394,-1.22759 -0.99276,-2.21357z" fill="#ffce91" stroke="#723700" stroke-width="0.5" stroke-linecap="butt"/><path d="M191.94511,277.50102c0.33546,1.52789 1.00825,2.35484 1.00825,2.35484c0,0 -3.54168,0.50948 -3.59314,0.78259c-0.85952,4.56121 -3.04447,4.23624 -3.04447,4.23624c0,0 1.3064,-8.68463 -0.05441,-8.28691c-0.62184,0.18174 -4.94524,-1.81886 -4.94524,-1.81886c0,0 -1.09257,3.47729 -2.15653,3.68503c-1.19919,0.23415 -4.10305,-4.16517 -4.10305,-4.16517c0,0 -0.46212,2.00701 -1.65966,3.11692c-0.83489,0.77379 -2.44799,0.45176 -3.1181,0.73064c-0.27189,0.11315 -0.09877,1.37514 0.25907,2.95005c0.12241,0.53878 0.52664,1.11418 0.58929,1.69273c0.15008,1.3857 0.40853,2.51948 0.40853,2.51948c0,0 -1.74729,-2.5212 -2.36015,-2.36627c-0.51514,0.13022 -1.2755,1.07826 -1.89741,1.3385c-1.19159,0.49863 -2.18977,0.36136 -2.18977,0.36136c0,0 0.83227,-1.47402 1.06227,-2.95779c0.10127,-0.65329 0.09603,-1.7761 0.21076,-2.58346c0.43031,-3.02808 1.00796,-6.23939 1.00796,-6.23939c0,0 -1.81965,-0.32687 -2.46569,-0.72198c-0.59361,-0.36304 -1.50231,-1.56062 -1.50231,-1.56062c0,0 1.7475,-0.14305 3.58704,-1.06553c2.45151,-1.22936 4.28005,-2.91418 6.07014,-3.53516c0.24904,-0.08639 -0.54306,-0.75004 -0.54306,-0.75004c0,0 6.07761,-1.1689 7.6601,-1.1689c3.68484,0 7.44807,2.20351 9.44516,5.38011c1.82869,2.90874 2.03373,6.74763 2.32441,8.07157z" fill="#e08989" stroke="#723700" stroke-width="0.5" stroke-linecap="butt"/><path d="M170.23773,283.70401c0,0 -1.1321,-1.4407 -1.31724,-2.02047c-0.18807,-0.58895 -0.09719,-2.37014 -0.09719,-2.37014" fill="none" stroke="#723700" stroke-width="0.5" stroke-linecap="round"/><path d="M170.79762,281.83284c0,0 -0.56306,-1.93616 -0.52473,-2.59281c0.01334,-0.2285 0.31845,-4.15519 0.31845,-4.15519" fill="none" stroke="#723700" stroke-width="0.5" stroke-linecap="round"/><path d="M186.54781,274.33342l0.26522,4.74423" fill="none" stroke="#723700" stroke-width="0.5" stroke-linecap="round"/><path d="M189.77449,277.73688c0,0 -0.15088,2.17453 -0.22804,2.45563c-0.17965,0.65443 -0.4497,1.53719 -0.4497,1.53719" fill="none" stroke="#723700" stroke-width="0.5" stroke-linecap="round"/><path d="M169.77443,273.37219c-0.0673,0.43594 -0.37782,0.76289 -0.69357,0.73026c-0.31574,-0.03263 -0.51715,-0.41249 -0.44984,-0.84843c0.0673,-0.43594 0.37782,-0.76289 0.69357,-0.73026c0.31574,0.03263 0.51715,0.41249 0.44984,0.84843z" fill="#e0a1a1" stroke="none" stroke-width="0" stroke-linecap="butt"/><path d="M170.73501,272.31122c0,0.24412 -0.11874,0.44201 -0.26521,0.44201c-0.14647,0 -0.26521,-0.19789 -0.26521,-0.44201c0,-0.24412 0.11874,-0.44201 0.26521,-0.44201c0.14647,0 0.26521,0.19789 0.26521,0.44201z" fill="#e0a1a1" stroke="none" stroke-width="0" stroke-linecap="butt"/><path d="M186.70626,270.33691c0,0.26039 -0.17151,0.47148 -0.38308,0.47148c-0.21157,0 -0.38308,-0.21109 -0.38308,-0.47148c0,-0.26039 0.17151,-0.47148 0.38308,-0.47148c0.21157,0 0.38308,0.21109 0.38308,0.47148z" fill="#e0a1a1" stroke="#825738" stroke-width="0" stroke-linecap="butt"/><path d="M191.76218,266.87417c0.47249,0.68349 1.38265,1.3744 1.87344,2.08869c0.69865,1.0168 1.73552,1.96 1.73552,1.96c0,0 -1.1878,0.63933 -1.9463,0.6732c-0.59638,0.02664 -0.67553,6.85008 -0.67553,6.85008c0,0 -1.5396,-2.24903 -2.4375,-5.13571c-0.66846,-2.14904 -0.38344,-4.00391 -2.28962,-5.46391c-3.23524,-1.97784 -1.79115,-2.04731 -4.43544,-3.1849c-1.06409,-0.45777 0.70874,-2.72131 2.35705,-3.00581c2.14952,-0.371 3.10635,-0.09074 4.40023,1.62154c0,0 0.02394,1.57998 1.41814,3.5968z" fill="#e06767" stroke="#723700" stroke-width="0.5" stroke-linecap="butt"/><path d="M193.18902,270.21907l0.11787,2.71099" fill="none" stroke="#723700" stroke-width="0.5" stroke-linecap="round"/><path d="M171.6485,279.35393c0,0 0.68389,-0.53305 1.10638,-0.61549c0.37797,-0.07375 1.30993,0.14401 1.30993,0.14401" fill="none" stroke="#723700" stroke-width="0.5" stroke-linecap="round"/><path d="M180.49579,278.85585c0,0 0.81669,-0.41244 1.24916,-0.39514c0.38691,0.01547 1.22424,0.49405 1.22424,0.49405" fill="none" stroke="#723700" stroke-width="0.5" stroke-linecap="round"/><path d="M173.04817,283.77401v-1.67963" fill="none" stroke="#723700" stroke-width="0.5" stroke-linecap="round"/><path d="M181.2928,282.18278v1.5323" fill="none" stroke="#723700" stroke-width="0.5" stroke-linecap="round"/><path d="M176.4664,286.5734h2.21004" fill="none" stroke="#723700" stroke-width="0.5" stroke-linecap="round"/></g></g></g></svg>