<svg version="1.1" xmlns="http://www.w3.org/2000/svg" xmlns:xlink="http://www.w3.org/1999/xlink" width="20.92914" height="28.18367" viewBox="0,0,20.92914,28.18367"><g transform="translate(-225.63366,-161.75358)"><g data-paper-data="{&quot;isPaintingLayer&quot;:true}" fill-rule="nonzero" stroke-linecap="butt" stroke-linejoin="miter" stroke-miterlimit="10" stroke-dasharray="" stroke-dashoffset="0" style="mix-blend-mode: normal"><path d="M237.52296,178.41396l-0.0089,3.10331c-0.0762,-0.04312 -0.15563,-0.08038 -0.23764,-0.11147l0.0089,-3.10332c0.08387,0.03257 0.16395,0.06889 0.23764,0.11147" fill="#dfeefe" stroke="none" stroke-width="1"/><path d="M237.28532,178.30248l-0.0089,3.10332c-0.06574,-0.02549 -0.13274,-0.04764 -0.20079,-0.06636l0.0089,-3.10331c0.06989,0.01878 0.13596,0.04133 0.20078,0.06636M237.08454,178.23487l-0.0089,3.10331c-0.05697,-0.01628 -0.11462,-0.03006 -0.17284,-0.04133l0.0089,-3.10331c0.05846,0.01126 0.11693,0.02629 0.17284,0.04133M236.91169,178.19354l-0.0089,3.10331c-0.05481,-0.01092 -0.1099,-0.02053 -0.16521,-0.0288l0.0089,-3.10331c0.0559,0.00752 0.11056,0.01754 0.16521,0.0288" fill="#dfeefe" stroke="none" stroke-width="1"/><path d="M236.74651,178.16474l-0.0089,3.10331c-0.05399,-0.00777 -0.10825,-0.0136 -0.16266,-0.01753l0.0089,-3.10331c0.05465,0.00375 0.10802,0.01002 0.16266,0.01753" fill="#dfeefe" stroke="none" stroke-width="1"/><path d="M236.58383,178.1472l-0.0089,3.10331c-0.05495,-0.00484 -0.11006,-0.00775 -0.16521,-0.00876l0.0089,-3.10332c0.0559,0.00124 0.11056,0.00375 0.16521,0.00878M236.41861,178.13844l-0.0089,3.10332c-0.05719,-0.00147 -0.11441,-0.00104 -0.17156,0.00124l0.0089,-3.10331c0.0572,-0.0025 0.11435,-0.0025 0.17155,-0.00126" fill="#dfeefe" stroke="none" stroke-width="1"/><path d="M236.24708,178.13969l-0.0089,3.10331c-0.06195,0.00227 -0.12384,0.00645 -0.18554,0.01252l0.0089,-3.10331c0.06166,-0.00663 0.12355,-0.0108 0.18554,-0.01252M236.06154,178.15095l-0.0089,3.10331c-0.07107,0.00705 -0.14186,0.01667 -0.21222,0.0288l0.0089,-3.10331c0.06989,-0.01126 0.14105,-0.02129 0.21221,-0.0288" fill="#dfeefe" stroke="none" stroke-width="1"/><path d="M235.84932,178.18102l-0.0089,3.10331c-0.10638,0.01848 -0.21126,0.04441 -0.31388,0.07764l0.0089,-3.10331c0.10039,-0.03257 0.20588,-0.05887 0.31388,-0.07766M235.53542,178.25741l-0.0089,3.10331c-0.12559,0.03942 -0.24657,0.09189 -0.3609,0.15655l0.0089,-3.10331c0.10929,-0.06261 0.23128,-0.11522 0.3609,-0.15655" fill="#dfeefe" stroke="none" stroke-width="1"/><g><path d="M236.5938,172.00624l9.70308,1.60193l-0.52469,15.14762h-20.09268l0.06699,-14.34667l10.84732,-2.40288" fill="#ffc698" stroke="none" stroke-width="1"/><path d="M227.7903,176.08181l-0.22885,-2.97501l9.24538,-2.28845l8.55884,1.48749l0.11442,2.40288" fill="#ffc698" stroke="none" stroke-width="1"/><path d="M228.70569,173.33565l0.45768,-2.975l7.52904,-1.60191l6.8425,1.60191l0.45771,1.83076" fill="#ffc698" stroke="none" stroke-width="1"/><path d="M237.83664,170.01739l0.4577,-8.16981l2.49442,0.73229l1.0527,7.78078" fill="#f5b47e" stroke="none" stroke-width="1"/><path d="M230.3076,170.70393l1.46461,-7.52904l6.20174,-1.37308l-0.13731,7.64346" fill="#ffc698" stroke="none" stroke-width="1"/><path d="M237.67646,169.102c0,0 0.32038,-5.49232 0.50346,-7.23154" fill="none" stroke="#eeae79" stroke-width="2.2329"/><path d="M236.57799,173.01528l0.11442,-0.02289l9.70308,1.60192l-0.52469,15.30782h-9.58865l0.29584,-16.88686" fill="#f5b47e" stroke="none" stroke-width="1"/><g fill="#f5b47e" stroke="none" stroke-width="1"><path d="M245.36568,172.30585l0.11442,2.40288l-8.90211,0.68654v-2.65462l7.41461,-0.54923l-0.02287,-0.11443l1.39595,0.22885"/><path d="M243.96973,172.077l0.02287,0.11443l-7.41461,0.54923v-3.93617l0.11442,-0.04575l6.8425,1.60191l0.43482,1.71634"/></g><path d="M225.79934,175.39527l10.82443,-2.47154l9.8175,1.62481" fill="none" stroke="#eeae79" stroke-width="1.4886"/><path d="M227.44702,173.06105c1.89942,-0.45769 9.01654,-2.47154 9.01654,-2.47154l8.90212,1.71634" fill="none" stroke="#eeae79" stroke-width="1.4886"/><path d="M229.1176,170.47509c1.51038,-0.32039 7.39174,-1.785 7.39174,-1.785l7.04845,1.53326" fill="none" stroke="#eeae79" stroke-width="1.4886"/><path d="M232.80203,167.63738l0.54923,-3.13519" fill="none" stroke="#f4b27d" stroke-width="1.4886"/><path d="M235.25068,167.317l0.52634,-3.1123" fill="none" stroke="#f4b27d" stroke-width="1.4886"/><path d="M240.19377,167.77469l-0.06866,-4.09635" fill="none" stroke="#eeae79" stroke-width="1.4886"/><path d="M237.21876,179.88066l1.07557,0.11442l7.91809,0.86961" fill="none" stroke="#ffc698" stroke-width="2.2332"/><path d="M238.52484,189.90214l0.29584,-9.86128" fill="none" stroke="#ffc698" stroke-width="2.2332"/><path d="M241.20234,189.90214l0.29584,-9.56377" fill="none" stroke="#ffc698" stroke-width="2.2332"/><path d="M244.1528,180.49855l-0.29584,9.40359" fill="none" stroke="#ffc698" stroke-width="2.2332"/></g><path d="M227.08834,177.97531h2.68643v3.12654h-2.68643z" fill="#ffffff" stroke="none" stroke-width="1"/><path d="M230.36995,182.69646h2.87837v3.12654h-2.87837z" fill="#ffffff" stroke="none" stroke-width="1"/><path d="M239.94287,183.43488h2.87837v3.12654h-2.87837z" fill="#ffffff" stroke="none" stroke-width="1"/></g></g></svg>