<svg version="1.1" xmlns="http://www.w3.org/2000/svg" xmlns:xlink="http://www.w3.org/1999/xlink" width="282.28412" height="131.3818" viewBox="0,0,282.28412,131.3818"><g transform="translate(-98.35994,-111.76152)"><g data-paper-data="{&quot;isPaintingLayer&quot;:true}" fill-opacity="0.35686" fill="#ffffff" fill-rule="nonzero" stroke="none" stroke-width="1.28185" stroke-linecap="round" stroke-linejoin="miter" stroke-miterlimit="10" stroke-dasharray="" stroke-dashoffset="0" style="mix-blend-mode: normal"><path d="M168.25142,113.27327c11.9314,-1.68255 25.5788,-2.47151 37.3805,0.39366c4.1469,1.14406 -1.3854,6.9287 1.4602,9.36948c1.5688,1.34478 5.5335,-2.1518 7.5345,-0.82673c8.0064,4.57924 19.5734,9.62143 19.6248,16.84934c0.0537,7.42788 -9.2541,15.05496 -19.3433,18.22876c-14.1275,4.43515 -31.2092,2.16754 -46.7736,1.53374c-14.5445,-0.59211 -28.6743,-3.48011 -43.046,-5.11779c-7.128,-0.63147 -15.1858,0.65271 -21.4938,-1.69277c-3.8397,-1.42747 -6.0334,-5.24223 -4.9646,-8.22787c1.5583,-3.46983 11.2259,-3.31313 12.9664,-6.81056c1.7791,-3.58007 -6.1222,-7.82864 -3.9717,-11.65277c1.6284,-2.5959 7.9854,-2.39359 12.4991,-2.8345c7.7355,-0.74875 15.9615,1.35108 23.4797,0c9.0542,-1.64949 15.4615,-7.91679 24.6478,-9.21199z"/><path d="M314.64383,196.45149c11.9314,-1.68255 25.5788,-2.47151 37.3805,0.39366c4.1469,1.14406 -1.3854,6.9287 1.4602,9.36949c1.5688,1.34478 5.5335,-2.15181 7.5345,-0.82674c8.0064,4.57924 19.5734,9.62143 19.6248,16.84933c0.0537,7.42789 -9.2541,15.05496 -19.3433,18.22876c-14.1275,4.43515 -31.2092,2.16754 -46.7736,1.53374c-14.5445,-0.5921 -28.6743,-3.4801 -43.046,-5.11778c-7.128,-0.63147 -15.1858,0.6527 -21.4938,-1.69278c-3.8397,-1.42747 -6.0334,-5.24223 -4.9646,-8.22786c1.5583,-3.46983 11.2259,-3.31312 12.9664,-6.81056c1.7791,-3.58007 -6.1222,-7.82864 -3.9717,-11.65277c1.6284,-2.5959 7.9854,-2.39359 12.4991,-2.83451c7.7355,-0.74875 15.9615,1.35108 23.4797,0c9.0542,-1.6495 15.4615,-7.91679 24.6478,-9.21198z"/></g></g></svg>