<svg version="1.1" xmlns="http://www.w3.org/2000/svg" xmlns:xlink="http://www.w3.org/1999/xlink" width="20.45002" height="41.77147" viewBox="0,0,20.45002,41.77147"><g transform="translate(-225.92079,-158.94802)"><g data-paper-data="{&quot;isPaintingLayer&quot;:true}" fill-rule="nonzero" stroke="none" stroke-width="1" stroke-linecap="butt" stroke-linejoin="miter" stroke-miterlimit="10" stroke-dasharray="" stroke-dashoffset="0" style="mix-blend-mode: normal"><g><path d="M233.08509,168.18144c0.66792,-3.98897 3.13903,-6.97394 3.13903,-6.97394c0,0 2.31557,3.10719 2.77906,7.12505z" fill="#fd6513"/><path d="M233.73559,168.28515c0.76736,-2.76721 2.38502,-4.72892 2.38502,-4.72892c0,0 1.55896,2.04282 2.14059,4.84447z" fill="#fd9c13"/><path d="M240.48253,166.67211l5.88828,-7.20856l-0.25887,10.13909l-5.81273,4.24951z" fill="#f12a3f"/><path d="M240.34142,172.19857l0.1411,-5.52646l3.91139,-4.82058l-0.1911,7.48465z" fill="#c92334"/><path d="M231.5091,173.62772l-5.58831,-4.5406l0.25887,-10.13909l5.51275,7.49965z" fill="#f12a3f"/><path d="M227.7975,168.91732l0.1911,-7.48465l3.7038,5.01501l-0.1411,5.52646z" fill="#c92334"/><path d="M239.04965,195.50505c-0.1361,0.21424 -0.22758,0.38608 -0.36368,0.60032c0.09259,-0.21536 0.22758,-0.38608 0.36368,-0.60032zM240.7899,192.15307c-0.27664,0.60255 -0.5533,1.2051 -0.87235,1.76302c0.31905,-0.55792 0.5957,-1.16047 0.87235,-1.76302z" fill="#fdb813"/><path d="M237.96195,197.17548c0.18072,-0.25665 0.36256,-0.55681 0.5433,-0.81346c-0.18184,0.30016 -0.36256,0.55681 -0.5433,0.81346z" fill="#f12a3f"/><path d="M241.438,190.64559z" fill="#fdb813"/><path d="M232.65307,197.03994c0.71199,1.10677 1.34138,2.03727 1.8045,2.65869c-0.50663,-0.62254 -1.13714,-1.50953 -1.8045,-2.65869zM232.10848,196.1987c0.16628,0.30905 0.33368,0.57459 0.50108,0.84013c-0.12388,-0.26442 -0.29128,-0.52996 -0.50108,-0.84013z" fill="#db2639"/><path d="M228.66096,177.7352c0.10925,-0.86808 0.26091,-1.69155 0.41146,-2.47149c-0.15054,0.77995 -0.3022,1.60341 -0.41146,2.47149zM241.7191,189.86896l-0.28109,0.77661zM241.46485,170.83385l0.2411,0.78995c-0.07926,-0.30683 -0.15962,-0.57015 -0.2411,-0.78995zM230.82285,193.68387c-0.24665,-0.57236 -0.5357,-1.18936 -0.78124,-1.80525c0.24554,0.61588 0.53459,1.23287 0.78124,1.80525zM229.89328,172.10598c0.09369,-0.25887 0.18851,-0.56126 0.2822,-0.82013c-0.0948,0.30239 -0.18851,0.56126 -0.2822,0.82013zM242.6057,175.60925c0.11055,0.78661 0.21999,1.61673 0.28479,2.48927c-0.06481,-0.87252 -0.17425,-1.70265 -0.28479,-2.48927zM242.37793,174.29713c0.03685,0.2622 0.1161,0.56904 0.15295,0.83124c-0.03685,-0.2622 -0.1161,-0.56904 -0.15295,-0.83124zM241.70595,171.6238zM237.96195,197.17548zM239.04965,195.50505c0.09148,-0.17184 0.22758,-0.38608 0.31905,-0.55792c-0.09148,0.17184 -0.22758,0.38608 -0.31905,0.55792zM234.45757,199.69864c0.46311,0.62144 0.75883,0.97734 0.75883,0.97734c0,0 0.3135,-0.34034 0.80772,-0.93734c-0.49423,0.597 -0.80772,0.93734 -0.80772,0.93734c0,0 -0.29572,-0.3559 -0.75883,-0.97734zM230.04159,191.87864c-0.20536,-0.48423 -0.36608,-1.01086 -0.57033,-1.53859c0.20424,0.52774 0.36498,1.05437 0.57033,1.53859zM239.3687,194.94713l0.54885,-1.03104zM241.7191,189.86896c0.75068,-2.11448 1.29046,-4.4956 1.35379,-6.97598c0.04222,-1.65359 -0.0037,-3.26588 -0.13776,-4.83688c0.13518,1.52749 0.1811,3.13978 0.13776,4.83688c-0.06333,2.48037 -0.6031,4.86151 -1.35379,6.97598zM229.51478,190.34116l-0.2411,-0.78995c0.03685,0.2622 0.11721,0.52552 0.2411,0.78995zM236.04413,168.25701l4.35154,0.1111c0.20758,0.3972 0.41293,0.88142 0.6194,1.32213c-0.20536,-0.48423 -0.41183,-0.92493 -0.6194,-1.32213l-8.79011,-0.22443c-0.22758,0.38608 -0.45738,0.8592 -0.68607,1.2888c0.2298,-0.47312 0.45848,-0.90271 0.68607,-1.2888zM230.82285,193.68387l0.49552,1.0577zM228.27765,182.51524c-0.06333,2.48037 0.35535,4.84243 0.99604,7.03597c-0.68532,-2.15115 -1.05937,-4.5556 -0.99604,-7.03597zM231.31836,194.74158l0.62273,1.19158c-0.16406,-0.39608 -0.41516,-0.79439 -0.62273,-1.19158zM242.06649,172.85222c0.07926,0.30683 0.15962,0.57015 0.19536,0.87587c-0.07926,-0.30683 -0.1161,-0.56904 -0.19536,-0.87587zM242.26184,173.72809c0.03907,0.17518 0.07814,0.35034 0.1161,0.56904c-0.03907,-0.17518 -0.07703,-0.39386 -0.1161,-0.56904z" fill="#fdb813"/><path d="M236.04524,168.21349l4.43856,0.11333c0.20758,0.3972 0.41404,0.8379 0.6194,1.32213c0.12166,0.35146 0.28683,0.70402 0.40738,1.099l0.2411,0.78995c0.08036,0.26331 0.15962,0.57015 0.23998,0.83346c0.04018,0.13166 0.07926,0.30683 0.11944,0.43849c0.08036,0.26331 0.1161,0.56904 0.19536,0.87587c0.03796,0.21869 0.07703,0.39386 0.1161,0.56904c0.03685,0.2622 0.1161,0.56904 0.15295,0.83124c0.03907,0.17518 0.03574,0.30572 0.07481,0.48089c0.11055,0.78661 0.21999,1.61673 0.28479,2.48927c0.13406,1.571 0.17998,3.18329 0.13776,4.83688c-0.06333,2.48037 -0.6031,4.86151 -1.35379,6.97598l-0.28109,0.77661c-0.2309,0.51663 -0.4183,1.03437 -0.6481,1.50749c-0.27664,0.60255 -0.59681,1.20399 -0.87235,1.76302l-0.54885,1.03104l-4.00342,-0.10222l0.67885,-26.58791z" fill="#fdb813"/><path d="M235.36641,194.80139l4.00342,0.10222c-0.09148,0.17184 -0.22758,0.38608 -0.31905,0.55792c-0.1361,0.21424 -0.22869,0.4296 -0.36368,0.60032c-0.04685,0.12944 -0.1361,0.21424 -0.18184,0.30016c-0.18184,0.30016 -0.36256,0.55681 -0.5433,0.81346c-0.76754,1.069 -1.4436,1.96615 -1.93783,2.56315c-0.49423,0.597 -0.80772,0.93734 -0.80772,0.93734l0.14888,-5.83107z" fill="#f12a3f"/><path d="M229.51182,173.40255c0.0948,-0.30239 0.1461,-0.60588 0.2398,-0.86475c-0.0513,0.3035 -0.14499,0.56237 -0.2398,0.86475zM229.17167,174.78726c0.09925,-0.47644 0.1974,-0.90938 0.34016,-1.38471c-0.09925,0.47644 -0.1974,0.90938 -0.34016,1.38471z" fill="#fd9b13"/><path d="M228.23303,182.55763c0.04334,-1.6971 0.17148,-3.30495 0.38442,-4.82354c0.10925,-0.86808 0.26091,-1.69155 0.41146,-2.47149c0.04796,-0.17295 0.0513,-0.3035 0.09925,-0.47644c0.09925,-0.47644 0.19851,-0.9529 0.34016,-1.38471c0.0513,-0.3035 0.14499,-0.56237 0.2398,-0.86475c0.04796,-0.17295 0.0948,-0.30239 0.14166,-0.43182c0.0948,-0.30239 0.18851,-0.56126 0.2822,-0.82013c0.27776,-0.64606 0.512,-1.29324 0.78754,-1.85227c0.22869,-0.4296 0.45848,-0.90271 0.68607,-1.2888l4.39506,0.11222l-0.67885,26.58791l-4.00342,-0.10222l-0.49552,-1.0577c-0.29016,-0.57348 -0.5357,-1.18936 -0.78124,-1.80525c-0.20536,-0.48423 -0.4096,-1.01197 -0.57033,-1.53859l-0.2411,-0.78995c-0.64181,-2.15003 -1.01585,-4.55448 -0.99714,-6.99247z" fill="#fd9b13"/><path d="M235.2153,200.71949c0,0 -0.29572,-0.3559 -0.75883,-0.97734c-0.46311,-0.62144 -1.09363,-1.50841 -1.8045,-2.65869c-0.1674,-0.26554 -0.33368,-0.57459 -0.50108,-0.84013c-0.04018,-0.13166 -0.12499,-0.2209 -0.16628,-0.30905l-0.62273,-1.19158l4.00342,0.10222z" fill="#c92334"/><path d="M235.97508,169.25673l0.02555,-1.00085l4.39506,0.11222c0.16628,0.30905 0.33146,0.66162 0.49663,1.01418z" fill="#ffffff"/><path d="M231.64908,168.14479l4.39506,0.11222l-0.02555,1.00085l-4.91724,-0.12555c0.18295,-0.34368 0.3659,-0.68736 0.54774,-0.98752z" fill="#e1edf7"/><path d="M230.75599,184.36381c0.06888,-2.69796 2.3002,-4.81817 4.99816,-4.74929l-0.24887,9.74745c-2.69796,-0.06888 -4.81817,-2.3002 -4.74929,-4.99816z" fill="#e1edf7"/><path d="M235.50528,189.36197l0.24999,-9.79096c2.69796,0.06888 4.81817,2.3002 4.74929,4.99816c-0.06888,2.69796 -2.30132,4.86168 -4.99928,4.7928z" fill="#ffffff"/><path d="M231.54038,184.34029c0.05778,-2.2628 1.93208,-4.04378 4.19488,-3.98601l-0.20999,8.22441c-2.2628,-0.05778 -4.04267,-1.97561 -3.9849,-4.2384z" fill="#1e2d4f"/><path d="M235.52528,188.57869l0.20999,-8.22441c2.2628,0.05778 4.04378,1.93208 3.986,4.19489c-0.05888,2.30632 -1.9332,4.0873 -4.196,4.02952z" fill="#2d4375"/></g></g></g></svg>