<svg version="1.1" xmlns="http://www.w3.org/2000/svg" xmlns:xlink="http://www.w3.org/1999/xlink" width="60.17947" height="37.44832" viewBox="0,0,60.17947,37.44832"><g transform="translate(-206.29713,-168.72765)"><g data-paper-data="{&quot;isPaintingLayer&quot;:true}" fill-rule="nonzero" stroke="none" stroke-linecap="butt" stroke-linejoin="miter" stroke-miterlimit="10" stroke-dasharray="" stroke-dashoffset="0" style="mix-blend-mode: normal"><path d="M247.97135,187.22422c0.4956,0.28179 0.49815,0.74516 0.00636,1.02818l-11.55782,6.61866c-0.49305,0.28179 -1.30382,0.28179 -1.8007,0l-11.63405,-6.61866c-0.4956,-0.28179 -0.49815,-0.74516 -0.00636,-1.02818l11.55782,-6.61866c0.49305,-0.28179 1.30382,-0.28179 1.8007,0z" fill="#dfeefe" stroke-width="1"/><path d="M237.52296,178.41396l-0.0089,3.10331c-0.0762,-0.04312 -0.15563,-0.08038 -0.23764,-0.11147l0.0089,-3.10332c0.08387,0.03257 0.16395,0.06889 0.23764,0.11147" fill="#dfeefe" stroke-width="1"/><path d="M237.28532,178.30248l-0.0089,3.10332c-0.06574,-0.02549 -0.13274,-0.04764 -0.20079,-0.06636l0.0089,-3.10331c0.06989,0.01878 0.13596,0.04133 0.20078,0.06636M237.08454,178.23487l-0.0089,3.10331c-0.05697,-0.01628 -0.11462,-0.03006 -0.17284,-0.04133l0.0089,-3.10331c0.05846,0.01126 0.11693,0.02629 0.17284,0.04133M236.91169,178.19354l-0.0089,3.10331c-0.05481,-0.01092 -0.1099,-0.02053 -0.16521,-0.0288l0.0089,-3.10331c0.0559,0.00752 0.11056,0.01754 0.16521,0.0288" fill="#dfeefe" stroke-width="1"/><path d="M236.74651,178.16474l-0.0089,3.10331c-0.05399,-0.00777 -0.10825,-0.0136 -0.16266,-0.01753l0.0089,-3.10331c0.05465,0.00375 0.10802,0.01002 0.16266,0.01753" fill="#dfeefe" stroke-width="1"/><path d="M236.58383,178.1472l-0.0089,3.10331c-0.05495,-0.00484 -0.11006,-0.00775 -0.16521,-0.00876l0.0089,-3.10332c0.0559,0.00124 0.11056,0.00375 0.16521,0.00878M236.41861,178.13844l-0.0089,3.10332c-0.05719,-0.00147 -0.11441,-0.00104 -0.17156,0.00124l0.0089,-3.10331c0.0572,-0.0025 0.11435,-0.0025 0.17155,-0.00126" fill="#dfeefe" stroke-width="1"/><path d="M236.24708,178.13969l-0.0089,3.10331c-0.06195,0.00227 -0.12384,0.00645 -0.18554,0.01252l0.0089,-3.10331c0.06166,-0.00663 0.12355,-0.0108 0.18554,-0.01252M236.06154,178.15095l-0.0089,3.10331c-0.07107,0.00705 -0.14186,0.01667 -0.21222,0.0288l0.0089,-3.10331c0.06989,-0.01126 0.14105,-0.02129 0.21221,-0.0288" fill="#dfeefe" stroke-width="1"/><path d="M235.84932,178.18102l-0.0089,3.10331c-0.10638,0.01848 -0.21126,0.04441 -0.31388,0.07764l0.0089,-3.10331c0.10039,-0.03257 0.20588,-0.05887 0.31388,-0.07766M235.53542,178.25741l-0.0089,3.10331c-0.12559,0.03942 -0.24657,0.09189 -0.3609,0.15655l0.0089,-3.10331c0.10929,-0.06261 0.23128,-0.11522 0.3609,-0.15655" fill="#dfeefe" stroke-width="1"/><path d="M249.50139,185.22923l-0.0089,3.10331l-11.97845,-6.81527l0.0089,-3.10331zM235.17452,178.41396l-0.0089,3.10331l-11.89966,6.81527l0.0089,-3.10331z" fill="#dfeefe" stroke-width="1"/><path d="M249.98939,185.90424l-0.0089,3.10331c0.00129,-0.24421 -0.16265,-0.48968 -0.48798,-0.67503l0.0089,-3.10331c0.3266,0.18535 0.48926,0.4308 0.48799,0.67503" fill="#dfeefe" stroke-width="1"/><path d="M223.27486,185.22923l-0.0089,3.10331l-0.02031,0.01128l0.0089,-3.10331l0.02031,-0.01126" fill="#dfeefe" stroke-width="1"/><path d="M223.25451,185.2405l-0.0089,3.10331c-0.07435,0.04368 -0.14414,0.09441 -0.20841,0.15153l0.00889,-3.10331c0.05972,-0.05385 0.12962,-0.10396 0.20842,-0.15154" fill="#dfeefe" stroke-width="1"/><path d="M223.04612,185.39203l-0.0089,3.10331c-0.03694,0.03383 -0.07134,0.07023 -0.10293,0.10895l0.0089,-3.10331c0.03159,-0.03871 0.06601,-0.07513 0.10293,-0.10895" fill="#dfeefe" stroke-width="1"/><path d="M222.94446,185.50098l-0.0089,3.10331c-0.02462,0.03107 -0.04711,0.0637 -0.06735,0.09769l0.0089,-3.10332c0.01981,-0.03427 0.04233,-0.06692 0.06735,-0.09768" fill="#dfeefe" stroke-width="1"/><path d="M222.8771,185.59866l-0.0089,3.10332c-0.01763,0.02993 -0.03254,0.06137 -0.04447,0.09392l0.0089,-3.10332c0.01219,-0.03245 0.02707,-0.06387 0.04447,-0.09392" fill="#dfeefe" stroke-width="1"/><path d="M222.83264,185.6926l-0.0089,3.10332c-0.01138,0.03013 -0.02031,0.06113 -0.0267,0.09267l0.0089,-3.10331c0.00637,-0.03154 0.01529,-0.06253 0.0267,-0.09267" fill="#dfeefe" stroke-width="1"/><path d="M222.80594,185.78527l-0.0089,3.10331c-0.00637,0.03137 -0.0102,0.06321 -0.01143,0.09518l0.0089,-3.10331c0.00123,-0.03197 0.00504,-0.06381 0.01144,-0.09518" fill="#dfeefe" stroke-width="1"/><path d="M222.7945,185.87919v0.01503l-0.0089,3.10332v-0.01504l0.0089,-3.10331" fill="#dfeefe" stroke-width="1"/><path d="M266.47658,185.90424l-0.01017,3.10331v0.01252l0.0089,-3.10331l0.00129,-0.01252" fill="#eaf4fe" stroke-width="1"/><path d="M266.47531,185.91677l-0.0089,3.10331c-0.00101,0.02689 -0.00398,0.05368 -0.0089,0.08015l0.0089,-3.10331c0.00547,-0.0264 0.00844,-0.05322 0.0089,-0.08015" fill="#eaf4fe" stroke-width="1"/><path d="M266.4664,185.99692l-0.0089,3.10331c-0.00527,0.02692 -0.01291,0.05331 -0.02287,0.0789l0.0089,-3.10331c0.00996,-0.0256 0.01762,-0.05199 0.02289,-0.0789" fill="#ffc595" stroke-width="1"/><path d="M266.44354,186.07582l-0.0089,3.10331c-0.01034,0.02774 -0.0231,0.05455 -0.03813,0.08015l0.0089,-3.10331c0.01501,-0.0256 0.02777,-0.05241 0.03812,-0.08015" fill="#ffc595" stroke-width="1"/><path d="M266.40541,186.15597l-0.0089,3.10331c-0.01699,0.02929 -0.03609,0.05734 -0.0572,0.08391l0.0089,-3.10332c0.0211,-0.02658 0.0402,-0.05463 0.05719,-0.08391" fill="#eaf4fe" stroke-width="1"/><path d="M266.34821,186.23986l-0.0089,3.10332c-0.02658,0.03401 -0.05636,0.06546 -0.08895,0.09392l0.0089,-3.10332c0.03194,-0.02912 0.06168,-0.06051 0.08896,-0.09392" fill="#ffc595" stroke-width="1"/><path d="M266.25929,186.3338l-0.0089,3.10332c-0.05532,0.04993 -0.1158,0.09402 -0.18043,0.1315l0.0089,-3.10332c0.06494,-0.03707 0.12547,-0.08118 0.18045,-0.1315" fill="#ffc595" stroke-width="1"/><path d="M266.07883,186.46655l-0.0089,3.10331l-0.01779,0.01002l0.0089,-3.10331c0.00547,-0.00408 0.01146,-0.00743 0.01779,-0.01002" fill="#eaf4fe" stroke-width="1"/><path d="M206.72793,186.47657l-0.0089,3.10331c-0.28084,-0.1603 -0.4219,-0.3707 -0.4219,-0.57983l0.0089,-3.10331c0,0.20914 0.14108,0.41953 0.42192,0.57983" fill="#df9355" stroke-width="1"/><path d="M266.06102,186.47657l-0.0089,3.10331l-28.56097,16.35691l0.0089,-3.10331z" fill="#ffc595" stroke-width="1"/><path d="M235.47826,202.83473l-0.0089,3.10331l-28.75029,-16.35816l0.0089,-3.10331z" fill="#df9355" stroke-width="1"/><path d="M266.05468,185.32315c0.55915,0.3181 0.56297,0.83406 0.00636,1.1534l-28.56097,16.35691c-0.55786,0.31935 -1.4614,0.31935 -2.02182,0.00124l-28.75029,-16.35816c-0.55915,-0.3181 -0.56297,-0.83406 -0.00509,-1.1534l28.56097,-16.35691c0.55661,-0.3181 1.46013,-0.3181 2.01928,0z" fill="#ffa861" stroke-width="0.5"/><path d="M237.50007,202.83347l-0.0089,3.10331c-0.0953,0.05509 -0.20207,0.10019 -0.31516,0.1365l0.0089,-3.10331c0.11309,-0.03631 0.21858,-0.08139 0.31514,-0.1365M237.18493,202.96997l-0.0089,3.10331c-0.08643,0.02754 -0.17791,0.0501 -0.27067,0.06636l0.0089,-3.10331c0.09276,-0.01628 0.18426,-0.03882 0.27068,-0.06636" fill="#ffc595" stroke-width="1"/><path d="M236.91425,203.03635l-0.0089,3.10331c-0.06059,0.01098 -0.12167,0.01933 -0.18301,0.02505l0.0089,-3.10331c0.06227,-0.00627 0.12326,-0.01377 0.18299,-0.02506M236.73124,203.0614l-0.0089,3.10331c-0.05281,0.00525 -0.1058,0.00859 -0.15885,0.01002l0.0089,-3.10331c0.05305,-0.00142 0.10604,-0.00475 0.15885,-0.01" fill="#ffc595" stroke-width="1"/><path d="M236.57366,203.07141l-0.0089,3.10331l-0.14615,0.00126l0.0089,-3.10331c0.0483,0.00124 0.09659,0.00124 0.14615,-0.00126" fill="#ffc595" stroke-width="1"/><path d="M236.42753,203.07267l-0.0089,3.10331c-0.04708,-0.00126 -0.09411,-0.00375 -0.14106,-0.00752l0.0089,-3.10331l0.14106,0.00752" fill="#ffc595" stroke-width="1"/><path d="M236.28648,203.06515l-0.0089,3.10331c-0.04631,-0.00369 -0.09248,-0.00872 -0.1385,-0.01504l0.0089,-3.10331c0.04574,0.00627 0.09149,0.01126 0.13852,0.01503" fill="#df9355" stroke-width="1"/><path d="M236.14796,203.05012l-0.0089,3.10331c-0.04728,-0.00651 -0.09431,-0.01443 -0.14108,-0.02379l0.0089,-3.10331l0.14106,0.02381M236.0069,203.02509l-0.0089,3.10331c-0.05006,-0.01003 -0.09965,-0.02215 -0.14869,-0.03631l0.0089,-3.10332c0.0483,0.01504 0.09785,0.0263 0.14869,0.03632" fill="#df9355" stroke-width="1"/><path d="M235.85822,202.99002l-0.0089,3.10331c-0.05854,-0.01638 -0.11625,-0.0356 -0.17284,-0.0576l0.0089,-3.10332c0.05465,0.02129 0.11309,0.04008 0.17284,0.0576M235.68411,202.9324l-0.0089,3.10332c-0.07098,-0.02748 -0.13979,-0.06014 -0.20586,-0.09769l0.0089,-3.10331c0.06482,0.03631 0.13342,0.06888 0.20588,0.09768" fill="#df9355" stroke-width="1"/></g></g></svg>