<svg version="1.1" xmlns="http://www.w3.org/2000/svg" xmlns:xlink="http://www.w3.org/1999/xlink" width="61.62034" height="76.53118" viewBox="0,0,61.62034,76.53118"><defs><linearGradient x1="262.46306" y1="86.31786" x2="262.46306" y2="216.87821" gradientUnits="userSpaceOnUse" id="color-1"><stop offset="0" stop-color="#37caf1"/><stop offset="1" stop-color="#62e4d0"/></linearGradient><radialGradient cx="239.41013" cy="180.38152" r="43.04066" gradientUnits="userSpaceOnUse" id="color-2"><stop offset="0" stop-color="#ffffff"/><stop offset="1" stop-color="#ffffff" stop-opacity="0"/></radialGradient></defs><g transform="translate(-209.17964,-141.34703)"><g data-paper-data="{&quot;isPaintingLayer&quot;:true}" fill-rule="nonzero" stroke-linejoin="miter" stroke-miterlimit="10" stroke-dasharray="" stroke-dashoffset="0" style="mix-blend-mode: normal"><path d="M269.79994,154.04705v51.13337c0,6.45067 -5.24475,11.69779 -11.69999,11.69779h-36.22254c-6.44844,0 -11.69777,-5.24707 -11.69777,-11.69779v-51.1356c0,-6.45067 5.24935,-11.69779 11.69779,-11.69779h36.22256c0.4697,0 0.933,0.0278 1.38833,0.08182c1.00957,0.25768 2.02301,0.51933 3.03156,0.7844c4.26819,1.74695 7.2801,5.94545 7.2801,10.8338z" fill="url(#color-1)" stroke="#70fbf6" stroke-width="2" stroke-linecap="butt"/><path d="M211.04891,195.95421c0.9224,-5.91525 -4.86764,-46.16025 4.74063,-51.93676c2.07017,-2.13768 9.56616,-1.33957 18.48325,-1.35697c11.25778,-0.02196 24.26032,-0.47655 25.67074,-0.11525c3.89554,2.11855 6.55134,4.82117 9.60208,7.9903c-1.70909,3.50977 -0.27585,6.62602 0.12014,10.3869c0.19816,1.882 -0.95797,4.58217 -0.70576,6.25874c0.53703,3.56977 0.66344,5.90886 0.88655,9.8505c0.257,4.54012 0.26986,22.22166 -0.26558,27.62901c-0.09039,0.91284 -0.82625,4.96483 -0.87446,6.12155c-0.95389,0.97429 -7.6027,4.99505 -15.66257,6.21076c-10.32825,1.55786 -21.70091,-0.09479 -29.83733,-0.36856c-13.24648,-0.44571 -10.83115,-5.59919 -11.72585,-7.46149c-2.89263,-6.02095 -0.77005,-11.03986 -0.43184,-13.20874z" fill="url(#color-2)" stroke="none" stroke-width="0" stroke-linecap="butt"/><text transform="translate(223.66391,207.61701) scale(0.27778,0.27778)" font-size="40" xml:space="preserve" fill="#5eafa3" fill-rule="nonzero" stroke="none" stroke-width="1" stroke-linecap="butt" stroke-linejoin="miter" stroke-miterlimit="10" stroke-dasharray="" stroke-dashoffset="0" font-family="Sans Serif" font-weight="normal" text-anchor="start" style="mix-blend-mode: normal"><tspan x="0" dy="0">停留卡</tspan></text><g stroke-width="1.5"><g stroke="#723700"><path d="M231.55268,179.11887c0,0 1.90039,-0.97817 2.43096,-2.05472c1.27035,-2.5776 5.16523,-13.35829 5.16523,-13.35829l10.52655,4.62656l-6.67284,14.82403z" fill="#727272" stroke-linecap="butt"/><path d="M237.49692,169.60552l9.05413,3.6683" fill="none" stroke-linecap="round"/></g><path d="M224.19939,173.20071c0,-8.93536 7.24354,-16.17891 16.17891,-16.17891c8.93536,0 16.17891,7.24354 16.17891,16.17891c0,8.93536 -7.24354,16.17891 -16.17891,16.17891c-8.93536,0 -16.17891,-7.24354 -16.17891,-16.17891z" fill="none" stroke="#d40000" stroke-linecap="butt"/><path d="M229.59237,185.75747l23.10123,-23.10123" fill="none" stroke="#d40000" stroke-linecap="round"/></g></g></g></svg>