<svg version="1.1" xmlns="http://www.w3.org/2000/svg" xmlns:xlink="http://www.w3.org/1999/xlink" width="213.65279" height="98.38392" viewBox="0,0,213.65279,98.38392"><g transform="translate(-133.17362,-130.80804)"><g data-paper-data="{&quot;isPaintingLayer&quot;:true}" fill-rule="nonzero" stroke-linecap="butt" stroke-linejoin="miter" stroke-miterlimit="10" stroke-dasharray="" stroke-dashoffset="0" style="mix-blend-mode: normal"><path d="M339.69959,228.44196h-199.40038c-3.51579,0 -6.37559,-2.85855 -6.37559,-6.37681v-84.13152c0,-3.51454 2.85978,-6.37559 6.37559,-6.37559h199.40161c3.51579,0 6.37559,2.86105 6.37559,6.37559v84.13152c0,3.51826 -2.86105,6.37681 -6.37681,6.37681z" fill="#fcdab3" stroke="#cdac86" stroke-width="1.5"/><text transform="translate(201.76999,162.35269) scale(0.4375,0.4375)" font-size="40" xml:space="preserve" fill="#b58453" fill-rule="nonzero" stroke="none" stroke-width="1" stroke-linecap="butt" stroke-linejoin="miter" stroke-miterlimit="10" stroke-dasharray="" stroke-dashoffset="0" font-family="Sans Serif" font-weight="normal" text-anchor="start" style="mix-blend-mode: normal"><tspan x="0" dy="0">退出游戏？</tspan></text><text transform="translate(163.11524,180.65488) scale(0.31208,0.31208)" font-size="40" xml:space="preserve" fill="#b58453" fill-rule="nonzero" stroke="none" stroke-width="1" stroke-linecap="butt" stroke-linejoin="miter" stroke-miterlimit="10" stroke-dasharray="" stroke-dashoffset="0" font-family="Sans Serif" font-weight="normal" text-anchor="start" style="mix-blend-mode: normal"><tspan x="0" dy="0">你的游戏进度将不会被保存</tspan></text><path d="M255.76558,186.09736c0,-0.5918 0.47975,-1.07155 1.07155,-1.07155c0.5918,0 1.07155,0.47975 1.07155,1.07155c0,0.5918 -0.47975,1.07155 -1.07155,1.07155c-0.5918,0 -1.07155,-0.47975 -1.07155,-1.07155z" fill="#b58453" stroke="none" stroke-width="0"/><path d="M267.905,186.12384c0,-0.5918 0.47975,-1.07155 1.07155,-1.07155c0.5918,0 1.07154,0.47975 1.07154,1.07155c0,0.5918 -0.47974,1.07155 -1.07154,1.07155c-0.5918,0 -1.07155,-0.47975 -1.07155,-1.07155z" fill="#b58453" stroke="none" stroke-width="0"/></g></g></svg>