<svg version="1.1" xmlns="http://www.w3.org/2000/svg" xmlns:xlink="http://www.w3.org/1999/xlink" width="175.24911" height="59.61454" viewBox="0,0,175.24911,59.61454"><g transform="translate(-152.37545,-155.64729)"><g data-paper-data="{&quot;isPaintingLayer&quot;:true}" fill-rule="nonzero" stroke="none" stroke-linecap="butt" stroke-linejoin="miter" stroke-miterlimit="10" stroke-dasharray="" stroke-dashoffset="0" style="mix-blend-mode: normal"><path d="M327.62456,167.2208v36.46977c0,6.38092 -5.18807,11.57126 -11.57347,11.57126h-152.10439c-6.37865,0 -11.57125,-5.19031 -11.57125,-11.57126v-36.47201c0,-6.38092 5.19261,-11.57127 11.57125,-11.57127h152.10439c6.3854,0 11.57347,5.19261 11.57347,11.57347z" fill="#fce2c4" stroke-width="0"/><path d="M165.83809,191.80249c0,-6.5114 5.27853,-11.78992 11.78993,-11.78992c6.51139,0 11.78993,5.27853 11.78993,11.78992c0,6.5114 -5.27853,11.78993 -11.78993,11.78993c-6.51139,0 -11.78993,-5.27853 -11.78993,-11.78993z" fill="#a77137" stroke-width="0"/><text transform="translate(198.01462,190.58286) scale(0.27324,0.27324)" font-size="40" xml:space="preserve" fill="#a77137" fill-rule="nonzero" stroke="none" stroke-width="1" stroke-linecap="butt" stroke-linejoin="miter" stroke-miterlimit="10" stroke-dasharray="" stroke-dashoffset="0" font-family="Sans Serif" font-weight="normal" text-anchor="start" style="mix-blend-mode: normal"><tspan x="0" dy="0">创造繁华 Ⅲ</tspan></text><text transform="translate(198.55395,202.38721) scale(0.17693,0.17693)" font-size="40" xml:space="preserve" fill="#000000" fill-rule="nonzero" stroke="none" stroke-width="1" stroke-linecap="butt" stroke-linejoin="miter" stroke-miterlimit="10" stroke-dasharray="" stroke-dashoffset="0" font-family="Sans Serif" font-weight="normal" text-anchor="start" style="mix-blend-mode: normal"><tspan x="0" dy="0">建造一栋三级房屋</tspan></text><text transform="translate(165.33995,174.92658) scale(0.26788,0.26788)" font-size="40" xml:space="preserve" fill="#000000" fill-rule="nonzero" stroke="none" stroke-width="1" stroke-linecap="butt" stroke-linejoin="miter" stroke-miterlimit="10" stroke-dasharray="" stroke-dashoffset="0" font-family="Sans Serif" font-weight="normal" text-anchor="start" style="mix-blend-mode: normal"><tspan x="0" dy="0">获得成就</tspan></text></g></g></svg>