<svg version="1.1" xmlns="http://www.w3.org/2000/svg" xmlns:xlink="http://www.w3.org/1999/xlink" width="107.51652" height="165.17952" viewBox="0,0,107.51652,165.17952"><g transform="translate(-185.96251,-55.98065)"><g data-paper-data="{&quot;isPaintingLayer&quot;:true}" fill-rule="nonzero" stroke-linejoin="miter" stroke-miterlimit="10" stroke-dasharray="" stroke-dashoffset="0" style="mix-blend-mode: normal"><text transform="translate(198.98613,120.4658) scale(0.40369,0.40369)" font-size="40" xml:space="preserve" fill-opacity="0.79216" fill="#f5f5f5" fill-rule="nonzero" stroke="none" stroke-width="1" stroke-linecap="butt" stroke-linejoin="miter" stroke-miterlimit="10" stroke-dasharray="" stroke-dashoffset="0" font-family="Sans Serif" font-weight="normal" text-anchor="start" style="mix-blend-mode: normal"><tspan x="0" dy="0">恭喜中奖者</tspan></text><text transform="translate(186.22864,79.13396) scale(0.53226,0.53226)" font-size="40" xml:space="preserve" fill="#ffffff" fill-rule="nonzero" stroke="none" stroke-width="1" stroke-linecap="butt" stroke-linejoin="miter" stroke-miterlimit="10" stroke-dasharray="" stroke-dashoffset="0" font-family="Sans Serif" font-weight="normal" text-anchor="start" style="mix-blend-mode: normal"><tspan x="0" dy="0">大富翁彩票</tspan></text><path d="M267.41046,195.22c0,7.83229 -3.8495,14.03347 -9.75404,17.80377c-5.123,3.27127 -12.11704,7.3864 -19.16203,7.3864c-5.27924,0 -12.66498,-3.05226 -16.67159,-4.90316c-7.5024,-3.46585 -9.32856,-10.75147 -9.32856,-20.28699c0,-14.62789 12.2934,-26.48613 27.4581,-26.48613c15.16469,0 27.4581,11.85824 27.4581,26.48613z" fill="#ffce91" stroke="#723700" stroke-width="1.5" stroke-linecap="butt"/><path d="M209.82209,206.18057c-1.36146,-2.46753 -0.78233,-5.39638 1.29354,-6.54174c2.07587,-1.14536 3.2962,0.83608 4.65767,3.30362c1.36147,2.46753 2.3485,5.29674 0.27264,6.4421c-2.07587,1.14536 -4.86237,-0.73645 -6.22384,-3.20398z" fill="#ffce91" stroke="#723700" stroke-width="1.5" stroke-linecap="butt"/><path d="M263.03925,201.33249c0.77288,-2.71017 3.24774,-4.38009 5.5277,-3.72988c2.27997,0.65021 3.50171,3.37432 2.72883,6.08449c-0.77288,2.71017 -3.24774,4.38009 -5.52772,3.72988c-2.27997,-0.65021 -3.50171,-3.37432 -2.72883,-6.08449z" fill="#ffce91" stroke="#723700" stroke-width="1.5" stroke-linecap="butt"/><path d="M274.52091,187.29197c0.92208,4.19975 2.77141,6.4728 2.77141,6.4728c0,0 -9.73511,1.40042 -9.87657,2.15114c-2.36258,12.53752 -8.3684,11.64426 -8.3684,11.64426c0,0 3.59093,-23.87167 -0.14955,-22.77845c-1.70926,0.49955 -13.59311,-4.99956 -13.59311,-4.99956c0,0 -3.00317,9.55811 -5.9277,10.12914c-3.29624,0.6436 -11.27816,-11.4489 -11.27816,-11.4489c0,0 -1.27023,5.51672 -4.56196,8.56754c-2.29489,2.12695 -6.72885,1.24177 -8.57079,2.00833c-0.74736,0.31103 -0.27148,3.77987 0.71211,8.10889c0.33649,1.48095 1.44757,3.06256 1.61981,4.65286c0.41252,3.80891 1.12293,6.92536 1.12293,6.92536c0,0 -4.80282,-6.93009 -6.48741,-6.50423c-1.41599,0.35795 -3.506,2.96383 -5.21547,3.67918c-3.27536,1.37061 -6.01908,0.99329 -6.01908,0.99329c0,0 2.28767,-4.05167 2.91988,-8.13016c0.27836,-1.79571 0.26396,-4.882 0.57933,-7.10122c1.1828,-8.32335 2.77062,-17.15037 2.77062,-17.15037c0,0 -5.00172,-0.89847 -6.7775,-1.98452c-1.63167,-0.99791 -4.12944,-4.28971 -4.12944,-4.28971c0,0 4.80341,-0.39321 9.85979,-2.92885c6.73852,-3.37918 11.76469,-8.01028 16.68515,-9.71718c0.68453,-0.23747 -1.49272,-2.06165 -1.49272,-2.06165c0,0 16.70568,-3.21299 21.05551,-3.21299c10.12862,0 20.47271,6.05684 25.96215,14.78844c5.02657,7.99533 5.59015,18.54738 6.38916,22.18654z" fill="#e08989" stroke="#723700" stroke-width="1.5" stroke-linecap="butt"/><path d="M214.85324,204.34226c0,0 -3.11184,-3.96008 -3.62074,-5.55373c-0.51694,-1.61885 -0.26715,-6.51487 -0.26715,-6.51487" fill="none" stroke="#723700" stroke-width="1.5" stroke-linecap="round"/><path d="M216.39224,199.19891c0,0 -1.5477,-5.32196 -1.44233,-7.12692c0.03667,-0.62808 0.87533,-11.42148 0.87533,-11.42148" fill="none" stroke="#723700" stroke-width="1.5" stroke-linecap="round"/><path d="M259.68523,178.58509l0.72901,13.0406" fill="none" stroke="#723700" stroke-width="1.5" stroke-linecap="round"/><path d="M268.55446,187.94028c0,0 -0.41471,5.97718 -0.62682,6.74985c-0.4938,1.79885 -1.2361,4.22532 -1.2361,4.22532" fill="none" stroke="#723700" stroke-width="1.5" stroke-linecap="round"/><path d="M213.57975,175.94298c-0.18501,1.19829 -1.03853,2.09697 -1.90643,2.00729c-0.86789,-0.08969 -1.42149,-1.13381 -1.23649,-2.3321c0.18501,-1.19829 1.03853,-2.09697 1.90643,-2.00727c0.86789,0.08969 1.42149,1.13381 1.23649,2.33209z" fill="#e0a1a1" stroke="none" stroke-width="0" stroke-linecap="butt"/><path d="M216.22014,173.02665c0,0.67101 -0.32637,1.21496 -0.72897,1.21496c-0.4026,0 -0.72897,-0.54395 -0.72897,-1.21496c0,-0.67101 0.32637,-1.21496 0.72897,-1.21496c0.4026,0 0.72897,0.54395 0.72897,1.21496z" fill="#e0a1a1" stroke="none" stroke-width="0" stroke-linecap="butt"/><path d="M260.12072,167.59983c0,0.71573 -0.47143,1.29596 -1.05297,1.29596c-0.58154,0 -1.05297,-0.58022 -1.05297,-1.29596c0,-0.71573 0.47143,-1.29596 1.05297,-1.29596c0.58154,0 1.05297,0.58022 1.05297,1.29596z" fill="#e0a1a1" stroke="#825738" stroke-width="0" stroke-linecap="butt"/><path d="M274.0181,158.0817c1.29874,1.87873 3.80052,3.77784 5.14958,5.74124c1.92039,2.7949 4.77048,5.38751 4.77048,5.38751c0,0 -3.26495,1.75733 -5.34984,1.85044c-1.63929,0.07321 -1.85685,18.82898 -1.85685,18.82898c0,0 -4.23192,-6.18197 -6.70003,-14.11665c-1.83742,-5.90712 -1.05397,-11.00564 -6.29353,-15.0188c-8.89278,-5.43654 -4.92337,-5.62749 -12.1918,-8.75441c-2.92489,-1.2583 1.94812,-7.48013 6.47888,-8.26214c5.90844,-1.01979 8.53851,-0.24943 12.09502,4.45718c0,0 0.0658,4.34292 3.89808,9.88662z" fill="#e06767" stroke="#723700" stroke-width="1.5" stroke-linecap="butt"/><path d="M278.2641,174.72766l-0.324,-7.45177" fill="none" stroke="#723700" stroke-width="1.5" stroke-linecap="round"/><path d="M218.73107,192.38509c0,0 1.87984,-1.4652 3.04114,-1.69181c1.03895,-0.20272 3.60063,0.39585 3.60063,0.39585" fill="none" stroke="#723700" stroke-width="1.5" stroke-linecap="round"/><path d="M243.04992,191.01605c0,0 2.24484,-1.13368 3.43361,-1.08614c1.0635,0.04254 3.36511,1.35802 3.36511,1.35802" fill="none" stroke="#723700" stroke-width="1.5" stroke-linecap="round"/><path d="M222.57843,204.53468v-4.61685" fill="none" stroke="#723700" stroke-width="1.5" stroke-linecap="round"/><path d="M245.24065,204.37269v-4.21187" fill="none" stroke="#723700" stroke-width="1.5" stroke-linecap="round"/><path d="M238.04894,210.35327h-6.0748" fill="none" stroke="#723700" stroke-width="1.5" stroke-linecap="round"/></g></g></svg>